<svg width="101" height="101" viewBox="0 0 101 101" fill="none" xmlns="http://www.w3.org/2000/svg">
<circle opacity="0.1" cx="50.5" cy="50.5" r="50.5" fill="#A72329"/>
<path fill-rule="evenodd" clip-rule="evenodd" d="M50.9975 26L53.9648 28.3142L57.7396 27.732L59.0971 31.1668L62.6701 32.4719L62.0645 36.1008L64.4717 38.9535L62.0645 41.8061L62.6701 45.4351L59.0971 46.7401L57.7396 50.175L53.9648 49.5928L50.9975 51.9069L48.0301 49.5928L44.2553 50.175L42.8978 46.7401L39.3249 45.4351L39.9305 41.8061L37.5233 38.9535L39.9305 36.1008L39.3249 32.4719L42.8978 31.1668L44.2553 27.732L48.0301 28.3142L50.9975 26ZM53.5056 67.1309H64.5625C65.4507 66.2819 66.4247 65.3989 67.4088 64.5014C69.4829 62.6142 71.6478 60.6445 73.8734 58.1799C76.4168 55.3612 76.6893 54.386 77.4614 51.6255C77.6078 51.1064 77.7693 50.5243 77.9812 49.8014L79.3034 45.3332L79.3186 45.2847C80.0251 43.2955 80.0806 41.9808 79.7879 41.224C79.6971 40.9911 79.581 40.8358 79.4447 40.7534C79.3387 40.6854 79.1974 40.6612 79.0511 40.6757C78.7079 40.7097 78.3194 40.9183 77.9661 41.2919L74.0399 50.2817C74.0046 50.3642 73.9541 50.4418 73.8986 50.5097C73.6665 50.9124 73.3536 51.3053 72.9499 51.6789L65.9856 59.1453C65.6072 59.5529 64.9562 59.5868 64.5373 59.223C64.1134 58.8591 64.0781 58.2333 64.4566 57.8306C65.4003 56.8215 72.7177 49.9178 72.3443 48.3702C71.88 46.4636 66.894 51.3587 66.2985 51.8633L66.2834 51.8778C63.3615 54.5364 62.1049 55.1671 59.8138 56.3169C59.3343 56.5595 58.8095 56.8215 58.1585 57.1611C57.9011 57.2969 57.6488 57.4619 57.4015 57.6414C57.1391 57.8354 56.8868 58.0344 56.6496 58.2284C55.4384 59.2084 54.8026 60.0041 54.4392 60.8822C54.0607 61.7943 53.9245 62.9052 53.7377 64.4286C53.662 65.0399 53.6065 65.6512 53.5611 66.2576C53.5359 66.5536 53.5207 66.8447 53.5056 67.1309ZM48.4894 67.1309H37.4274C36.5392 66.2819 35.5652 65.3989 34.5761 64.5014C32.502 62.6142 30.337 60.6445 28.1115 58.1799C25.568 55.3612 25.2955 54.386 24.5234 51.6255C24.3771 51.1064 24.2156 50.5243 24.0036 49.8014L22.6814 45.3332L22.6663 45.2847C21.9598 43.2955 21.9043 41.9808 22.197 41.224C22.2878 40.9911 22.4039 40.8358 22.5401 40.7534C22.6461 40.6854 22.7874 40.6612 22.9338 40.6757C23.2769 40.7097 23.6655 40.9183 24.0188 41.2919L27.945 50.2817C27.9803 50.3642 28.0307 50.4418 28.0863 50.5097C28.3184 50.9124 28.6313 51.3053 29.035 51.6789L35.9992 59.1453C36.3777 59.5529 37.0287 59.5868 37.4476 59.223C37.8715 58.8591 37.9068 58.2333 37.5283 57.8306C36.5947 56.8166 29.2772 49.913 29.6507 48.3653C30.115 46.4587 35.1009 51.3539 35.6964 51.8584L35.7116 51.873C38.6335 54.5316 39.8901 55.1623 42.1812 56.3121C42.6606 56.5547 43.1855 56.8166 43.8365 57.1562C44.0938 57.2921 44.3462 57.457 44.5934 57.6365C44.8559 57.8306 45.1082 58.0295 45.3454 58.2236C46.5565 59.2036 47.1924 59.9992 47.5557 60.8773C47.9342 61.7894 48.0705 62.9004 48.2572 64.4238C48.3329 65.035 48.3884 65.6463 48.4338 66.2528C48.4591 66.5536 48.4742 66.8447 48.4894 67.1309ZM34.8536 67.4705C34.6972 67.6451 34.6013 67.8732 34.6013 68.1206V74.0103C34.6013 74.5585 35.0656 75 35.6308 75H49.5491C50.1194 75 50.5786 74.5537 50.5786 74.0103V68.0672C50.5786 67.4365 50.5382 66.7573 50.4928 66.1266C50.4474 65.4814 50.3868 64.841 50.3111 64.2054C50.1093 62.5414 49.9579 61.3237 49.4734 60.1545C48.9738 58.9561 48.1714 57.9228 46.6827 56.7148C46.4102 56.4916 46.1326 56.2684 45.8399 56.0598C45.5321 55.8366 45.199 55.6232 44.8256 55.4243C44.22 55.1089 43.6548 54.8227 43.14 54.5607C41.0205 53.4934 39.8598 52.9112 37.1296 50.4272C37.1094 50.4078 37.0842 50.3884 37.064 50.3739L34.4297 48.1373C33.0975 46.6382 30.4581 44.8529 28.5354 46.4733C27.511 44.13 26.5017 39.0214 23.1508 38.706C22.5401 38.6478 21.9497 38.774 21.4349 39.0942C20.9454 39.3998 20.5417 39.8752 20.2894 40.5302C19.8453 41.6703 19.8554 43.4411 20.7234 45.8911L22.0355 50.3302C22.2272 50.9706 22.3938 51.5867 22.5502 52.1301C23.4081 55.2108 23.7109 56.3024 26.5723 59.4655C28.8382 61.9738 31.0587 63.992 33.1832 65.9277C33.7333 66.442 34.2884 66.9514 34.8536 67.4705ZM36.8218 69.1103C36.958 69.1394 37.0994 69.1394 37.2407 69.1103H48.5146V73.0206H36.6603V69.1103H36.8218ZM67.1413 67.4705C67.2977 67.6451 67.3936 67.8732 67.3936 68.1206V74.0103C67.3936 74.5585 66.9344 75 66.3641 75H52.4509C51.8806 75 51.4214 74.5537 51.4214 74.0103V68.0672C51.4214 68.0333 51.4214 67.9945 51.4264 67.9605C51.4416 67.325 51.4668 66.7088 51.5072 66.1266C51.5526 65.4814 51.6132 64.841 51.6889 64.2054C51.8907 62.5414 52.0421 61.3237 52.5266 60.1545C53.0262 58.9561 53.8286 57.9228 55.3173 56.7148C55.5898 56.4916 55.8674 56.2684 56.1601 56.0598C56.4679 55.8366 56.801 55.6232 57.1744 55.4243C57.78 55.1089 58.3452 54.8227 58.86 54.5607C60.9795 53.4934 62.1402 52.9112 64.8704 50.4272C64.8906 50.4078 64.9158 50.3884 64.936 50.3739L67.5703 48.1373C68.9025 46.6382 71.5419 44.8529 73.4646 46.4733C73.9642 45.3235 75.6901 40.8213 76.2856 40.1324C77.0224 39.2834 77.956 38.7885 78.8492 38.7012C79.4599 38.643 80.0503 38.7691 80.5651 39.0893C81.0546 39.395 81.4583 39.8704 81.7106 40.5253C82.1547 41.6654 82.1446 43.4362 81.2766 45.8862L79.9645 50.3253C79.7728 50.9657 79.6062 51.5819 79.4498 52.1252C78.5919 55.2059 78.2891 56.2975 75.4277 59.4607C73.1618 61.9689 70.9464 63.9871 68.8167 65.9229C68.2616 66.442 67.7065 66.9514 67.1413 67.4705ZM65.1732 69.1103C65.0369 69.1394 64.8956 69.1394 64.7543 69.1103H53.4804V73.0206H65.3346V69.1103H65.1732ZM50.9975 34.3349L52.3853 37.595L56.044 37.857L53.2482 40.1324L54.1213 43.5575L51.0025 41.6994L47.8838 43.5575L48.7568 40.1372L45.951 37.8619L49.6097 37.5999L50.9975 34.3397V34.3349ZM50.9975 31.6326C55.2012 31.6326 58.6076 34.9122 58.6076 38.9486C58.6076 42.9899 55.1962 46.2647 50.9975 46.2647C46.7937 46.2647 43.3873 42.9851 43.3873 38.9486C43.3873 34.9122 46.7937 31.6326 50.9975 31.6326Z" fill="#A72329"/>
</svg>
