<svg width="51" height="55" viewBox="0 0 51 55" fill="none" xmlns="http://www.w3.org/2000/svg">
<path d="M5.34254 3.13993L9.06483 1.17233C10.7591 0.275772 12.7217 0.0264215 14.5864 0.470824C16.451 0.915227 18.0902 2.02301 19.1979 3.58738L22.734 8.58095C23.6868 9.92615 24.1944 11.5359 24.1858 13.1843C24.1771 14.8327 23.6526 16.437 22.6858 17.7721L19.1709 22.6268C19.1295 22.688 19.0976 22.7552 19.0764 22.826C18.8064 23.8342 19.9723 26.1571 22.8431 29.4498C26.0806 33.1606 28.271 34.4485 29.0861 34.0238L34.3928 31.1885C35.8464 30.4131 37.5061 30.1119 39.1394 30.3272C40.7727 30.5425 42.2977 31.2635 43.5007 32.3891L47.9495 36.5477C49.3463 37.8535 50.2216 39.622 50.4127 41.5245C50.6038 43.427 50.0978 45.3342 48.9887 46.8917L46.5374 50.33C45.6852 51.5268 44.5561 52.4996 43.2465 53.1655C41.9369 53.8313 40.4856 54.1705 39.0165 54.154C30.2928 54.0536 21.4596 48.7776 12.4815 38.4862C3.49966 28.1881 -0.530417 18.708 0.56703 10.046C0.750701 8.5959 1.28074 7.21126 2.11235 6.00914C2.94396 4.80702 4.05033 3.8232 5.34254 3.13993ZM7.05051 6.35878C6.27513 6.76864 5.60979 7.35912 5.11073 8.08033C4.61166 8.80153 4.29353 9.63227 4.18321 10.5023C3.23688 17.9665 6.8637 26.5011 15.229 36.0911C23.5881 45.6748 31.5436 50.4252 39.0615 50.5096C39.9429 50.5192 40.8136 50.3155 41.5992 49.9157C42.3848 49.516 43.0621 48.9321 43.5732 48.2139L46.0226 44.7785C46.6201 43.9399 46.8929 42.913 46.7902 41.8884C46.6876 40.8639 46.2165 39.9115 45.4645 39.2081L41.0151 35.0471C40.3675 34.4411 39.5465 34.0529 38.6672 33.937C37.7879 33.821 36.8944 33.983 36.1118 34.4003L30.7917 37.2431C27.843 38.7892 24.3855 36.7574 20.0999 31.8416C16.4703 27.6831 14.8666 24.4784 15.5606 21.8847C15.6958 21.3797 15.9165 20.9149 16.2225 20.4902L19.7373 15.6356C20.2582 14.9166 20.5408 14.0526 20.5456 13.1648C20.5503 12.2771 20.2769 11.4101 19.7637 10.6856L16.2257 5.69491C15.6292 4.85233 14.7464 4.25567 13.7422 4.01636C12.7379 3.77706 11.6809 3.91147 10.7685 4.3945L7.05051 6.35878Z" fill="black"/>
</svg>
