<svg width="47" height="43" viewBox="0 0 47 43" fill="none" xmlns="http://www.w3.org/2000/svg">
<path d="M23.667 30.1667C27.2568 30.1667 30.167 27.2566 30.167 23.6667C30.167 20.0769 27.2568 17.1667 23.667 17.1667C20.0771 17.1667 17.167 20.0769 17.167 23.6667C17.167 27.2566 20.0771 30.1667 23.667 30.1667Z" stroke="white" stroke-width="3.25"/>
<path d="M18.8523 41H28.481C35.2431 41 38.6253 41 41.0541 39.4075C42.1024 38.721 43.005 37.8346 43.7104 36.7989C45.3333 34.4156 45.3333 31.0941 45.3333 24.4554C45.3333 17.8167 45.3333 14.4953 43.7104 12.1119C43.005 11.0762 42.1024 10.1898 41.0541 9.50326C39.4941 8.47842 37.5398 8.11226 34.5476 7.98226C33.1198 7.98226 31.8913 6.92059 31.6118 5.54476C31.3982 4.53698 30.8432 3.63384 30.0406 2.98799C29.2381 2.34214 28.2371 1.99319 27.207 2.0001H20.1263C17.9856 2.0001 16.1418 3.48427 15.7215 5.54476C15.442 6.92059 14.2135 7.98226 12.7857 7.98226C9.79566 8.11226 7.84133 8.48059 6.27916 9.50326C5.23166 10.19 4.32976 11.0764 3.625 12.1119C2 14.4953 2 17.8146 2 24.4554C2 31.0962 2 34.4134 3.62283 36.7989C4.32483 37.8302 5.22616 38.7164 6.27916 39.4075C8.70799 41 12.0902 41 18.8523 41Z" stroke="white" stroke-width="3.25"/>
<path d="M38.8337 17.1667H36.667" stroke="white" stroke-width="3.25" stroke-linecap="round"/>
</svg>
