<svg width="38" height="38" viewBox="0 0 38 38" fill="none" xmlns="http://www.w3.org/2000/svg">
<path d="M0 1.62857C0 1.19665 0.171593 0.782414 0.477031 0.476997C0.782468 0.171581 1.19673 0 1.62869 0H2.84043C4.90343 0 6.14123 1.38754 6.84699 2.67737C7.31823 3.53726 7.65916 4.53394 7.92627 5.43726L8.14343 5.42857H35.2838C37.0862 5.42857 38.3892 7.15269 37.8941 8.88766L33.9244 22.8043C33.5685 24.0526 32.8155 25.1509 31.7795 25.933C30.7435 26.715 29.4809 27.1382 28.1828 27.1385H15.2662C13.9578 27.1386 12.6856 26.709 11.6452 25.9157C10.6047 25.1225 9.85355 24.0095 9.50718 22.7479L7.85678 16.7287L5.12059 7.50446L5.11841 7.48709C4.77965 6.25589 4.4626 5.10286 3.98919 4.24297C3.53533 3.40697 3.17051 3.25714 2.8426 3.25714H1.62869C1.19673 3.25714 0.782468 3.08556 0.477031 2.78015C0.171593 2.47473 0 2.0605 0 1.62857ZM11.0164 15.9383L12.6473 21.8858C12.973 23.0627 14.0436 23.8814 15.2662 23.8814H28.1828C28.7728 23.8814 29.3468 23.6891 29.8178 23.3337C30.2887 22.9784 30.6311 22.4792 30.793 21.9119L34.565 8.68571H8.87091L10.986 15.8232L11.0164 15.9383ZM18.4584 33.6571C18.4584 34.8089 18.0009 35.9136 17.1863 36.728C16.3718 37.5424 15.2671 38 14.1153 38C12.9634 38 11.8587 37.5424 11.0442 36.728C10.2297 35.9136 9.77211 34.8089 9.77211 33.6571C9.77211 32.5053 10.2297 31.4007 11.0442 30.5863C11.8587 29.7718 12.9634 29.3143 14.1153 29.3143C15.2671 29.3143 16.3718 29.7718 17.1863 30.5863C18.0009 31.4007 18.4584 32.5053 18.4584 33.6571ZM15.2011 33.6571C15.2011 33.3692 15.0867 33.093 14.883 32.8894C14.6794 32.6858 14.4032 32.5714 14.1153 32.5714C13.8273 32.5714 13.5511 32.6858 13.3475 32.8894C13.1439 33.093 13.0295 33.3692 13.0295 33.6571C13.0295 33.9451 13.1439 34.2212 13.3475 34.4249C13.5511 34.6285 13.8273 34.7429 14.1153 34.7429C14.4032 34.7429 14.6794 34.6285 14.883 34.4249C15.0867 34.2212 15.2011 33.9451 15.2011 33.6571ZM33.6595 33.6571C33.6595 34.8089 33.2019 35.9136 32.3874 36.728C31.5729 37.5424 30.4682 38 29.3163 38C28.1645 38 27.0598 37.5424 26.2453 36.728C25.4308 35.9136 24.9732 34.8089 24.9732 33.6571C24.9732 32.5053 25.4308 31.4007 26.2453 30.5863C27.0598 29.7718 28.1645 29.3143 29.3163 29.3143C30.4682 29.3143 31.5729 29.7718 32.3874 30.5863C33.2019 31.4007 33.6595 32.5053 33.6595 33.6571ZM30.4021 33.6571C30.4021 33.3692 30.2877 33.093 30.0841 32.8894C29.8805 32.6858 29.6043 32.5714 29.3163 32.5714C29.0284 32.5714 28.7522 32.6858 28.5486 32.8894C28.3449 33.093 28.2305 33.3692 28.2305 33.6571C28.2305 33.9451 28.3449 34.2212 28.5486 34.4249C28.7522 34.6285 29.0284 34.7429 29.3163 34.7429C29.6043 34.7429 29.8805 34.6285 30.0841 34.4249C30.2877 34.2212 30.4021 33.9451 30.4021 33.6571Z" fill="white"/>
</svg>
