<svg width="44" height="31" viewBox="0 0 44 31" fill="none" xmlns="http://www.w3.org/2000/svg">
<path d="M44 28.7968C44 30.0146 43.0188 31 41.811 31H24.189C23.6084 31 23.0517 30.7679 22.6411 30.3547C22.2306 29.9415 22 29.3811 22 28.7968C22 28.2125 22.2306 27.6521 22.6411 27.2389C23.0517 26.8257 23.6084 26.5936 24.189 26.5936H41.811C43.021 26.5936 44 27.5789 44 28.7968ZM44 15.5C44 16.7179 43.0188 17.7032 41.811 17.7032H2.189C1.60844 17.7032 1.05166 17.4711 0.641143 17.0579C0.230626 16.6447 0 16.0843 0 15.5C0 14.9157 0.230626 14.3553 0.641143 13.9421C1.05166 13.5289 1.60844 13.2968 2.189 13.2968H41.811C43.021 13.2968 44 14.2844 44 15.5ZM41.811 4.40643C42.3916 4.40643 42.9483 4.17431 43.3589 3.76112C43.7694 3.34794 44 2.78754 44 2.20321C44 1.61889 43.7694 1.05849 43.3589 0.645306C42.9483 0.232123 42.3916 1.74144e-08 41.811 0H15.389C15.1015 -8.62271e-09 14.8169 0.0569878 14.5513 0.16771C14.2857 0.278432 14.0444 0.440719 13.8411 0.645306C13.6379 0.849894 13.4766 1.09277 13.3666 1.36008C13.2566 1.62739 13.2 1.91388 13.2 2.20321C13.2 2.49254 13.2566 2.77904 13.3666 3.04635C13.4766 3.31365 13.6379 3.55653 13.8411 3.76112C14.0444 3.96571 14.2857 4.128 14.5513 4.23872C14.8169 4.34944 15.1015 4.40643 15.389 4.40643H41.811Z" fill="white"/>
</svg>
