<svg width="50" height="41" viewBox="0 0 50 41" fill="none" xmlns="http://www.w3.org/2000/svg">
<path d="M48 20.4C48 11.7267 48 7.3889 45.3044 4.6956C42.6088 2.0023 38.2733 2 29.6 2H20.4C11.7267 2 7.3889 2 4.6956 4.6956C2.0023 7.3912 2 11.7267 2 20.4C2 29.0733 2 33.4111 4.6956 36.1044C7.3912 38.7977 11.7267 38.8 20.4 38.8H29.6C38.2733 38.8 42.6111 38.8 45.3044 36.1044C46.8086 34.6025 47.4733 32.59 47.7654 29.6M20.4 29.6H11.2M29.6 29.6H26.15M2 15.8H13.5M48 15.8H22.7" stroke="white" stroke-width="3.45" stroke-linecap="round"/>
</svg>
