<svg width="101" height="101" viewBox="0 0 101 101" fill="none" xmlns="http://www.w3.org/2000/svg">
<circle opacity="0.1" cx="50.5" cy="50.5" r="50.5" fill="#A72329"/>
<g clip-path="url(#clip0_13_292)">
<path fill-rule="evenodd" clip-rule="evenodd" d="M76.1106 47.9396V70.3287C76.1106 70.6957 75.8008 71 75.4271 71H69.5332C69.1595 71 68.8496 70.698 68.8496 70.3287V53.6749C70.0527 52.5192 71.5315 51.1211 73.0403 49.6948L75.4211 47.4417C75.638 47.6244 75.8684 47.7908 76.1106 47.9396ZM44.3179 41.4043L48.8558 37.5048C52.3041 40.8228 55.6474 44.8336 59.0609 48.1461L71.505 35.8656L67.4972 31.9289L80 31L79.297 43.5143L75.4525 39.7372C72.6925 42.4836 66.1653 48.5361 63.4018 51.2508C59.9111 54.6801 58.2439 54.742 54.7518 51.3118L48.8558 44.8664L47.711 45.8636C47.5341 45.4874 47.3399 45.1193 47.1291 44.7604C46.6907 44.0144 46.1875 43.322 45.6298 42.6939L45.6374 42.6874C45.2415 42.2408 44.8 41.8114 44.3179 41.4043ZM36.3072 41.5366C35.0087 41.4488 33.7053 41.6138 32.4719 42.0221L32.4457 42.0316C31.2203 42.441 30.0883 43.0818 29.1132 43.9177C28.1307 44.7603 27.3269 45.7846 26.7475 46.9323C26.1695 48.0772 25.8271 49.3228 25.7401 50.5979C25.6748 51.5384 25.7486 52.4832 25.9592 53.403C26.1426 54.2024 26.4285 54.9758 26.8101 55.7046L22.148 60.0885C22.0567 60.1738 22.0035 60.2911 22.0002 60.4148C21.9969 60.5385 22.0437 60.6584 22.1303 60.7483L24.7696 63.4598C24.8564 63.5489 24.9755 63.6006 25.101 63.6036C25.2265 63.6065 25.3481 63.5604 25.439 63.4755L29.9254 59.2216C30.6069 59.6951 31.3468 60.0816 32.1274 60.3719C33.0378 60.7094 33.9937 60.9134 34.9646 60.9775C36.2625 61.0651 37.5652 60.9003 38.7982 60.4926C40.0343 60.0835 41.1762 59.4392 42.1588 58.5965C43.1409 57.7542 43.9446 56.7301 44.524 55.5828C45.0879 54.4688 45.4414 53.2305 45.5323 51.916C45.623 50.6014 45.4428 49.3275 45.0381 48.1487L45.0284 48.123C44.6109 46.9199 43.9582 45.8085 43.1068 44.8512C42.2506 43.8858 41.2086 43.0959 40.0407 42.5271C38.9067 41.9732 37.6455 41.6257 36.3072 41.5366ZM34.6863 55.0549C34.1637 55.019 33.4982 54.8925 32.9858 54.7577V53.1791C33.666 53.2332 35.3408 53.3735 35.9583 53.2363C36.4216 53.1329 36.3703 52.4143 36.0651 52.3243C35.6978 52.2121 34.9288 52.3468 34.3104 52.1709C33.9948 52.081 33.7285 51.9455 33.5114 51.7644C33.2897 51.5786 33.1238 51.3325 33.0148 51.0267C32.9084 50.7292 32.8549 50.3748 32.8549 49.9639V49.4229C32.8549 48.2662 33.5042 47.5773 34.6863 47.3832V46.554H36.3703V47.3509C36.8927 47.3919 37.5427 47.523 38.061 47.6464V49.2275C37.3543 49.1664 36.0138 49.0422 35.3434 49.1618C35.2885 49.1711 35.2351 49.1873 35.1844 49.2099C34.9091 49.3381 34.9201 50.0776 35.2573 50.1652C35.4779 50.222 35.9302 50.192 36.1714 50.192C36.4154 50.192 36.6417 50.2154 36.8495 50.2616C37.0591 50.3085 37.2488 50.3793 37.4169 50.4737C38.1222 50.8685 38.4333 51.5648 38.4333 52.3338V52.8753C38.4333 53.1967 38.4039 53.4835 38.3462 53.7343C38.1159 54.7292 37.3303 54.9438 36.3703 55.047V55.9412H34.6863V55.0549ZM30.4306 45.4003C31.2099 44.7328 32.1198 44.2136 33.1091 43.8866C34.0635 43.5706 35.0987 43.4302 36.1714 43.5015C37.2439 43.5729 38.2509 43.8496 39.1522 44.2888C40.0883 44.7447 40.9179 45.3795 41.5979 46.1446L41.622 46.1696C42.2952 46.9342 42.8108 47.8199 43.1401 48.7775L43.1487 48.8008C43.4638 49.7304 43.6038 50.7391 43.5317 51.7832C43.4591 52.8357 43.1777 53.8244 42.7312 54.7091C42.2672 55.6242 41.6249 56.4409 40.8405 57.1128C40.0616 57.7807 39.1517 58.3 38.1624 58.6273C37.2091 58.9427 36.1732 59.0833 35.1004 59.0119C34.0292 58.9406 33.0234 58.6642 32.1219 58.2249L32.0984 58.2143C30.2317 57.2986 28.7987 55.6777 28.1322 53.7367L28.1236 53.7135C27.8085 52.7836 27.6685 51.7751 27.7406 50.7306C27.8133 49.6773 28.0949 48.6886 28.5421 47.8031C29.0048 46.8881 29.6465 46.0716 30.4306 45.4003ZM40.5405 63.3633V70.3287C40.5405 70.6967 40.2317 71 39.857 71H33.9631C33.5884 71 33.2796 70.698 33.2796 70.3287V64.087C33.7507 64.1693 34.2386 64.2284 34.7418 64.262C35.5957 64.3185 36.4621 64.2884 37.3273 64.1789C38.1887 64.0713 39.0371 63.8804 39.8603 63.6092C40.0891 63.5335 40.3158 63.4518 40.5405 63.3633ZM52.3971 56.5995V70.3287C52.3971 70.6964 52.0876 71 51.7134 71H45.8197C45.4454 71 45.1359 70.698 45.1359 70.3287V60.35C46.1036 59.3752 46.9103 58.2578 47.5267 57.0383C47.914 56.2745 48.2235 55.475 48.4507 54.6514C48.5974 54.117 48.7088 53.5739 48.7841 53.0254L50.3576 54.7446C50.423 54.8161 50.4904 54.8857 50.5596 54.9536C51.1875 55.5704 51.7962 56.1188 52.3971 56.5995ZM64.2536 57.6218V70.3287C64.2536 70.6964 63.9444 71 63.5702 71H57.6761C57.302 71 56.9927 70.698 56.9927 70.3287V58.9484C57.6808 59.0985 58.3936 59.169 59.1449 59.16C61.0235 59.1376 62.647 58.6237 64.2536 57.6218Z" fill="#A72329"/>
</g>
<defs>
<clipPath id="clip0_13_292">
<rect width="58" height="40" fill="white" transform="translate(22 31)"/>
</clipPath>
</defs>
</svg>
