<svg width="101" height="101" viewBox="0 0 101 101" fill="none" xmlns="http://www.w3.org/2000/svg">
<circle opacity="0.1" cx="50.5" cy="50.5" r="50.5" fill="#A72329"/>
<g clip-path="url(#clip0_19_583)">
<path fill-rule="evenodd" clip-rule="evenodd" d="M46.4007 67.1021C51.5846 72.1789 58.87 73.7153 66.1754 70.5408L72.3044 72.9796L70.2627 68.0736C77.0736 62.5131 75.8454 54.8716 70.8369 49.6607C70.5024 51.6441 69.8447 53.5565 68.891 55.3187C67.4859 57.8766 65.5689 60.1048 63.2644 61.8587C60.8998 63.6796 58.2355 65.056 55.3968 65.9234C52.4801 66.8088 49.4425 67.2096 46.4007 67.1103V67.1021ZM55.8035 43.6856C56.3304 43.6856 56.8454 43.8448 57.2834 44.1432C57.7215 44.4415 58.0629 44.8656 58.2645 45.3617C58.4661 45.8579 58.5189 46.4038 58.4161 46.9305C58.3133 47.4572 58.0596 47.941 57.6871 48.3207C57.3146 48.7005 56.8399 48.9591 56.3232 49.0638C55.8065 49.1686 55.2709 49.1148 54.7842 48.9093C54.2974 48.7038 53.8814 48.3558 53.5887 47.9093C53.296 47.4628 53.1398 46.9378 53.1398 46.4008C53.1398 45.6807 53.4205 44.9901 53.92 44.4809C54.4195 43.9717 55.0971 43.6856 55.8035 43.6856ZM38.1982 43.6856C38.725 43.6856 39.24 43.8448 39.6781 44.1432C40.1161 44.4415 40.4575 44.8656 40.6591 45.3617C40.8607 45.8579 40.9135 46.4038 40.8107 46.9305C40.7079 47.4572 40.4542 47.941 40.0817 48.3207C39.7092 48.7005 39.2345 48.9591 38.7178 49.0638C38.2011 49.1686 37.6655 49.1148 37.1788 48.9093C36.6921 48.7038 36.276 48.3558 35.9833 47.9093C35.6907 47.4628 35.5344 46.9378 35.5344 46.4008C35.5344 45.6807 35.8151 44.9901 36.3146 44.4809C36.8142 43.9717 37.4917 43.6856 38.1982 43.6856ZM47.0028 43.6856C47.5299 43.6848 48.0453 43.8434 48.4838 44.1412C48.9224 44.4391 49.2644 44.8628 49.4667 45.3589C49.6689 45.855 49.7222 46.401 49.6199 46.928C49.5175 47.455 49.2642 47.9392 48.8918 48.3193C48.5194 48.6994 48.0448 48.9584 47.528 49.0635C47.0112 49.1686 46.4754 49.1151 45.9884 48.9097C45.5014 48.7043 45.0852 48.3563 44.7923 47.9097C44.4994 47.4631 44.3431 46.938 44.3431 46.4008C44.3431 45.6807 44.6237 44.9901 45.1233 44.4809C45.6228 43.9717 46.3004 43.6856 47.0068 43.6856H47.0028ZM47.5332 29C53.2834 29.1788 58.4394 31.2599 62.1279 34.4832C65.8803 37.7634 68.1094 42.2061 67.9897 47.0837C67.8462 51.9613 65.334 56.2739 61.3902 59.3224C57.5023 62.3505 52.2386 64.1187 46.4884 63.9561C44.9235 63.9108 43.3659 63.7203 41.8349 63.387C40.4731 63.0882 39.139 62.6707 37.8473 62.1392L28.8512 65.7323L31.8578 58.4485C30.0971 56.9305 28.6484 55.0725 27.5951 52.9815C26.4833 50.7797 25.9347 48.3275 26 45.8521C26.1436 40.9745 28.6558 36.6619 32.5995 33.6093C36.4875 30.6258 41.7631 28.8374 47.5332 29ZM47.4774 31.1136C42.1858 30.9591 37.3727 32.5647 33.8516 35.2839C30.3864 37.9422 28.1932 41.7142 28.0696 45.909C28.0131 48.035 28.482 50.1415 29.4334 52.0344C30.4772 54.0936 31.9481 55.8967 33.744 57.3185L34.374 57.8062L32.6514 61.9441L37.8672 59.8548L38.266 60.0256C39.5586 60.5848 40.9005 61.0176 42.2735 61.3181C43.6784 61.6255 45.108 61.801 46.5443 61.8425C51.8159 62.001 56.629 60.3954 60.1501 57.6721C63.6073 55.0138 65.8085 51.2459 65.9361 47.0471C66.0557 42.8523 64.0819 38.9787 60.7921 36.105C57.4425 33.1703 52.741 31.2762 47.4814 31.1136H47.4774Z" fill="#A72329"/>
</g>
<defs>
<clipPath id="clip0_19_583">
<rect width="49" height="44" fill="white" transform="translate(26 29)"/>
</clipPath>
</defs>
</svg>
