<svg width="657" height="494" viewBox="0 0 657 494" fill="none" xmlns="http://www.w3.org/2000/svg">
<path d="M590.369 460.135H546.908V460.47H590.369V460.135Z" fill="#EBEBEB"/>
<path d="M434.634 463.779H423.231V464.114H434.634V463.779Z" fill="#EBEBEB"/>
<path d="M545.596 447.704H520.414V448.039H545.596V447.704Z" fill="#EBEBEB"/>
<path d="M125.514 449.954H68.8392V450.289H125.514V449.954Z" fill="#EBEBEB"/>
<path d="M145.512 449.954H137.206V450.289H145.512V449.954Z" fill="#EBEBEB"/>
<path d="M295.447 455.607H172.518V455.942H295.447V455.607Z" fill="#EBEBEB"/>
<path d="M312.834 378.835H59.4437C57.4565 378.835 55.5507 378.03 54.1455 376.595C52.7403 375.161 51.9509 373.215 51.9509 371.186V7.58207C51.9682 5.56504 52.7653 3.63664 54.1686 2.21662C55.5719 0.796603 57.4678 -7.7329e-05 59.4437 5.62968e-09H312.834C313.818 5.62969e-09 314.792 0.197847 315.701 0.582247C316.61 0.966648 317.436 1.53007 318.132 2.24035C318.828 2.95063 319.38 3.79386 319.756 4.72189C320.133 5.64991 320.327 6.64456 320.327 7.64905V371.186C320.327 372.191 320.133 373.186 319.756 374.114C319.38 375.042 318.828 375.885 318.132 376.595C317.436 377.305 316.61 377.869 315.701 378.253C314.792 378.638 313.818 378.835 312.834 378.835ZM59.4437 0.267919C57.5446 0.27146 55.7242 1.04319 54.3813 2.41409C53.0384 3.785 52.2825 5.64332 52.279 7.58207V371.186C52.2825 373.125 53.0384 374.983 54.3813 376.354C55.7242 377.725 57.5446 378.497 59.4437 378.501H312.834C314.733 378.497 316.553 377.725 317.896 376.354C319.239 374.983 319.995 373.125 319.999 371.186V7.58207C319.995 5.64332 319.239 3.785 317.896 2.41409C316.553 1.04319 314.733 0.27146 312.834 0.267919H59.4437Z" fill="#EBEBEB"/>
<path d="M596.668 378.835H343.278C341.29 378.835 339.384 378.03 337.979 376.595C336.574 375.161 335.785 373.215 335.785 371.186V7.58207C335.802 5.56504 336.599 3.63664 338.002 2.21662C339.406 0.796603 341.302 -7.7329e-05 343.278 5.62968e-09H596.668C598.655 5.6297e-09 600.561 0.80588 601.966 2.24035C603.371 3.67483 604.161 5.62039 604.161 7.64905V371.186C604.161 373.215 603.371 375.161 601.966 376.595C600.561 378.03 598.655 378.835 596.668 378.835ZM343.278 0.267919C341.378 0.27146 339.558 1.04319 338.215 2.41409C336.872 3.785 336.116 5.64332 336.113 7.58207V371.186C336.116 373.125 336.872 374.983 338.215 376.354C339.558 377.725 341.378 378.497 343.278 378.501H596.668C598.567 378.497 600.387 377.725 601.73 376.354C603.073 374.983 603.829 373.125 603.832 371.186V7.58207C603.829 5.64332 603.073 3.785 601.73 2.41409C600.387 1.04319 598.567 0.27146 596.668 0.267919H343.278Z" fill="#EBEBEB"/>
<path d="M656.111 438.581H0V438.916H656.111V438.581Z" fill="#EBEBEB"/>
<path d="M387.998 430.731H494.918V329.029H387.998V430.731Z" fill="#E6E6E6"/>
<path d="M477.912 438.809H491.559V433.946H477.912V438.809Z" fill="#E0E0E0"/>
<path d="M170.904 429.753H388.011V329.03H170.904V429.753Z" fill="#E6E6E6"/>
<path d="M134.634 438.809H167.965V321.541H134.634V438.809Z" fill="#E6E6E6"/>
<path d="M283.296 425.051H377.422V337.054H283.296V425.051Z" fill="#F5F5F5"/>
<path d="M390.623 425.051H484.748V337.054H390.623V425.051Z" fill="#F5F5F5"/>
<path d="M174.946 425.051H269.071V337.054H174.946V425.051Z" fill="#F5F5F5"/>
<path d="M167.807 321.501V438.769H175.077V435.982H491.532V438.769H498.815V321.501H167.807ZM491.532 374.602H391.528V332.526H491.532V374.602ZM391.528 425.051V380.912H491.532V425.051H391.528ZM283.296 332.526H384.245V425.051H283.296V332.526ZM175.077 380.912H276.026V425.051H175.077V380.912ZM175.077 332.526H276.026V374.642H175.077V332.526Z" fill="#F0F0F0"/>
<path d="M429.805 348.681H445.552C445.955 348.683 446.354 348.604 446.726 348.448C447.099 348.292 447.437 348.062 447.723 347.772C448.008 347.482 448.234 347.137 448.389 346.758C448.543 346.378 448.623 345.971 448.623 345.56C448.623 345.149 448.543 344.742 448.389 344.363C448.234 343.983 448.008 343.638 447.723 343.348C447.437 343.058 447.099 342.829 446.726 342.673C446.354 342.517 445.955 342.437 445.552 342.439H429.805C428.995 342.439 428.217 342.768 427.644 343.353C427.07 343.939 426.748 344.732 426.748 345.56C426.748 346.388 427.07 347.182 427.644 347.767C428.217 348.353 428.995 348.681 429.805 348.681Z" fill="#E6E6E6"/>
<path d="M296.838 387.436V371.361C296.838 370.533 296.516 369.739 295.942 369.153C295.369 368.568 294.591 368.239 293.78 368.239C293.378 368.238 292.979 368.317 292.606 368.473C292.234 368.629 291.895 368.859 291.61 369.149C291.325 369.439 291.098 369.783 290.944 370.163C290.789 370.543 290.71 370.949 290.71 371.361V387.436C290.71 387.847 290.789 388.254 290.944 388.633C291.098 389.013 291.325 389.357 291.61 389.647C291.895 389.937 292.234 390.167 292.606 390.323C292.979 390.479 293.378 390.559 293.78 390.557C294.591 390.557 295.369 390.228 295.942 389.643C296.516 389.057 296.838 388.263 296.838 387.436Z" fill="#E6E6E6"/>
<path d="M429.805 393.839H445.552C445.955 393.841 446.354 393.761 446.726 393.605C447.099 393.449 447.437 393.219 447.723 392.929C448.008 392.639 448.234 392.295 448.389 391.915C448.543 391.536 448.623 391.129 448.623 390.718C448.623 389.886 448.299 389.089 447.723 388.501C447.148 387.913 446.367 387.583 445.552 387.583H429.805C429.403 387.583 429.004 387.664 428.632 387.822C428.261 387.98 427.923 388.211 427.639 388.502C427.355 388.793 427.13 389.139 426.977 389.519C426.824 389.899 426.746 390.307 426.748 390.718C426.748 391.545 427.07 392.339 427.644 392.925C428.217 393.51 428.995 393.839 429.805 393.839Z" fill="#E6E6E6"/>
<path d="M214.142 348.681H229.888C230.699 348.681 231.477 348.353 232.05 347.767C232.624 347.182 232.946 346.388 232.946 345.56C232.946 344.732 232.624 343.938 232.05 343.353C231.477 342.768 230.699 342.439 229.888 342.439H214.142C213.331 342.439 212.553 342.768 211.98 343.353C211.406 343.938 211.084 344.732 211.084 345.56C211.084 346.388 211.406 347.182 211.98 347.767C212.553 348.353 213.331 348.681 214.142 348.681Z" fill="#E6E6E6"/>
<path d="M214.142 393.839H229.888C230.699 393.839 231.477 393.51 232.05 392.925C232.624 392.339 232.946 391.545 232.946 390.718C232.948 390.307 232.87 389.899 232.717 389.519C232.564 389.139 232.339 388.793 232.055 388.502C231.771 388.211 231.433 387.98 231.061 387.822C230.69 387.664 230.291 387.583 229.888 387.583H214.142C213.739 387.583 213.34 387.664 212.969 387.822C212.597 387.98 212.259 388.211 211.975 388.502C211.691 388.793 211.466 389.139 211.313 389.519C211.16 389.899 211.082 390.307 211.084 390.718C211.084 391.545 211.406 392.339 211.98 392.925C212.553 393.51 213.331 393.839 214.142 393.839Z" fill="#E6E6E6"/>
<path d="M93.0891 436.491H124.215L124.215 139.451H93.0891L93.0891 436.491Z" fill="#E0E0E0"/>
<path d="M68.8392 136.853V439.09H93.076V136.853H68.8392Z" fill="#E6E6E6"/>
<path d="M123.047 136.853V439.09H147.297V136.853H123.047Z" fill="#E6E6E6"/>
<path d="M90.176 136.853V439.09H151.404V136.853H90.176ZM145.657 142.064V196.25H95.9891V142.064H145.657ZM95.9891 315.071V260.872H145.657V315.071H95.9891ZM145.591 320.282V374.482H95.9891V320.282H145.591ZM95.9891 255.661V201.474H145.657V255.661H95.9891ZM95.9891 433.826V379.693H145.657V433.879L95.9891 433.826Z" fill="#F5F5F5"/>
<path d="M120.449 154.696H113.219V196.745H120.449V154.696Z" fill="#EBEBEB"/>
<path d="M113.219 154.696H107.628V196.745H113.219V154.696Z" fill="#E6E6E6"/>
<path d="M131.629 155.7H120.449V196.759H131.629V155.7Z" fill="#E0E0E0"/>
<path d="M137.219 155.7H131.629V196.759H137.219V155.7Z" fill="#EBEBEB"/>
<path d="M103.889 155.7H96.4353V196.759H103.889V155.7Z" fill="#EBEBEB"/>
<path d="M107.629 155.7H103.902V196.759H107.629V155.7Z" fill="#FAFAFA"/>
<path d="M113.219 255.647H120.449V213.597H113.219V255.647Z" fill="#E6E6E6"/>
<path d="M120.449 255.647H126.039V213.597H120.449V255.647Z" fill="#EBEBEB"/>
<path d="M102.038 255.634H113.219V214.575H102.038V255.634Z" fill="#EBEBEB"/>
<path d="M96.4484 255.634H102.038V214.575H96.4484V255.634Z" fill="#E0E0E0"/>
<path d="M129.779 255.634H137.232V214.575H129.779V255.634Z" fill="#EBEBEB"/>
<path d="M126.039 255.634H129.766V214.575H126.039V255.634Z" fill="#F0F0F0"/>
<path d="M113.219 315.566H120.449V273.517H113.219V315.566Z" fill="#E6E6E6"/>
<path d="M120.449 315.566H126.039V273.517H120.449V315.566Z" fill="#EBEBEB"/>
<path d="M102.038 315.566H113.219V274.508H102.038V315.566Z" fill="#EBEBEB"/>
<path d="M96.4484 315.566H102.038V274.508H96.4484V315.566Z" fill="#E0E0E0"/>
<path d="M129.779 315.566H137.232V274.508H129.779V315.566Z" fill="#EBEBEB"/>
<path d="M126.039 315.566H129.766V274.508H126.039V315.566Z" fill="#F0F0F0"/>
<path d="M120.449 333.45H113.219V375.5H120.449V333.45Z" fill="#EBEBEB"/>
<path d="M113.219 333.45H107.628V375.5H113.219V333.45Z" fill="#E6E6E6"/>
<path d="M131.629 333.45H120.449V374.509H131.629V333.45Z" fill="#E0E0E0"/>
<path d="M137.219 333.45H131.629V374.509H137.219V333.45Z" fill="#EBEBEB"/>
<path d="M103.889 333.45H96.4353V374.509H103.889V333.45Z" fill="#EBEBEB"/>
<path d="M107.629 333.45H103.902V374.509H107.629V333.45Z" fill="#FAFAFA"/>
<path d="M113.219 435.419H120.449V393.37H113.219V435.419Z" fill="#E6E6E6"/>
<path d="M120.449 435.419H126.039V393.37H120.449V435.419Z" fill="#EBEBEB"/>
<path d="M102.038 434.428H113.219V393.37H102.038V434.428Z" fill="#EBEBEB"/>
<path d="M96.4484 434.428H102.038V393.37H96.4484V434.428Z" fill="#E0E0E0"/>
<path d="M129.779 434.428H137.232V393.37H129.779V434.428Z" fill="#FAFAFA"/>
<path d="M126.039 434.428H129.766V393.37H126.039V434.428Z" fill="#F0F0F0"/>
<path d="M536.542 376.29C536.411 376.438 537.119 377.429 534.258 377C527.238 375.915 514.982 372.981 511.583 365.627C506.715 355.085 521.805 358.929 521.281 353.571C520.756 348.212 503.592 349.11 501.768 341.206C499.944 333.303 511.596 337.067 511.741 333.169C511.885 329.271 498.474 331.709 495.81 323.189C493.147 314.669 503.29 320.938 502.135 317.389C500.98 313.839 489.617 297.804 495.784 295.955C501.952 294.106 512.371 310.557 516.386 312.888C520.401 315.218 523.971 301.782 528.76 307.449C533.55 313.115 525.952 332.968 532.054 336.826C536.607 339.693 535.321 331.789 541.318 333.263C549.48 335.272 546.738 364.649 536.542 376.29Z" fill="#EBEBEB"/>
<path d="M514.837 333.236C516.909 333.383 518.952 333.811 520.913 334.509C519.623 332.506 518.179 330.611 516.596 328.842C516.499 328.74 516.445 328.603 516.445 328.46C516.445 328.318 516.499 328.181 516.596 328.079C516.694 327.98 516.826 327.925 516.963 327.925C517.101 327.925 517.233 327.98 517.331 328.079C520.731 331.966 523.64 336.273 525.991 340.898C527.206 332.202 526.02 323.332 522.566 315.285C522.527 315.19 522.525 315.083 522.56 314.987C522.596 314.89 522.667 314.811 522.758 314.766C522.849 314.722 522.954 314.714 523.05 314.746C523.146 314.778 523.227 314.846 523.275 314.937C523.275 315.071 529.285 327.757 526.582 342.024C527.304 343.43 528.025 344.917 528.747 346.525C531.262 352.273 533.252 358.246 534.691 364.368C537.282 359.36 538.702 353.807 538.838 348.146C538.838 348.093 538.848 348.042 538.868 347.994C538.888 347.946 538.917 347.902 538.954 347.866C538.991 347.83 539.034 347.801 539.082 347.783C539.13 347.764 539.181 347.755 539.232 347.757C539.283 347.757 539.333 347.768 539.38 347.788C539.427 347.808 539.47 347.838 539.506 347.876C539.541 347.913 539.569 347.958 539.587 348.006C539.605 348.055 539.614 348.107 539.612 348.159C539.492 354.242 537.892 360.199 534.954 365.493C537.61 377.509 538.495 389.862 537.578 402.144C537.565 402.285 537.499 402.416 537.394 402.508C537.289 402.6 537.153 402.648 537.014 402.64H536.948C536.825 402.614 536.714 402.542 536.639 402.438C536.564 402.335 536.529 402.206 536.542 402.077C537.772 386.495 535.938 370.818 531.148 355.969C529.006 353.428 526.074 351.716 522.842 351.119C522.74 351.103 522.648 351.046 522.586 350.961C522.525 350.875 522.499 350.769 522.514 350.664C522.522 350.613 522.54 350.563 522.567 350.519C522.594 350.475 522.629 350.437 522.67 350.407C522.712 350.377 522.759 350.356 522.809 350.345C522.859 350.334 522.91 350.333 522.96 350.343C525.803 350.836 528.441 352.173 530.545 354.187C528.29 347.713 525.309 341.528 521.661 335.754C519.464 334.808 517.126 334.247 514.746 334.093C514.685 334.088 514.626 334.069 514.574 334.038C514.522 334.006 514.477 333.963 514.443 333.912C514.409 333.86 514.387 333.802 514.378 333.741C514.369 333.679 514.373 333.617 514.391 333.557C514.399 333.506 514.417 333.457 514.444 333.413C514.471 333.369 514.506 333.33 514.548 333.3C514.589 333.27 514.636 333.249 514.686 333.238C514.736 333.227 514.787 333.226 514.837 333.236Z" fill="#F5F5F5"/>
<path d="M545.557 380.363C551.396 380.47 561.369 374.937 565.24 369.552C569.111 364.167 558.036 367.476 559.178 363.176C560.319 358.876 574.111 362.051 576.656 355.902C579.202 349.753 569.255 351.173 569.649 348.025C570.043 344.877 580.357 345.52 583.664 338.983C586.97 332.446 577.903 336.103 579.333 333.397C580.764 330.691 592.114 319.278 587.364 316.906C582.614 314.535 571.946 326.404 568.376 327.73C564.807 329.057 563.98 320.858 559.335 324.783C554.69 328.708 558.167 345.855 552.695 348.119C548.627 349.807 550.359 341.943 545.675 343.926C537.526 347.395 543.182 380.309 545.557 380.363Z" fill="#E0E0E0"/>
<g opacity="0.3">
<path d="M545.557 380.363C551.396 380.47 561.369 374.937 565.24 369.552C569.111 364.167 558.036 367.476 559.178 363.176C560.319 358.876 574.111 362.051 576.656 355.902C579.202 349.753 569.255 351.173 569.649 348.025C570.043 344.877 580.357 345.52 583.664 338.983C586.97 332.446 577.903 336.103 579.333 333.397C580.764 330.691 592.114 319.278 587.364 316.906C582.614 314.535 571.946 326.404 568.376 327.73C564.807 329.057 563.98 320.858 559.335 324.783C554.69 328.708 558.167 345.855 552.695 348.119C548.627 349.807 550.359 341.943 545.675 343.926C537.526 347.395 543.182 380.309 545.557 380.363Z" fill="#EBEBEB"/>
</g>
<path d="M547.486 373.196C547.44 373.185 547.397 373.164 547.36 373.134C547.324 373.104 547.295 373.065 547.276 373.021C545.034 368.024 544.129 362.51 544.651 357.04C544.655 356.987 544.668 356.936 544.691 356.888C544.714 356.841 544.746 356.798 544.785 356.763C544.824 356.729 544.869 356.702 544.918 356.685C544.968 356.668 545.019 356.661 545.071 356.665C545.174 356.675 545.27 356.725 545.338 356.805C545.406 356.885 545.442 356.988 545.439 357.094C544.99 362.283 545.802 367.505 547.801 372.298C550.212 365.638 553.189 359.206 556.697 353.075C556.242 344.902 558.14 336.771 562.156 329.686C562.218 329.613 562.304 329.565 562.397 329.551C562.491 329.538 562.586 329.559 562.666 329.611C562.745 329.663 562.804 329.742 562.831 329.835C562.858 329.927 562.851 330.026 562.812 330.114C559.093 336.714 557.223 344.231 557.406 351.842C561.605 344.487 566.616 337.646 572.339 331.454C572.437 331.356 572.569 331.301 572.707 331.301C572.844 331.301 572.976 331.356 573.074 331.454C573.123 331.503 573.162 331.561 573.189 331.625C573.216 331.69 573.23 331.759 573.23 331.829C573.23 331.899 573.216 331.968 573.189 332.033C573.162 332.097 573.123 332.155 573.074 332.204C568.833 336.759 565.003 341.695 561.631 346.953C565.163 345.6 568.909 344.924 572.68 344.957C572.784 344.964 572.88 345.011 572.951 345.088C573.022 345.165 573.061 345.267 573.061 345.372C573.057 345.477 573.014 345.575 572.941 345.648C572.868 345.72 572.769 345.761 572.667 345.761C568.616 345.718 564.598 346.515 560.857 348.105C558.551 351.712 556.427 355.436 554.493 359.264C556.064 358.153 557.853 357.403 559.735 357.065C561.618 356.728 563.549 356.81 565.397 357.308C565.447 357.32 565.494 357.343 565.534 357.374C565.575 357.405 565.61 357.445 565.635 357.49C565.661 357.535 565.678 357.584 565.684 357.636C565.691 357.688 565.687 357.74 565.673 357.79C565.663 357.842 565.642 357.891 565.612 357.933C565.581 357.976 565.543 358.012 565.498 358.039C565.454 358.065 565.404 358.082 565.353 358.087C565.302 358.093 565.25 358.088 565.201 358.072C563.199 357.541 561.099 357.523 559.089 358.021C557.079 358.519 555.22 359.517 553.679 360.925C546.915 374.517 543.055 389.42 542.355 404.649C542.348 404.786 542.29 404.916 542.192 405.011C542.094 405.105 541.965 405.158 541.83 405.158C541.762 405.156 541.694 405.141 541.632 405.112C541.57 405.083 541.514 405.042 541.467 404.991C541.421 404.94 541.385 404.88 541.361 404.814C541.338 404.748 541.328 404.679 541.331 404.609C541.799 393.878 543.874 383.284 547.486 373.196Z" fill="#F5F5F5"/>
<path d="M529.115 438.621C523.538 427.904 519.929 412.446 519.929 405.667C519.955 402.893 520.578 400.159 521.755 397.659C522.932 395.158 524.634 392.953 526.739 391.2H555.306C557.41 392.954 559.11 395.16 560.285 397.66C561.46 400.16 562.081 402.894 562.104 405.667C562.104 412.446 558.443 427.918 552.918 438.621H529.115Z" fill="#F0F0F0"/>
<path d="M480.274 230.597C480.274 230.249 480.274 229.9 480.274 229.565L482.255 228.44C482.098 227.485 481.852 226.547 481.52 225.64H479.25C478.968 225.012 478.629 224.411 478.24 223.845L479.408 221.876C478.808 221.117 478.131 220.425 477.387 219.813L475.458 221.005C474.904 220.608 474.315 220.262 473.699 219.974V217.656C472.811 217.317 471.892 217.066 470.957 216.906L469.855 218.929C469.526 218.929 469.185 218.929 468.844 218.929C468.503 218.929 468.162 218.929 467.834 218.929L466.731 216.906C465.796 217.066 464.877 217.317 463.989 217.656V219.974C463.373 220.262 462.785 220.608 462.231 221.005L460.288 219.813C459.552 220.429 458.879 221.12 458.281 221.876L459.449 223.845C459.054 224.408 458.716 225.009 458.438 225.64H456.168C455.83 226.545 455.584 227.484 455.433 228.44L457.415 229.565C457.415 229.9 457.415 230.249 457.415 230.597C457.415 230.945 457.415 231.293 457.415 231.628L455.433 232.754C455.584 233.71 455.83 234.648 456.168 235.553H458.438C458.716 236.185 459.054 236.786 459.449 237.348L458.281 239.331C458.883 240.079 459.555 240.766 460.288 241.381L462.231 240.188C462.782 240.591 463.371 240.937 463.989 241.22V243.537C464.876 243.883 465.795 244.134 466.731 244.287L467.834 242.265C468.162 242.265 468.503 242.265 468.844 242.265C469.185 242.265 469.526 242.265 469.855 242.265L470.957 244.287C471.894 244.134 472.813 243.883 473.699 243.537V241.22C474.318 240.937 474.907 240.591 475.458 240.188L477.387 241.381C478.127 240.77 478.804 240.083 479.408 239.331L478.24 237.348C478.629 236.783 478.968 236.182 479.25 235.553H481.52C481.852 234.646 482.098 233.709 482.255 232.754L480.274 231.628C480.274 231.293 480.274 230.945 480.274 230.597ZM468.844 238.527C467.308 238.527 465.806 238.062 464.528 237.191C463.251 236.319 462.255 235.081 461.667 233.632C461.079 232.183 460.925 230.588 461.225 229.05C461.525 227.511 462.265 226.098 463.351 224.989C464.438 223.88 465.822 223.125 467.329 222.819C468.836 222.513 470.397 222.67 471.817 223.27C473.236 223.87 474.45 224.887 475.303 226.191C476.157 227.495 476.612 229.028 476.612 230.597C476.613 231.643 476.41 232.678 476.016 233.644C475.623 234.61 475.046 235.486 474.319 236.223C473.592 236.961 472.729 237.544 471.781 237.939C470.832 238.334 469.816 238.534 468.792 238.527H468.844Z" fill="#F0F0F0"/>
<path d="M465.34 259.224C465.34 258.701 465.34 258.192 465.275 257.683L468.227 255.995C468.015 254.576 467.654 253.184 467.151 251.843L463.779 251.91C463.346 250.974 462.837 250.078 462.257 249.23L464.002 246.27C463.107 245.14 462.095 244.111 460.984 243.202L458.084 244.971C457.256 244.379 456.377 243.863 455.459 243.43V239.974C454.133 239.454 452.756 239.076 451.352 238.849L449.712 241.876C448.704 241.769 447.688 241.769 446.681 241.876L445.04 238.849C443.637 239.076 442.26 239.454 440.933 239.974V243.43C440.015 243.863 439.137 244.379 438.309 244.971L435.396 243.202C434.292 244.115 433.284 245.143 432.391 246.27L434.136 249.23C433.555 250.078 433.046 250.974 432.614 251.91L429.228 251.843C428.72 253.198 428.351 254.603 428.126 256.036L431.091 257.723C431.091 258.232 431.026 258.742 431.026 259.264C431.026 259.786 431.026 260.295 431.091 260.804L428.126 262.492C428.351 263.925 428.72 265.33 429.228 266.685L432.614 266.618C433.043 267.555 433.553 268.452 434.136 269.297L432.391 272.258C433.284 273.385 434.292 274.413 435.396 275.326L438.309 273.557C439.134 274.154 440.013 274.67 440.933 275.098V278.554C442.26 279.074 443.637 279.452 445.04 279.679L446.681 276.652C447.688 276.759 448.704 276.759 449.712 276.652L451.352 279.679C452.756 279.452 454.133 279.074 455.459 278.554V275.098C456.38 274.67 457.258 274.154 458.084 273.557L460.984 275.326C462.095 274.417 463.107 273.388 464.002 272.258L462.231 269.257C462.814 268.411 463.323 267.515 463.753 266.578L467.125 266.645C467.639 265.292 468.009 263.886 468.227 262.452L465.275 260.764C465.314 260.255 465.34 259.746 465.34 259.224ZM448.282 266.109C446.948 266.109 445.644 265.705 444.534 264.949C443.425 264.192 442.561 263.117 442.05 261.859C441.54 260.601 441.406 259.216 441.666 257.88C441.927 256.545 442.569 255.318 443.512 254.355C444.456 253.392 445.657 252.736 446.966 252.471C448.274 252.205 449.63 252.341 450.863 252.862C452.095 253.384 453.149 254.266 453.89 255.398C454.631 256.531 455.026 257.862 455.026 259.224C455.026 260.132 454.85 261.032 454.508 261.871C454.166 262.71 453.664 263.471 453.032 264.112C452.4 264.752 451.651 265.258 450.826 265.601C450.002 265.943 449.119 266.116 448.229 266.109H448.282Z" fill="#F0F0F0"/>
<path d="M199.668 206.122H184.21C182.889 206.122 181.581 206.388 180.36 206.904C179.14 207.421 178.031 208.178 177.098 209.132C176.164 210.087 175.424 211.219 174.92 212.466C174.415 213.712 174.156 215.048 174.158 216.397V232.164C174.158 234.886 175.217 237.498 177.101 239.424C178.986 241.351 181.543 242.435 184.21 242.438H199.668C202.335 242.435 204.892 241.351 206.776 239.424C208.661 237.498 209.719 234.886 209.719 232.164V216.397C209.721 215.048 209.462 213.712 208.958 212.466C208.454 211.219 207.714 210.087 206.78 209.132C205.846 208.178 204.738 207.421 203.517 206.904C202.297 206.388 200.989 206.122 199.668 206.122ZM191.939 235.593C191.939 235.593 183.58 226.296 183.58 221.581C183.58 219.318 184.461 217.147 186.028 215.547C187.596 213.947 189.722 213.048 191.939 213.048C194.156 213.048 196.282 213.947 197.849 215.547C199.417 217.147 200.298 219.318 200.298 221.581C200.298 226.256 191.939 235.553 191.939 235.553V235.593Z" fill="#F0F0F0"/>
<path d="M191.939 217.656C191.183 217.656 190.444 217.885 189.816 218.314C189.188 218.743 188.698 219.353 188.41 220.066C188.121 220.779 188.046 221.563 188.195 222.32C188.343 223.076 188.708 223.771 189.243 224.316C189.779 224.86 190.46 225.231 191.202 225.379C191.944 225.528 192.712 225.449 193.409 225.152C194.107 224.855 194.702 224.353 195.12 223.71C195.538 223.068 195.76 222.313 195.757 221.541C195.757 221.03 195.659 220.524 195.466 220.051C195.274 219.579 194.993 219.15 194.638 218.789C194.283 218.428 193.862 218.143 193.399 217.948C192.936 217.754 192.44 217.655 191.939 217.656Z" fill="#F0F0F0"/>
<path d="M511.767 88.4131H495.456C494.237 88.4113 493.029 88.655 491.902 89.1302C490.775 89.6053 489.75 90.3027 488.887 91.1823C488.025 92.0619 487.34 93.1066 486.873 94.2565C486.406 95.4065 486.165 96.6391 486.165 97.884V114.548C486.165 115.793 486.406 117.026 486.873 118.176C487.34 119.326 488.025 120.371 488.887 121.25C489.75 122.13 490.775 122.827 491.902 123.302C493.029 123.777 494.237 124.021 495.456 124.019H511.767C512.986 124.021 514.193 123.777 515.319 123.302C516.446 122.827 517.469 122.129 518.331 121.249C519.193 120.37 519.876 119.325 520.342 118.175C520.807 117.025 521.046 115.793 521.044 114.548V97.7902C521.024 95.2936 520.037 92.9066 518.299 91.1499C516.561 89.3933 514.213 88.4095 511.767 88.4131ZM513.945 100.59C513.518 101.143 513.019 101.634 512.462 102.05C512.439 102.059 512.42 102.076 512.408 102.098C512.396 102.12 512.392 102.146 512.397 102.171C512.415 102.793 512.38 103.416 512.292 104.033C512.156 105.325 511.82 106.586 511.295 107.77C510.754 108.975 510.027 110.083 509.142 111.052C507.626 112.685 505.657 113.806 503.5 114.267C502.741 114.439 501.968 114.537 501.19 114.562C498.877 114.616 496.597 113.983 494.629 112.74H494.524C496.695 112.967 498.87 112.36 500.626 111.039C499.765 111.018 498.931 110.726 498.238 110.203C497.546 109.681 497.028 108.953 496.755 108.118C497.339 108.245 497.943 108.245 498.527 108.118C497.97 107.999 497.444 107.765 496.979 107.431C496.514 107.097 496.121 106.67 495.823 106.176C495.413 105.51 495.194 104.739 495.194 103.952C495.748 104.256 496.362 104.43 496.991 104.461C496.137 103.851 495.534 102.94 495.299 101.903C495.043 100.874 495.189 99.7835 495.705 98.8619C496.758 100.156 498.062 101.215 499.534 101.971C501.006 102.727 502.615 103.164 504.261 103.256C504.255 103.097 504.229 102.939 504.182 102.787C504.047 101.828 504.247 100.851 504.747 100.027C505.05 99.531 505.457 99.1084 505.937 98.7891C506.418 98.4697 506.961 98.2614 507.528 98.1787C508.173 98.0632 508.836 98.109 509.46 98.3119C510.084 98.5149 510.65 98.869 511.111 99.3441C511.139 99.3776 511.177 99.4018 511.219 99.4137C511.261 99.4256 511.306 99.4247 511.347 99.4111C512.18 99.2292 512.982 98.9175 513.722 98.4868C513.425 99.3789 512.849 100.146 512.082 100.67C512.871 100.576 513.641 100.359 514.365 100.027L513.945 100.59Z" fill="#F0F0F0"/>
<path d="M169.788 77.4819H152.323C146.837 77.4819 142.389 82.0221 142.389 87.6226V105.453C142.389 111.053 146.837 115.593 152.323 115.593H169.788C175.275 115.593 179.722 111.053 179.722 105.453V87.6226C179.722 82.0221 175.275 77.4819 169.788 77.4819Z" fill="#F0F0F0"/>
<path d="M165.235 90.4758V95.8341C165.235 96.3619 165.133 96.8845 164.935 97.3721C164.738 97.8596 164.448 98.3027 164.082 98.6758C163.717 99.049 163.283 99.345 162.805 99.547C162.327 99.749 161.815 99.8529 161.298 99.8529H156.273L150.538 105.707V99.8529C149.494 99.8529 148.493 99.4295 147.755 98.6758C147.016 97.9222 146.602 96.9 146.602 95.8341V90.4758C146.602 89.41 147.016 88.3878 147.755 87.6341C148.493 86.8804 149.494 86.457 150.538 86.457H161.298C162.343 86.457 163.344 86.8804 164.082 87.6341C164.82 88.3878 165.235 89.41 165.235 90.4758Z" fill="white"/>
<path d="M175.51 98.5801V102.706C175.51 103.527 175.19 104.314 174.622 104.894C174.053 105.474 173.283 105.8 172.479 105.8V110.301L168.069 105.827H164.212C163.408 105.827 162.637 105.501 162.068 104.921C161.5 104.341 161.18 103.553 161.18 102.733V98.6069C161.179 98.1994 161.256 97.7955 161.407 97.4186C161.559 97.0416 161.782 96.6989 162.063 96.4101C162.345 96.1213 162.68 95.8922 163.049 95.7358C163.417 95.5795 163.812 95.499 164.212 95.499H172.479C173.28 95.499 174.049 95.8232 174.617 96.4006C175.185 96.9781 175.506 97.7617 175.51 98.5801Z" fill="white"/>
<path d="M161.075 90.8108H151.339C151.22 90.8108 151.107 90.7628 151.023 90.6774C150.94 90.592 150.893 90.4762 150.893 90.3554C150.893 90.2346 150.94 90.1187 151.023 90.0333C151.107 89.9479 151.22 89.8999 151.339 89.8999H161.075C161.194 89.8999 161.307 89.9479 161.391 90.0333C161.475 90.1187 161.522 90.2346 161.522 90.3554C161.522 90.4762 161.475 90.592 161.391 90.6774C161.307 90.7628 161.194 90.8108 161.075 90.8108Z" fill="#EBEBEB"/>
<path d="M161.075 93.1282H151.339C151.22 93.1282 151.107 93.0802 151.023 92.9948C150.94 92.9094 150.893 92.7935 150.893 92.6728C150.893 92.552 150.94 92.4361 151.023 92.3507C151.107 92.2653 151.22 92.2173 151.339 92.2173H161.075C161.194 92.2173 161.307 92.2653 161.391 92.3507C161.475 92.4361 161.522 92.552 161.522 92.6728C161.522 92.7935 161.475 92.9094 161.391 92.9948C161.307 93.0802 161.194 93.1282 161.075 93.1282Z" fill="#EBEBEB"/>
<path d="M158.359 95.4456H151.339C151.22 95.4456 151.107 95.3976 151.023 95.3122C150.94 95.2268 150.893 95.1109 150.893 94.9901C150.893 94.8693 150.94 94.7535 151.023 94.6681C151.107 94.5827 151.22 94.5347 151.339 94.5347H158.359C158.477 94.5347 158.591 94.5827 158.675 94.6681C158.758 94.7535 158.805 94.8693 158.805 94.9901C158.805 95.1109 158.758 95.2268 158.675 95.3122C158.591 95.3976 158.477 95.4456 158.359 95.4456Z" fill="#EBEBEB"/>
<path d="M328.056 493.92C468.572 493.92 582.483 487.13 582.483 478.755C582.483 470.381 468.572 463.591 328.056 463.591C187.54 463.591 73.6288 470.381 73.6288 478.755C73.6288 487.13 187.54 493.92 328.056 493.92Z" fill="#F5F5F5"/>
<path d="M388.287 161.541H386.975V147.167C386.971 144.399 385.893 141.746 383.978 139.787C382.062 137.829 379.464 136.725 376.752 136.718H350.836C347.774 136.715 344.839 135.471 342.674 133.261C340.51 131.051 339.292 128.055 339.288 124.93V113.865H340.601V124.957C340.604 127.727 341.684 130.382 343.602 132.341C345.521 134.3 348.122 135.402 350.836 135.405H376.752C379.813 135.409 382.746 136.652 384.909 138.863C387.072 141.073 388.287 144.07 388.287 147.194V161.541Z" fill="black"/>
<path d="M397.604 161.822H380.545C378.89 161.822 377.304 162.492 376.133 163.685C374.962 164.878 374.302 166.496 374.298 168.185V185.6C374.302 187.289 374.962 188.907 376.133 190.1C377.304 191.293 378.89 191.963 380.545 191.963H397.604C399.258 191.963 400.845 191.293 402.016 190.1C403.187 188.907 403.846 187.289 403.85 185.6V168.185C403.846 166.496 403.187 164.878 402.016 163.685C400.845 162.492 399.258 161.822 397.604 161.822Z" fill="#A72329"/>
<g opacity="0.4">
<path d="M397.604 161.822H380.545C378.89 161.822 377.304 162.492 376.133 163.685C374.962 164.878 374.302 166.496 374.298 168.185V185.6C374.302 187.289 374.962 188.907 376.133 190.1C377.304 191.293 378.89 191.963 380.545 191.963H397.604C399.258 191.963 400.845 191.293 402.016 190.1C403.187 188.907 403.846 187.289 403.85 185.6V168.185C403.846 166.496 403.187 164.878 402.016 163.685C400.845 162.492 399.258 161.822 397.604 161.822Z" fill="white"/>
</g>
<path d="M388.943 164.662C386.622 164.659 384.352 165.36 382.42 166.675C380.489 167.99 378.984 169.86 378.094 172.049C377.204 174.238 376.971 176.647 377.423 178.971C377.876 181.295 378.993 183.431 380.635 185.106C382.276 186.782 384.367 187.923 386.644 188.384C388.921 188.846 391.281 188.608 393.425 187.7C395.569 186.792 397.401 185.255 398.689 183.283C399.977 181.312 400.664 178.994 400.661 176.625C400.654 173.454 399.417 170.416 397.221 168.174C395.025 165.932 392.049 164.669 388.943 164.662ZM387.08 166.002C385.939 167.162 385.014 168.523 384.35 170.02H380.637C382.23 167.911 384.537 166.483 387.106 166.015L387.08 166.002ZM379.836 171.146H383.851C383.271 172.682 382.922 174.299 382.815 175.941V176.223H378.419C378.478 174.442 378.965 172.703 379.836 171.159V171.146ZM380.072 182.465C379.111 180.946 378.538 179.205 378.406 177.402H382.841C383.011 179.15 383.454 180.86 384.153 182.465H380.072ZM380.938 183.644H384.704C385.423 185.029 386.384 186.269 387.539 187.301C384.974 186.958 382.624 185.661 380.938 183.657V183.644ZM388.365 186.471C387.447 185.662 386.663 184.708 386.043 183.644H388.418L388.365 186.471ZM388.365 182.452H385.413C384.663 180.859 384.188 179.146 384.009 177.388H388.418L388.365 182.452ZM388.365 176.209H383.97C384.046 174.462 384.428 172.742 385.098 171.132H388.418L388.365 176.209ZM388.365 169.953H385.636C386.311 168.6 387.238 167.395 388.365 166.404V169.953ZM399.506 176.209H395.097V175.928C394.996 174.284 394.647 172.667 394.061 171.132H398.076C398.964 172.684 399.456 174.439 399.506 176.236V176.209ZM397.249 169.953H393.549C392.875 168.458 391.947 167.098 390.806 165.935C393.372 166.419 395.669 167.861 397.249 169.98V169.953ZM389.52 166.417C390.65 167.4 391.578 168.602 392.25 169.953H389.52V166.417ZM389.52 171.132H392.788C393.461 172.742 393.847 174.461 393.929 176.209H389.52V171.132ZM389.52 177.388H393.877C393.704 179.147 393.229 180.861 392.473 182.452H389.52V177.388ZM389.52 186.457V183.657H391.843C391.23 184.727 390.445 185.682 389.52 186.484V186.457ZM390.347 187.288C391.502 186.255 392.463 185.016 393.181 183.631H396.947C395.269 185.649 392.917 186.961 390.347 187.315V187.288ZM397.813 182.452H393.746C394.445 180.846 394.888 179.137 395.058 177.388H399.493C399.366 179.203 398.788 180.955 397.813 182.479V182.452Z" fill="white"/>
<path d="M441.235 139.317H439.923V124.943C439.923 122.176 438.846 119.522 436.929 117.565C435.012 115.607 432.412 114.508 429.701 114.508H367.855V113.168H429.701C432.759 113.172 435.69 114.414 437.853 116.621C440.015 118.829 441.231 121.822 441.235 124.943V139.317Z" fill="black"/>
<path d="M445.473 128.895H428.415C426.76 128.895 425.173 129.565 424.002 130.758C422.831 131.951 422.172 133.569 422.168 135.258V152.673C422.172 154.362 422.831 155.98 424.002 157.173C425.173 158.366 426.76 159.036 428.415 159.036H445.473C447.128 159.036 448.714 158.366 449.885 157.173C451.056 155.98 451.716 154.362 451.72 152.673V135.298C451.723 134.459 451.564 133.627 451.252 132.85C450.939 132.073 450.48 131.367 449.899 130.772C449.319 130.177 448.629 129.705 447.87 129.383C447.11 129.061 446.296 128.895 445.473 128.895Z" fill="#A72329"/>
<g opacity="0.4">
<path d="M445.473 128.895H428.415C426.76 128.895 425.173 129.565 424.002 130.758C422.831 131.951 422.172 133.569 422.168 135.258V152.673C422.172 154.362 422.831 155.98 424.002 157.173C425.173 158.366 426.76 159.036 428.415 159.036H445.473C447.128 159.036 448.714 158.366 449.885 157.173C451.056 155.98 451.716 154.362 451.72 152.673V135.298C451.723 134.459 451.564 133.627 451.252 132.85C450.939 132.073 450.48 131.367 449.899 130.772C449.319 130.177 448.629 129.705 447.87 129.383C447.11 129.061 446.296 128.895 445.473 128.895Z" fill="white"/>
</g>
<path opacity="0.9" d="M438.939 135.647C437.976 134.664 436.76 133.981 435.431 133.678C434.103 133.376 432.717 133.466 431.437 133.938C430.157 134.41 429.035 135.245 428.202 136.344C427.37 137.444 426.861 138.762 426.736 140.146C426.612 141.53 426.875 142.921 427.497 144.158C428.119 145.394 429.073 146.424 430.247 147.127C431.421 147.829 432.767 148.176 434.128 148.127C435.488 148.077 436.806 147.632 437.928 146.846C437.982 147.181 438.138 147.491 438.374 147.73L442.823 152.271C442.972 152.423 443.149 152.544 443.344 152.626C443.538 152.708 443.747 152.751 443.958 152.751C444.169 152.751 444.377 152.708 444.572 152.626C444.767 152.544 444.944 152.423 445.093 152.271C445.242 152.119 445.36 151.938 445.441 151.739C445.522 151.54 445.563 151.327 445.563 151.112C445.563 150.897 445.522 150.684 445.441 150.485C445.36 150.286 445.242 150.106 445.093 149.953L440.644 145.412C440.407 145.168 440.099 145.009 439.765 144.957C440.714 143.55 441.15 141.85 440.999 140.149C440.848 138.449 440.119 136.856 438.939 135.647ZM437.416 144.434C436.714 145.153 435.819 145.643 434.843 145.842C433.868 146.041 432.857 145.94 431.938 145.552C431.019 145.164 430.233 144.506 429.68 143.662C429.128 142.818 428.833 141.826 428.833 140.811C428.833 139.795 429.128 138.803 429.68 137.959C430.233 137.115 431.019 136.457 431.938 136.069C432.857 135.681 433.868 135.581 434.843 135.78C435.819 135.978 436.714 136.468 437.416 137.187C437.883 137.662 438.254 138.227 438.507 138.849C438.76 139.471 438.89 140.137 438.89 140.811C438.89 141.484 438.76 142.151 438.507 142.772C438.254 143.394 437.883 143.959 437.416 144.434Z" fill="white"/>
<path d="M445.539 90.3418H366.386V91.6814H445.539V90.3418Z" fill="black"/>
<path d="M458.058 67.3545H441.064C440.245 67.3545 439.433 67.5195 438.676 67.8401C437.919 68.1607 437.231 68.6306 436.652 69.2229C436.073 69.8152 435.614 70.5182 435.302 71.2918C434.99 72.0653 434.83 72.8942 434.831 73.7309V91.092C434.83 91.9287 434.99 92.7576 435.302 93.5311C435.614 94.3047 436.073 95.0077 436.652 95.6C437.231 96.1923 437.919 96.6622 438.676 96.9828C439.433 97.3034 440.245 97.4684 441.064 97.4684H458.058C459.714 97.4684 461.303 96.7966 462.474 95.6008C463.646 94.405 464.304 92.7831 464.304 91.092V73.6773C464.29 71.9955 463.626 70.3874 462.456 69.2031C461.286 68.0189 459.705 67.3544 458.058 67.3545Z" fill="#A72329"/>
<g opacity="0.4">
<path d="M458.058 67.3545H441.064C440.245 67.3545 439.433 67.5195 438.676 67.8401C437.919 68.1607 437.231 68.6306 436.652 69.2229C436.073 69.8152 435.614 70.5182 435.302 71.2918C434.99 72.0653 434.83 72.8942 434.831 73.7309V91.092C434.83 91.9287 434.99 92.7576 435.302 93.5311C435.614 94.3047 436.073 95.0077 436.652 95.6C437.231 96.1923 437.919 96.6622 438.676 96.9828C439.433 97.3034 440.245 97.4684 441.064 97.4684H458.058C459.714 97.4684 461.303 96.7966 462.474 95.6008C463.646 94.405 464.304 92.7831 464.304 91.092V73.6773C464.29 71.9955 463.626 70.3874 462.456 69.2031C461.286 68.0189 459.705 67.3544 458.058 67.3545Z" fill="white"/>
</g>
<g opacity="0.5">
<path d="M445.421 91.0115C445.421 91.4593 445.291 91.897 445.047 92.2693C444.804 92.6416 444.457 92.9317 444.052 93.1031C443.647 93.2744 443.201 93.3193 442.771 93.2319C442.34 93.1446 441.945 92.9289 441.635 92.6123C441.325 92.2957 441.114 91.8923 441.028 91.4532C440.943 91.014 440.987 90.5588 441.154 90.1451C441.322 89.7315 441.607 89.3779 441.971 89.1291C442.336 88.8804 442.765 88.7476 443.203 88.7476C443.495 88.7458 443.784 88.8032 444.054 88.9163C444.324 89.0294 444.569 89.1961 444.775 89.4067C444.982 89.6173 445.145 89.8676 445.256 90.143C445.367 90.4185 445.423 90.7137 445.421 91.0115Z" fill="white"/>
<path d="M454.029 91.0115C454.029 91.4593 453.899 91.897 453.655 92.2693C453.412 92.6416 453.065 92.9317 452.66 93.1031C452.255 93.2744 451.809 93.3193 451.379 93.2319C450.949 93.1446 450.553 92.9289 450.243 92.6123C449.933 92.2957 449.722 91.8923 449.636 91.4532C449.551 91.014 449.595 90.5588 449.763 90.1451C449.93 89.7315 450.215 89.3779 450.579 89.1291C450.944 88.8804 451.373 88.7476 451.811 88.7476C452.103 88.7458 452.392 88.8032 452.662 88.9163C452.932 89.0294 453.177 89.1961 453.383 89.4067C453.59 89.6173 453.753 89.8676 453.864 90.143C453.975 90.4185 454.031 90.7137 454.029 91.0115Z" fill="white"/>
</g>
<path d="M453.662 87.5957H440.776C440.65 87.5934 440.527 87.5509 440.426 87.474C440.325 87.3971 440.25 87.2897 440.211 87.1671L437.508 78.0177C437.48 77.9274 437.474 77.8316 437.49 77.7383C437.506 77.645 437.544 77.5571 437.6 77.4818C437.655 77.407 437.726 77.3462 437.808 77.3044C437.89 77.2625 437.981 77.2407 438.072 77.2407H456.365C456.458 77.2407 456.551 77.2624 456.635 77.3042C456.719 77.3459 456.793 77.4067 456.85 77.4818C456.904 77.5585 456.94 77.6464 456.956 77.7391C456.972 77.8318 456.967 77.927 456.942 78.0177L454.226 87.1671C454.189 87.2908 454.115 87.3993 454.013 87.4765C453.912 87.5537 453.788 87.5955 453.662 87.5957ZM441.222 86.3901H453.229L455.578 78.4463H438.86L441.222 86.3901Z" fill="white"/>
<path d="M456.365 78.4464H456.207C456.132 78.4248 456.062 78.3882 456.001 78.3387C455.939 78.2892 455.888 78.2278 455.851 78.158C455.813 78.0883 455.789 78.0115 455.78 77.9322C455.772 77.853 455.779 77.7728 455.801 77.6962L456.837 74.0124C456.974 73.5301 457.26 73.106 457.653 72.8041C458.046 72.5021 458.524 72.3385 459.016 72.3379H461.063C461.219 72.3379 461.369 72.4014 461.48 72.5145C461.591 72.6275 461.653 72.7808 461.653 72.9407C461.653 73.1006 461.591 73.2539 461.48 73.367C461.369 73.48 461.219 73.5435 461.063 73.5435H459.016C458.781 73.5457 458.553 73.6251 458.367 73.7699C458.18 73.9147 458.044 74.1172 457.979 74.3473L456.942 78.0311C456.901 78.1535 456.823 78.2594 456.719 78.334C456.616 78.4085 456.492 78.4479 456.365 78.4464Z" fill="white"/>
<path d="M389.73 72.4447H363.984V71.1051H389.73C392.441 71.1051 395.041 70.0056 396.958 68.0486C398.875 66.0916 399.952 63.4373 399.952 60.6697V46.2959H401.265V60.6697C401.261 63.7915 400.045 66.7845 397.882 68.9919C395.72 71.1994 392.788 72.4411 389.73 72.4447Z" fill="black"/>
<path d="M409.689 23.3491H391.633C388.444 23.3491 385.859 25.988 385.859 29.2433V47.676C385.859 50.9313 388.444 53.5702 391.633 53.5702H409.689C412.878 53.5702 415.463 50.9313 415.463 47.676V29.2433C415.463 25.988 412.878 23.3491 409.689 23.3491Z" fill="#A72329"/>
<g opacity="0.4">
<path d="M409.689 23.3491H391.633C388.444 23.3491 385.859 25.988 385.859 29.2433V47.676C385.859 50.9313 388.444 53.5702 391.633 53.5702H409.689C412.878 53.5702 415.463 50.9313 415.463 47.676V29.2433C415.463 25.988 412.878 23.3491 409.689 23.3491Z" fill="white"/>
</g>
<path d="M411.881 41.621C411.881 41.9425 411.881 43.0811 411.815 43.4026H401.698V38.4729H403.076L400.228 35.5526L397.367 38.4729H398.745V43.4026H389.245C389.245 43.2419 389.245 42.2506 389.245 42.063C389.245 40.7744 389.716 39.5323 390.565 38.5788C391.414 37.6253 392.581 37.0288 393.837 36.9056V36.7047C393.826 35.2479 394.328 33.8354 395.251 32.7241C396.173 31.6129 397.456 30.8767 398.866 30.6496C400.276 30.4224 401.718 30.7194 402.932 31.4865C404.145 32.2536 405.048 33.4397 405.477 34.8292C405.833 34.8371 406.189 34.8729 406.54 34.9364C408.059 35.2298 409.427 36.0612 410.405 37.2842C411.382 38.5071 411.904 40.043 411.881 41.621Z" fill="white"/>
<path d="M330.221 38.1245H328.909V65.653H330.221V38.1245Z" fill="black"/>
<path d="M338.068 11.8687H321.075C319.418 11.8687 317.829 12.5405 316.658 13.7363C315.487 14.9321 314.829 16.554 314.829 18.2451V35.5928C314.829 37.2839 315.487 38.9058 316.658 40.1016C317.829 41.2974 319.418 41.9692 321.075 41.9692H338.068C338.888 41.9692 339.699 41.8042 340.456 41.4836C341.213 41.1629 341.901 40.6931 342.48 40.1008C343.059 39.5085 343.518 38.8054 343.83 38.0319C344.143 37.2583 344.303 36.4295 344.301 35.5928V18.2451C344.303 17.4084 344.143 16.5795 343.83 15.8059C343.518 15.0324 343.059 14.3294 342.48 13.7371C341.901 13.1448 341.213 12.6749 340.456 12.3543C339.699 12.0337 338.888 11.8687 338.068 11.8687Z" fill="#A72329"/>
<g opacity="0.4">
<path d="M338.068 11.8687H321.075C319.418 11.8687 317.829 12.5405 316.658 13.7363C315.487 14.9321 314.829 16.554 314.829 18.2451V35.5928C314.829 37.2839 315.487 38.9058 316.658 40.1016C317.829 41.2974 319.418 41.9692 321.075 41.9692H338.068C338.888 41.9692 339.699 41.8042 340.456 41.4836C341.213 41.1629 341.901 40.6931 342.48 40.1008C343.059 39.5085 343.518 38.8054 343.83 38.0319C344.143 37.2583 344.303 36.4295 344.301 35.5928V18.2451C344.303 17.4084 344.143 16.5795 343.83 15.8059C343.518 15.0324 343.059 14.3294 342.48 13.7371C341.901 13.1448 341.213 12.6749 340.456 12.3543C339.699 12.0337 338.888 11.8687 338.068 11.8687Z" fill="white"/>
</g>
<path d="M332.294 28.8946C332.294 28.6937 332.294 28.4927 332.294 28.3052L333.488 27.8229C333.478 27.2675 333.408 26.7148 333.278 26.1752L331.966 26.0279C331.855 25.6534 331.71 25.2901 331.533 24.9428L332.334 23.9113C332.048 23.4337 331.719 22.9851 331.349 22.5717L330.168 23.0942C329.883 22.827 329.576 22.585 329.25 22.3708L329.434 21.0312C328.961 20.7577 328.459 20.5419 327.938 20.3882L327.177 21.4465L326.743 21.4331H326.179L325.694 20.2007C325.154 20.2184 324.618 20.2902 324.093 20.415L323.948 21.7546C323.576 21.8703 323.216 22.0229 322.872 22.2101L321.862 21.3795C321.391 21.6711 320.951 22.0123 320.55 22.3976L321.062 23.6032C320.805 23.8958 320.572 24.2095 320.366 24.5409L319.054 24.34C318.8 24.8274 318.594 25.3389 318.437 25.8671L319.474 26.6575C319.474 26.845 319.395 27.0326 319.369 27.2335C319.356 27.4298 319.356 27.6267 319.369 27.8229L318.162 28.3052C318.172 28.8607 318.242 29.4133 318.372 29.9529L319.684 30.1002C319.801 30.4727 319.946 30.8354 320.117 31.1853L319.316 32.2168C319.602 32.6945 319.931 33.1431 320.3 33.5564L321.495 33.0339C321.773 33.3041 322.076 33.5463 322.4 33.7573L322.216 35.0969C322.69 35.3637 323.192 35.5749 323.712 35.7265L324.473 34.6682L325.051 34.7754H325.628L326.1 35.9944C326.64 35.9842 327.177 35.9123 327.701 35.7801L327.846 34.4405C328.218 34.3248 328.578 34.1722 328.922 33.985L329.932 34.8022C330.406 34.5201 330.846 34.1829 331.244 33.7975L330.733 32.5919C330.99 32.3001 331.223 31.9864 331.428 31.6542L332.74 31.8551C332.994 31.3677 333.201 30.8562 333.357 30.328L332.32 29.5376C332.229 29.2831 332.268 29.0821 332.294 28.8946ZM325.431 30.6227C324.911 30.5633 324.42 30.3466 324.022 30.0003C323.623 29.654 323.335 29.1941 323.195 28.6795C323.054 28.1648 323.068 27.6191 323.233 27.1123C323.399 26.6056 323.709 26.1609 324.124 25.8354C324.539 25.51 325.04 25.3186 325.562 25.2859C326.085 25.2532 326.605 25.3807 327.055 25.652C327.506 25.9232 327.867 26.3259 328.092 26.8082C328.317 27.2905 328.396 27.8305 328.318 28.3588C328.217 29.044 327.86 29.6626 327.322 30.0848C326.783 30.5069 326.106 30.6997 325.431 30.6227Z" fill="#A72329"/>
<path d="M332.294 28.8946C332.294 28.6937 332.294 28.4927 332.294 28.3052L333.488 27.8229C333.478 27.2675 333.408 26.7148 333.278 26.1752L331.966 26.0279C331.855 25.6534 331.71 25.2901 331.533 24.9428L332.334 23.9113C332.048 23.4337 331.719 22.9851 331.349 22.5717L330.168 23.0942C329.883 22.827 329.576 22.585 329.25 22.3708L329.434 21.0312C328.961 20.7577 328.459 20.5419 327.938 20.3882L327.177 21.4465L326.743 21.4331H326.179L325.694 20.2007C325.154 20.2184 324.618 20.2902 324.093 20.415L323.948 21.7546C323.576 21.8703 323.216 22.0229 322.872 22.2101L321.862 21.3795C321.391 21.6711 320.951 22.0123 320.55 22.3976L321.062 23.6032C320.805 23.8958 320.572 24.2095 320.366 24.5409L319.054 24.34C318.8 24.8274 318.594 25.3389 318.437 25.8671L319.474 26.6575C319.474 26.845 319.395 27.0326 319.369 27.2335C319.356 27.4298 319.356 27.6267 319.369 27.8229L318.162 28.3052C318.172 28.8607 318.242 29.4133 318.372 29.9529L319.684 30.1002C319.801 30.4727 319.946 30.8354 320.117 31.1853L319.316 32.2168C319.602 32.6945 319.931 33.1431 320.3 33.5564L321.495 33.0339C321.773 33.3041 322.076 33.5463 322.4 33.7573L322.216 35.0969C322.69 35.3637 323.192 35.5749 323.712 35.7265L324.473 34.6682L325.051 34.7754H325.628L326.1 35.9944C326.64 35.9842 327.177 35.9123 327.701 35.7801L327.846 34.4405C328.218 34.3248 328.578 34.1722 328.922 33.985L329.932 34.8022C330.406 34.5201 330.846 34.1829 331.244 33.7975L330.733 32.5919C330.99 32.3001 331.223 31.9864 331.428 31.6542L332.74 31.8551C332.994 31.3677 333.201 30.8562 333.357 30.328L332.32 29.5376C332.229 29.2831 332.268 29.0821 332.294 28.8946ZM325.431 30.6227C324.911 30.5633 324.42 30.3466 324.022 30.0003C323.623 29.654 323.335 29.1941 323.195 28.6795C323.054 28.1648 323.068 27.6191 323.233 27.1123C323.399 26.6056 323.709 26.1609 324.124 25.8354C324.539 25.51 325.04 25.3186 325.562 25.2859C326.085 25.2532 326.605 25.3807 327.055 25.652C327.506 25.9232 327.867 26.3259 328.092 26.8082C328.317 27.2905 328.396 27.8305 328.318 28.3588C328.217 29.044 327.86 29.6626 327.322 30.0848C326.783 30.5069 326.106 30.6997 325.431 30.6227Z" fill="white"/>
<g opacity="0.5">
<path d="M337.674 24.8089C336.922 24.8114 336.191 24.5552 335.599 24.0816C335.008 23.6081 334.589 22.9448 334.412 22.1987C334.234 21.4527 334.308 20.6674 334.622 19.9695C334.935 19.2716 335.47 18.7018 336.139 18.3521V20.5088C336.143 20.9265 336.308 21.3258 336.598 21.6206C336.884 21.9121 337.271 22.0759 337.674 22.0761C338.081 22.0761 338.472 21.911 338.76 21.6171C339.048 21.3231 339.21 20.9245 339.21 20.5088V18.3521C339.879 18.7018 340.414 19.2716 340.727 19.9695C341.04 20.6674 341.114 21.4527 340.937 22.1987C340.76 22.9448 340.341 23.6081 339.749 24.0816C339.157 24.5552 338.426 24.8114 337.674 24.8089Z" fill="white"/>
<path d="M336.152 33.3421V23.8578C336.15 23.6527 336.188 23.4491 336.264 23.2591C336.34 23.069 336.452 22.8961 336.593 22.7504C336.735 22.6047 336.903 22.489 337.089 22.4101C337.274 22.3312 337.473 22.2905 337.674 22.2905C337.875 22.2905 338.074 22.3312 338.26 22.4101C338.445 22.489 338.614 22.6047 338.755 22.7504C338.897 22.8961 339.009 23.069 339.084 23.2591C339.16 23.4491 339.198 23.6527 339.196 23.8578V33.3421C339.196 33.5462 339.157 33.7483 339.081 33.9368C339.004 34.1253 338.892 34.2966 338.751 34.4409C338.609 34.5852 338.442 34.6997 338.257 34.7778C338.072 34.8559 337.874 34.8961 337.674 34.8961C337.474 34.8961 337.276 34.8559 337.092 34.7778C336.907 34.6997 336.739 34.5852 336.598 34.4409C336.457 34.2966 336.345 34.1253 336.268 33.9368C336.192 33.7483 336.152 33.5462 336.152 33.3421Z" fill="white"/>
</g>
<path d="M272.667 161.541H271.355V147.167C271.358 144.042 272.576 141.045 274.741 138.835C276.905 136.625 279.841 135.382 282.902 135.379H308.805C311.519 135.375 314.12 134.273 316.039 132.314C317.958 130.355 319.037 127.7 319.041 124.93V113.865H320.353V124.957C320.349 128.082 319.132 131.078 316.967 133.288C314.802 135.498 311.867 136.741 308.805 136.745H282.902C280.189 136.748 277.587 137.85 275.668 139.809C273.75 141.768 272.67 144.424 272.667 147.194V161.541Z" fill="black"/>
<path d="M279.858 159.853H262.799C261.142 159.853 259.554 160.525 258.382 161.721C257.211 162.916 256.553 164.538 256.553 166.229V183.524C256.553 184.36 256.714 185.189 257.028 185.962C257.342 186.735 257.803 187.437 258.383 188.028C258.963 188.619 259.652 189.087 260.41 189.406C261.167 189.725 261.979 189.888 262.799 189.887H279.858C281.506 189.879 283.085 189.206 284.248 188.013C285.412 186.821 286.065 185.206 286.065 183.524V166.229C286.065 164.545 285.412 162.929 284.249 161.735C283.086 160.54 281.508 159.864 279.858 159.853Z" fill="#A72329"/>
<g opacity="0.4">
<path d="M279.858 159.853H262.799C261.142 159.853 259.554 160.525 258.382 161.721C257.211 162.916 256.553 164.538 256.553 166.229V183.524C256.553 184.36 256.714 185.189 257.028 185.962C257.342 186.735 257.803 187.437 258.383 188.028C258.963 188.619 259.652 189.087 260.41 189.406C261.167 189.725 261.979 189.888 262.799 189.887H279.858C281.506 189.879 283.085 189.206 284.248 188.013C285.412 186.821 286.065 185.206 286.065 183.524V166.229C286.065 164.545 285.412 162.929 284.249 161.735C283.086 160.54 281.508 159.864 279.858 159.853Z" fill="white"/>
</g>
<path d="M281.931 182.104C281.931 182.488 281.82 182.863 281.61 183.183C281.401 183.502 281.104 183.751 280.757 183.898C280.409 184.045 280.026 184.084 279.657 184.009C279.288 183.934 278.949 183.749 278.683 183.477C278.417 183.205 278.236 182.859 278.162 182.482C278.089 182.106 278.126 181.715 278.27 181.36C278.414 181.005 278.658 180.702 278.971 180.488C279.284 180.275 279.652 180.161 280.028 180.161C280.533 180.161 281.017 180.366 281.374 180.73C281.731 181.094 281.931 181.588 281.931 182.104Z" fill="white"/>
<path d="M273.507 182.104C273.507 182.488 273.395 182.863 273.186 183.183C272.977 183.502 272.68 183.751 272.332 183.898C271.984 184.045 271.602 184.084 271.233 184.009C270.864 183.934 270.525 183.749 270.258 183.477C269.992 183.205 269.811 182.859 269.738 182.482C269.664 182.106 269.702 181.715 269.846 181.36C269.99 181.005 270.234 180.702 270.547 180.488C270.86 180.275 271.228 180.161 271.604 180.161C272.109 180.161 272.592 180.366 272.949 180.73C273.306 181.094 273.507 181.588 273.507 182.104Z" fill="white"/>
<path d="M265.069 182.104C265.072 182.491 264.961 182.87 264.753 183.194C264.544 183.517 264.245 183.77 263.895 183.92C263.546 184.07 263.16 184.111 262.788 184.037C262.415 183.963 262.072 183.778 261.803 183.505C261.534 183.232 261.35 182.883 261.275 182.503C261.2 182.124 261.237 181.73 261.382 181.372C261.527 181.013 261.772 180.707 262.087 180.492C262.403 180.276 262.774 180.161 263.153 180.161C263.404 180.159 263.653 180.208 263.885 180.305C264.118 180.402 264.329 180.545 264.507 180.725C264.685 180.906 264.826 181.121 264.923 181.357C265.019 181.594 265.069 181.847 265.069 182.104Z" fill="white"/>
<path d="M280.461 185.988H262.655C261.673 185.988 260.732 185.59 260.038 184.882C259.344 184.173 258.954 183.213 258.954 182.211V181.996C258.954 180.995 259.344 180.034 260.038 179.325C260.732 178.617 261.673 178.219 262.655 178.219H280.461C281.443 178.219 282.384 178.617 283.078 179.325C283.772 180.034 284.162 180.995 284.162 181.996V182.184C284.165 182.682 284.072 183.176 283.888 183.638C283.703 184.099 283.431 184.519 283.087 184.872C282.743 185.226 282.334 185.507 281.884 185.698C281.433 185.89 280.95 185.988 280.461 185.988ZM262.655 179.424C261.986 179.424 261.346 179.695 260.873 180.178C260.401 180.66 260.135 181.314 260.135 181.996V182.184C260.135 182.866 260.401 183.52 260.873 184.003C261.346 184.485 261.986 184.756 262.655 184.756H280.461C281.13 184.756 281.77 184.485 282.243 184.003C282.715 183.52 282.981 182.866 282.981 182.184V181.97C282.981 181.287 282.715 180.633 282.243 180.151C281.77 179.669 281.13 179.398 280.461 179.398L262.655 179.424Z" fill="white"/>
<path d="M280.291 179.384C279.978 179.384 279.677 179.257 279.456 179.031C279.234 178.805 279.11 178.498 279.11 178.178V174.361L271.63 166.39L267.339 167.823C267.044 167.913 266.727 167.882 266.454 167.736C266.181 167.59 265.975 167.342 265.879 167.043C265.784 166.745 265.806 166.42 265.941 166.138C266.077 165.855 266.314 165.638 266.604 165.533L271.591 163.858C271.802 163.785 272.029 163.776 272.245 163.83C272.461 163.885 272.658 164.001 272.811 164.166L281.196 173.034C281.406 173.258 281.523 173.555 281.524 173.865V178.165C281.526 178.329 281.495 178.492 281.434 178.643C281.372 178.795 281.28 178.932 281.165 179.046C281.049 179.16 280.912 179.249 280.762 179.307C280.612 179.365 280.451 179.391 280.291 179.384Z" fill="white"/>
<path d="M266.591 170.288C266.435 170.288 266.284 170.225 266.174 170.112C266.063 169.999 266.001 169.845 266.001 169.686V166.685C266.001 166.525 266.063 166.372 266.174 166.259C266.284 166.146 266.435 166.082 266.591 166.082C266.748 166.082 266.898 166.146 267.009 166.259C267.119 166.372 267.182 166.525 267.182 166.685V169.686C267.182 169.845 267.119 169.999 267.009 170.112C266.898 170.225 266.748 170.288 266.591 170.288Z" fill="white"/>
<path d="M265.673 172.552C265.595 172.554 265.517 172.539 265.445 172.509C265.373 172.479 265.308 172.435 265.253 172.378C264.904 172.023 264.706 171.542 264.702 171.039C264.741 170.553 264.958 170.1 265.309 169.77C265.661 169.44 266.12 169.257 266.598 169.257C267.075 169.257 267.535 169.44 267.886 169.77C268.237 170.1 268.454 170.553 268.494 171.039C268.497 171.533 268.319 172.011 267.995 172.378C267.943 172.437 267.879 172.485 267.809 172.519C267.738 172.553 267.662 172.572 267.584 172.576C267.426 172.583 267.272 172.527 267.155 172.418C267.039 172.31 266.969 172.159 266.962 171.998C266.954 171.837 267.01 171.68 267.116 171.561C267.18 171.496 267.23 171.419 267.264 171.334C267.298 171.248 267.314 171.157 267.313 171.065C267.309 170.872 267.232 170.688 267.097 170.553C266.962 170.418 266.78 170.342 266.591 170.342C266.403 170.342 266.223 170.418 266.09 170.554C265.957 170.69 265.883 170.873 265.883 171.065C265.885 171.26 265.96 171.447 266.093 171.588C266.201 171.7 266.261 171.852 266.261 172.01C266.261 172.168 266.201 172.319 266.093 172.432C265.973 172.526 265.823 172.57 265.673 172.552Z" fill="white"/>
<path d="M272.352 165.064C272.354 165.16 272.329 165.255 272.279 165.336C272.228 165.417 272.156 165.481 272.07 165.519C271.983 165.558 271.888 165.569 271.796 165.552C271.703 165.535 271.618 165.49 271.55 165.423C271.483 165.356 271.437 165.27 271.417 165.177C271.398 165.083 271.407 164.985 271.442 164.896C271.477 164.807 271.538 164.731 271.616 164.678C271.694 164.624 271.785 164.595 271.879 164.595C272.003 164.595 272.121 164.644 272.209 164.732C272.297 164.819 272.348 164.939 272.352 165.064Z" fill="#A72329"/>
<path d="M280.671 173.932C280.671 174.027 280.644 174.121 280.592 174.2C280.54 174.279 280.466 174.341 280.38 174.378C280.293 174.414 280.198 174.424 280.107 174.405C280.015 174.386 279.931 174.34 279.865 174.273C279.799 174.206 279.754 174.12 279.736 174.026C279.717 173.932 279.727 173.836 279.763 173.747C279.798 173.659 279.859 173.584 279.937 173.531C280.014 173.478 280.106 173.45 280.199 173.45C280.261 173.45 280.322 173.462 280.38 173.486C280.437 173.511 280.489 173.546 280.533 173.591C280.577 173.636 280.612 173.689 280.635 173.747C280.659 173.806 280.671 173.869 280.671 173.932Z" fill="#A72329"/>
<path opacity="0.4" d="M268.389 173.892H264.807V177.549H268.389V173.892Z" fill="white"/>
<path d="M283.44 72.4447H257.655C254.595 72.4447 251.659 71.2045 249.494 68.9967C247.329 66.7888 246.111 63.7938 246.107 60.6697V46.2959H247.42V60.6697C247.423 63.4385 248.503 66.0928 250.422 68.0494C252.341 70.0061 254.943 71.1051 257.655 71.1051H283.44V72.4447Z" fill="black"/>
<path d="M257.721 21.9692H240.74C237.291 21.9692 234.494 24.8241 234.494 28.3457V45.6799C234.494 49.2015 237.291 52.0564 240.74 52.0564H257.721C261.17 52.0564 263.967 49.2015 263.967 45.6799V28.3457C263.967 24.8241 261.17 21.9692 257.721 21.9692Z" fill="#A72329"/>
<path opacity="0.4" d="M257.721 21.9692H240.74C237.291 21.9692 234.494 24.8241 234.494 28.3457V45.6799C234.494 49.2015 237.291 52.0564 240.74 52.0564H257.721C261.17 52.0564 263.967 49.2015 263.967 45.6799V28.3457C263.967 24.8241 261.17 21.9692 257.721 21.9692Z" fill="white"/>
<path d="M249.23 28.1313C251.855 28.1313 253.167 30.2479 253.167 32.8735C253.167 35.4991 251.789 37.6156 249.23 37.6156C246.672 37.6156 245.294 35.4857 245.294 32.8735C245.294 30.2613 246.698 28.1313 249.23 28.1313Z" fill="white"/>
<path d="M259.492 45.9075H238.969C238.806 45.9045 238.651 45.8372 238.536 45.72L239.848 42.0495C240.262 40.8977 241.013 39.9035 241.999 39.2015C242.984 38.4995 244.158 38.1235 245.359 38.1245H253.102C254.304 38.1216 255.478 38.4968 256.464 39.199C257.45 39.9013 258.2 40.8966 258.613 42.0495L259.925 45.72C259.81 45.8372 259.655 45.9045 259.492 45.9075Z" fill="white"/>
<path d="M223.839 139.317H222.527V124.943C222.53 121.819 223.748 118.824 225.914 116.616C228.079 114.409 231.014 113.168 234.074 113.168H295.906V114.508H234.074C231.362 114.508 228.761 115.607 226.841 117.564C224.922 119.52 223.842 122.175 223.839 124.943V139.317Z" fill="black"/>
<path d="M232.185 128.694H215.205C211.755 128.694 208.958 131.549 208.958 135.071V152.405C208.958 155.927 211.755 158.781 215.205 158.781H232.185C235.634 158.781 238.431 155.927 238.431 152.405V135.071C238.431 131.549 235.634 128.694 232.185 128.694Z" fill="#A72329"/>
<path opacity="0.4" d="M232.185 128.694H215.205C211.755 128.694 208.958 131.549 208.958 135.071V152.405C208.958 155.927 211.755 158.781 215.205 158.781H232.185C235.634 158.781 238.431 155.927 238.431 152.405V135.071C238.431 131.549 235.634 128.694 232.185 128.694Z" fill="white"/>
<path opacity="0.6" d="M217.632 146.484H213.971V153.677H217.632V146.484Z" fill="white"/>
<path opacity="0.6" d="M228.012 144.059H224.351V153.677H228.012V144.059Z" fill="white"/>
<path d="M222.632 141.635H218.971V153.678H222.632V141.635Z" fill="white"/>
<path d="M233.221 139.21H229.56V153.678H233.221V139.21Z" fill="white"/>
<path d="M300.853 90.3418H221.7V91.6814H300.853V90.3418Z" fill="black"/>
<path d="M224.233 66.9795H207.239C205.583 66.9795 203.994 67.6513 202.823 68.8471C201.651 70.0429 200.993 71.6648 200.993 73.3559V90.7036C200.993 92.3947 201.651 94.0166 202.823 95.2124C203.994 96.4082 205.583 97.08 207.239 97.08H224.233C225.052 97.08 225.864 96.915 226.621 96.5944C227.378 96.2738 228.066 95.8039 228.645 95.2116C229.224 94.6193 229.683 93.9163 229.995 93.1427C230.307 92.3692 230.467 91.5403 230.466 90.7036V73.3961C230.473 72.556 230.317 71.7228 230.006 70.9446C229.696 70.1664 229.238 69.4586 228.659 68.8621C228.079 68.2655 227.39 67.792 226.63 67.4689C225.87 67.1458 225.056 66.9795 224.233 66.9795Z" fill="#A72329"/>
<g opacity="0.4">
<path d="M224.233 66.9795H207.239C205.583 66.9795 203.994 67.6513 202.823 68.8471C201.651 70.0429 200.993 71.6648 200.993 73.3559V90.7036C200.993 92.3947 201.651 94.0166 202.823 95.2124C203.994 96.4082 205.583 97.08 207.239 97.08H224.233C225.052 97.08 225.864 96.915 226.621 96.5944C227.378 96.2738 228.066 95.8039 228.645 95.2116C229.224 94.6193 229.683 93.9163 229.995 93.1427C230.307 92.3692 230.467 91.5403 230.466 90.7036V73.3961C230.473 72.556 230.317 71.7228 230.006 70.9446C229.696 70.1664 229.238 69.4586 228.659 68.8621C228.079 68.2655 227.39 67.792 226.63 67.4689C225.87 67.1458 225.056 66.9795 224.233 66.9795Z" fill="white"/>
</g>
<path d="M216.385 70.998V73.7844C218.092 73.9268 219.711 74.6107 221.018 75.7402L222.947 73.771C221.126 72.1226 218.815 71.1461 216.385 70.998Z" fill="#A72329"/>
<path opacity="0.6" d="M216.385 70.998V73.7844C218.092 73.9268 219.711 74.6107 221.018 75.7402L222.947 73.771C221.126 72.1226 218.815 71.1461 216.385 70.998Z" fill="white"/>
<path d="M215.06 90.3818C213.127 90.2254 211.313 89.3707 209.942 87.9712C208.571 86.5717 207.734 84.7191 207.581 82.7461H204.851C205.013 85.4562 206.14 88.0122 208.021 89.9321C209.902 91.852 212.405 93.003 215.06 93.1681V90.3818Z" fill="#A72329"/>
<path opacity="0.8" d="M215.06 90.3818C213.127 90.2254 211.313 89.3707 209.942 87.9712C208.571 86.5717 207.734 84.7191 207.581 82.7461H204.851C205.013 85.4562 206.14 88.0122 208.021 89.9321C209.902 91.852 212.405 93.003 215.06 93.1681V90.3818Z" fill="white"/>
<path d="M207.581 81.3933C207.736 79.4212 208.574 77.5701 209.945 76.1711C211.315 74.7721 213.128 73.9166 215.06 73.7576V70.998C212.405 71.1631 209.902 72.3142 208.021 74.234C206.14 76.1539 205.013 78.7099 204.851 81.42L207.581 81.3933Z" fill="#A72329"/>
<path opacity="0.7" d="M207.581 81.3933C207.736 79.4212 208.574 77.5701 209.945 76.1711C211.315 74.7721 213.128 73.9166 215.06 73.7576V70.998C212.405 71.1631 209.902 72.3142 208.021 74.234C206.14 76.1539 205.013 78.7099 204.851 81.42L207.581 81.3933Z" fill="white"/>
<path d="M223.878 74.6953L221.949 76.6645C222.922 77.8345 223.56 79.2555 223.792 80.7714C224.025 82.2873 223.844 83.8393 223.269 85.257C222.694 86.6747 221.747 87.9031 220.533 88.8073C219.319 89.7114 217.884 90.2562 216.385 90.3819V93.1682C218.424 93.0422 220.387 92.3337 222.05 91.1234C223.713 89.9131 225.009 88.2499 225.79 86.3236C226.572 84.3973 226.807 82.2855 226.469 80.2294C226.13 78.1733 225.233 76.2556 223.878 74.6953Z" fill="white"/>
<path d="M285.369 65.8141L289.056 65.6533L294.24 124.073H290.303C288.348 123.885 287.889 121.635 287.351 117.375L283.729 76.5844C282.889 66.9795 284.503 65.8141 285.369 65.8141Z" fill="#A72329"/>
<path opacity="0.3" d="M285.369 65.8141L289.056 65.6533L294.24 124.073H290.303C288.348 123.885 287.889 121.635 287.351 117.375L283.729 76.5844C282.889 66.9795 284.503 65.8141 285.369 65.8141Z" fill="black"/>
<path d="M291.313 124.073H368.879C369.093 124.058 369.301 123.997 369.49 123.893C369.679 123.79 369.844 123.647 369.974 123.473C370.104 123.299 370.197 123.099 370.246 122.886C370.295 122.673 370.298 122.452 370.257 122.238L365.415 67.4752C365.391 67.011 365.204 66.5712 364.889 66.2364C364.573 65.9017 364.149 65.6947 363.696 65.6533H286.065C285.851 65.6667 285.643 65.7262 285.453 65.8281C285.264 65.9299 285.098 66.0716 284.967 66.2439C284.835 66.4162 284.741 66.6151 284.69 66.8274C284.64 67.0397 284.634 67.2605 284.674 67.4752L289.529 122.238C289.548 122.716 289.742 123.169 290.072 123.509C290.402 123.849 290.845 124.05 291.313 124.073Z" fill="#A72329"/>
<path d="M294.227 117.147H364.667L360.756 71.5605H290.316L294.227 117.147Z" fill="#A72329"/>
<path d="M295.25 120.724H364.654C365.111 120.732 365.564 120.641 365.984 120.457C366.404 120.272 366.78 119.998 367.088 119.654C367.396 119.309 367.629 118.901 367.77 118.457C367.911 118.013 367.958 117.544 367.908 117.08L364.037 71.7752C363.942 70.778 363.486 69.853 362.757 69.1814C362.029 68.5098 361.082 68.1402 360.1 68.1449H290.697C290.24 68.1344 289.787 68.2236 289.367 68.4066C288.947 68.5896 288.571 68.8622 288.262 69.206C287.954 69.5498 287.722 69.9569 287.58 70.4C287.439 70.8431 287.392 71.312 287.442 71.7752L291.313 117.08C291.405 118.08 291.86 119.008 292.589 119.682C293.317 120.357 294.267 120.728 295.25 120.724Z" fill="#263238"/>
<path d="M294.227 117.147H364.667L360.756 71.5605H290.316L294.227 117.147Z" fill="#A72329"/>
<path opacity="0.4" d="M294.227 117.147H364.667L360.756 71.5605H290.316L294.227 117.147Z" fill="white"/>
<path d="M299.974 92.5386L300.473 91.4134C301.08 91.849 301.804 92.0829 302.546 92.0832C303.412 92.0832 303.766 91.7885 303.766 91.4C303.766 90.1944 300.105 91.0249 300.105 88.6404C300.105 87.542 300.958 86.631 302.73 86.631C303.494 86.6172 304.247 86.8163 304.908 87.2071L304.462 88.3323C303.931 88.0178 303.33 87.8471 302.717 87.8367C301.851 87.8367 301.523 88.1582 301.523 88.5601C301.523 89.7523 305.184 88.9351 305.184 91.2392C305.184 92.3109 304.304 93.2218 302.559 93.2218C301.65 93.268 300.748 93.0296 299.974 92.5386Z" fill="white"/>
<path d="M305.814 89.9535C305.774 89.249 305.943 88.5486 306.298 87.9431C306.653 87.3376 307.178 86.8549 307.805 86.5575C308.432 86.2602 309.132 86.1619 309.814 86.2753C310.496 86.3888 311.129 86.7088 311.632 87.194C312.134 87.6791 312.481 88.3069 312.63 88.9962C312.778 89.6854 312.72 90.4043 312.464 91.0596C312.207 91.715 311.764 92.2766 311.191 92.6717C310.619 93.0668 309.943 93.2773 309.252 93.2757C308.809 93.3013 308.366 93.2342 307.95 93.0788C307.533 92.9233 307.153 92.6826 306.831 92.3716C306.509 92.0605 306.253 91.6855 306.078 91.2697C305.903 90.854 305.813 90.4061 305.814 89.9535ZM311.233 89.9535C311.225 89.5553 311.103 89.1682 310.88 88.8409C310.658 88.5136 310.346 88.2606 309.983 88.1136C309.62 87.9667 309.223 87.9323 308.841 88.0148C308.46 88.0974 308.11 88.2931 307.837 88.5776C307.564 88.862 307.379 89.2224 307.306 89.6137C307.232 90.0049 307.274 90.4095 307.425 90.7768C307.576 91.1441 307.83 91.4577 308.155 91.6782C308.48 91.8987 308.861 92.0164 309.252 92.0165C309.517 92.0242 309.781 91.9758 310.028 91.8743C310.274 91.7728 310.498 91.6205 310.684 91.4268C310.87 91.2331 311.014 91.0022 311.109 90.7487C311.204 90.4952 311.246 90.2245 311.233 89.9535Z" fill="white"/>
<path d="M315.262 87.9437V89.6316H318.175V90.8372H315.262V93.1681H313.805V86.7515H318.555V87.9437H315.262Z" fill="white"/>
<path d="M320.904 87.9571H318.87V86.7515H324.355V87.9571H322.348V93.1681H320.891L320.904 87.9571Z" fill="white"/>
<path d="M334.617 86.7515L332.557 93.1681H330.995L329.604 88.8278L328.187 93.1681H326.625L324.552 86.7515H326.074L327.491 91.2659L328.974 86.7515H330.287L331.717 91.3061L333.187 86.7515H334.617Z" fill="white"/>
<path d="M339.301 91.7885H336.388L335.824 93.128H334.341L337.136 86.7114H338.553L341.362 93.128H339.866L339.301 91.7885ZM338.842 90.6632L337.845 88.2118L336.848 90.6632H338.842Z" fill="white"/>
<path d="M346.059 93.1681L344.852 91.3864H343.54V93.1681H342.083V86.7515H344.8C346.492 86.7515 347.542 87.6356 347.542 89.0823C347.557 89.517 347.438 89.9455 347.203 90.308C346.968 90.6706 346.628 90.9493 346.23 91.1051L347.647 93.1681H346.059ZM344.747 87.9571H343.566V90.1942H344.747C345.64 90.1942 346.059 89.7789 346.059 89.0823C346.059 88.3858 345.587 87.9571 344.695 87.9571H344.747Z" fill="white"/>
<path d="M353.539 91.9759V93.1681H348.671V86.7515H353.421V87.9437H350.114V89.2833H352.988V90.4353H350.062V91.9223L353.539 91.9759Z" fill="white"/>
<path d="M296.208 97.79H297.665V104.22H296.208V97.79Z" fill="white"/>
<path d="M304.934 97.79V104.22H303.74L300.604 100.322V104.22H299.187V97.79H300.394L303.517 101.702V97.79H304.934Z" fill="white"/>
<path d="M307.729 98.9823H305.748V97.79H311.233V99.0091H309.212V104.22H307.756L307.729 98.9823Z" fill="white"/>
<path d="M316.862 103.001V104.193H311.994V97.79H316.744V98.9957H313.438V100.335H316.364V101.487H313.438V102.974L316.862 103.001Z" fill="white"/>
<path d="M322.256 100.884H323.568V103.483C322.824 104.021 321.934 104.307 321.022 104.3C320.152 104.3 319.318 103.947 318.702 103.319C318.087 102.691 317.742 101.84 317.742 100.951C317.742 100.063 318.087 99.2113 318.702 98.5832C319.318 97.9552 320.152 97.6023 321.022 97.6023C321.512 97.5825 322.001 97.6716 322.454 97.8636C322.907 98.0556 323.314 98.3458 323.647 98.7142L322.702 99.5983C322.5 99.3655 322.251 99.1803 321.973 99.0553C321.694 98.9304 321.392 98.8689 321.088 98.8749C320.81 98.852 320.53 98.8881 320.266 98.9811C320.002 99.074 319.76 99.2217 319.555 99.4149C319.35 99.6081 319.186 99.8425 319.074 100.103C318.962 100.364 318.904 100.646 318.904 100.931C318.904 101.216 318.962 101.498 319.074 101.759C319.186 102.02 319.35 102.254 319.555 102.448C319.76 102.641 320.002 102.788 320.266 102.881C320.53 102.974 320.81 103.01 321.088 102.987C321.481 102.993 321.87 102.897 322.216 102.706L322.256 100.884Z" fill="white"/>
<path d="M328.961 104.193L327.741 102.398H326.429V104.193H324.972V97.79H327.701C329.381 97.79 330.431 98.6876 330.431 100.121C330.448 100.558 330.331 100.989 330.096 101.355C329.86 101.72 329.519 102 329.119 102.157L330.536 104.22L328.961 104.193ZM327.583 98.9823H326.402V101.219H327.583C328.476 101.219 328.896 100.804 328.896 100.094C328.896 99.3842 328.476 98.9823 327.583 98.9823Z" fill="white"/>
<path d="M335.706 102.813H332.78L332.229 104.153H330.68L333.488 97.7227H334.919L337.74 104.153H336.205L335.706 102.813ZM335.247 101.688L334.249 99.223L333.252 101.688H335.247Z" fill="white"/>
<path d="M339.446 98.9823H337.425V97.79H342.91V99.0091H340.889V104.22H339.446V98.9823Z" fill="white"/>
<path d="M343.697 97.79H345.115V104.22H343.658L343.697 97.79Z" fill="white"/>
<path d="M346.256 100.978C346.219 100.277 346.389 99.581 346.744 98.9797C347.099 98.3784 347.622 97.8995 348.246 97.6049C348.87 97.3103 349.567 97.2135 350.245 97.3269C350.924 97.4404 351.553 97.759 352.053 98.2416C352.552 98.7241 352.898 99.3484 353.047 100.034C353.195 100.719 353.138 101.434 352.884 102.087C352.63 102.739 352.191 103.299 351.622 103.693C351.053 104.088 350.382 104.299 349.694 104.3C349.252 104.326 348.809 104.259 348.392 104.103C347.976 103.948 347.595 103.707 347.273 103.396C346.951 103.085 346.695 102.71 346.52 102.294C346.345 101.878 346.256 101.431 346.256 100.978ZM351.663 100.978C351.652 100.583 351.528 100.2 351.306 99.8767C351.083 99.5533 350.772 99.3041 350.412 99.1602C350.051 99.0163 349.657 98.9841 349.279 99.0676C348.901 99.1511 348.555 99.3465 348.285 99.6296C348.015 99.9126 347.833 100.271 347.761 100.659C347.689 101.047 347.731 101.448 347.881 101.812C348.032 102.176 348.284 102.487 348.606 102.706C348.929 102.924 349.307 103.041 349.694 103.041C349.96 103.051 350.226 103.004 350.473 102.903C350.72 102.802 350.944 102.65 351.131 102.456C351.317 102.262 351.462 102.03 351.556 101.776C351.65 101.521 351.69 101.249 351.676 100.978H351.663Z" fill="white"/>
<path d="M360.008 97.79V104.22H358.814L355.678 100.322V104.22H354.3V97.79H355.507L358.644 101.702V97.79H360.008Z" fill="white"/>
<path opacity="0.1" d="M314.487 68.1582L300.735 120.697H305.367L318.975 68.1582H314.487Z" fill="white"/>
<path opacity="0.1" d="M321.639 68.1582L307.874 120.697H317.059L330.667 68.1582H321.639Z" fill="white"/>
<path d="M290.316 71.5605L290.67 75.6463H361.111L360.756 71.5605H290.316Z" fill="#A72329"/>
<path d="M293.557 73.3828C293.569 73.4872 293.558 73.5929 293.526 73.6927C293.494 73.7926 293.441 73.8843 293.372 73.9617C293.302 74.039 293.217 74.1003 293.122 74.1414C293.028 74.1825 292.925 74.2025 292.823 74.1999C292.603 74.1978 292.392 74.1134 292.23 73.9626C292.068 73.8119 291.966 73.6055 291.943 73.3828C291.932 73.2777 291.943 73.1715 291.975 73.071C292.007 72.9705 292.059 72.878 292.129 72.7996C292.198 72.7212 292.283 72.6586 292.378 72.616C292.472 72.5734 292.575 72.5517 292.678 72.5523C292.899 72.5576 293.11 72.645 293.272 72.7979C293.433 72.9508 293.535 73.1588 293.557 73.3828Z" fill="white"/>
<path d="M295.683 73.3828C295.694 73.4872 295.684 73.5929 295.652 73.6927C295.62 73.7926 295.567 73.8843 295.497 73.9617C295.428 74.039 295.343 74.1003 295.248 74.1414C295.153 74.1825 295.051 74.2025 294.948 74.1999C294.729 74.1978 294.518 74.1134 294.356 73.9626C294.194 73.8119 294.092 73.6055 294.069 73.3828C294.058 73.2777 294.069 73.1715 294.101 73.071C294.133 72.9705 294.185 72.878 294.254 72.7996C294.324 72.7212 294.409 72.6586 294.503 72.616C294.598 72.5734 294.701 72.5517 294.804 72.5523C295.025 72.5576 295.235 72.645 295.397 72.7979C295.559 72.9508 295.661 73.1588 295.683 73.3828Z" fill="white"/>
<path d="M297.875 73.3828C297.886 73.4872 297.875 73.5929 297.843 73.6927C297.811 73.7926 297.758 73.8843 297.689 73.9617C297.619 74.039 297.534 74.1003 297.44 74.1414C297.345 74.1825 297.243 74.2025 297.14 74.1999C296.92 74.1978 296.71 74.1134 296.547 73.9626C296.385 73.8119 296.283 73.6055 296.261 73.3828C296.249 73.2777 296.26 73.1715 296.292 73.071C296.324 72.9705 296.376 72.878 296.446 72.7996C296.515 72.7212 296.6 72.6586 296.695 72.616C296.789 72.5734 296.892 72.5517 296.995 72.5523C297.216 72.5576 297.427 72.645 297.589 72.7979C297.751 72.9508 297.852 73.1588 297.875 73.3828Z" fill="white"/>
<path d="M371.254 124.233H292.193C291.265 124.233 290.513 125.001 290.513 125.948V126.98C290.513 127.927 291.265 128.694 292.193 128.694H371.254C372.182 128.694 372.934 127.927 372.934 126.98V125.948C372.934 125.001 372.182 124.233 371.254 124.233Z" fill="#A72329"/>
<path d="M321.875 124.233H403.614V125.251C403.614 126.165 403.258 127.04 402.626 127.686C401.993 128.331 401.136 128.694 400.241 128.694H325.248C324.353 128.694 323.495 128.331 322.863 127.686C322.23 127.04 321.875 126.165 321.875 125.251V124.233Z" fill="#A72329"/>
<path opacity="0.3" d="M321.875 124.233H403.614V125.251C403.614 126.165 403.258 127.04 402.626 127.686C401.993 128.331 401.136 128.694 400.241 128.694H325.248C324.353 128.694 323.495 128.331 322.863 127.686C322.23 127.04 321.875 126.165 321.875 125.251V124.233Z" fill="white"/>
<path opacity="0.3" d="M356.085 124.354C356.088 124.945 356.321 125.511 356.731 125.927C357.142 126.344 357.697 126.578 358.276 126.578H368.275C368.853 126.578 369.407 126.343 369.816 125.926C370.224 125.509 370.454 124.944 370.454 124.354H356.085Z" fill="black"/>
<path d="M253.626 214.897L245.176 212.392C244.355 212.109 243.505 211.925 242.643 211.842L236.974 211.601L232.342 209.619C232.09 209.47 231.806 209.388 231.516 209.379C231.225 209.37 230.937 209.435 230.677 209.568C230.417 209.701 230.193 209.897 230.026 210.14C229.858 210.382 229.753 210.664 229.718 210.958L229.416 214.146C229.389 214.464 229.443 214.783 229.574 215.072C229.706 215.361 229.909 215.61 230.164 215.794L236.987 220.67L246.527 219.036L255.083 223.256L256.093 215.674L253.626 214.897Z" fill="#B55B52"/>
<path d="M402.485 217.254L411.041 215.124C411.871 214.883 412.725 214.735 413.586 214.682H419.255L423.966 212.914C424.226 212.759 424.52 212.675 424.821 212.671C425.121 212.666 425.418 212.741 425.682 212.888C425.946 213.035 426.169 213.249 426.328 213.509C426.487 213.769 426.577 214.067 426.591 214.374L426.761 217.576C426.778 217.892 426.714 218.207 426.573 218.49C426.432 218.772 426.221 219.011 425.961 219.183L418.927 223.765L409.414 221.715L400.687 225.56L400.005 217.951L402.485 217.254Z" fill="#B55B52"/>
<path d="M306.85 460.068L304.829 479.023L294.686 477.925L295.723 457.255L306.85 460.068Z" fill="#B55B52"/>
<path d="M289.909 478.112C288.829 478.16 287.771 477.792 286.944 477.081C286.848 476.915 286.805 476.722 286.821 476.53C286.838 476.338 286.913 476.156 287.036 476.009C287.13 475.871 287.251 475.753 287.391 475.664C287.53 475.574 287.686 475.514 287.849 475.487C289.594 475.138 293.032 477.496 293.177 477.603C293.22 477.63 293.254 477.671 293.273 477.719C293.292 477.768 293.295 477.821 293.282 477.871C293.269 477.92 293.242 477.964 293.205 477.998C293.168 478.031 293.121 478.052 293.072 478.059C292.022 478.177 290.963 478.195 289.909 478.112ZM288.413 475.956C288.262 475.928 288.106 475.928 287.954 475.956C287.852 475.964 287.752 475.996 287.664 476.05C287.575 476.103 287.499 476.176 287.442 476.264C287.246 476.558 287.298 476.706 287.364 476.8C287.784 477.523 290.369 477.737 292.311 477.643C291.129 476.833 289.806 476.26 288.413 475.956Z" fill="#A72329"/>
<path d="M293.032 478.059C292.999 478.072 292.961 478.072 292.928 478.059C291.747 477.416 289.437 474.951 289.752 473.786C289.752 473.504 290.027 473.169 290.697 473.156C290.94 473.149 291.181 473.193 291.407 473.286C291.633 473.378 291.837 473.516 292.009 473.692C293.242 474.884 293.321 477.711 293.321 477.871C293.322 477.915 293.312 477.957 293.291 477.995C293.27 478.033 293.24 478.064 293.203 478.086L293.032 478.059ZM290.828 473.611H290.697C290.251 473.611 290.211 473.799 290.185 473.866C290.067 474.562 291.563 476.465 292.809 477.335C292.78 476.137 292.391 474.978 291.694 474.013C291.471 473.792 291.178 473.659 290.867 473.638L290.828 473.611Z" fill="#A72329"/>
<path d="M294.227 476.666L305.433 477.537C305.639 477.547 305.836 477.63 305.989 477.771C306.142 477.913 306.243 478.105 306.273 478.313L307.585 487.784C307.613 487.988 307.601 488.195 307.55 488.393C307.498 488.592 307.409 488.778 307.287 488.941C307.165 489.104 307.013 489.241 306.839 489.344C306.665 489.446 306.472 489.513 306.273 489.539H305.945C301.916 489.151 298.334 488.655 293.308 488.28C287.364 487.825 288.82 488.668 281.826 488.28C277.614 488.025 277.207 483.082 279.005 482.922C287.246 482.493 288.282 480.042 291.655 477.309C292.403 476.774 293.321 476.545 294.227 476.666Z" fill="#263238"/>
<path opacity="0.2" d="M295.145 468.722L302.717 468.44L305.814 469.753L305.394 473.759L294.909 473.129L295.145 468.722Z" fill="black"/>
<path d="M332.57 269.11L313.109 387.918L308.372 471.227L293.137 470.959C289.943 441.132 289.122 411.089 290.684 381.126C293.059 337.014 303.11 285.426 304.226 270.718L309.855 260.563L321.062 261.997L332.57 269.11Z" fill="#A72329"/>
<path d="M361.924 481.207L370.585 480.202C370.585 480.202 370.336 476.558 369.903 470.678C369.811 469.338 369.706 467.998 369.601 466.431L359.654 468.24H359.549C359.549 468.467 359.641 468.695 359.68 468.909C359.89 470.102 360.113 471.2 360.297 472.258C361.281 477.791 361.924 481.207 361.924 481.207Z" fill="#B55B52"/>
<path d="M372.225 477.054C372.174 477.05 372.124 477.032 372.083 477.001C372.041 476.971 372.008 476.929 371.989 476.88C371.975 476.832 371.975 476.782 371.989 476.734C372.003 476.686 372.03 476.644 372.068 476.612C372.212 476.491 375.427 473.812 377.212 474.013C377.54 474.046 377.845 474.204 378.065 474.455C378.2 474.592 378.291 474.769 378.324 474.961C378.357 475.153 378.331 475.351 378.248 475.527C377.92 476.157 376.647 476.612 375.388 476.867C374.34 477.016 373.283 477.078 372.225 477.054ZM372.947 476.585C374.889 476.505 377.448 476.063 377.815 475.246C377.815 475.152 377.907 474.991 377.684 474.723C377.621 474.639 377.539 474.571 377.446 474.524C377.353 474.478 377.25 474.454 377.146 474.455C376.989 474.435 376.83 474.435 376.674 474.455C375.313 474.923 374.049 475.645 372.947 476.585Z" fill="#A72329"/>
<path d="M372.094 477.054C372.052 477.04 372.016 477.013 371.99 476.977C371.964 476.941 371.95 476.898 371.95 476.853C371.95 476.719 371.753 473.866 372.881 472.566C373.042 472.37 373.243 472.211 373.469 472.1C373.695 471.989 373.942 471.929 374.193 471.923C374.876 471.923 375.138 472.178 375.204 472.459C375.611 473.598 373.524 476.264 372.396 477.014C372.366 477.025 372.333 477.025 372.304 477.014C372.276 477.04 372.242 477.058 372.205 477.065C372.167 477.073 372.129 477.069 372.094 477.054ZM374.062 472.406C373.76 472.46 373.486 472.621 373.288 472.861C372.674 473.886 372.381 475.078 372.448 476.277C373.59 475.299 374.902 473.263 374.731 472.58C374.731 472.58 374.64 472.339 374.207 472.379H374.062V472.406Z" fill="#A72329"/>
<path d="M370.296 475.996L361.452 477.336C361.247 477.372 361.061 477.477 360.922 477.635C360.784 477.793 360.702 477.995 360.691 478.206L360.179 487.771C360.165 487.973 360.19 488.175 360.253 488.367C360.316 488.559 360.416 488.736 360.546 488.888C360.677 489.04 360.836 489.164 361.014 489.253C361.192 489.342 361.385 489.393 361.583 489.405C361.692 489.419 361.802 489.419 361.911 489.405C365.848 488.655 367.16 488.307 372.146 487.476C378.038 486.485 376.66 487.476 383.602 486.391C387.775 485.735 387.762 480.778 385.951 480.832C377.697 481.194 371.162 475.808 370.296 475.996Z" fill="#263238"/>
<path opacity="0.2" d="M360.258 472.272L369.903 470.678C369.811 469.338 369.706 467.998 369.601 466.431L359.654 468.24V468.923C359.851 470.115 360.074 471.213 360.258 472.272Z" fill="black"/>
<path opacity="0.2" d="M327.911 296.705L322.662 328.467C321.101 305.694 323.187 278.594 323.187 278.594L327.911 296.705Z" fill="black"/>
<path d="M349.261 266.149C349.261 266.149 361.622 357.831 366.228 381.421C370.322 402.372 371.07 468.642 371.07 468.642L357.515 470.195C357.515 470.195 349.773 433.732 347.214 408.092C346.322 399.144 346.571 391.642 345.771 387.034C344.708 380.952 310.144 282.76 316.574 267.261L349.261 266.149Z" fill="#A72329"/>
<path d="M303.701 253.852C304.154 249.886 304.263 245.888 304.029 241.903C300.919 203.992 299.804 201.715 300.092 195.017C300.11 194.424 300.305 193.85 300.649 193.372C300.993 192.893 301.472 192.533 302.021 192.338C327.715 183.416 347.7 187.649 353.5 190.998C361.229 195.446 358.145 200.201 358.053 201.554C357.305 212.794 351.243 233.624 351.111 251.856C351.111 254.535 351.374 260.965 351.544 264.528C351.577 265.228 351.364 265.916 350.942 266.469C350.521 267.022 349.92 267.403 349.248 267.542C343.487 268.761 318.214 269.083 313.477 268.882C308.95 268.721 305.971 268.44 304.068 268.185C303.676 268.13 303.298 267.993 302.961 267.781C302.623 267.569 302.332 267.288 302.106 266.956C301.88 266.623 301.725 266.247 301.649 265.85C301.574 265.452 301.58 265.044 301.667 264.649C302.402 261.447 303.478 256.223 303.701 253.852Z" fill="#263238"/>
<path d="M334.617 169.311C333.646 175.178 334.039 183.791 338.147 187.609C338.147 187.609 338.068 193.584 322.006 200.443C315.944 192.03 320.248 188.051 320.248 188.051C326.638 186.337 325.09 183.671 323.87 179.143L334.617 169.311Z" fill="#B55B52"/>
<path opacity="0.2" d="M330.247 173.262L323.922 179.143C324.224 180.189 324.435 181.261 324.552 182.345C327.006 181.929 330.798 179.665 331.258 176.986C331.228 175.679 330.881 174.399 330.247 173.262Z" fill="black"/>
<path d="M341.86 159.076C339.525 168.734 338.724 172.86 332.99 176.959C324.355 183.148 313.306 178.085 312.716 167.904C312.243 158.741 316.18 144.434 326.245 142.358C328.463 141.882 330.763 141.991 332.928 142.677C335.093 143.363 337.05 144.602 338.614 146.277C340.178 147.951 341.298 150.006 341.866 152.246C342.434 154.486 342.432 156.837 341.86 159.076Z" fill="#B55B52"/>
<path d="M325.431 157.83C325.274 158.621 324.749 159.17 324.25 159.17C323.752 159.17 323.437 158.339 323.581 157.549C323.725 156.759 324.263 156.21 324.762 156.277C325.261 156.343 325.549 157.067 325.431 157.83Z" fill="#263238"/>
<path d="M316.718 156.276C316.574 157.08 316.036 157.616 315.537 157.616C315.038 157.616 314.724 156.785 314.868 155.995C315.012 155.205 315.55 154.655 316.049 154.736C316.548 154.816 316.862 155.473 316.718 156.276Z" fill="#263238"/>
<path d="M319.802 159.076C318.779 160.76 317.533 162.293 316.101 163.631C316.447 163.996 316.867 164.28 317.332 164.463C317.797 164.646 318.295 164.723 318.791 164.689L319.802 159.076Z" fill="#A02724"/>
<path d="M322.466 168.6C322.073 168.589 321.683 168.544 321.298 168.466C321.268 168.462 321.24 168.451 321.215 168.435C321.189 168.418 321.168 168.397 321.15 168.372C321.133 168.347 321.121 168.319 321.115 168.289C321.109 168.259 321.108 168.228 321.114 168.198C321.119 168.167 321.13 168.137 321.146 168.11C321.163 168.083 321.185 168.06 321.211 168.042C321.237 168.025 321.266 168.013 321.297 168.007C321.328 168.002 321.359 168.003 321.39 168.011C322.355 168.21 323.353 168.175 324.303 167.91C325.253 167.645 326.129 167.157 326.862 166.484C326.905 166.438 326.965 166.411 327.028 166.41C327.09 166.408 327.151 166.433 327.196 166.477C327.241 166.522 327.268 166.582 327.269 166.647C327.27 166.711 327.246 166.773 327.203 166.819C326.568 167.42 325.822 167.887 325.009 168.193C324.196 168.499 323.331 168.637 322.466 168.6Z" fill="#263238"/>
<path d="M329.591 156.612C329.494 156.63 329.394 156.615 329.306 156.569C329.218 156.523 329.147 156.448 329.105 156.357C328.691 155.708 328.15 155.154 327.515 154.73C326.88 154.306 326.166 154.02 325.418 153.892C325.295 153.872 325.184 153.803 325.11 153.701C325.036 153.598 325.006 153.469 325.024 153.343C325.044 153.22 325.11 153.111 325.208 153.038C325.307 152.965 325.429 152.935 325.549 152.954C326.448 153.1 327.305 153.442 328.062 153.958C328.818 154.473 329.456 155.15 329.932 155.942C329.983 156.054 329.99 156.182 329.951 156.299C329.911 156.417 329.83 156.514 329.722 156.571C329.682 156.595 329.637 156.609 329.591 156.612Z" fill="#263238"/>
<path d="M315.183 153.182C315.1 153.202 315.014 153.198 314.933 153.172C314.853 153.146 314.78 153.099 314.724 153.034C314.68 152.991 314.645 152.939 314.622 152.881C314.598 152.824 314.586 152.762 314.586 152.7C314.586 152.637 314.598 152.575 314.622 152.518C314.645 152.46 314.68 152.408 314.724 152.365C315.256 151.83 315.909 151.437 316.625 151.219C317.341 151.002 318.099 150.968 318.831 151.119C318.888 151.13 318.943 151.153 318.992 151.186C319.04 151.219 319.082 151.262 319.114 151.312C319.145 151.362 319.167 151.419 319.177 151.477C319.187 151.536 319.185 151.597 319.172 151.655C319.144 151.775 319.07 151.88 318.967 151.945C318.864 152.01 318.739 152.031 318.621 152.003C318.043 151.902 317.45 151.942 316.891 152.122C316.332 152.301 315.823 152.614 315.406 153.034C315.348 153.106 315.27 153.157 315.183 153.182Z" fill="#263238"/>
<path d="M339.866 187.02L338.173 186.725L328.764 191.963L325.851 192.07L320.261 187.221L318.385 187.676C316.643 193.174 316.309 199.035 317.414 204.702L320.576 220.911L323.883 238.661L324.591 237.027L327.216 230.918L330.811 223.952L337.373 206.913L339.236 199.893C340.34 195.7 340.533 191.311 339.8 187.033L339.866 187.02Z" fill="#263238"/>
<path opacity="0.2" d="M329.722 192.084C319.631 192.177 318.516 188.386 318.516 188.386V187.542C318.516 187.542 315.471 193.396 324.224 194.428C332.977 195.459 338.816 191.226 340.063 188.681C339.091 189.967 336.48 192.03 329.722 192.084Z" fill="black"/>
<path d="M341.493 145.801C341.17 144.239 340.44 142.795 339.38 141.621C338.832 141.057 338.091 140.731 337.312 140.714C336.534 140.696 335.779 140.988 335.207 141.527C334.352 140.538 333.283 139.764 332.086 139.267C330.888 138.769 329.594 138.562 328.305 138.661C327.081 138.77 325.902 139.184 324.87 139.866C323.838 140.548 322.986 141.477 322.387 142.572C321.219 144.783 317.532 145.56 315.091 145.814C316.692 147.462 320.655 148.493 322.636 147.381C322.151 148.158 319.933 148.574 319.028 148.721C320.485 149.618 322.106 150.206 323.791 150.449C324.636 150.556 325.494 150.401 326.252 150.004C327.01 149.608 327.634 148.988 328.043 148.225C327.678 148.852 327.523 149.584 327.601 150.309C327.679 151.033 327.986 151.713 328.476 152.244C328.976 152.77 329.63 153.117 330.339 153.233C331.049 153.349 331.776 153.227 332.412 152.887C332.008 152.758 331.658 152.493 331.42 152.136C331.182 151.778 331.069 151.349 331.1 150.918C331.114 150.456 331.267 150.009 331.54 149.639C331.813 149.27 332.191 148.996 332.622 148.855C332.75 150.095 333.348 151.235 334.289 152.03C335.155 152.713 335.916 152.994 336.454 153.972C336.992 154.95 336.349 157.321 334.63 157.16C335.404 158.004 338.567 157.696 338.921 156.598C338.642 157.983 338.074 159.291 337.254 160.431C336.434 161.571 335.382 162.516 334.171 163.202C334.8 163.238 335.42 163.373 336.008 163.604C336.351 163.682 336.676 163.831 336.962 164.04C337.249 164.25 337.491 164.516 337.674 164.823C337.843 165.294 337.92 165.794 337.9 166.295C337.88 166.796 337.763 167.288 337.556 167.743C336.765 170.232 335.819 172.666 334.722 175.03C336.29 174.599 337.742 173.81 338.968 172.721C340.193 171.633 341.16 170.274 341.795 168.748C343.293 168.221 344.58 167.205 345.456 165.856C346.331 164.507 346.746 162.901 346.637 161.286C348.189 159.889 349.242 158.004 349.629 155.928C349.758 154.927 349.522 153.912 348.965 153.077C348.409 152.242 347.571 151.645 346.611 151.4C346.93 150.606 347.033 149.738 346.908 148.889C346.783 148.04 346.435 147.241 345.902 146.578C345.663 146.231 345.359 145.936 345.007 145.709C344.656 145.482 344.265 145.329 343.855 145.256C343.446 145.184 343.026 145.195 342.621 145.289C342.216 145.382 341.832 145.556 341.493 145.801Z" fill="#263238"/>
<path d="M341.467 166.109C340.61 167.643 339.196 168.769 337.53 169.244C335.312 169.846 334.223 167.797 334.906 165.653C335.496 163.738 337.359 161.112 339.59 161.42C339.973 161.487 340.339 161.63 340.668 161.841C340.996 162.052 341.281 162.327 341.505 162.651C341.729 162.974 341.889 163.34 341.975 163.726C342.06 164.113 342.071 164.513 342.005 164.903C341.92 165.342 341.735 165.755 341.467 166.109Z" fill="#B55B52"/>
<path d="M337.241 159.156L330.785 158.031C330.247 156.343 327.911 155.941 326.927 155.767C325.943 155.593 323.437 155.164 322.439 156.785L320.196 156.383C319.776 154.535 317.309 154.093 316.259 153.919C315.209 153.744 311.863 153.155 311.39 155.941C311.325 157.067 311.669 158.177 312.355 159.06C313.042 159.943 314.023 160.536 315.111 160.727C316.2 160.918 317.319 160.692 318.254 160.094C319.19 159.495 319.876 158.565 320.182 157.482C320.195 157.33 320.195 157.178 320.182 157.026L322.111 157.361C322.067 157.506 322.032 157.654 322.006 157.803C321.945 158.927 322.292 160.035 322.979 160.914C323.667 161.794 324.648 162.385 325.735 162.574C326.821 162.762 327.938 162.536 328.872 161.938C329.806 161.34 330.492 160.412 330.798 159.33C330.817 159.112 330.817 158.892 330.798 158.674L337.044 159.773C337.897 159.918 338.672 160.364 339.236 161.032L339.695 160.63C339.064 159.87 338.199 159.35 337.241 159.156ZM315.248 160.121C314.303 160.013 313.437 159.532 312.834 158.781C312.231 158.031 311.939 157.069 312.02 156.102C312.283 154.575 313.516 154.119 316.18 154.575C318.844 155.03 319.867 155.915 319.605 157.428C319.366 158.374 318.773 159.186 317.953 159.69C317.134 160.194 316.153 160.348 315.222 160.121H315.248ZM325.891 161.969C324.947 161.861 324.082 161.38 323.481 160.629C322.88 159.878 322.591 158.917 322.676 157.951C322.925 156.424 324.172 155.968 326.835 156.437C329.499 156.906 330.51 157.777 330.26 159.277C330.022 160.226 329.427 161.04 328.604 161.544C327.781 162.048 326.797 162.201 325.864 161.969H325.891Z" fill="#263238"/>
<path d="M251.947 213.611C261.622 216.164 271.678 216.863 281.603 215.674C286.749 206.487 293.723 198.501 302.074 192.231L305.748 206.297C305.748 206.297 294.804 224.046 285.946 228.132C278.926 231.374 257.865 225.6 249.414 223.055C249.54 219.751 250.407 216.52 251.947 213.611Z" fill="#263238"/>
<path d="M404.729 215.191C395.013 217.499 384.963 217.953 375.086 216.531C370.145 207.226 363.345 199.085 355.127 192.633L351.19 206.605C351.19 206.605 361.754 224.609 370.532 228.882C377.474 232.271 398.653 226.966 407.157 224.622C407.057 221.332 406.227 218.107 404.729 215.191Z" fill="#263238"/>
<path d="M318.555 184.582V188.386C318.555 188.386 319.343 192.512 329.434 192.405C339.525 192.298 340.706 187.435 340.706 187.435V184.676C340.712 184.211 340.616 183.75 340.427 183.327C340.237 182.904 339.957 182.53 339.608 182.231C339.258 181.932 338.848 181.716 338.407 181.599C337.966 181.482 337.505 181.467 337.058 181.555C332.075 182.354 327.002 182.354 322.019 181.555C321.593 181.498 321.16 181.534 320.748 181.659C320.336 181.784 319.954 181.997 319.628 182.282C319.301 182.567 319.037 182.919 318.852 183.316C318.668 183.712 318.566 184.143 318.555 184.582Z" fill="#263238"/>
</svg>
