<svg width="15" height="30" viewBox="0 0 15 30" fill="none" xmlns="http://www.w3.org/2000/svg">
<g clip-path="url(#clip0_51_80)">
<path d="M10.3099 9.59531C10.3099 9.59531 4.35286 10.2593 0.378986 10.7033C0.0208094 10.7469 -0.295894 10.9879 -0.414658 11.3541C-0.533422 11.7202 -0.414658 12.1016 -0.150738 12.3425C2.80139 15.0537 7.23713 19.1138 7.23713 19.1138C7.23336 19.1138 6.01933 25.02 5.21249 28.9606C5.14462 29.3173 5.27281 29.6948 5.58198 29.9206C5.88925 30.1464 6.28513 30.1502 6.59618 29.9737C10.0724 27.9854 15.2791 24.9953 15.2791 24.9953C15.2791 24.9953 20.4878 27.9854 23.9583 29.9756C24.275 30.1502 24.6709 30.1464 24.9782 29.9206C25.2874 29.6948 25.4155 29.3173 25.3458 28.9625C24.539 25.02 23.3268 19.1138 23.3268 19.1138C23.3268 19.1138 27.7625 15.0537 30.7147 12.3482C30.9786 12.0997 31.0955 11.7183 30.9786 11.3541C30.8617 10.9898 30.545 10.7488 30.1868 10.7071C26.213 10.2593 20.254 9.59531 20.254 9.59531C20.254 9.59531 17.7845 4.09707 16.1388 0.431572C15.9842 0.103347 15.6599 -0.126221 15.2791 -0.126221C14.8983 -0.126221 14.5722 0.105245 14.4252 0.431572C12.7776 4.09707 10.3099 9.59531 10.3099 9.59531Z" fill="#A72329"/>
</g>
<defs>
<clipPath id="clip0_51_80">
<rect width="15" height="30" fill="white"/>
</clipPath>
</defs>
</svg>
