<svg width="490" height="465" viewBox="0 0 490 465" fill="none" xmlns="http://www.w3.org/2000/svg">
<path d="M252.098 232.266H38.2814V11.1212H252.098V232.266ZM42.7432 227.805H247.636V15.5829H42.7432V227.805Z" fill="#EBEBEB"/>
<path d="M145.686 16.743H141.224V230.024H145.686V16.743Z" fill="#EBEBEB"/>
<path d="M256.147 20.145H34.2324V26.358H256.147V20.145Z" fill="#EBEBEB"/>
<path d="M256.147 27.1276H34.2324V33.3406H256.147V27.1276Z" fill="#EBEBEB"/>
<path d="M256.147 34.1213H34.2324V40.3343H256.147V34.1213Z" fill="#EBEBEB"/>
<path d="M256.147 41.1039H34.2324V47.3169H256.147V41.1039Z" fill="#EBEBEB"/>
<path d="M256.147 48.0977H34.2324V54.3106H256.147V48.0977Z" fill="#EBEBEB"/>
<path d="M256.147 55.0914H34.2324V61.3044H256.147V55.0914Z" fill="#EBEBEB"/>
<path d="M256.147 62.074H34.2324V68.287H256.147V62.074Z" fill="#EBEBEB"/>
<path d="M256.147 69.0677H34.2324V75.2807H256.147V69.0677Z" fill="#EBEBEB"/>
<path d="M256.147 76.0615H34.2324V82.2744H256.147V76.0615Z" fill="#EBEBEB"/>
<path d="M242.896 18.8846H241.78V162.095H242.896V18.8846Z" fill="#263238"/>
<path d="M244.324 167.281H240.364L241.357 161.593H243.331L244.324 167.281Z" fill="#263238"/>
<path d="M246.923 18.8846H245.807V226.053H246.923V18.8846Z" fill="#263238"/>
<path d="M248.339 230.236H244.379L245.372 224.547H247.346L248.339 230.236Z" fill="#263238"/>
<path d="M263.074 10.2512H27.3168V23.2459H263.074V10.2512Z" fill="#DBDBDB"/>
<path d="M381.923 40.5462C381.923 39.6093 382.046 37.133 382.046 36.0845C382.046 31.5447 380.439 29.4923 376.212 29.3919C374.215 29.2692 373.033 28.0869 373.033 26.4026C373.033 24.7183 374.215 23.5471 376.212 23.4244C380.439 23.2348 382.046 21.1935 382.046 16.6426C382.046 15.5271 381.923 13.0955 381.923 12.1808C381.923 6.14637 384.477 2.28699 394.115 0.178829C394.776 0.0083654 395.477 0.0958945 396.076 0.423646C396.675 0.751398 397.127 1.29481 397.34 1.94356C397.553 2.59231 397.511 3.29778 397.223 3.91676C396.934 4.53573 396.421 5.02182 395.788 5.27634C389.764 7.13911 388.894 9.0688 388.894 13.2963C388.894 14.5456 389.017 16.6426 389.017 17.903C389.017 22.744 386.652 25.1087 382.548 26.4137C386.719 27.7857 389.017 30.0835 389.017 34.9356C389.017 36.2407 388.894 38.2819 388.894 39.5312C388.894 43.7587 389.764 45.6883 395.788 47.5511C396.455 47.7814 397.004 48.2646 397.318 48.8965C397.632 49.5284 397.684 50.2583 397.465 50.9287C397.245 51.5991 396.771 52.1564 396.144 52.4802C395.517 52.8041 394.788 52.8686 394.115 52.6598C384.477 50.4958 381.923 46.6365 381.923 40.5462Z" fill="#EBEBEB"/>
<path d="M418.364 12.1362C418.364 13.062 418.241 15.5494 418.241 16.5979C418.241 21.2047 419.915 23.1901 424.142 23.3798C424.549 23.3549 424.957 23.4136 425.341 23.5522C425.724 23.6909 426.076 23.9067 426.373 24.1862C426.67 24.4657 426.907 24.8031 427.069 25.1775C427.23 25.552 427.314 25.9556 427.314 26.3635C427.314 26.7715 427.23 27.1751 427.069 27.5496C426.907 27.924 426.67 28.2614 426.373 28.5409C426.076 28.8204 425.724 29.0361 425.341 29.1748C424.957 29.3135 424.549 29.3722 424.142 29.3473C419.915 29.47 418.241 31.5224 418.241 36.0399C418.241 37.1553 418.364 39.5758 418.364 40.5016C418.364 46.5919 415.81 50.4512 406.172 52.5705C405.495 52.785 404.76 52.7216 404.129 52.3942C403.499 52.0669 403.024 51.5024 402.809 50.8249C402.595 50.1475 402.658 49.4125 402.986 48.7819C403.313 48.1512 403.878 47.6764 404.555 47.4619C410.523 45.5991 411.393 43.6694 411.393 39.442C411.393 38.2038 411.27 36.0957 411.27 34.8464C411.27 29.9943 413.635 27.6295 417.739 26.3245C413.568 24.9637 411.27 22.6547 411.27 17.8138C411.27 16.5087 411.393 14.4675 411.393 13.207C411.393 8.97957 410.523 7.04987 404.555 5.18711C403.91 4.94799 403.382 4.4698 403.08 3.85171C402.778 3.23362 402.726 2.52306 402.934 1.86743C403.142 1.21179 403.594 0.66138 404.197 0.330367C404.8 -0.000647063 405.508 -0.0868648 406.172 0.089596C415.81 2.26468 418.364 6.10176 418.364 12.1362Z" fill="#EBEBEB"/>
<path d="M417.126 229.221C417.482 229.589 417.722 230.052 417.819 230.555C417.915 231.057 417.863 231.576 417.669 232.05C417.475 232.523 417.148 232.93 416.726 233.22C416.305 233.51 415.808 233.671 415.297 233.683C414.582 233.689 413.891 233.422 413.367 232.935L401.633 221.023C401.51 221.023 401.465 220.9 401.421 220.777C401.385 220.741 401.344 220.71 401.298 220.688C401.241 220.583 401.199 220.47 401.175 220.353C401.142 220.338 401.114 220.315 401.092 220.286C401.071 220.256 401.057 220.222 401.053 220.186C401.053 220.108 401.053 219.985 400.963 219.941C400.874 219.896 400.885 219.773 400.885 219.729V219.439C400.885 219.361 400.885 219.316 400.885 219.193C400.885 219.071 400.885 219.026 400.885 218.981V218.691C400.885 218.602 400.963 218.558 400.963 218.524C400.963 218.491 400.963 218.312 401.053 218.189C401.142 218.067 401.053 218.189 401.053 218.1C401.11 217.973 401.177 217.85 401.253 217.732C401.253 217.708 401.263 217.686 401.279 217.669C401.296 217.652 401.319 217.643 401.343 217.643C401.397 217.526 401.482 217.426 401.588 217.353L413.322 205.451C413.829 204.968 414.502 204.698 415.202 204.698C415.902 204.698 416.575 204.968 417.081 205.451C417.33 205.697 417.527 205.99 417.662 206.312C417.797 206.635 417.866 206.981 417.866 207.331C417.866 207.68 417.797 208.026 417.662 208.349C417.527 208.672 417.33 208.964 417.081 209.21L407.187 219.249L417.126 229.221Z" fill="#EBEBEB"/>
<path d="M427.778 230.548L438.018 206.199C438.138 205.919 438.312 205.666 438.531 205.454C438.749 205.242 439.007 205.075 439.29 204.963C439.573 204.851 439.875 204.796 440.18 204.801C440.484 204.807 440.784 204.872 441.063 204.994C441.337 205.109 441.585 205.278 441.793 205.49C442 205.703 442.164 205.955 442.273 206.231C442.382 206.507 442.435 206.803 442.428 207.1C442.421 207.397 442.356 207.69 442.234 207.961L431.995 232.344C431.815 232.759 431.517 233.111 431.138 233.357C430.759 233.603 430.316 233.732 429.864 233.727C429.58 233.731 429.299 233.674 429.039 233.56C428.751 233.454 428.489 233.29 428.268 233.078C428.047 232.866 427.871 232.611 427.753 232.329C427.635 232.046 427.576 231.742 427.58 231.436C427.585 231.13 427.652 230.828 427.778 230.548Z" fill="#EBEBEB"/>
<path d="M462.446 220.733C462.364 220.843 462.266 220.94 462.156 221.023L450.421 232.935C449.914 233.416 449.241 233.684 448.542 233.684C447.843 233.684 447.17 233.416 446.662 232.935C446.414 232.69 446.217 232.397 446.082 232.074C445.947 231.752 445.878 231.406 445.878 231.056C445.878 230.706 445.947 230.36 446.082 230.038C446.217 229.715 446.414 229.422 446.662 229.176L456.556 219.138L446.662 209.099C446.414 208.853 446.217 208.56 446.082 208.238C445.947 207.915 445.878 207.569 445.878 207.219C445.878 206.87 445.947 206.524 446.082 206.201C446.217 205.878 446.414 205.586 446.662 205.34C447.169 204.856 447.842 204.587 448.542 204.587C449.242 204.587 449.915 204.856 450.421 205.34L462.156 217.241C462.263 217.327 462.361 217.424 462.446 217.531V217.621C462.526 217.738 462.597 217.861 462.658 217.989C462.658 217.989 462.658 217.989 462.658 218.078C462.68 218.206 462.721 218.33 462.78 218.446C462.78 218.446 462.78 218.446 462.78 218.58V218.87C462.78 218.87 462.78 219.037 462.78 219.082C462.78 219.126 462.78 219.249 462.78 219.283V219.617C462.78 219.617 462.78 219.617 462.78 219.707C462.727 219.825 462.686 219.948 462.658 220.075C462.658 220.075 462.658 220.075 462.658 220.208C462.658 220.342 462.535 220.565 462.446 220.733Z" fill="#EBEBEB"/>
<path d="M489.473 120.868C489.473 123.088 488.634 125.225 487.123 126.851C485.613 128.478 483.543 129.472 481.33 129.636H431.56C428.903 129.636 426.349 128.612 424.428 126.778C422.506 124.944 421.365 122.44 421.242 119.787C421.118 117.133 422.022 114.534 423.764 112.53C425.507 110.525 427.955 109.269 430.6 109.022C430.733 104.989 432.264 101.126 434.93 98.0966C437.597 95.0671 441.234 93.0588 445.219 92.4156C449.203 91.7723 453.287 92.5342 456.772 94.5708C460.256 96.6073 462.925 99.7919 464.32 103.579C465.75 102.849 467.332 102.467 468.938 102.464C471.568 102.464 474.099 103.467 476.015 105.268C477.932 107.068 479.091 109.532 479.255 112.157C479.727 112.08 480.205 112.042 480.683 112.045C481.841 112.044 482.987 112.271 484.056 112.714C485.125 113.158 486.096 113.808 486.913 114.628C487.73 115.448 488.377 116.422 488.816 117.493C489.255 118.564 489.479 119.711 489.473 120.868Z" fill="#DBDBDB"/>
<path d="M39.8096 411.36L90.9185 411.081L142.028 410.991L244.234 410.802L346.441 410.991L397.55 411.081L448.659 411.36L397.55 411.627L346.441 411.728L244.234 411.917L142.028 411.728L90.9185 411.627L39.8096 411.36Z" fill="#263238"/>
<path d="M61.3931 464.075C88.6711 464.075 110.784 459.83 110.784 454.594C110.784 449.357 88.6711 445.113 61.3931 445.113C34.1151 445.113 12.0019 449.357 12.0019 454.594C12.0019 459.83 34.1151 464.075 61.3931 464.075Z" fill="#EBEBEB"/>
<path d="M259.817 459.858C367.266 459.858 454.37 450.415 454.37 438.766C454.37 427.116 367.266 417.673 259.817 417.673C152.368 417.673 65.2637 427.116 65.2637 438.766C65.2637 450.415 152.368 459.858 259.817 459.858Z" fill="#EBEBEB"/>
<path d="M366.474 10.7308H278.233V67.0265H366.474V10.7308Z" fill="white"/>
<path d="M367.032 67.5843H277.697V10.1731H367.054L367.032 67.5843ZM278.79 66.4688H365.917V11.2885H278.813L278.79 66.4688Z" fill="#EBEBEB"/>
<path d="M366.474 10.7308H278.233V21.372H366.474V10.7308Z" fill="#A72329"/>
<path d="M367.032 21.9409H277.697V10.1731H367.054L367.032 21.9409ZM278.79 20.8255H365.917V11.2885H278.813L278.79 20.8255Z" fill="#EBEBEB"/>
<path d="M288.216 16.1295C288.209 16.656 288.047 17.1689 287.751 17.604C287.454 18.0391 287.036 18.377 286.548 18.5755C286.06 18.7739 285.524 18.8241 285.008 18.7197C284.492 18.6154 284.018 18.3611 283.646 17.9888C283.274 17.6164 283.019 17.1425 282.915 16.6263C282.811 16.1102 282.861 15.5747 283.059 15.0869C283.258 14.5992 283.596 14.1808 284.031 13.8841C284.466 13.5874 284.979 13.4256 285.505 13.419C285.862 13.4145 286.217 13.4815 286.548 13.6162C286.879 13.7508 287.179 13.9503 287.432 14.2029C287.684 14.4555 287.884 14.756 288.019 15.0869C288.153 15.4178 288.22 15.7723 288.216 16.1295Z" fill="#A6A6A6"/>
<path d="M299.158 16.1295C299.158 16.659 299.001 17.1765 298.707 17.6168C298.413 18.057 297.995 18.4001 297.506 18.6027C297.016 18.8054 296.478 18.8584 295.959 18.7551C295.44 18.6518 294.962 18.3968 294.588 18.0224C294.214 17.648 293.959 17.171 293.855 16.6517C293.752 16.1325 293.805 15.5942 294.008 15.105C294.21 14.6159 294.554 14.1978 294.994 13.9036C295.434 13.6095 295.952 13.4525 296.481 13.4525C297.191 13.4525 297.872 13.7345 298.374 14.2365C298.876 14.7386 299.158 15.4195 299.158 16.1295Z" fill="#EBEBEB"/>
<path d="M310.1 16.1295C310.1 16.659 309.943 17.1765 309.649 17.6168C309.355 18.057 308.937 18.4001 308.448 18.6027C307.959 18.8054 307.42 18.8584 306.901 18.7551C306.382 18.6518 305.905 18.3968 305.53 18.0224C305.156 17.648 304.901 17.171 304.798 16.6517C304.694 16.1325 304.747 15.5942 304.95 15.105C305.153 14.6159 305.496 14.1978 305.936 13.9036C306.376 13.6095 306.894 13.4525 307.423 13.4525C308.133 13.4525 308.814 13.7345 309.316 14.2365C309.818 14.7386 310.1 15.4195 310.1 16.1295Z" fill="white"/>
<path d="M293.458 42.4202C293.511 39.5707 294.68 36.8558 296.714 34.8595C298.748 32.8632 301.484 31.745 304.334 31.7455C306.803 31.7418 309.204 32.5579 311.16 34.0656C311.499 34.3524 311.717 34.7563 311.77 35.1967C311.824 35.6372 311.71 36.0816 311.45 36.4415C311.173 36.789 310.773 37.0165 310.332 37.0767C309.892 37.1369 309.446 37.0253 309.085 36.7649C307.731 35.6769 306.037 35.1004 304.3 35.1364C302.317 35.1436 300.411 35.9053 298.968 37.2669C297.604 38.6347 296.838 40.488 296.838 42.4202C296.837 43.38 297.027 44.3305 297.399 45.2155C297.771 46.1005 298.316 46.9023 299.002 47.5734C300.442 48.9391 302.349 49.7048 304.334 49.7151C306.071 49.7413 307.763 49.1615 309.119 48.0754C309.486 47.8316 309.929 47.731 310.365 47.7926C310.801 47.8543 311.199 48.074 311.484 48.41C311.742 48.7729 311.852 49.2206 311.792 49.662C311.732 50.1034 311.506 50.5053 311.16 50.7859C309.198 52.3052 306.782 53.1222 304.3 53.106C301.452 53.1034 298.72 51.9816 296.692 49.9826C294.663 47.9836 293.502 45.2676 293.458 42.4202Z" fill="#EBEBEB"/>
<path d="M316.581 47.9973C316.843 47.6869 317.217 47.4919 317.622 47.4543C318.027 47.4168 318.43 47.5397 318.745 47.7965C320.345 49.1296 322.332 49.9118 324.411 50.0274C325.731 50.0448 327.024 49.6553 328.115 48.912C328.485 48.6855 328.794 48.372 329.016 47.9988C329.237 47.6255 329.365 47.2039 329.386 46.7703C329.395 46.436 329.306 46.1063 329.13 45.8222C328.903 45.4645 328.598 45.1632 328.237 44.941C326.983 44.225 325.606 43.7484 324.177 43.5356H324.11C322.793 43.3246 321.508 42.9499 320.284 42.4202C319.165 41.9289 318.209 41.1277 317.529 40.1112C317.077 39.3813 316.841 38.5382 316.849 37.6796C316.876 36.822 317.105 35.9829 317.518 35.2308C317.931 34.4787 318.516 33.8348 319.225 33.3517C320.727 32.3013 322.522 31.751 324.356 31.779C326.697 31.899 328.948 32.7232 330.814 34.1437C331.146 34.3701 331.376 34.7184 331.453 35.113C331.531 35.5076 331.449 35.9168 331.227 36.2518C331.121 36.4223 330.983 36.5696 330.819 36.6849C330.655 36.8002 330.469 36.8812 330.273 36.9229C330.077 36.9646 329.875 36.9661 329.679 36.9275C329.482 36.8888 329.295 36.8108 329.13 36.698C327.767 35.5974 326.102 34.9362 324.356 34.8018C323.162 34.7764 321.992 35.1276 321.009 35.8057C320.687 36.0063 320.418 36.2811 320.224 36.6071C320.03 36.9331 319.917 37.3009 319.894 37.6796C319.874 37.9703 319.949 38.2596 320.106 38.505C320.315 38.8126 320.584 39.0744 320.898 39.2746C322.038 39.9506 323.3 40.3941 324.612 40.5797H324.668C326.078 40.8283 327.453 41.2478 328.762 41.829C329.963 42.3507 330.989 43.2063 331.717 44.2941C332.185 45.0476 332.432 45.917 332.431 46.8038C332.397 47.7065 332.149 48.5882 331.709 49.3771C331.269 50.1661 330.649 50.8399 329.899 51.3436C328.292 52.4668 326.372 53.056 324.411 53.0279C321.624 52.8923 318.957 51.8505 316.815 50.0608C316.534 49.8028 316.356 49.4519 316.313 49.0728C316.27 48.6937 316.365 48.3118 316.581 47.9973Z" fill="#EBEBEB"/>
<path d="M336.068 47.9973C336.33 47.6869 336.704 47.4919 337.109 47.4543C337.513 47.4168 337.917 47.5397 338.232 47.7965C339.827 49.1294 341.811 49.9118 343.887 50.0274C345.21 50.0449 346.507 49.6555 347.601 48.912C347.97 48.6833 348.277 48.3693 348.499 47.9966C348.72 47.6238 348.848 47.2032 348.873 46.7703C348.879 46.4348 348.786 46.1051 348.605 45.8222C348.378 45.4645 348.073 45.1632 347.713 44.941C346.458 44.225 345.081 43.7484 343.653 43.5356H343.597C342.28 43.3246 340.995 42.9499 339.771 42.4202C338.649 41.9321 337.692 41.1303 337.016 40.1112C336.56 39.3822 336.32 38.5392 336.324 37.6796C336.354 36.8226 336.584 35.9845 336.997 35.2327C337.409 34.481 337.993 33.8367 338.7 33.3517C340.203 32.3013 341.998 31.751 343.831 31.779C346.173 31.899 348.424 32.7232 350.289 34.1437C350.623 34.3683 350.855 34.7158 350.935 35.1106C351.014 35.5053 350.935 35.9155 350.713 36.2518C350.607 36.4226 350.467 36.5701 350.302 36.6856C350.137 36.801 349.951 36.882 349.754 36.9237C349.557 36.9654 349.354 36.9668 349.157 36.9281C348.959 36.8893 348.772 36.811 348.605 36.698C347.242 35.5974 345.578 34.9362 343.831 34.8018C342.638 34.7764 341.467 35.1276 340.485 35.8057C340.163 36.0063 339.893 36.2811 339.699 36.6071C339.505 36.9331 339.392 37.3009 339.369 37.6796C339.355 37.9698 339.429 38.2576 339.581 38.505C339.792 38.8152 340.066 39.0774 340.384 39.2746C341.521 39.9492 342.779 40.3927 344.088 40.5797H344.143C345.554 40.8251 346.929 41.2447 348.237 41.829C349.441 42.3505 350.471 43.2059 351.204 44.2941C351.671 45.0476 351.919 45.917 351.918 46.8038C351.881 47.7073 351.632 48.5893 351.19 49.3782C350.748 50.167 350.126 50.8404 349.375 51.3436C347.768 52.4688 345.848 53.0583 343.887 53.0279C341.102 52.8948 338.438 51.8525 336.302 50.0608C336.017 49.8054 335.835 49.4541 335.792 49.0737C335.749 48.6932 335.847 48.3102 336.068 47.9973Z" fill="#EBEBEB"/>
<path d="M427.377 62.2971H306.855V147.639H427.377V62.2971Z" fill="white"/>
<path d="M427.946 148.196H306.297V61.7394H427.946V148.196ZM307.412 147.081H426.83V62.8548H307.412V147.081Z" fill="#EBEBEB"/>
<path d="M427.377 62.2971H306.855V72.9383H427.377V62.2971Z" fill="#A72329"/>
<path d="M427.946 73.5072H306.297V61.7394H427.946V73.5072ZM307.412 72.3917H426.83V62.8548H307.412V72.3917Z" fill="#EBEBEB"/>
<path d="M316.849 67.6958C316.849 68.2253 316.692 68.7428 316.398 69.1831C316.103 69.6233 315.685 69.9664 315.196 70.1691C314.707 70.3717 314.169 70.4247 313.649 70.3214C313.13 70.2181 312.653 69.9631 312.279 69.5887C311.904 69.2144 311.649 68.7374 311.546 68.2181C311.443 67.6988 311.496 67.1605 311.698 66.6713C311.901 66.1822 312.244 65.7641 312.684 65.4699C313.125 65.1758 313.642 65.0188 314.172 65.0188C314.523 65.0188 314.871 65.088 315.196 65.2225C315.521 65.3571 315.816 65.5543 316.065 65.8029C316.313 66.0514 316.51 66.3466 316.645 66.6713C316.78 66.9961 316.849 67.3442 316.849 67.6958Z" fill="#A6A6A6"/>
<path d="M327.791 67.6958C327.793 68.2284 327.637 68.7497 327.343 69.1934C327.048 69.6372 326.629 69.9835 326.137 70.1883C325.645 70.3932 325.104 70.4474 324.581 70.344C324.059 70.2406 323.579 69.9844 323.202 69.6078C322.826 69.2311 322.569 68.7511 322.466 68.2286C322.363 67.7061 322.417 67.1647 322.622 66.6731C322.826 66.1814 323.173 65.7617 323.616 65.4671C324.06 65.1726 324.582 65.0166 325.114 65.0188C325.466 65.0188 325.814 65.088 326.139 65.2225C326.463 65.3571 326.758 65.5543 327.007 65.8028C327.256 66.0514 327.453 66.3465 327.587 66.6713C327.722 66.9961 327.791 67.3442 327.791 67.6958Z" fill="#EBEBEB"/>
<path d="M338.734 67.6958C338.736 68.2279 338.58 68.7488 338.286 69.1923C337.992 69.6358 337.573 69.9821 337.082 70.1873C336.591 70.3925 336.05 70.4473 335.528 70.3448C335.006 70.2424 334.526 69.9872 334.148 69.6117C333.771 69.2362 333.514 68.7573 333.41 68.2355C333.305 67.7137 333.358 67.1727 333.561 66.6808C333.764 66.189 334.108 65.7685 334.551 65.4726C334.993 65.1767 335.513 65.0188 336.045 65.0188C336.398 65.0173 336.747 65.0855 337.073 65.2193C337.399 65.3532 337.696 65.5502 337.945 65.7989C338.195 66.0476 338.393 66.3432 338.529 66.6687C338.664 66.9943 338.734 67.3433 338.734 67.6958Z" fill="white"/>
<path d="M323.965 94.1203H318.277V96.195H323.965V94.1203Z" fill="#EBEBEB"/>
<path d="M366.764 94.1203H328.115V96.195H366.764V94.1203Z" fill="#EBEBEB"/>
<path d="M381.064 94.1203H370.256V96.195H381.064V94.1203Z" fill="#A72329"/>
<path d="M405.793 121.939H394.985V124.014H405.793V121.939Z" fill="#EBEBEB"/>
<path d="M402.101 94.1203H383.418V96.195H402.101V94.1203Z" fill="#A6A6A6"/>
<path d="M329.654 99.6863H323.965V101.761H329.654V99.6863Z" fill="#EBEBEB"/>
<path d="M358.755 99.6863H333.669V101.761H358.755V99.6863Z" fill="#A6A6A6"/>
<path d="M392.419 121.939H367.333V124.014H392.419V121.939Z" fill="#A6A6A6"/>
<path d="M351.282 116.373H328.115V118.448H351.282V116.373Z" fill="#A6A6A6"/>
<path d="M344.623 105.252H333.669V107.327H344.623V105.252Z" fill="#A72329"/>
<path d="M388.448 110.818H377.495V112.893H388.448V110.818Z" fill="#A6A6A6"/>
<path d="M384.767 105.252H347.802V107.327H384.767V105.252Z" fill="#A6A6A6"/>
<path d="M365.08 121.939H328.115V124.014H365.08V121.939Z" fill="#A72329"/>
<path d="M411.872 99.6863H382.213V101.761H411.872V99.6863Z" fill="#A72329"/>
<path d="M379.871 99.6863H361.444V101.761H379.871V99.6863Z" fill="#EBEBEB"/>
<path d="M405.347 105.252H386.92V107.327H405.347V105.252Z" fill="#EBEBEB"/>
<path d="M329.654 105.252H323.965V107.327H329.654V105.252Z" fill="#EBEBEB"/>
<path d="M323.965 110.818H318.277V112.893H323.965V110.818Z" fill="#A6A6A6"/>
<path d="M343.987 110.818H328.115V112.893H343.987V110.818Z" fill="#EBEBEB"/>
<path d="M349.542 127.505H333.669V129.58H349.542V127.505Z" fill="#EBEBEB"/>
<path d="M395.319 133.071H369.742V135.146H395.319V133.071Z" fill="#A72329"/>
<path d="M377.127 127.505H352.275V129.58H377.127V127.505Z" fill="#A72329"/>
<path d="M366.798 133.071H346.318V135.146H366.798V133.071Z" fill="#EBEBEB"/>
<path d="M411.872 127.505H380.038V129.58H411.872V127.505Z" fill="#A6A6A6"/>
<path d="M343.407 133.071H333.669V135.146H343.407V133.071Z" fill="#A6A6A6"/>
<path d="M381.064 116.373H353.591V118.448H381.064V116.373Z" fill="#EBEBEB"/>
<path d="M406.552 116.373H383.418V118.448H406.552V116.373Z" fill="#A72329"/>
<path d="M374.84 110.818H347.412V112.893H374.84V110.818Z" fill="#A72329"/>
<path d="M323.965 116.373H318.277V118.448H323.965V116.373Z" fill="#EBEBEB"/>
<path d="M323.965 121.939H318.277V124.014H323.965V121.939Z" fill="#EBEBEB"/>
<path d="M329.654 127.505H323.965V129.58H329.654V127.505Z" fill="#A6A6A6"/>
<path d="M329.654 133.071H323.965V135.146H329.654V133.071Z" fill="#EBEBEB"/>
<path d="M321.79 88.6435C321.838 88.6884 321.877 88.7428 321.903 88.8033C321.93 88.8637 321.943 88.929 321.943 88.9949C321.943 89.0609 321.93 89.1261 321.903 89.1865C321.877 89.247 321.838 89.3014 321.79 89.3463C321.746 89.393 321.692 89.4299 321.632 89.4549C321.573 89.4798 321.509 89.4922 321.444 89.4913C321.378 89.4924 321.312 89.4802 321.251 89.4553C321.19 89.4303 321.134 89.3933 321.087 89.3463L318.857 87.1154C318.857 87.1154 318.857 87.1154 318.857 87.0596C318.857 87.0596 318.857 87.0596 318.857 86.9927C318.863 86.9748 318.863 86.9549 318.857 86.9369V86.8812C318.862 86.8592 318.862 86.8362 318.857 86.8142C318.857 86.8142 318.857 86.7585 318.857 86.7362L321.087 84.5053C321.184 84.4183 321.309 84.3701 321.439 84.3701C321.569 84.3701 321.694 84.4183 321.79 84.5053C321.838 84.5502 321.877 84.6046 321.903 84.665C321.93 84.7255 321.943 84.7907 321.943 84.8567C321.943 84.9226 321.93 84.9879 321.903 85.0483C321.877 85.1088 321.838 85.1631 321.79 85.208L319.939 87.0819L321.79 88.6435Z" fill="#A72329"/>
<path d="M323.787 88.9001L325.694 84.338C325.743 84.2354 325.829 84.1552 325.934 84.1138C326.04 84.0723 326.158 84.0727 326.263 84.1149C326.365 84.1614 326.445 84.2452 326.486 84.3491C326.528 84.453 326.528 84.5688 326.486 84.6726L324.545 89.2682C324.511 89.3437 324.457 89.4079 324.387 89.4533C324.318 89.4988 324.238 89.5235 324.155 89.5247C324.103 89.5363 324.05 89.5363 323.999 89.5247C323.938 89.5048 323.883 89.4709 323.837 89.4259C323.792 89.3809 323.757 89.3259 323.737 89.2653C323.716 89.2047 323.71 89.1402 323.719 89.0768C323.727 89.0134 323.751 88.9529 323.787 88.9001Z" fill="#A72329"/>
<path d="M330.267 87.0373L330.212 87.0931L327.981 89.324C327.936 89.3707 327.882 89.4076 327.823 89.4326C327.763 89.4575 327.699 89.4699 327.635 89.469C327.569 89.4701 327.503 89.4579 327.442 89.433C327.38 89.408 327.325 89.371 327.278 89.324C327.186 89.2301 327.135 89.104 327.135 88.9726C327.135 88.8412 327.186 88.7151 327.278 88.6212L329.13 86.7585L327.278 84.8846C327.186 84.7907 327.135 84.6646 327.135 84.5332C327.135 84.4018 327.186 84.2757 327.278 84.1818C327.374 84.0948 327.5 84.0467 327.629 84.0467C327.759 84.0467 327.884 84.0948 327.981 84.1818L330.212 86.4127H330.267V86.4908V86.5577V86.7585C330.269 86.7845 330.269 86.8106 330.267 86.8366C330.247 86.8662 330.236 86.9011 330.236 86.937C330.236 86.9728 330.247 87.0077 330.267 87.0373Z" fill="#A72329"/>
<path d="M483.07 140.176H394.828V196.472H483.07V140.176Z" fill="white"/>
<path d="M483.628 197.019H394.271V139.619H483.628V197.019ZM395.386 195.903H482.512V140.734H395.386V195.903Z" fill="#EBEBEB"/>
<path d="M483.07 140.176H394.828V150.818H483.07V140.176Z" fill="#A72329"/>
<path d="M483.628 151.375H394.271V139.619H483.628V151.375ZM395.386 150.26H482.512V140.734H395.386V150.26Z" fill="#EBEBEB"/>
<path d="M404.856 145.575C404.858 146.107 404.703 146.628 404.408 147.072C404.114 147.515 403.695 147.861 403.204 148.067C402.713 148.272 402.173 148.327 401.65 148.224C401.128 148.122 400.648 147.867 400.271 147.491C399.894 147.116 399.637 146.637 399.532 146.115C399.428 145.593 399.48 145.052 399.683 144.56C399.886 144.068 400.231 143.648 400.673 143.352C401.116 143.056 401.636 142.898 402.168 142.898C402.52 142.897 402.87 142.965 403.196 143.099C403.522 143.232 403.818 143.429 404.068 143.678C404.318 143.927 404.516 144.223 404.651 144.548C404.786 144.874 404.856 145.223 404.856 145.575Z" fill="#A6A6A6"/>
<path d="M415.754 145.575C415.754 146.105 415.597 146.622 415.303 147.062C415.009 147.503 414.591 147.846 414.101 148.048C413.612 148.251 413.074 148.304 412.555 148.201C412.035 148.097 411.558 147.842 411.184 147.468C410.81 147.094 410.555 146.617 410.451 146.097C410.348 145.578 410.401 145.04 410.604 144.551C410.806 144.061 411.149 143.643 411.59 143.349C412.03 143.055 412.547 142.898 413.077 142.898C413.429 142.897 413.778 142.965 414.103 143.099C414.429 143.233 414.724 143.43 414.973 143.679C415.222 143.928 415.419 144.223 415.553 144.549C415.687 144.874 415.755 145.223 415.754 145.575Z" fill="#EBEBEB"/>
<path d="M426.696 145.575C426.696 146.105 426.539 146.622 426.245 147.062C425.951 147.503 425.533 147.846 425.044 148.048C424.555 148.251 424.016 148.304 423.497 148.201C422.978 148.097 422.501 147.842 422.126 147.468C421.752 147.094 421.497 146.617 421.394 146.097C421.29 145.578 421.343 145.04 421.546 144.551C421.749 144.061 422.092 143.643 422.532 143.349C422.972 143.055 423.49 142.898 424.019 142.898C424.371 142.897 424.72 142.965 425.045 143.099C425.371 143.233 425.667 143.43 425.915 143.679C426.164 143.928 426.361 144.223 426.496 144.549C426.63 144.874 426.698 145.223 426.696 145.575Z" fill="white"/>
<path d="M411.303 171.866C411.359 169.017 412.529 166.304 414.562 164.308C416.595 162.313 419.33 161.193 422.179 161.191C424.658 161.173 427.07 161.99 429.028 163.511C429.35 163.798 429.552 164.196 429.593 164.626C429.633 165.055 429.51 165.485 429.247 165.827C428.984 166.169 428.601 166.399 428.175 166.47C427.75 166.541 427.313 166.448 426.953 166.211C425.604 165.119 423.913 164.539 422.179 164.571C420.194 164.581 418.287 165.347 416.847 166.712C416.165 167.387 415.623 168.189 415.252 169.074C414.881 169.958 414.687 170.907 414.683 171.866C414.681 172.827 414.871 173.78 415.243 174.667C415.615 175.554 416.16 176.357 416.847 177.03C418.289 178.392 420.195 179.153 422.179 179.161C423.912 179.193 425.601 178.617 426.953 177.532C427.32 177.286 427.764 177.183 428.202 177.243C428.64 177.303 429.041 177.521 429.329 177.856C429.59 178.216 429.704 178.662 429.648 179.103C429.592 179.544 429.37 179.948 429.028 180.231C427.067 181.744 424.656 182.557 422.179 182.54C419.326 182.55 416.585 181.434 414.549 179.436C412.514 177.438 411.347 174.718 411.303 171.866Z" fill="#EBEBEB"/>
<path d="M439.736 173.74H435.519C435.087 173.74 434.673 173.568 434.368 173.263C434.062 172.957 433.891 172.543 433.891 172.111C433.894 171.679 434.066 171.265 434.37 170.959C434.675 170.652 435.087 170.477 435.519 170.471H439.736V166.356C439.733 166.133 439.774 165.912 439.858 165.706C439.941 165.499 440.065 165.312 440.222 165.154C440.378 164.996 440.565 164.871 440.771 164.786C440.977 164.701 441.197 164.659 441.42 164.66C441.87 164.66 442.301 164.839 442.619 165.157C442.937 165.475 443.115 165.906 443.115 166.356V170.471H447.321C447.753 170.477 448.165 170.652 448.47 170.959C448.774 171.265 448.946 171.679 448.949 172.111C448.949 172.543 448.777 172.957 448.472 173.263C448.167 173.568 447.752 173.74 447.321 173.74H443.115V177.856C443.115 178.305 442.937 178.737 442.619 179.054C442.301 179.372 441.87 179.551 441.42 179.551C441.197 179.553 440.977 179.51 440.771 179.425C440.565 179.34 440.378 179.215 440.222 179.057C440.065 178.899 439.941 178.712 439.858 178.505C439.774 178.299 439.733 178.078 439.736 177.856V173.74Z" fill="#EBEBEB"/>
<path d="M458.118 173.74H453.935C453.503 173.74 453.089 173.568 452.783 173.263C452.478 172.957 452.306 172.543 452.306 172.111C452.309 171.679 452.481 171.265 452.786 170.959C453.09 170.652 453.503 170.477 453.935 170.471H458.151V166.356C458.148 166.133 458.19 165.912 458.273 165.706C458.357 165.499 458.48 165.312 458.637 165.154C458.794 164.996 458.981 164.871 459.187 164.786C459.392 164.701 459.613 164.659 459.836 164.66C460.284 164.663 460.714 164.843 461.031 165.16C461.349 165.477 461.528 165.907 461.531 166.356V170.471H465.736C466.168 170.477 466.581 170.652 466.885 170.959C467.19 171.265 467.362 171.679 467.365 172.111C467.365 172.543 467.193 172.957 466.888 173.263C466.582 173.568 466.168 173.74 465.736 173.74H461.531V177.856C461.528 178.304 461.349 178.734 461.031 179.051C460.714 179.369 460.284 179.548 459.836 179.551C459.613 179.553 459.392 179.51 459.187 179.425C458.981 179.34 458.794 179.215 458.637 179.057C458.48 178.899 458.357 178.712 458.273 178.505C458.19 178.299 458.148 178.078 458.151 177.856L458.118 173.74Z" fill="#EBEBEB"/>
<path d="M468.993 46.6476H408.883V68.9005H468.993V46.6476Z" fill="#455A64"/>
<path d="M417.561 62.3975V52.526C417.559 52.404 417.582 52.2829 417.628 52.1699C417.674 52.0569 417.742 51.9542 417.829 51.868C417.915 51.7817 418.018 51.7136 418.131 51.6676C418.244 51.6216 418.365 51.5987 418.487 51.6002C418.609 51.5987 418.731 51.6215 418.844 51.6674C418.958 51.7133 419.061 51.7812 419.149 51.8673C419.236 51.9534 419.305 52.056 419.352 52.1691C419.399 52.2821 419.424 52.4034 419.424 52.526V56.5415H423.752V52.526C423.75 52.404 423.773 52.2829 423.819 52.1699C423.865 52.0569 423.933 51.9542 424.019 51.868C424.106 51.7817 424.208 51.7136 424.321 51.6676C424.434 51.6216 424.555 51.5987 424.677 51.6002C424.8 51.5987 424.921 51.6215 425.035 51.6674C425.149 51.7133 425.252 51.7812 425.339 51.8673C425.426 51.9534 425.496 52.056 425.543 52.1691C425.59 52.2821 425.614 52.4034 425.614 52.526V62.3975C425.613 62.5191 425.587 62.6392 425.54 62.751C425.492 62.8627 425.422 62.964 425.335 63.0489C425.248 63.1338 425.145 63.2008 425.033 63.246C424.92 63.2911 424.799 63.3136 424.677 63.3122C424.556 63.3152 424.435 63.2936 424.322 63.2489C424.209 63.2041 424.106 63.1371 424.02 63.0517C423.934 62.9663 423.865 62.8643 423.819 62.7519C423.773 62.6395 423.75 62.519 423.752 62.3975V58.382H419.424V62.3975C419.422 62.5191 419.397 62.6392 419.349 62.751C419.301 62.8627 419.232 62.964 419.145 63.0489C419.058 63.1338 418.955 63.2008 418.842 63.246C418.729 63.2911 418.608 63.3136 418.487 63.3122C418.365 63.3152 418.244 63.2936 418.132 63.2489C418.019 63.2041 417.916 63.1371 417.829 63.0517C417.743 62.9663 417.675 62.8643 417.628 62.7519C417.582 62.6395 417.559 62.519 417.561 62.3975Z" fill="white"/>
<path d="M436.59 53.4629H433.924V62.3864C433.926 62.5069 433.903 62.6265 433.858 62.7381C433.812 62.8498 433.745 62.9512 433.66 63.0364C433.574 63.1217 433.473 63.189 433.361 63.2344C433.25 63.2799 433.13 63.3025 433.01 63.301C432.766 63.301 432.532 63.205 432.359 63.0338C432.186 62.8626 432.087 62.63 432.084 62.3864V53.4629H429.396C429.274 53.4615 429.154 53.4361 429.042 53.3882C428.93 53.3403 428.829 53.2709 428.744 53.1839C428.659 53.0969 428.592 52.994 428.547 52.8811C428.502 52.7682 428.479 52.6475 428.481 52.526C428.478 52.4045 428.499 52.2837 428.544 52.1707C428.589 52.0578 428.656 51.955 428.741 51.8686C428.827 51.7822 428.929 51.7138 429.041 51.6677C429.154 51.6216 429.274 51.5986 429.396 51.6002H436.545C436.667 51.6001 436.786 51.6242 436.898 51.6708C437.01 51.7175 437.111 51.7859 437.196 51.872C437.281 51.9581 437.348 52.0602 437.394 52.1725C437.439 52.2848 437.462 52.4049 437.46 52.526C437.461 52.7633 437.371 52.992 437.21 53.1659C437.048 53.3398 436.827 53.446 436.59 53.4629Z" fill="white"/>
<path d="M450.343 52.5259V62.3975C450.338 62.6421 450.236 62.8747 450.061 63.0457C449.886 63.2166 449.651 63.3122 449.406 63.3122C449.285 63.3136 449.165 63.2911 449.053 63.2458C448.941 63.2004 448.839 63.1333 448.752 63.0482C448.666 62.9632 448.598 62.8618 448.551 62.7501C448.505 62.6384 448.481 62.5186 448.481 62.3975V55.348L446.071 58.6943C445.989 58.8159 445.877 58.9152 445.747 58.9833C445.616 59.0514 445.471 59.0862 445.324 59.0847C445.174 59.087 445.025 59.0527 444.891 58.9846C444.757 58.9166 444.641 58.817 444.554 58.6943L442.156 55.348V62.3975C442.156 62.643 442.059 62.8785 441.885 63.0521C441.711 63.2258 441.476 63.3233 441.23 63.3233C440.985 63.3233 440.749 63.2258 440.576 63.0521C440.402 62.8785 440.305 62.643 440.305 62.3975V52.5259C440.304 52.2823 440.401 52.0485 440.572 51.8752C440.743 51.7019 440.976 51.6031 441.219 51.6001H441.275C441.42 51.6004 441.563 51.6361 441.691 51.7041C441.82 51.7722 441.929 51.8705 442.011 51.9905L445.357 56.6084L448.704 51.9905C448.786 51.8689 448.898 51.7696 449.028 51.7015C449.159 51.6334 449.304 51.5986 449.451 51.6001C449.688 51.6166 449.91 51.7204 450.075 51.8914C450.24 52.0624 450.336 52.2885 450.343 52.5259Z" fill="white"/>
<path d="M454.392 62.3975V52.526C454.392 52.2823 454.488 52.0485 454.66 51.8752C454.831 51.7019 455.063 51.6031 455.307 51.6002C455.554 51.6001 455.79 51.6973 455.966 51.8706C456.141 52.0439 456.241 52.2794 456.244 52.526V61.4494H460.784C461.029 61.4494 461.265 61.5469 461.438 61.7206C461.612 61.8942 461.71 62.1297 461.71 62.3752C461.71 62.6207 461.612 62.8562 461.438 63.0298C461.265 63.2035 461.029 63.301 460.784 63.301H455.307C455.066 63.301 454.835 63.2062 454.664 63.0371C454.493 62.8679 454.395 62.6382 454.392 62.3975Z" fill="white"/>
<path d="M316.838 118.749H267.301V141.002H316.838V118.749Z" fill="#455A64"/>
<path d="M282.036 130.874H279.984V134.499C279.959 134.728 279.85 134.94 279.678 135.094C279.506 135.249 279.283 135.334 279.052 135.334C278.822 135.334 278.599 135.249 278.427 135.094C278.255 134.94 278.146 134.728 278.121 134.499V124.627C278.124 124.384 278.223 124.151 278.396 123.98C278.569 123.809 278.803 123.713 279.047 123.713H282.036C282.506 123.713 282.972 123.805 283.406 123.985C283.841 124.165 284.236 124.429 284.568 124.761C284.901 125.094 285.164 125.489 285.344 125.923C285.524 126.357 285.617 126.823 285.617 127.293C285.617 127.763 285.524 128.229 285.344 128.663C285.164 129.098 284.901 129.493 284.568 129.825C284.236 130.157 283.841 130.421 283.406 130.601C282.972 130.781 282.506 130.874 282.036 130.874ZM279.984 129.011H282.036C282.274 129.03 282.514 129 282.739 128.922C282.965 128.844 283.172 128.72 283.347 128.558C283.523 128.396 283.663 128.2 283.759 127.981C283.854 127.762 283.904 127.526 283.904 127.288C283.904 127.049 283.854 126.813 283.759 126.594C283.663 126.375 283.523 126.179 283.347 126.017C283.172 125.855 282.965 125.731 282.739 125.653C282.514 125.575 282.274 125.545 282.036 125.564H279.984V129.011Z" fill="white"/>
<path d="M287.881 134.499V124.627C287.881 124.382 287.979 124.146 288.152 123.973C288.326 123.799 288.561 123.701 288.807 123.701C289.052 123.701 289.288 123.799 289.462 123.973C289.635 124.146 289.733 124.382 289.733 124.627V128.643H294.072V124.627C294.07 124.506 294.093 124.385 294.139 124.273C294.185 124.16 294.254 124.059 294.34 123.973C294.427 123.888 294.529 123.821 294.642 123.776C294.755 123.731 294.876 123.71 294.998 123.713C295.119 123.711 295.24 123.734 295.353 123.779C295.466 123.824 295.568 123.891 295.655 123.976C295.742 124.061 295.812 124.162 295.86 124.274C295.908 124.386 295.933 124.506 295.934 124.627V134.499C295.934 134.621 295.91 134.743 295.863 134.856C295.816 134.969 295.747 135.071 295.659 135.157C295.572 135.244 295.469 135.312 295.355 135.357C295.242 135.403 295.12 135.426 294.998 135.425C294.876 135.426 294.754 135.403 294.641 135.357C294.528 135.311 294.426 135.243 294.34 135.157C294.253 135.071 294.185 134.968 294.139 134.855C294.093 134.742 294.07 134.621 294.072 134.499V130.539H289.733V134.555C289.733 134.8 289.635 135.036 289.462 135.209C289.288 135.383 289.052 135.48 288.807 135.48C288.561 135.48 288.326 135.383 288.152 135.209C287.979 135.036 287.881 134.8 287.881 134.555V134.499Z" fill="white"/>
<path d="M303.664 130.874H301.601V134.499C301.598 134.745 301.498 134.981 301.322 135.154C301.147 135.327 300.91 135.425 300.664 135.425C300.42 135.422 300.188 135.323 300.016 135.15C299.845 134.976 299.749 134.742 299.749 134.499V124.627C299.749 124.385 299.846 124.152 300.017 123.981C300.189 123.809 300.421 123.713 300.664 123.713H303.664C304.135 123.713 304.6 123.805 305.035 123.985C305.469 124.165 305.864 124.429 306.196 124.761C306.529 125.094 306.792 125.489 306.972 125.923C307.152 126.357 307.245 126.823 307.245 127.293C307.245 127.763 307.152 128.229 306.972 128.663C306.792 129.098 306.529 129.493 306.196 129.825C305.864 130.157 305.469 130.421 305.035 130.601C304.6 130.781 304.135 130.874 303.664 130.874ZM301.601 129.011H303.664C303.902 129.03 304.142 129 304.367 128.922C304.593 128.844 304.8 128.72 304.976 128.558C305.151 128.396 305.291 128.2 305.387 127.981C305.483 127.762 305.532 127.526 305.532 127.288C305.532 127.049 305.483 126.813 305.387 126.594C305.291 126.375 305.151 126.179 304.976 126.017C304.8 125.855 304.593 125.731 304.367 125.653C304.142 125.575 303.902 125.545 303.664 125.564H301.601V129.011Z" fill="white"/>
<path d="M252.6 303.91L255.478 321.211L275.02 426.741H278.177L263.966 321.211L261.858 303.91H252.6Z" fill="#A6A6A6"/>
<path d="M261.858 303.91H252.6L255.478 321.211H263.966L261.858 303.91Z" fill="#263238"/>
<path d="M191.229 426.741H194.386L213.917 321.211L216.806 303.91H207.537L205.44 321.211L191.229 426.741Z" fill="#A6A6A6"/>
<path d="M207.537 303.91L205.44 321.211H213.917L216.806 303.91H207.537Z" fill="#263238"/>
<path d="M132.624 426.741H135.77L155.312 321.211L158.19 303.91H148.932L146.835 321.211L132.624 426.741Z" fill="#A6A6A6"/>
<path d="M146.835 321.211H155.312L158.19 303.91H148.932L146.835 321.211Z" fill="#263238"/>
<path d="M137.61 312.042H280.809V296.95H227.202L209.187 169.824H143.076L137.61 312.042Z" fill="#A6A6A6"/>
<path d="M137.61 312.042H145.418L150.505 169.824H143.076L137.61 312.042Z" fill="#DBDBDB"/>
<path d="M231.53 179.852L228.763 179.562C228.841 176.004 227.157 170.371 227.447 173.148C227.591 175.238 227.498 177.337 227.168 179.406L184.938 175.078C184.938 169.702 188.206 161.202 188.206 161.202C185.05 165.329 183.365 171.453 182.629 174.844L178.167 174.387C178.045 171.163 179.718 165.854 179.718 165.854C178.29 167.872 177.152 171.799 176.561 174.23L171.531 173.706C172.247 167.042 174.97 160.752 179.339 155.67C183.254 150.929 184.916 146.813 185.585 135.804C186.344 122.586 195.557 118.916 196.985 117.455C209.6 104.505 230.381 117.578 228.306 133.997C226.744 146.356 225.294 147.694 229.845 159.395C233.281 168.185 231.53 179.852 231.53 179.852Z" fill="#263238"/>
<path d="M203.867 174.364C210.258 197.654 215.59 215.702 222.26 220.097C227.648 223.633 235.211 226.12 242.985 227.905C251.301 229.648 259.722 230.852 268.194 231.508C270.804 231.72 272.979 231.854 274.518 231.965C278.333 232.21 284.557 207.024 281.88 203.957C281.255 203.254 278.746 202.707 275.188 202.261C263.319 200.778 239.94 200.421 238.546 199.093C237.151 197.766 229.622 187.738 219.36 174.632C212.311 165.575 206.533 162.909 204.168 165.419C202.874 166.791 202.64 169.869 203.867 174.364Z" fill="#EB9481"/>
<path d="M266.866 229.366C270.552 231.008 274.341 232.405 278.21 233.549C281.3 234.319 290.235 236.304 291.417 232.991C292.231 230.76 287.111 228.942 283.52 227.604C281.635 226.901 279.259 225.027 279.772 223.811C280.653 221.681 285.528 223.611 288.751 225.328C294.975 228.675 303.341 234.72 306.955 231.497C308.316 230.27 306.598 228.206 304.133 226.198C308.104 228.496 312.32 230.337 313.882 229.043C314.288 228.71 314.551 228.235 314.618 227.714C314.684 227.193 314.549 226.667 314.239 226.243C314.736 226.456 315.286 226.514 315.817 226.411C316.348 226.308 316.836 226.047 317.217 225.663C318.433 224.302 317.741 222.372 316.291 220.42C316.527 220.387 316.751 220.297 316.945 220.16C317.139 220.022 317.297 219.84 317.407 219.628C319.927 215.457 306.118 204.247 301.456 203.332C287.725 200.599 273.291 202.306 273.291 202.306C268.105 206.779 266.855 229.355 266.866 229.366Z" fill="#EB9481"/>
<path d="M286.42 215.936C289.684 216.299 292.827 217.381 295.622 219.104C298.879 221.168 301.512 224.057 304.546 226.41C304.635 226.477 304.546 226.6 304.445 226.533C303.018 225.306 301.456 224.224 299.984 223.053C298.511 221.882 297.128 220.722 295.611 219.706C292.867 217.795 289.724 216.533 286.42 216.014C286.42 216.014 286.375 215.936 286.42 215.936Z" fill="#263238"/>
<path d="M288.74 210.069C292.406 210.797 295.99 211.892 299.437 213.337C303.14 215.055 306.13 217.978 308.996 220.777C310.736 222.458 312.443 224.179 314.116 225.942C314.183 226.009 314.116 226.131 314.004 226.064C311.03 223.164 307.996 220.357 304.903 217.643C302.029 215.107 298.681 213.166 295.053 211.932C292.979 211.218 290.848 210.683 288.729 210.136C288.684 210.125 288.695 210.069 288.74 210.069Z" fill="#263238"/>
<path d="M292.376 204.882C295.879 205.462 298.935 205.998 302.08 207.716C305.614 209.887 308.866 212.488 311.762 215.457C313.346 217.029 314.874 218.658 316.38 220.298C316.447 220.365 316.325 220.476 316.269 220.409C312.826 216.806 309.152 213.43 305.271 210.303C303.451 208.781 301.403 207.554 299.203 206.667C296.978 205.884 294.691 205.295 292.365 204.905C292.365 204.905 292.354 204.882 292.376 204.882Z" fill="#263238"/>
<path d="M203.867 174.364C210.258 197.654 215.59 215.702 222.26 220.097C227.648 223.633 235.211 226.12 242.985 227.905L204.202 165.441C202.874 166.791 202.64 169.869 203.867 174.364Z" fill="#263238"/>
<path d="M201.848 170.438C202.517 177.532 207.169 189.735 207.169 189.735L231.786 187.649C231.786 187.649 222.272 173.706 212.367 165.775C211.438 165.023 210.414 164.397 209.321 163.913C205.005 162.061 201.223 163.79 201.848 170.438Z" fill="#A72329"/>
<path d="M201.848 170.438C201.848 170.806 201.926 171.196 201.993 171.553C202.06 171.91 202.105 172.167 202.171 172.49C203.382 178.35 205.053 184.105 207.169 189.701L208.15 189.623L209.109 189.545L216.851 188.887L217.966 188.787L225.674 188.129L226.666 188.051L229.5 187.805L209.321 163.913C205.005 162.061 201.168 163.801 201.848 170.438Z" fill="#263238"/>
<path d="M380.573 426.686C377.919 427.567 299.984 426.92 297.106 425.057C296.76 424.856 296.671 417.807 296.704 408.158V407.969C296.62 401.157 296.173 394.354 295.366 387.59L295.232 386.474C293.179 368.482 289.655 350.993 289.655 350.993L338.432 350.814L345.125 386.508L345.248 387.623L346.62 400.919C346.62 400.919 357.127 405.381 366.274 409.764C371.918 412.464 376.814 414.929 377.941 415.832C380.919 418.186 383.228 425.827 380.573 426.686Z" fill="#EB9481"/>
<path d="M380.573 426.686C377.919 427.567 299.984 426.92 297.106 425.057C296.76 424.856 296.671 417.807 296.704 408.158V407.969C296.62 401.157 296.173 394.354 295.366 387.59L295.232 386.474H345.158L345.281 387.59L346.653 400.886C346.653 400.886 357.16 405.347 366.307 409.731C371.951 412.43 376.848 414.895 377.974 415.799C380.919 418.186 383.228 425.827 380.573 426.686Z" fill="#EBEBEB"/>
<path d="M380.897 426.987C378.164 427.868 300.129 426.987 297.173 425.113C296.057 424.399 295.009 412.352 296.213 399.056L346.519 399.659C346.519 399.659 375.286 413.345 378.309 415.788C381.332 418.231 383.663 426.128 380.897 426.987Z" fill="#A72329"/>
<path d="M379.815 423.897C366.731 423.429 313.949 422.782 300.987 423.339C300.876 423.339 300.876 423.417 300.987 423.417C313.938 424.165 366.731 424.365 379.804 424.109C380.083 424.053 380.082 423.897 379.815 423.897Z" fill="#263238"/>
<path d="M373.312 412.921C371.866 412.874 370.426 413.126 369.083 413.662C367.739 414.197 366.521 415.005 365.504 416.033C363.642 417.879 362.567 420.373 362.503 422.994C362.503 423.072 362.648 423.072 362.66 422.994C363.131 420.407 364.428 418.044 366.357 416.258C368.286 414.472 370.742 413.36 373.356 413.089C373.374 413.079 373.388 413.064 373.395 413.045C373.403 413.027 373.405 413.007 373.399 412.987C373.394 412.968 373.383 412.951 373.367 412.939C373.351 412.927 373.332 412.921 373.312 412.921Z" fill="#263238"/>
<path d="M350.613 401.008C345.382 400.886 339.291 402.67 335.99 406.909C335.867 407.076 336.101 407.255 336.257 407.177C340.86 404.823 345.703 402.972 350.702 401.655C350.773 401.629 350.833 401.579 350.872 401.513C350.911 401.448 350.927 401.371 350.917 401.296C350.906 401.221 350.87 401.151 350.815 401.099C350.76 401.047 350.689 401.015 350.613 401.008Z" fill="#263238"/>
<path d="M354.662 402.637C349.431 402.503 343.34 404.288 340.039 408.538C339.905 408.694 340.15 408.872 340.306 408.794C344.908 406.447 349.747 404.596 354.74 403.273C354.815 403.252 354.881 403.206 354.924 403.141C354.968 403.076 354.987 402.998 354.977 402.921C354.968 402.844 354.93 402.772 354.872 402.72C354.815 402.668 354.74 402.638 354.662 402.637Z" fill="#263238"/>
<path d="M358.666 404.254C353.424 404.12 347.334 405.905 344.043 410.155C343.909 410.311 344.143 410.501 344.3 410.423C348.92 408.064 353.781 406.213 358.8 404.901C358.874 404.873 358.936 404.819 358.974 404.749C359.012 404.68 359.025 404.599 359.009 404.521C358.992 404.443 358.949 404.373 358.886 404.325C358.824 404.276 358.746 404.251 358.666 404.254Z" fill="#263238"/>
<path d="M362.693 405.872C357.45 405.738 351.36 407.523 348.07 411.772C347.936 411.94 348.17 412.118 348.326 412.04C352.929 409.685 357.772 407.834 362.771 406.519C362.842 406.493 362.902 406.444 362.942 406.379C362.981 406.315 362.998 406.239 362.989 406.164C362.979 406.089 362.945 406.02 362.892 405.966C362.838 405.913 362.768 405.88 362.693 405.872Z" fill="#263238"/>
<path d="M304.468 410.902C298.6 410.902 298.511 419.993 304.401 420.038C310.29 420.082 310.335 410.958 304.468 410.902Z" fill="#263238"/>
<path d="M356.424 387.088C353.792 384.857 350.434 386.976 348.772 389.241C345.987 393.192 344.298 397.81 343.876 402.626C343.874 402.646 343.876 402.667 343.884 402.686C343.891 402.706 343.903 402.723 343.918 402.737C343.933 402.751 343.951 402.761 343.971 402.767C343.991 402.773 344.011 402.774 344.032 402.771C344.051 402.87 344.093 402.963 344.155 403.043C344.217 403.123 344.297 403.186 344.389 403.229C344.48 403.271 344.581 403.291 344.682 403.287C344.782 403.283 344.881 403.255 344.969 403.206C348.728 400.674 353.056 398.421 355.922 394.807C357.595 392.665 358.912 389.207 356.424 387.088ZM349.877 398.153C348.059 399.447 346.196 400.64 344.422 402.001C345.393 399.402 346.229 396.77 347.456 394.271C348.028 393.058 348.68 391.884 349.408 390.758C350.524 389.04 355.755 384.723 356.212 390.423C356.469 393.58 352.041 396.625 349.877 398.164V398.153Z" fill="#263238"/>
<path d="M330.847 404.388C335.398 405.135 340.117 403.897 344.601 403.273C344.699 403.249 344.79 403.202 344.867 403.136C344.944 403.07 345.004 402.988 345.043 402.894C345.082 402.801 345.099 402.7 345.092 402.599C345.085 402.498 345.054 402.4 345.002 402.313C345.018 402.301 345.032 402.285 345.041 402.266C345.05 402.248 345.054 402.228 345.054 402.207C345.054 402.187 345.05 402.167 345.041 402.148C345.032 402.13 345.018 402.114 345.002 402.101C341.45 398.842 337.103 396.572 332.398 395.52C329.654 394.963 325.705 395.654 325.293 399.079C324.891 402.28 328.193 403.953 330.847 404.388ZM327.713 401.376C324.222 396.848 330.97 396.558 332.978 397.049C334.273 397.396 335.543 397.828 336.782 398.342C339.369 399.369 341.756 400.741 344.222 402.012C341.991 402.202 339.816 402.57 337.596 402.838C334.952 403.15 329.643 403.875 327.713 401.376Z" fill="#263238"/>
<path d="M349.207 382.626L292.644 382.381C292.644 382.381 273.046 306.955 268.45 301.679C259.94 291.908 192.289 296.638 173.918 276.37C156.071 256.739 173.918 221.201 173.918 221.201H224.012C224.611 227.607 225.564 233.975 226.867 240.275C226.867 240.275 289.9 250.314 308.617 269.711C322.906 284.468 349.207 382.626 349.207 382.626Z" fill="#37474F"/>
<path d="M345.315 373.703C341.823 373.424 338.354 373.067 334.863 372.922C331.372 372.777 327.858 372.71 324.356 372.654C317.395 372.543 310.439 372.543 303.486 372.654C299.56 372.732 295.678 372.9 291.696 372.922C291.595 372.922 291.618 373.1 291.696 373.1C298.757 373.1 305.839 373.379 312.889 373.558C319.939 373.736 326.709 373.959 333.625 374.071C337.518 374.127 341.433 374.015 345.281 373.982C345.482 374.026 345.482 373.703 345.315 373.703Z" fill="#263238"/>
<path d="M284.791 325.951C282.56 318.693 280.133 311.495 277.508 304.356C276.392 301.311 275.478 297.831 273.291 295.344C271.105 292.856 267.926 292.109 264.903 291.451C250.403 288.25 235.59 286.989 220.989 284.457C213.754 283.27 206.613 281.575 199.617 279.382C196.186 278.34 192.868 276.957 189.712 275.255C186.861 273.64 184.314 271.542 182.183 269.053C178.193 264.199 175.616 258.341 174.732 252.121C173.781 244.76 174.447 237.28 176.684 230.203C177.197 228.474 177.799 226.756 178.435 225.072C178.435 224.971 178.312 224.927 178.268 225.072C173.382 237.776 171.375 252.444 178.268 264.826C179.746 267.5 181.627 269.93 183.845 272.031C186.288 274.291 189.084 276.138 192.121 277.497C198.647 280.542 205.83 282.349 212.846 283.866C227.347 286.989 242.238 288.227 256.872 290.826C260.44 291.391 263.976 292.135 267.469 293.057C269.123 293.451 270.668 294.214 271.986 295.288C273.216 296.472 274.165 297.917 274.764 299.515C276.191 302.918 277.329 306.465 278.545 309.956C279.761 313.447 281.044 317.184 282.226 320.809C286.955 335.347 291.12 350.048 294.719 364.913L296.024 370.345C296.024 370.524 296.325 370.446 296.291 370.267C293.216 355.309 289.377 340.518 284.791 325.951Z" fill="#263238"/>
<path d="M295.433 439.848C292.689 440.416 215.389 430.534 212.746 428.348C212.433 428.102 213.259 421.108 214.352 411.516C214.988 405.939 216.259 398.945 217.698 391.828C221.68 372.922 227.324 352.788 227.324 352.788L277.998 361.243L267.748 397.249L264.234 409.519C264.234 409.519 274.652 415.821 283.196 421.276C288.472 424.622 293.057 427.656 294.061 428.682C296.793 431.448 298.177 439.301 295.433 439.848Z" fill="#EB9481"/>
<path d="M295.433 439.848C292.689 440.417 215.389 430.534 212.746 428.348C212.433 428.102 213.259 421.108 214.352 411.516C214.988 405.939 216.259 398.945 217.698 391.828L267.748 397.238L264.234 409.508C264.234 409.508 274.652 415.81 283.196 421.265C288.472 424.611 293.057 427.645 294.061 428.671C296.793 431.448 298.177 439.301 295.433 439.848Z" fill="#EBEBEB"/>
<path d="M295.756 440.115C292.934 440.684 215.512 430.902 212.79 428.66C211.764 427.812 212.913 415.821 215.635 402.76L264.435 409.039C264.435 409.039 291.74 425.927 294.429 428.693C297.117 431.46 298.567 439.513 295.756 440.115Z" fill="#A72329"/>
<path d="M295.031 436.881C282.092 434.917 229.723 428.247 216.784 427.288C216.683 427.288 216.672 427.355 216.784 427.377C229.555 429.608 281.98 435.843 295.009 437.093C295.276 437.115 295.31 436.925 295.031 436.881Z" fill="#263238"/>
<path d="M289.833 425.28C288.392 425.063 286.921 425.15 285.515 425.534C284.109 425.918 282.799 426.592 281.668 427.511C279.615 429.133 278.262 431.48 277.887 434.07C277.887 434.148 278.032 434.17 278.054 434.07C278.817 431.555 280.376 429.356 282.496 427.803C284.616 426.25 287.183 425.427 289.811 425.459C289.834 425.462 289.858 425.455 289.877 425.44C289.896 425.426 289.908 425.404 289.911 425.381C289.914 425.357 289.908 425.333 289.893 425.314C289.878 425.295 289.857 425.283 289.833 425.28Z" fill="#263238"/>
<path d="M268.651 410.847C263.464 410.121 257.207 411.192 253.448 415.029C253.292 415.186 253.515 415.386 253.671 415.331C258.514 413.524 263.536 412.238 268.651 411.493C268.737 411.493 268.819 411.459 268.88 411.399C268.941 411.338 268.975 411.256 268.975 411.17C268.975 411.084 268.941 411.002 268.88 410.941C268.819 410.881 268.737 410.847 268.651 410.847Z" fill="#263238"/>
<path d="M272.455 412.921C267.279 412.185 261.022 413.267 257.251 417.104C257.106 417.249 257.318 417.461 257.486 417.394C262.328 415.586 267.35 414.304 272.466 413.568C272.552 413.567 272.633 413.531 272.693 413.469C272.753 413.408 272.785 413.325 272.784 413.239C272.782 413.153 272.747 413.072 272.685 413.012C272.623 412.952 272.54 412.92 272.455 412.921Z" fill="#263238"/>
<path d="M276.269 414.974C271.083 414.249 264.836 415.319 261.066 419.156C260.921 419.313 261.133 419.513 261.3 419.458C266.142 417.649 271.164 416.366 276.281 415.632C276.357 415.616 276.426 415.574 276.475 415.513C276.524 415.452 276.55 415.376 276.549 415.298C276.548 415.22 276.519 415.144 276.468 415.085C276.417 415.026 276.347 414.986 276.269 414.974Z" fill="#263238"/>
<path d="M280.084 417.059C274.898 416.323 268.651 417.405 264.881 421.242C264.736 421.387 264.948 421.599 265.115 421.532C269.957 419.723 274.979 418.441 280.095 417.706C280.181 417.705 280.263 417.669 280.323 417.608C280.382 417.546 280.415 417.463 280.413 417.377C280.412 417.292 280.376 417.21 280.315 417.15C280.253 417.091 280.17 417.058 280.084 417.059Z" fill="#263238"/>
<path d="M221.647 415.386C215.824 414.661 214.698 423.718 220.532 424.443C226.365 425.169 227.503 416.089 221.647 415.386Z" fill="#263238"/>
<path d="M276.013 397.696C273.659 395.186 270.079 396.893 268.205 398.956C264.986 402.543 262.767 406.913 261.769 411.627C261.763 411.648 261.763 411.671 261.768 411.692C261.773 411.713 261.783 411.733 261.797 411.749C261.811 411.766 261.83 411.779 261.85 411.786C261.87 411.794 261.892 411.797 261.914 411.795C261.923 411.895 261.955 411.992 262.007 412.078C262.06 412.163 262.132 412.236 262.217 412.289C262.303 412.342 262.4 412.374 262.5 412.383C262.6 412.392 262.701 412.378 262.795 412.341C266.822 410.244 271.373 408.504 274.641 405.247C276.582 403.351 278.244 400.071 276.013 397.696ZM268.205 407.935C266.242 409.051 264.256 409.976 262.338 411.125C263.598 408.66 264.736 406.151 266.242 403.797C266.944 402.657 267.727 401.568 268.584 400.54C269.923 398.967 275.567 395.264 275.377 400.986C275.31 404.132 270.57 406.641 268.25 407.935H268.205Z" fill="#263238"/>
<path d="M248.618 411.94C253.08 413.2 257.887 412.508 262.416 412.375C262.516 412.364 262.612 412.33 262.696 412.275C262.78 412.22 262.85 412.146 262.9 412.059C262.95 411.972 262.979 411.875 262.984 411.774C262.989 411.674 262.97 411.574 262.929 411.482C262.945 411.469 262.959 411.452 262.968 411.432C262.977 411.413 262.981 411.392 262.981 411.371C262.981 411.349 262.977 411.328 262.968 411.309C262.959 411.29 262.945 411.273 262.929 411.259C259.777 407.616 255.723 404.866 251.172 403.284C248.507 402.414 244.547 402.659 243.71 405.994C242.874 409.33 246.03 411.192 248.618 411.94ZM245.863 408.593C242.907 403.697 249.644 404.132 251.585 404.901C252.831 405.392 254.042 405.966 255.21 406.619C257.608 407.987 259.935 409.477 262.182 411.081C259.951 411.003 257.72 411.081 255.489 411.081C252.846 411.181 247.491 411.281 245.863 408.582V408.593Z" fill="#263238"/>
<path d="M280.374 395.097L218.691 387.59C218.691 387.59 240.185 302.683 239.215 301.412C235.813 297.017 183.767 298.79 166.02 281.144C147.225 262.461 165.262 221.157 165.262 221.157L212.11 221.335C212.11 221.335 212.422 239.851 214.53 241.591C215.925 242.707 280.642 253.671 291.172 267.413C307.223 288.406 280.374 395.097 280.374 395.097Z" fill="#37474F"/>
<path d="M295.544 274.987C294.666 272.641 293.407 270.455 291.819 268.518C290.034 266.444 287.938 264.66 285.606 263.231C280.679 260.249 275.48 257.743 270.079 255.746C264.57 253.561 258.947 251.674 253.236 250.091C247.447 248.462 241.58 247.09 235.701 245.83C229.823 244.569 223.945 243.599 218.055 242.484L215.278 241.97C218.312 240.766 221.323 239.494 224.357 238.245C224.387 238.227 224.411 238.2 224.423 238.167C224.436 238.134 224.437 238.098 224.427 238.065C224.416 238.031 224.395 238.002 224.366 237.982C224.338 237.963 224.303 237.953 224.268 237.955C218.137 239.123 212.287 241.455 207.035 244.826C206.957 244.826 207.035 245.016 207.102 244.982C209.734 244.123 212.322 243.142 214.91 242.127C220.253 243.242 225.562 244.436 230.883 245.618C236.638 246.901 242.372 248.261 248.038 249.868C259.282 253.058 270.458 256.806 280.854 262.204C285.561 264.647 290.012 267.703 292.655 272.433C295.109 276.816 295.845 281.947 296.001 286.933C296.005 292.524 295.688 298.11 295.053 303.665C294.488 309.956 293.826 316.236 293.068 322.504C292.298 328.773 287.892 361.634 287.39 363.039C287.323 363.229 287.647 363.363 287.736 363.173C288.383 361.835 296.001 314.362 296.57 307.982C297.095 302.103 297.686 296.191 297.753 290.291C297.998 285.096 297.248 279.901 295.544 274.987Z" fill="#263238"/>
<path d="M246.108 294.585C244.471 294.148 242.799 293.849 241.111 293.693L235.534 292.812L224.435 291.049C217.33 289.934 210.203 288.885 203.12 287.636C191.04 285.495 177.911 281.602 170.962 270.615C169.356 268.083 168.253 265.265 167.716 262.316C167.171 258.698 166.921 255.043 166.969 251.385C166.854 244.015 167.328 236.649 168.385 229.355C168.642 227.559 168.965 225.786 169.311 224.012C169.311 223.901 169.166 223.856 169.144 224.012C167.746 231.126 166.87 238.332 166.522 245.573C166.366 249.187 166.366 252.801 166.522 256.415C166.521 259.74 167.025 263.046 168.017 266.22C171.988 277.675 183.633 283.866 194.687 286.699C201.502 288.45 208.518 289.343 215.467 290.425L237.363 293.86L242.829 294.719C244.301 294.953 246.967 294.898 247.291 296.794C247.362 297.567 247.286 298.347 247.068 299.092C246.856 300.051 246.655 300.999 246.443 301.958L245.238 307.535C243.662 314.786 242.111 322.04 240.587 329.297C237.475 343.91 234.552 358.566 231.53 373.201L230.414 378.644C230.414 378.733 230.537 378.778 230.559 378.644C233.76 364.065 237.029 349.487 240.197 334.897C241.803 327.55 243.372 320.196 244.904 312.834C245.673 309.197 246.432 305.572 247.134 301.936C247.597 300.378 247.885 298.773 247.993 297.151C247.999 296.577 247.818 296.017 247.478 295.554C247.138 295.092 246.658 294.752 246.108 294.585Z" fill="#263238"/>
<path d="M279.058 387.512C275.455 386.753 271.864 385.917 268.227 385.281C264.591 384.645 260.932 384.087 257.274 383.552C250.016 382.474 242.732 381.518 235.422 380.685C231.307 380.206 227.168 379.826 223.052 379.313C222.941 379.313 222.941 379.469 223.052 379.481C230.448 380.418 237.809 381.711 245.171 382.883C252.533 384.054 259.583 385.203 266.811 386.229C270.871 386.831 274.942 387.255 279.013 387.768C279.192 387.846 279.225 387.556 279.058 387.512Z" fill="#263238"/>
<path d="M227.046 231.452C223.798 232.095 220.517 232.561 217.219 232.846C212.032 233.359 204.793 233.828 195.445 233.817H194.687H191.062C182.417 233.672 172.189 233.147 160.354 231.954C160.354 231.954 174.052 181.481 188.039 165.028C188.351 164.649 188.675 164.292 188.998 163.913L189.188 163.712C190.272 162.557 191.534 161.582 192.925 160.823C193.17 160.689 193.415 160.566 193.672 160.455C199.059 157.979 204.748 160.031 208.853 163.545C210.158 164.66 224.904 183.845 226.209 191.163C227.324 197.621 222.974 204.548 222.974 204.548L227.046 231.452Z" fill="#A72329"/>
<path d="M195.445 233.817H194.687H191.062C182.417 233.672 172.189 233.147 160.354 231.954C160.354 231.954 174.052 181.481 188.039 165.028C188.351 164.649 188.675 164.292 188.998 163.913L189.188 163.712C190.272 162.557 191.534 161.582 192.925 160.823C193.17 160.689 193.415 160.566 193.672 160.455L195.445 233.817Z" fill="#263238"/>
<path d="M184.09 169.679C171.731 188.541 157.164 220.889 166.154 226.466C180.867 235.601 220.465 236.761 229.5 236.661C233.404 236.661 237.787 210.504 234.787 207.593C231.786 204.682 190.504 207.805 189.879 205.362C189.534 203.957 192.802 190.984 194.799 175.245C197.063 156.986 187.593 164.348 184.09 169.679Z" fill="#EB9481"/>
<path d="M227.771 206.388C227.771 206.388 239.516 204.749 247.257 204.035C251.574 203.644 259.036 203.622 262.338 204.771C267.279 206.511 286.877 216.907 284.423 221.714C282.192 226.053 266.576 215.022 266.576 215.022C266.576 215.022 283.375 224.804 279.772 229.522C276.169 234.241 260.129 219.405 260.129 219.405C260.129 219.405 277.173 229.835 272.689 234.14C269.343 237.386 254.006 224.748 254.006 224.748C254.006 224.748 268.584 233.817 265.249 237.308C261.557 241.179 246.711 230.392 246.711 230.392C236.672 237.843 228.864 237.308 223.398 236.271C222.048 235.981 227.771 206.388 227.771 206.388Z" fill="#EB9481"/>
<path d="M260.966 211.218C262.985 212.334 265.026 213.371 266.945 214.564C268.863 215.758 270.726 217.141 272.522 218.558C274.896 220.374 277.052 222.459 278.947 224.771C275.277 220.922 268.506 216.327 266.588 215.077C264.669 213.828 262.84 212.479 260.921 211.229C260.865 211.252 260.966 211.196 260.966 211.218Z" fill="#263238"/>
<path d="M256.314 218.045C258.835 219.528 261.379 220.911 263.832 222.506C266.286 224.101 269.61 226.444 271.93 228.195C272.109 228.329 271.986 228.641 271.808 228.518C269.421 226.856 265.896 224.626 263.487 222.997C261.077 221.368 258.735 219.651 256.281 218.1C256.236 218.078 256.281 218.022 256.314 218.045Z" fill="#263238"/>
<path d="M251.273 223.187C255.185 225.374 258.863 227.957 262.249 230.894C262.416 231.028 262.249 231.084 262.059 230.894C258.456 228.262 255.656 226.165 251.206 223.265C251.139 223.276 251.195 223.12 251.273 223.187Z" fill="#263238"/>
<path d="M227.693 206.232C233.047 205.485 247.19 203.365 252.589 203.064C257.108 202.65 261.655 203.463 265.751 205.418C272.152 208.486 277.989 212.611 283.018 217.621C283.999 218.736 285.461 220.443 284.535 221.915C283.419 223.711 278.244 222.785 272.41 218.758C272.198 218.613 272.299 218.491 272.511 218.613C280.62 223.588 283.453 222.517 284.078 221.402C284.49 220.677 283.866 219.606 283.308 218.792C282.425 217.629 281.398 216.583 280.252 215.68C276.417 212.519 272.273 209.753 267.882 207.426C263.14 204.777 257.744 203.527 252.321 203.823C246.744 204.09 233.236 206.243 227.693 206.433C227.581 206.444 227.57 206.243 227.693 206.232Z" fill="#263238"/>
<path d="M280.33 227.013C279.67 225.611 278.746 224.349 277.608 223.298C276.392 221.909 275.039 220.646 273.57 219.528C273.503 219.528 273.414 219.528 273.481 219.628C274.757 220.775 275.964 221.997 277.095 223.287C277.697 223.997 278.255 224.741 278.768 225.518C279.369 226.238 279.718 227.135 279.761 228.072C279.605 229.868 277.385 230.113 276.013 229.823C275.123 229.611 274.253 229.32 273.414 228.953C272.253 228.418 271.134 227.796 270.068 227.091C269.978 227.024 269.778 227.091 269.867 227.146C272.098 228.753 276.281 232.132 279.114 230.314C279.67 229.992 280.095 229.486 280.317 228.883C280.539 228.28 280.544 227.618 280.33 227.013Z" fill="#263238"/>
<path d="M167.158 190.27L193.226 189.991L195.869 170.616C197.074 161.693 196.394 156.06 185.92 165.887C178.658 172.702 167.158 190.27 167.158 190.27Z" fill="#A72329"/>
<path d="M197.933 159.384C192.824 160.845 193.337 166.59 195.245 170.628C197.152 174.665 200.9 179.339 203.633 179.205C206.366 179.071 206.879 172.2 206.879 172.2C206.879 172.2 210.771 176.461 212.813 174.978C214.854 173.494 210.76 165.653 207.849 163.221C203.633 159.685 200.632 158.603 197.933 159.384Z" fill="white"/>
<path d="M195.155 162.63C195.379 163.857 200.833 172 206.388 171.988C208.206 171.988 208.619 162.083 208.619 162.083L208.808 161.358L211.552 151.23L199.885 142.987L198.189 141.872C198.189 141.872 197.621 144.694 196.951 148.219L196.851 148.721C196.851 148.921 196.773 149.1 196.739 149.289C196.628 149.814 196.527 150.405 196.427 150.885C196.327 151.364 196.282 151.688 196.215 152.123C196.148 152.558 196.081 152.97 196.003 153.405C195.509 156.457 195.226 159.539 195.155 162.63Z" fill="#EB9481"/>
<path d="M196.918 148.23C197.822 151.148 199.351 153.834 201.398 156.102C203.446 158.369 205.963 160.163 208.775 161.358L211.519 151.23L199.851 142.987L198.156 141.872C198.156 141.872 197.587 144.705 196.918 148.23Z" fill="#263238"/>
<path d="M226.187 135.503C227.034 153.896 216.148 156.495 212.143 156.696C208.541 156.852 196.26 156.952 193.505 138.737C190.75 120.523 199.082 114.31 207.258 113.506C215.434 112.703 225.328 117.154 226.187 135.503Z" fill="#EB9481"/>
<path d="M223.443 132.446C223.022 132.391 222.605 132.313 222.193 132.212C221.74 132.191 221.305 132.023 220.955 131.733C220.868 131.617 220.822 131.476 220.822 131.331C220.822 131.186 220.868 131.045 220.955 130.929C221.159 130.727 221.414 130.582 221.692 130.51C221.97 130.437 222.262 130.44 222.539 130.517C223.129 130.59 223.673 130.875 224.067 131.32C224.151 131.428 224.2 131.559 224.21 131.695C224.22 131.832 224.19 131.968 224.124 132.088C224.058 132.207 223.958 132.305 223.837 132.369C223.716 132.432 223.579 132.459 223.443 132.446Z" fill="#263238"/>
<path d="M211.653 132.77C212.07 132.696 212.484 132.599 212.891 132.48C213.341 132.434 213.764 132.242 214.095 131.933C214.185 131.821 214.234 131.681 214.234 131.537C214.234 131.394 214.185 131.254 214.095 131.141C213.882 130.947 213.621 130.812 213.339 130.751C213.057 130.69 212.764 130.706 212.489 130.796C211.905 130.901 211.378 131.214 211.006 131.677C210.931 131.787 210.89 131.916 210.886 132.049C210.882 132.182 210.916 132.314 210.983 132.428C211.051 132.543 211.15 132.636 211.268 132.696C211.387 132.757 211.52 132.782 211.653 132.77Z" fill="#263238"/>
<path d="M213.962 137.165C213.962 137.109 213.861 137.22 213.872 137.276C213.973 138.526 213.872 139.976 212.757 140.444C212.757 140.444 212.757 140.522 212.757 140.511C214.118 140.254 214.252 138.347 213.962 137.165Z" fill="#263238"/>
<path d="M212.779 135.904C210.76 135.849 210.794 139.898 212.668 139.953C214.542 140.009 214.475 135.949 212.779 135.904Z" fill="#263238"/>
<path d="M211.987 136.116C211.63 136.35 211.296 136.752 210.872 136.797C210.448 136.841 210.002 136.429 209.678 136.027H209.611C209.611 136.808 209.913 137.6 210.727 137.711C211.541 137.823 212.021 137.12 212.21 136.339C212.255 136.25 212.121 136.038 211.987 136.116Z" fill="#263238"/>
<path d="M220.81 136.841C220.81 136.785 220.911 136.841 220.911 136.953C220.911 138.202 221.033 139.641 222.171 140.065V140.132C220.81 139.942 220.576 138.024 220.81 136.841Z" fill="#263238"/>
<path d="M221.926 135.525C223.945 135.369 224.101 139.418 222.238 139.563C220.375 139.708 220.242 135.659 221.926 135.525Z" fill="#263238"/>
<path d="M222.785 135.759C223.108 135.96 223.443 136.339 223.822 136.35C224.201 136.362 224.58 135.904 224.848 135.48C224.904 136.261 224.681 137.076 223.945 137.254C223.208 137.432 222.751 136.774 222.539 136.005C222.55 135.904 222.651 135.681 222.785 135.759Z" fill="#263238"/>
<path d="M218.936 142.809C218.936 142.809 219.226 144.672 219.249 145.553C219.249 145.642 216.047 146.367 214.597 144.225C214.587 144.208 214.583 144.188 214.585 144.168C214.587 144.148 214.596 144.13 214.61 144.116C214.625 144.102 214.643 144.093 214.663 144.09C214.683 144.088 214.703 144.092 214.72 144.103C215.864 144.848 217.217 145.204 218.579 145.118C218.635 144.872 217.966 141.939 218.1 141.928C218.789 141.97 219.468 142.109 220.119 142.34C219.617 138.436 218.49 134.633 218.044 130.74C218.045 130.714 218.054 130.689 218.069 130.669C218.085 130.648 218.107 130.633 218.131 130.626C218.156 130.618 218.183 130.619 218.207 130.627C218.231 130.636 218.252 130.652 218.267 130.673C219.609 134.703 220.539 138.859 221.045 143.077C221.123 143.59 219.293 142.965 218.936 142.809Z" fill="#263238"/>
<path d="M219.907 137.611C219.829 134.722 221.312 132.335 223.253 132.279C225.194 132.223 226.789 134.51 226.867 137.41C226.945 140.31 225.462 142.686 223.521 142.742C221.58 142.798 219.996 140.489 219.907 137.611ZM220.61 137.611C220.688 140.109 221.982 142.073 223.499 142.073C225.016 142.073 226.209 139.964 226.131 137.466C226.053 134.967 224.77 133.004 223.242 133.004C221.714 133.004 220.543 135.09 220.61 137.589V137.611Z" fill="#37474F"/>
<path d="M206.756 137.979C206.796 137.026 207.112 136.106 207.668 135.331C208.223 134.556 208.992 133.959 209.881 133.615C210.771 133.271 211.741 133.194 212.673 133.394C213.606 133.593 214.46 134.061 215.13 134.739C215.801 135.417 216.258 136.275 216.448 137.21C216.637 138.144 216.549 139.114 216.196 139.999C215.842 140.885 215.237 141.648 214.456 142.194C213.675 142.741 212.751 143.047 211.798 143.077C210.454 143.068 209.168 142.526 208.223 141.57C207.278 140.615 206.75 139.323 206.756 137.979ZM207.459 137.979C207.548 138.789 207.871 139.555 208.388 140.184C208.905 140.813 209.595 141.278 210.372 141.522C211.149 141.766 211.981 141.778 212.765 141.557C213.549 141.336 214.251 140.892 214.787 140.278C215.323 139.665 215.668 138.908 215.781 138.102C215.894 137.295 215.77 136.473 215.423 135.736C215.076 134.998 214.523 134.378 213.829 133.951C213.136 133.523 212.333 133.307 211.519 133.328C210.945 133.363 210.384 133.511 209.868 133.764C209.352 134.016 208.89 134.368 208.51 134.799C208.13 135.23 207.838 135.732 207.652 136.275C207.466 136.819 207.389 137.394 207.425 137.968L207.459 137.979Z" fill="#37474F"/>
<path d="M216.282 137.232C218.881 136.239 220.085 137.053 220.096 137.064L220.509 136.507C220.509 136.507 219.026 135.391 216.047 136.574L216.282 137.232Z" fill="#37474F"/>
<path d="M207.102 137.522L207.202 136.819C206.745 136.752 196.048 135.09 194.854 135.057C193.661 135.023 190.816 136.696 190.504 136.897L190.861 137.488C192.066 136.708 193.388 136.124 194.776 135.759H194.832C195.724 135.782 203.242 136.919 207.102 137.522Z" fill="#37474F"/>
<path d="M194.899 139.329C199.361 139.329 201.201 125.486 201.402 123.78C201.324 124.895 200.978 130.573 201.402 130.818C201.887 130.822 202.369 130.746 202.83 130.595C202.855 129.909 202.933 129.227 203.064 128.554C203.064 128.241 203.164 129.245 203.298 130.483L204.135 130.283C204.135 128.821 204.33 127.365 204.715 125.955C204.86 125.419 204.927 127.851 205.373 129.993C209.265 128.99 213.257 128.425 217.274 128.308C218.261 128.296 219.248 128.333 220.23 128.42C220.297 126.724 220.163 124.928 220.23 125.319C220.533 126.349 220.735 127.406 220.833 128.476L222.104 128.609C222.305 126.234 221.301 122.396 221.658 123.032C222.73 124.863 223.445 126.88 223.766 128.977C225.384 129.346 225.819 129.68 225.874 129.256C225.546 124.547 223.549 120.11 220.241 116.741C214.776 111.231 203.566 109.524 196.94 117.5C196.94 117.5 191.597 120.734 190.593 126.2C189.589 131.666 192.289 139.34 194.899 139.329Z" fill="#263238"/>
<path d="M196.494 138.615C196.494 138.615 192.713 132.714 190.047 134.042C187.381 135.369 190.047 143.813 193.081 145.073C193.456 145.262 193.866 145.373 194.286 145.399C194.705 145.426 195.126 145.367 195.522 145.226C195.918 145.085 196.281 144.866 196.59 144.581C196.899 144.296 197.147 143.951 197.319 143.567L196.494 138.615Z" fill="#EB9481"/>
<path d="M190.883 136.44C190.883 136.44 190.816 136.507 190.883 136.518C192.992 137.477 194.04 139.518 194.754 141.604C194.636 141.385 194.473 141.195 194.275 141.045C194.077 140.895 193.849 140.789 193.607 140.735C193.365 140.681 193.113 140.68 192.871 140.732C192.628 140.784 192.399 140.887 192.2 141.035C192.144 141.035 192.2 141.158 192.2 141.147C192.581 141.046 192.985 141.064 193.356 141.2C193.727 141.335 194.048 141.582 194.274 141.905C194.647 142.451 194.961 143.034 195.211 143.645C195.312 143.846 195.657 143.757 195.59 143.534V143.478C195.78 140.745 193.806 136.83 190.883 136.44Z" fill="#263238"/>
<path d="M232.879 229.545H167.917V232.456H232.879V229.545Z" fill="#455A64"/>
<path d="M232.879 229.545H200.186V232.456H232.879V229.545Z" fill="#263238"/>
<path d="M200.944 232.456H137.633L128.687 189.467H191.999L200.944 232.456Z" fill="#37474F"/>
<path d="M169.724 211.965C169.795 212.499 169.749 213.042 169.591 213.556C169.432 214.07 169.164 214.544 168.804 214.945C168.445 215.345 168.003 215.663 167.509 215.877C167.015 216.091 166.48 216.195 165.942 216.182C164.788 216.156 163.683 215.715 162.826 214.941C161.97 214.167 161.421 213.111 161.28 211.965C161.209 211.432 161.254 210.889 161.413 210.375C161.572 209.861 161.84 209.387 162.199 208.986C162.559 208.586 163.001 208.267 163.495 208.054C163.989 207.84 164.523 207.736 165.061 207.749C166.216 207.773 167.323 208.212 168.179 208.987C169.036 209.762 169.584 210.819 169.724 211.965Z" fill="white"/>
<path d="M324.367 232.467H271.607V228.362L324.367 226.656V232.467Z" fill="#37474F"/>
<path d="M378.454 214.497H286.052L300.742 145.698H393.155L378.454 214.497Z" fill="#455A64"/>
<path d="M381.878 214.497H289.465L304.166 145.698H396.58L381.878 214.497Z" fill="#37474F"/>
<path d="M332.03 189.824H329.866L333.156 174.387H335.331L332.03 189.824Z" fill="#263238"/>
<path d="M336.313 189.824H334.149L337.44 174.387H339.604L336.313 189.824Z" fill="#263238"/>
<path d="M340.585 189.824H338.421L341.712 174.387H343.876L340.585 189.824Z" fill="#263238"/>
<path d="M344.868 189.824H342.693L345.984 174.387H348.159L344.868 189.824Z" fill="#263238"/>
<path d="M349.14 189.824H346.977L350.267 174.387H352.431L349.14 189.824Z" fill="#263238"/>
<path d="M353.413 189.824H351.249L354.539 174.387H356.703L353.413 189.824Z" fill="#263238"/>
<path d="M357.696 189.824H355.521L358.822 174.387H360.986L357.696 189.824Z" fill="#263238"/>
<path d="M355.744 232.467H310.29V228.931L355.744 227.459V232.467Z" fill="#455A64"/>
<path d="M368.103 232.456H343.697L328.996 193.907H353.401L368.103 232.456Z" fill="#455A64"/>
<path d="M372.118 232.456H347.713L333.011 193.907H357.417L372.118 232.456Z" fill="#263238"/>
<path d="M102.43 214.497H130.951L116.25 145.698H87.7284L102.43 214.497Z" fill="#455A64"/>
<path d="M99.0054 214.497H127.527L112.837 145.698H84.3152L99.0054 214.497Z" fill="#37474F"/>
<path d="M102.898 189.824H103.3L100.009 174.387H99.6077L102.898 189.824Z" fill="#263238"/>
<path d="M103.757 189.824H104.159L100.868 174.387H100.467L103.757 189.824Z" fill="#263238"/>
<path d="M104.616 189.824H105.029L101.738 174.387H101.337L104.616 189.824Z" fill="#263238"/>
<path d="M105.486 189.824H105.888L102.597 174.387H102.196L105.486 189.824Z" fill="#263238"/>
<path d="M106.345 189.824H106.758L103.467 174.387H103.054L106.345 189.824Z" fill="#263238"/>
<path d="M107.215 189.824H107.617L104.326 174.387H103.924L107.215 189.824Z" fill="#263238"/>
<path d="M108.074 189.824H108.475L105.185 174.387H104.783L108.074 189.824Z" fill="#263238"/>
<path d="M108.933 189.824H109.345L106.055 174.387H105.642L108.933 189.824Z" fill="#263238"/>
<path d="M98.4588 232.467H132.58V228.931L98.4588 227.459V232.467Z" fill="#455A64"/>
<path d="M86.0999 232.456H99.1727L113.874 193.907H100.801L86.0999 232.456Z" fill="#455A64"/>
<path d="M86.0999 232.456H95.1572L109.847 193.907H100.801L86.0999 232.456Z" fill="#263238"/>
<path d="M266.543 232.5H231.742C228.763 232.5 233.069 224.034 243.911 220.8C254.753 217.565 269.889 229.321 266.543 232.5Z" fill="#37474F"/>
<path d="M252.845 232.5C252.754 231.519 252.837 230.53 253.091 229.578C253.331 228.622 253.707 227.706 254.206 226.856C254.723 226.009 255.379 225.254 256.147 224.626C256.908 223.991 257.799 223.53 258.757 223.276C258.047 223.891 257.377 224.551 256.749 225.25C256.156 225.945 255.626 226.692 255.166 227.481C254.242 229.081 253.466 230.761 252.845 232.5Z" fill="#263238"/>
<path d="M256.961 224.447C258.037 224.667 259.085 225.007 260.085 225.462C261.084 225.917 262.04 226.462 262.94 227.091C263.862 227.726 264.678 228.501 265.361 229.388C266.098 230.256 266.495 231.362 266.476 232.5C266.078 231.53 265.468 230.662 264.691 229.957C263.937 229.244 263.128 228.591 262.271 228.005C260.587 226.778 258.735 225.696 256.961 224.447Z" fill="#263238"/>
<path d="M102.82 370.022H73.2725V375.22H102.82V370.022Z" fill="#455A64"/>
<path d="M118.838 446.038H115.648L89.6247 324.557L88.1411 317.63L83.4675 295.823L81.7274 287.692L75.1799 257.174L72.8932 246.488H84.2594L86.1111 257.174L87.3269 264.19L88.1411 268.863L92.8036 295.823L94.3095 304.501L118.838 446.038Z" fill="#455A64"/>
<path d="M84.2594 246.488L86.1111 257.174H75.1799L72.8932 246.488H84.2594Z" fill="#263238"/>
<path d="M94.3094 304.501L89.6246 324.557L88.1411 317.63L83.4675 295.823L81.7274 287.692L87.3269 264.19L88.1411 268.863L92.8036 295.823L94.3094 304.501Z" fill="#263238"/>
<path d="M103.378 246.488L101.091 257.174L92.8036 295.823L88.1411 317.63L60.6235 446.038H57.4445L83.4675 295.823L88.1411 268.863L90.1601 257.174L92.0117 246.488H103.378Z" fill="#455A64"/>
<path d="M103.378 246.488L101.091 257.174H90.16L92.0117 246.488H103.378Z" fill="#263238"/>
<path d="M415.575 246.488L372.821 446.038H369.642L404.209 246.488H415.575Z" fill="#455A64"/>
<path d="M385.091 246.488L427.845 446.038H431.024L396.457 246.488H385.091Z" fill="#455A64"/>
<path d="M415.018 370.022H385.47V375.22H415.018V370.022Z" fill="#455A64"/>
<path d="M433.043 232.467H55.4256V246.488H433.043V232.467Z" fill="#455A64"/>
<path d="M52.6705 356.581C44.5055 339.849 30.228 331.183 14.1212 335.945C-1.98556 340.708 -4.50643 363.162 7.55136 368.828C19.6092 374.495 31.5889 357.942 37.9357 354.54C44.2825 351.138 52.6705 356.581 52.6705 356.581Z" fill="#A72329"/>
<path d="M60.5789 401.254C60.5789 399.224 60.4562 397.205 60.3781 395.186C60.2442 391.148 60.103 387.11 59.9542 383.072C59.6754 375.677 58.8388 368.427 55.8271 361.623C53.1237 355.45 48.6072 350.245 42.877 346.698C40.749 345.413 38.4563 344.422 36.0617 343.753C33.8921 341.562 31.1333 340.047 28.1199 339.392C24.3909 338.64 20.5586 338.549 16.7983 339.124C16.6644 339.124 16.6644 339.347 16.7983 339.336C20.3864 338.878 24.0297 339.136 27.5175 340.095C29.011 340.505 30.4577 341.069 31.8343 341.779C32.7064 342.242 33.5417 342.772 34.3328 343.363C31.0847 342.69 27.7301 342.721 24.4947 343.452C23.3293 343.733 22.1879 344.106 21.0815 344.568C20.1996 344.373 19.2953 344.298 18.3933 344.345C17.2188 344.38 16.0516 344.544 14.9132 344.835C12.5811 345.491 10.3513 346.467 8.28754 347.736C8.16485 347.802 8.28754 347.981 8.39908 347.914C10.4282 346.807 12.6019 345.988 14.8574 345.482C15.9578 345.229 17.0769 345.065 18.2037 344.992C18.8205 344.958 19.4386 344.958 20.0553 344.992C15.4704 347.112 11.7838 350.787 9.64836 355.365C9.59259 355.488 9.77106 355.599 9.82683 355.465C11.0975 352.809 12.9509 350.474 15.2491 348.634C17.5472 346.793 20.231 345.495 23.1004 344.835C23.4462 344.746 23.8143 344.702 24.2159 344.623C24.0932 345.148 24.1155 345.739 24.0486 346.252C23.937 347.066 23.8032 347.881 23.6358 348.684C23.2809 350.357 22.8227 352.008 22.2639 353.625C21.7183 355.254 21.0663 356.845 20.3119 358.388C19.5821 360.018 18.669 361.56 17.5902 362.983C17.4898 363.095 17.6795 363.24 17.7575 363.106C18.728 361.589 19.8545 360.195 20.7357 358.644C21.5774 357.14 22.3045 355.574 22.9108 353.96C23.5288 352.325 24.0101 350.643 24.3497 348.929C24.5282 348.026 24.6732 347.111 24.7736 346.196C24.885 345.65 24.9188 345.09 24.874 344.534C26.7677 344.242 28.6916 344.201 30.5961 344.412C29.8823 348.416 29.1126 352.588 26.8706 356.068C26.7925 356.179 26.9933 356.291 27.0602 356.168C28.105 354.323 29.029 352.411 29.8265 350.446C30.5603 348.52 31.0184 346.499 31.1873 344.445C34.512 344.894 37.7215 345.969 40.6462 347.613C46.1567 350.825 50.5514 355.648 53.2393 361.433C56.095 367.62 57.6985 374.311 57.9576 381.12C58.493 389.698 58.6046 398.32 59.4634 406.876C59.4634 407.433 60.4004 407.623 60.5119 406.987C60.7128 405.082 60.7352 403.163 60.5789 401.254Z" fill="#263238"/>
<path d="M41.7058 345.348C41.1718 344.695 40.5485 344.121 39.8542 343.642C39.1849 343.084 38.5045 342.526 37.7795 342.058C36.3633 341.087 34.795 340.36 33.1393 339.905C33.0055 339.905 32.9608 340.084 33.1393 340.117C34.8029 340.533 36.3608 341.293 37.7126 342.348C38.393 342.85 39.0511 343.385 39.6869 343.943C40.256 344.533 40.8839 345.064 41.5608 345.527C41.6389 345.616 41.7951 345.471 41.7058 345.348Z" fill="#263238"/>
<path d="M15.6494 351.394C14.2999 352.968 13.0519 354.626 11.9127 356.358C10.7942 358.097 9.85962 359.947 9.12411 361.879C9.12411 361.935 9.19104 361.968 9.2245 361.879C11.0909 358.228 13.2942 354.759 15.8055 351.517C15.8948 351.472 15.7386 351.327 15.6494 351.394Z" fill="#263238"/>
<path d="M33.2174 349.777C33.0414 350.824 32.7302 351.844 32.2916 352.811C31.8469 353.746 31.3284 354.645 30.7411 355.499C30.7323 355.511 30.7284 355.526 30.7305 355.54C30.7326 355.555 30.7405 355.568 30.7523 355.577C30.7641 355.586 30.779 355.59 30.7936 355.588C30.8083 355.585 30.8215 355.578 30.8304 355.566C32.2403 353.948 33.1406 351.949 33.4182 349.821C33.4182 349.687 33.2397 349.632 33.2174 349.777Z" fill="#263238"/>
<path d="M59.4411 356.971C59.4411 356.971 70.997 342.471 93.3056 347.59C114.499 352.487 124.292 391.371 102.865 396.022C81.4374 400.674 85.2187 364.69 77.4107 358.589C71.6774 354.127 63.4455 355.097 59.4411 356.971Z" fill="#A72329"/>
<path d="M110.539 368.851C109.086 367.576 107.551 366.399 105.943 365.326C104.426 364.292 102.775 363.47 101.036 362.883C100.161 361.58 99.184 360.349 98.1131 359.202C96.1631 357.086 93.9072 355.274 91.4205 353.826H92.0898C93.2713 353.764 94.4553 353.764 95.6368 353.826C98.0156 353.971 100.348 354.55 102.519 355.532C102.544 355.544 102.573 355.546 102.599 355.536C102.625 355.527 102.647 355.507 102.658 355.482C102.67 355.457 102.672 355.428 102.662 355.402C102.653 355.376 102.633 355.355 102.608 355.343C100.404 354.392 98.0991 353.696 95.7372 353.268C94.585 353.062 93.4164 352.961 92.2459 352.967C91.6213 352.967 90.9966 353.023 90.372 353.078H90.0151C87.9735 352.041 85.8171 351.247 83.5902 350.714L84.2037 350.546C85.308 350.301 86.4252 350.119 87.55 350C89.7756 349.741 92.0256 349.775 94.2425 350.1C94.3764 350.1 94.421 349.911 94.2425 349.888C92.0222 349.624 89.7844 349.534 87.55 349.621C85.6714 349.676 83.8031 349.919 81.9728 350.346C80.6276 350.1 79.2675 349.943 77.9015 349.877C70.0935 349.554 61.6385 352.465 56.8533 358.856C52.0682 365.248 50.9973 373.77 50.1496 381.511C48.8438 392.268 48.5562 403.125 49.2907 413.936C49.2907 414.583 50.2388 414.46 50.2612 413.858C50.5512 404.689 50.8746 395.52 51.7558 386.385C52.1574 382.146 52.6036 377.908 53.3063 373.714C53.8177 370.102 54.8549 366.585 56.3849 363.273C58.0423 359.894 60.6618 357.081 63.914 355.187C67.184 353.311 70.8304 352.187 74.5887 351.896C77.964 351.62 81.3616 351.937 84.6275 352.833C84.5271 353.487 84.5271 354.153 84.6275 354.807C84.6951 355.638 84.8598 356.458 85.1183 357.25C85.3596 357.998 85.6695 358.723 86.0441 359.414C86.4568 360.184 86.9811 360.864 87.4384 361.645C87.5165 361.756 87.695 361.645 87.6169 361.522C86.6953 360.214 86.1023 358.702 85.888 357.116C85.7448 356.38 85.6554 355.635 85.6203 354.885C85.6203 354.305 85.6203 353.77 85.6203 353.156C89.1599 354.245 92.4633 355.989 95.358 358.299C95.9045 358.734 96.4734 359.191 96.9419 359.659C96.203 360.343 95.5646 361.128 95.0457 361.991C94.2827 363.106 93.6183 364.285 93.0602 365.515C92.0302 368.015 91.3363 370.641 90.9966 373.323C90.9966 373.457 91.1974 373.502 91.2086 373.323C91.5876 370.725 92.4141 368.211 93.6514 365.895C94.2425 364.766 94.9019 363.675 95.6257 362.626C96.0049 362.091 96.3953 361.511 96.7411 361.043C96.9642 360.775 97.1984 360.485 97.4104 360.195C100.037 362.766 102.179 365.789 103.735 369.118C102.677 370.23 101.796 371.498 101.125 372.877C100.324 374.313 99.6272 375.804 99.0389 377.339C97.9564 380.313 97.0659 383.353 96.373 386.441C96.373 386.575 96.5515 386.619 96.5849 386.441C97.264 383.347 98.3243 380.35 99.7416 377.517C100.411 376.123 101.114 374.751 101.861 373.39C102.632 372.129 103.332 370.826 103.958 369.486C105.443 372.74 106.306 376.244 106.501 379.815C106.501 379.96 106.724 379.938 106.713 379.815C106.302 374.21 104.587 368.778 101.705 363.954C103.066 364.534 104.438 365.069 105.754 365.805C107.422 366.683 108.977 367.762 110.383 369.018C110.506 369.107 110.639 368.94 110.539 368.851Z" fill="#263238"/>
<path d="M94.1756 369.676C93.5064 371.907 92.6586 374.015 92.0563 376.246C91.4412 378.379 91.1112 380.585 91.0747 382.805C91.0747 382.805 91.1751 382.872 91.1751 382.805C91.7821 378.351 92.8551 373.973 94.3764 369.743C94.387 369.729 94.3941 369.712 94.3971 369.695C94.4001 369.677 94.3989 369.66 94.3936 369.643C94.3884 369.626 94.3792 369.611 94.3668 369.598C94.3544 369.585 94.3392 369.576 94.3224 369.57C94.3057 369.565 94.2878 369.563 94.2703 369.566C94.2529 369.568 94.2363 369.575 94.222 369.586C94.2076 369.596 94.1959 369.609 94.1879 369.625C94.1798 369.641 94.1756 369.658 94.1756 369.676Z" fill="#263238"/>
<path d="M108.308 364.21C107.43 363.368 106.435 362.658 105.352 362.102C104.249 361.6 103.103 361.197 101.928 360.898C101.805 360.898 101.761 361.076 101.928 361.098C103.099 361.402 104.224 361.859 105.274 362.459C106.329 363.007 107.343 363.629 108.308 364.322C108.286 364.378 108.375 364.277 108.308 364.21Z" fill="#263238"/>
<path d="M70.417 337.596C70.417 337.596 72.5586 311.495 91.9559 303.018C108.163 295.946 117.432 314.172 105.988 325.327C96.7188 334.339 81.8613 330.268 70.417 337.596Z" fill="#A72329"/>
<path d="M102.396 308.093C99.441 309.284 96.5583 310.647 93.7629 312.176C91.4398 313.52 89.2044 315.01 87.0703 316.637C87.3826 315.979 87.6727 315.288 87.9961 314.641C88.4981 313.626 89.0446 312.644 89.6358 311.685C90.8341 309.711 92.2728 307.894 93.9191 306.275C94.0194 306.186 93.8521 306.03 93.7629 306.13C92.1378 307.755 90.6458 309.508 89.3012 311.372C88.637 312.321 88.0227 313.304 87.4607 314.317C86.89 315.257 86.4508 316.27 86.1557 317.329L85.9437 317.485C82.553 320.184 79.4471 323.223 76.6745 326.553C76.7303 326.297 76.7861 326.04 76.853 325.806C77.2099 324.523 77.6115 323.263 77.9684 322.014C78.8039 319.332 79.9851 316.771 81.482 314.395C81.5489 314.284 81.3593 314.172 81.2924 314.295C79.7634 316.671 78.4066 319.154 77.2322 321.724C76.6917 322.972 76.2443 324.258 75.8937 325.572C75.6116 326.427 75.399 327.304 75.2579 328.193C74.4102 329.309 73.5848 330.346 72.7928 331.461C64.4717 343.318 60.2889 357.663 59.285 372.018C58.9976 376.292 58.9269 380.577 59.073 384.857C59.0983 389.178 59.4713 393.49 60.1885 397.751C60.1885 398.019 60.6681 397.941 60.6569 397.684C60.5677 393.914 60.1773 390.155 60.0992 386.385C60.0212 382.615 60.1662 378.811 60.4673 375.052C61.074 367.519 62.4914 360.073 64.6948 352.844C66.9526 345.441 70.2781 338.407 74.5664 331.963C75.3806 331.796 76.1949 331.584 76.998 331.372C77.8011 331.16 78.9388 330.87 79.8981 330.602C81.7642 330.126 83.5768 329.461 85.3079 328.617C85.4306 328.617 85.3079 328.372 85.1964 328.439C83.4866 329.375 81.6313 330.016 79.7085 330.335C78.1915 330.636 76.6187 330.837 75.0906 331.183C76.4943 329.129 78.0021 327.148 79.6081 325.248C83.3056 325.589 87.034 325.31 90.6397 324.423C92.5609 323.963 94.4499 323.378 96.2949 322.672C98.2358 321.924 100.076 320.954 101.995 320.151C102.02 320.139 102.039 320.118 102.049 320.092C102.058 320.065 102.057 320.037 102.045 320.011C102.033 319.986 102.012 319.967 101.986 319.958C101.959 319.948 101.931 319.949 101.906 319.961C98.4401 321.849 94.6607 323.093 90.7512 323.631C87.2901 324.179 83.7927 324.466 80.2885 324.49C81.6605 322.906 83.0882 321.367 84.6052 319.917C89.7027 315.065 95.7595 310.603 102.452 308.283C102.575 308.249 102.575 308.037 102.396 308.093Z" fill="#263238"/>
<path d="M86.6018 308.171C85.7316 309.276 84.9378 310.439 84.226 311.651C83.4882 312.926 82.9076 314.286 82.497 315.7C82.497 315.7 82.497 315.767 82.5751 315.7C83.2221 314.429 83.7686 313.101 84.4156 311.819C85.063 310.565 85.8406 309.384 86.7357 308.294C86.8472 308.216 86.6911 308.06 86.6018 308.171Z" fill="#263238"/>
<path d="M104.65 316.816C103.385 317.509 102.05 318.066 100.667 318.478C99.3406 318.928 97.9886 319.3 96.6184 319.593C96.5515 319.593 96.6184 319.716 96.6184 319.705C98.0461 319.557 99.4528 319.25 100.812 318.79C102.179 318.292 103.513 317.707 104.806 317.039C104.884 316.983 104.806 316.816 104.65 316.816Z" fill="#263238"/>
<path d="M55.3364 332.9C55.2137 334.016 52.4028 323.419 35.9948 314.005C21.1485 305.461 3.30158 283.23 17.9249 269.176C29.7149 257.843 60.7797 282.561 55.3364 332.9Z" fill="#A72329"/>
<path d="M66.6357 393.691C66.3915 382.653 65.52 371.637 64.0256 360.697C62.7313 350.644 60.4102 340.751 57.0988 331.171C55.8718 327.725 54.4775 324.323 52.9717 320.987C53.0557 319.687 53.0333 318.381 52.9047 317.083C52.8155 315.41 52.6705 313.737 52.5143 312.075C52.3582 310.413 52.1909 308.729 51.9901 307.089C51.7893 305.45 51.4435 303.743 51.3766 302.114C51.3821 302.098 51.3836 302.08 51.3808 302.062C51.3781 302.045 51.3713 302.028 51.361 302.014C51.3506 302 51.3371 301.988 51.3214 301.98C51.3056 301.972 51.2883 301.968 51.2706 301.968C51.253 301.968 51.2356 301.972 51.2199 301.98C51.2042 301.988 51.1906 302 51.1803 302.014C51.1699 302.028 51.1631 302.045 51.1604 302.062C51.1577 302.08 51.1592 302.098 51.1647 302.114C51.4961 303.855 51.6937 305.619 51.7558 307.39C51.8785 308.997 51.9678 310.614 52.0235 312.22C52.0793 313.826 52.0235 315.455 52.0235 317.072C52.0235 317.652 52.0235 318.266 52.0235 318.89C50.4843 315.633 48.8223 312.421 47.0376 309.298C48.153 302.494 46.7029 295.388 45.3198 288.729C45.3198 288.595 45.0856 288.662 45.1079 288.796C45.8031 292.268 46.1765 295.797 46.2233 299.337C46.2902 302.126 46.1564 304.914 46.1452 307.714C45.7548 307.045 45.3644 306.375 44.9629 305.717C42.8064 302.259 40.5197 298.895 38.103 295.623C38.2928 294.01 38.2364 292.378 37.9357 290.782C37.6777 288.971 37.2863 287.181 36.7645 285.428C36.2439 283.688 35.6379 281.977 34.9463 280.297C34.2324 278.579 33.2843 276.95 32.6039 275.21C32.5981 275.198 32.5898 275.187 32.5796 275.177C32.5694 275.168 32.5575 275.161 32.5446 275.156C32.5317 275.152 32.5179 275.15 32.5042 275.15C32.4904 275.151 32.4769 275.154 32.4645 275.16C32.452 275.166 32.4409 275.174 32.4316 275.184C32.4223 275.195 32.4152 275.206 32.4105 275.219C32.4059 275.232 32.4038 275.246 32.4044 275.26C32.4051 275.274 32.4084 275.287 32.4143 275.3C33.2839 276.934 33.9721 278.658 34.4667 280.442C35.0067 282.119 35.4536 283.824 35.8052 285.55C36.151 287.279 36.441 289.008 36.6752 290.748C36.8425 291.864 36.9429 293.102 37.1437 294.273C33.6303 289.549 29.7913 285.077 25.6548 280.888C25.5544 280.787 25.4206 280.944 25.5098 281.044C31.76 288.073 37.3427 295.668 42.1855 303.732L42.7097 304.646C41.8062 304.078 40.7689 303.631 39.9211 303.163C38.3372 302.285 36.7422 301.408 35.1359 300.531C33.5297 299.653 31.983 298.805 30.4958 297.987C29.6926 297.552 28.9118 297.084 28.0976 296.671C27.1299 296.238 26.2007 295.723 25.3202 295.132C25.1975 295.043 25.0636 295.232 25.1975 295.299C26.7702 296.169 28.1757 297.463 29.6592 298.434C31.1427 299.404 32.7489 300.352 34.344 301.244C37.2664 302.873 40.4342 304.044 43.2674 305.706C45.264 309.186 47.0933 312.767 48.8446 316.403C47.1045 315.288 45.3198 314.172 43.5128 313.213C42.3974 312.566 41.1927 311.93 40.0104 311.306C38.8249 310.765 37.7026 310.096 36.6641 309.309C36.6426 309.293 36.616 309.285 36.5892 309.287C36.5625 309.289 36.5373 309.3 36.5183 309.319C36.4993 309.338 36.4878 309.364 36.4859 309.39C36.484 309.417 36.4918 309.444 36.5079 309.465C38.4223 311.177 40.5387 312.65 42.8101 313.849C44.9183 315.076 47.0487 316.269 49.2461 317.34C50.9936 321.185 52.5738 325.1 53.9867 329.086C60.9024 348.639 63.4344 369.397 64.6502 390.01C65.0071 396.156 65.1968 402.28 65.2748 408.448C65.3529 414.617 65.0183 420.718 65.0406 426.886C65.0406 427.065 65.3306 427.109 65.3641 426.886C66.1003 421.432 66.223 415.888 66.4795 410.4C66.7361 404.912 66.7584 399.268 66.6357 393.691Z" fill="#263238"/>
<path d="M36.8202 305.171C33.8251 303.848 30.9156 302.339 28.1087 300.653C25.255 299.056 22.492 297.302 19.8322 295.4C19.8322 295.4 19.7318 295.4 19.8322 295.478C22.3472 297.518 25.0009 299.382 27.7741 301.055C30.6801 302.669 33.6826 304.103 36.7645 305.349C36.8425 305.405 36.9541 305.215 36.8202 305.171Z" fill="#263238"/>
<path d="M41.5831 283.063C41.3377 282.115 41.0366 281.178 40.7131 280.241C40.7241 280.224 40.73 280.205 40.73 280.185C40.73 280.165 40.7241 280.146 40.7131 280.129L40.1107 278.557C40.0936 278.49 40.0673 278.426 40.0327 278.367C40.0327 278.267 39.9546 278.166 39.91 278.066C39.91 278.066 40.0104 278.434 40.0661 278.612C40.0724 278.706 40.0874 278.8 40.1107 278.891C41.1891 282.546 42.0017 286.274 42.5424 290.045C42.5424 290.157 42.7432 290.168 42.732 290.045C42.5663 287.687 42.1817 285.35 41.5831 283.063Z" fill="#263238"/>
<path d="M83.9694 397.651L82.7982 411.527L79.2177 453.846H40.8246L37.2441 411.527L36.0729 397.651H83.9694Z" fill="#37474F"/>
<path d="M83.9694 397.651L82.7982 411.527H37.2441L36.0729 397.651H83.9694Z" fill="#263238"/>
<path d="M87.7284 392.085H32.3027V405.392H87.7284V392.085Z" fill="#37474F"/>
</svg>
