<svg width="20" height="22" viewBox="0 0 20 22" fill="none" xmlns="http://www.w3.org/2000/svg">
<path d="M18.75 18.2501H17.5V9.50008C17.5 9.16856 17.3683 8.85062 17.1339 8.6162C16.8995 8.38178 16.5815 8.25008 16.25 8.25008H11.25V4.50008C11.2501 4.27372 11.1888 4.05158 11.0726 3.85735C10.9563 3.66312 10.7895 3.5041 10.59 3.39726C10.3904 3.29042 10.1656 3.23978 9.93951 3.25073C9.71342 3.26169 9.49454 3.33383 9.30625 3.45946L3.05625 7.62508C2.8848 7.73947 2.74429 7.89448 2.64724 8.07632C2.55019 8.25815 2.49961 8.46116 2.5 8.66727V18.2501H1.25C1.08424 18.2501 0.925268 18.3159 0.808058 18.4331C0.690848 18.5503 0.625 18.7093 0.625 18.8751C0.625 19.0408 0.690848 19.1998 0.808058 19.317C0.925268 19.4342 1.08424 19.5001 1.25 19.5001H18.75C18.9158 19.5001 19.0747 19.4342 19.1919 19.317C19.3092 19.1998 19.375 19.0408 19.375 18.8751C19.375 18.7093 19.3092 18.5503 19.1919 18.4331C19.0747 18.3159 18.9158 18.2501 18.75 18.2501ZM16.25 9.50008V18.2501H11.25V9.50008H16.25ZM3.75 8.66727L10 4.50008V18.2501H3.75V8.66727ZM8.75 10.7501V12.0001C8.75 12.1658 8.68415 12.3248 8.56694 12.442C8.44973 12.5592 8.29076 12.6251 8.125 12.6251C7.95924 12.6251 7.80027 12.5592 7.68306 12.442C7.56585 12.3248 7.5 12.1658 7.5 12.0001V10.7501C7.5 10.5843 7.56585 10.4253 7.68306 10.3081C7.80027 10.1909 7.95924 10.1251 8.125 10.1251C8.29076 10.1251 8.44973 10.1909 8.56694 10.3081C8.68415 10.4253 8.75 10.5843 8.75 10.7501ZM6.25 10.7501V12.0001C6.25 12.1658 6.18415 12.3248 6.06694 12.442C5.94973 12.5592 5.79076 12.6251 5.625 12.6251C5.45924 12.6251 5.30027 12.5592 5.18306 12.442C5.06585 12.3248 5 12.1658 5 12.0001V10.7501C5 10.5843 5.06585 10.4253 5.18306 10.3081C5.30027 10.1909 5.45924 10.1251 5.625 10.1251C5.79076 10.1251 5.94973 10.1909 6.06694 10.3081C6.18415 10.4253 6.25 10.5843 6.25 10.7501ZM6.25 15.1251V16.3751C6.25 16.5408 6.18415 16.6998 6.06694 16.817C5.94973 16.9342 5.79076 17.0001 5.625 17.0001C5.45924 17.0001 5.30027 16.9342 5.18306 16.817C5.06585 16.6998 5 16.5408 5 16.3751V15.1251C5 14.9593 5.06585 14.8003 5.18306 14.6831C5.30027 14.5659 5.45924 14.5001 5.625 14.5001C5.79076 14.5001 5.94973 14.5659 6.06694 14.6831C6.18415 14.8003 6.25 14.9593 6.25 15.1251ZM8.75 15.1251V16.3751C8.75 16.5408 8.68415 16.6998 8.56694 16.817C8.44973 16.9342 8.29076 17.0001 8.125 17.0001C7.95924 17.0001 7.80027 16.9342 7.68306 16.817C7.56585 16.6998 7.5 16.5408 7.5 16.3751V15.1251C7.5 14.9593 7.56585 14.8003 7.68306 14.6831C7.80027 14.5659 7.95924 14.5001 8.125 14.5001C8.29076 14.5001 8.44973 14.5659 8.56694 14.6831C8.68415 14.8003 8.75 14.9593 8.75 15.1251Z" fill="#292929"/>
</svg>
