<svg width="28" height="28" viewBox="0 0 28 28" fill="none" xmlns="http://www.w3.org/2000/svg">
<path d="M20.5 1H7.5C3.91015 1 1 3.91015 1 7.5V20.5C1 24.0898 3.91015 27 7.5 27H20.5C24.0898 27 27 24.0898 27 20.5V7.5C27 3.91015 24.0898 1 20.5 1Z" stroke="black" stroke-linecap="round" stroke-linejoin="round"/>
<path d="M19.2 13.1809C19.3605 14.2628 19.1757 15.3678 18.6719 16.3386C18.1682 17.3095 17.3711 18.0967 16.3941 18.5885C15.4172 19.0802 14.31 19.2514 13.2301 19.0776C12.1503 18.9039 11.1527 18.394 10.3793 17.6206C9.60591 16.8472 9.09607 15.8496 8.92231 14.7698C8.74855 13.6899 8.91971 12.5828 9.41145 11.6058C9.90319 10.6288 10.6905 9.83177 11.6613 9.32802C12.6321 8.82427 13.7371 8.63947 14.819 8.7999C15.9226 8.96355 16.9443 9.47781 17.7332 10.2667C18.5221 11.0556 19.0364 12.0773 19.2 13.1809Z" stroke="black" stroke-linecap="round" stroke-linejoin="round"/>
<path d="M21.15 6.8501H21.163" stroke="black" stroke-linecap="round" stroke-linejoin="round"/>
</svg>
