<svg width="29" height="28" viewBox="0 0 29 28" fill="none" xmlns="http://www.w3.org/2000/svg">
<path d="M20.1579 9.21045C22.3355 9.21045 24.4239 10.0755 25.9636 11.6153C27.5034 13.155 28.3684 15.2434 28.3684 17.421V26.9999H22.8948V17.421C22.8948 16.6951 22.6064 15.999 22.0932 15.4857C21.5799 14.9725 20.8838 14.6841 20.1579 14.6841C19.4321 14.6841 18.7359 14.9725 18.2227 15.4857C17.7094 15.999 17.4211 16.6951 17.4211 17.421V26.9999H11.9474V17.421C11.9474 15.2434 12.8124 13.155 14.3522 11.6153C15.892 10.0755 17.9803 9.21045 20.1579 9.21045Z" stroke="black" stroke-linecap="round" stroke-linejoin="round"/>
<path d="M6.47368 10.5786H1V26.9997H6.47368V10.5786Z" stroke="black" stroke-linecap="round" stroke-linejoin="round"/>
<path d="M3.73684 6.47368C5.24836 6.47368 6.47368 5.24836 6.47368 3.73684C6.47368 2.22533 5.24836 1 3.73684 1C2.22533 1 1 2.22533 1 3.73684C1 5.24836 2.22533 6.47368 3.73684 6.47368Z" stroke="black" stroke-linecap="round" stroke-linejoin="round"/>
</svg>
