<svg width="53" height="42" viewBox="0 0 53 42" fill="none" xmlns="http://www.w3.org/2000/svg">
<path d="M2.03125 2.03125V0C1.49253 0 0.975872 0.214006 0.594939 0.594939C0.214006 0.975872 0 1.49253 0 2.03125H2.03125ZM50.7812 2.03125H52.8125C52.8125 1.49253 52.5985 0.975872 52.2176 0.594939C51.8366 0.214006 51.32 0 50.7812 0V2.03125ZM2.03125 4.0625H50.7812V0H2.03125V4.0625ZM48.75 2.03125V34.5313H52.8125V2.03125H48.75ZM45.3646 37.9167H7.44792V41.9792H45.3646V37.9167ZM4.0625 34.5313V2.03125H0V34.5313H4.0625ZM7.44792 37.9167C5.57917 37.9167 4.0625 36.4 4.0625 34.5313H0C0 36.5066 0.784689 38.401 2.18144 39.7977C3.5782 41.1945 5.47261 41.9792 7.44792 41.9792V37.9167ZM48.75 34.5313C48.75 36.4 47.2333 37.9167 45.3646 37.9167V41.9792C47.3399 41.9792 49.2343 41.1945 50.6311 39.7977C52.0278 38.401 52.8125 36.5066 52.8125 34.5313H48.75Z" fill="black"/>
<path d="M2.03125 2.03125L26.4062 26.4062L50.7812 2.03125" stroke="black" stroke-width="1.5" stroke-linecap="round" stroke-linejoin="round"/>
</svg>
