<svg width="38" height="45" viewBox="0 0 38 45" fill="none" xmlns="http://www.w3.org/2000/svg">
<path d="M20.2694 42.3932C19.8994 42.6589 19.4555 42.8018 19 42.8018C18.5445 42.8018 18.1006 42.6589 17.7306 42.3932C6.78458 34.5911 -4.83243 18.5426 6.91151 6.94601C10.1356 3.77451 14.4775 1.99801 19 2C23.5335 2 27.8833 3.77939 31.0885 6.94375C42.8324 18.5404 31.2154 34.5866 20.2694 42.3932Z" stroke="white" stroke-width="3" stroke-linecap="round" stroke-linejoin="round"/>
<path d="M19.0012 22.4005C20.2036 22.4005 21.3567 21.9229 22.2069 21.0727C23.0571 20.2225 23.5347 19.0694 23.5347 17.8671C23.5347 16.6647 23.0571 15.5116 22.2069 14.6614C21.3567 13.8113 20.2036 13.3336 19.0012 13.3336C17.7989 13.3336 16.6458 13.8113 15.7956 14.6614C14.9454 15.5116 14.4678 16.6647 14.4678 17.8671C14.4678 19.0694 14.9454 20.2225 15.7956 21.0727C16.6458 21.9229 17.7989 22.4005 19.0012 22.4005Z" fill="white" stroke="white" stroke-width="3" stroke-linecap="round" stroke-linejoin="round"/>
</svg>
