<svg width="33" height="37" viewBox="0 0 33 37" fill="none" xmlns="http://www.w3.org/2000/svg">
<path d="M1.83333 36.4247H0V0L2.85083 1.89933L7.23433 4.82167L10.7727 1.99283L11.9167 1.07617L13.0625 1.99283L16.5 4.74467L19.9375 1.99467L21.0833 1.078L22.2292 1.99467L25.7657 4.8235L30.1492 1.90117L33 0V36.4247H1.83333ZM3.66667 6.853V32.758H29.3333V6.853L26.6842 8.6185L25.5677 9.36283L24.5227 8.525L21.0833 5.775L17.6458 8.525L16.5 9.44167L15.3542 8.525L11.9167 5.775L8.47917 8.525L7.43233 9.36283L6.31583 8.6185L3.66667 6.853ZM9.16667 27.258H7.33333V23.5913H25.6667V27.258H9.16667ZM14.6667 19.9247H25.6667V16.258H14.6667V19.9247ZM9.16667 16.258H7.33333V19.932H11.0073V16.258H9.16667Z" fill="white"/>
</svg>
