<svg width="68" height="68" viewBox="0 0 68 68" fill="none" xmlns="http://www.w3.org/2000/svg">
<circle cx="34.0109" cy="34.1475" r="33.7515" fill="white" fill-opacity="0.86"/>
<path d="M24.5689 21.1453C24.4111 21.0518 24.2314 21.0016 24.0481 21C23.8647 20.9984 23.6842 21.0454 23.5248 21.1362C23.3654 21.2269 23.2329 21.3582 23.1408 21.5168C23.0486 21.6753 23 21.8554 23 22.0388V46.0984C23 46.2818 23.0486 46.4619 23.1408 46.6205C23.2329 46.779 23.3654 46.9103 23.5248 47.0011C23.6842 47.0918 23.8647 47.1388 24.0481 47.1372C24.2314 47.1356 24.4111 47.0855 24.5689 46.992L44.8691 34.9622C45.0241 34.8702 45.1526 34.7394 45.2418 34.5827C45.331 34.4261 45.3779 34.2489 45.3779 34.0686C45.3779 33.8883 45.331 33.7112 45.2418 33.5545C45.1526 33.3978 45.0241 33.2671 44.8691 33.1751L24.5689 21.1453Z" fill="#A72329" stroke="#A72329" stroke-width="1.88908" stroke-linecap="round" stroke-linejoin="round"/>
</svg>
