<svg width="90" height="75" viewBox="0 0 90 75" fill="none" xmlns="http://www.w3.org/2000/svg">
<path d="M38.424 1.10629C39.3326 3.832 39.7869 6.10343 39.7869 7.92058C39.7869 9.55601 39.5143 11.7366 38.9691 14.4623C26.7943 14.4623 20.7069 20.7314 20.7069 33.2697C20.7069 37.8126 23.0691 40.3566 27.7937 40.9017C34.6989 41.4469 38.1514 45.8989 38.1514 54.2577C38.1514 60.6177 36.6069 65.524 33.5177 68.9766C30.6103 72.2474 25.2497 73.8829 17.436 73.8829C6.71486 73.8829 1.35429 66.6143 1.35429 52.0771C1.35429 37.54 4.26171 25.456 10.0766 15.8251C15.8914 6.01257 25.3406 1.10629 38.424 1.10629ZM87.7594 1.10629C88.668 3.832 89.1223 6.10343 89.1223 7.92058C89.1223 9.55601 88.8497 11.7366 88.3046 14.4623C76.1297 14.4623 70.0423 20.7314 70.0423 33.2697C70.0423 37.8126 72.4046 40.3566 77.1291 40.9017C84.0343 41.4469 87.4869 45.8989 87.4869 54.2577C87.4869 60.6177 85.9423 65.524 82.8531 68.9766C79.9457 72.2474 74.5851 73.8829 66.7714 73.8829C56.0503 73.8829 50.6897 66.6143 50.6897 52.0771C50.6897 37.54 53.5971 25.456 59.412 15.8251C65.2269 6.01257 74.676 1.10629 87.7594 1.10629Z" fill="#A72329" fill-opacity="0.34"/>
</svg>
