<svg width="101" height="101" viewBox="0 0 101 101" fill="none" xmlns="http://www.w3.org/2000/svg">
<circle opacity="0.1" cx="50.5" cy="50.5" r="50.5" fill="#A72329"/>
<path fill-rule="evenodd" clip-rule="evenodd" d="M37.4096 56.658L37.3649 59.2825H42.1012C43.1062 59.2825 43.9241 60.1004 43.9241 61.1055V62.9284H43.9038V69.3696C43.9038 70.3747 43.0859 71.1925 42.0808 71.1925H40.2579V63.5835C40.2579 62.8307 40.4003 62.9243 39.672 62.9243H34.9886V62.9121H32.653C31.1474 62.9121 29.9145 61.6751 29.9145 60.1737V51.1934C29.9145 49.6593 31.1678 48.4061 32.7018 48.4061H34.0812C36.2703 48.4061 36.486 49.4518 37.0393 50.5464L39.3668 51.4619C41.0514 52.2228 40.6201 52.3734 41.7675 50.9533L43.2568 49.11C43.9851 47.9463 47.3258 49.1629 46.0888 51.116L43.4725 54.0661C42.5732 55.2949 41.381 55.4658 39.9324 54.8636L37.4137 53.9766L37.4096 56.658ZM58.5522 36.4635H57.0996V36.3171C57.0996 36.0688 57.1281 35.8695 57.185 35.7148C57.242 35.5602 57.3234 35.4178 57.4332 35.2917C57.5431 35.1655 57.7913 34.9377 58.1779 34.6203C58.3813 34.4494 58.4871 34.2988 58.4871 34.1605C58.4871 34.0181 58.4464 33.9123 58.361 33.835C58.2755 33.7576 58.1534 33.717 57.9866 33.717C57.8035 33.717 57.657 33.778 57.535 33.896C57.417 34.014 57.3396 34.2256 57.3071 34.5226L55.83 34.3395C55.8789 33.7983 56.0782 33.3589 56.4241 33.0293C56.77 32.6997 57.299 32.5329 58.007 32.5329C58.5603 32.5329 59.0079 32.6509 59.3497 32.8787C59.8136 33.1921 60.0455 33.6071 60.0455 34.132C60.0455 34.3477 59.9845 34.5552 59.8665 34.7586C59.7485 34.958 59.5044 35.2062 59.1341 35.4951C58.8777 35.6986 58.715 35.8613 58.6499 35.9875C58.5848 36.1055 58.5522 36.2642 58.5522 36.4635ZM56.4078 31.1494H58.715H61.6569C61.9336 31.1494 62.1858 31.1982 62.4137 31.2918C62.6416 31.3854 62.8531 31.5278 63.0444 31.7231C63.2356 31.9144 63.3821 32.126 63.4757 32.3538C63.5693 32.5817 63.6181 32.834 63.6181 33.1107V37.2285C63.6181 37.5052 63.5693 37.7575 63.4757 37.9854C63.3821 38.2132 63.2397 38.4248 63.0444 38.616C62.8491 38.8073 62.6375 38.9538 62.4096 39.0474C62.1818 39.1409 61.9295 39.1898 61.6569 39.1898H58.8126C58.597 39.1898 58.4261 39.3647 58.4261 39.5763C58.4261 39.6211 58.4342 39.6659 58.4505 39.7065C58.5156 39.9629 58.5929 40.2152 58.6783 40.4593C58.7679 40.7157 58.8655 40.9639 58.9713 41.1999C59.0242 41.3219 59.0852 41.4399 59.1544 41.5579C58.7841 41.3952 58.4342 41.2039 58.1128 40.9923C57.771 40.7686 57.4576 40.5203 57.1647 40.2477C56.8717 39.971 56.6031 39.6699 56.359 39.3444C56.2817 39.2427 56.1678 39.1898 56.0498 39.1898H54.4954C54.2228 39.1898 53.9705 39.1409 53.7426 39.0474C53.5148 38.9538 53.3032 38.8073 53.1079 38.616C52.9166 38.4248 52.7701 38.2132 52.6766 37.9854C52.583 37.7575 52.5341 37.5052 52.5341 37.2285V33.1107C52.5341 32.834 52.583 32.5817 52.6766 32.3538C52.7701 32.126 52.9126 31.9144 53.1079 31.7231C53.2991 31.5319 53.5107 31.3854 53.7386 31.2918C53.9664 31.1982 54.2187 31.1494 54.4954 31.1494H56.4078ZM58.719 30.3763H56.4119H54.4995C54.1251 30.3763 53.7752 30.4414 53.4497 30.5757C53.1241 30.71 52.8312 30.9093 52.5667 31.1738C52.3022 31.4383 52.1028 31.7354 51.9685 32.0568C51.8343 32.3823 51.7651 32.7323 51.7651 33.1066V37.2244C51.7651 37.5988 51.8343 37.9487 51.9685 38.2743C52.1028 38.5998 52.3022 38.8927 52.5667 39.1613C52.8312 39.4258 53.1282 39.6252 53.4537 39.7594C53.7793 39.8937 54.1292 39.9629 54.4995 39.9629H55.8667C56.1067 40.2681 56.3631 40.5488 56.6398 40.8092C56.9653 41.1144 57.3193 41.3911 57.6936 41.6393C58.0721 41.8875 58.4749 42.1073 58.8981 42.2904C59.3253 42.4775 59.777 42.6322 60.2531 42.7542C60.3873 42.7909 60.5379 42.7502 60.6396 42.6362C60.782 42.4775 60.7657 42.2334 60.6071 42.091C60.3833 41.8916 60.1961 41.6922 60.0415 41.4928C59.8909 41.2975 59.7729 41.0981 59.6793 40.8906V40.8866C59.5776 40.6628 59.4881 40.439 59.4108 40.207C59.3823 40.1256 59.3538 40.0443 59.3294 39.9588H61.6609C62.0353 39.9588 62.3811 39.8896 62.7067 39.7554C63.0322 39.6211 63.3292 39.4217 63.5937 39.1572C63.8582 38.8927 64.0576 38.5957 64.1919 38.2702C64.3261 37.9447 64.3912 37.5947 64.3912 37.2204V33.1107C64.3912 32.7363 64.3261 32.3864 64.1919 32.0609C64.0576 31.7354 63.8582 31.4424 63.5937 31.1779C63.3292 30.9134 63.0322 30.714 62.7107 30.5798C62.3852 30.4455 62.0353 30.3763 61.6609 30.3763H58.719ZM57.0507 36.9681H58.6051V37.9691H57.0507V36.9681ZM39.2732 32.423C39.7412 32.423 40.1196 32.8014 40.1196 33.2694C40.1196 33.7373 39.7412 34.1157 39.2732 34.1157C38.8053 34.1157 38.4269 33.7373 38.4269 33.2694C38.4269 32.8014 38.8053 32.423 39.2732 32.423ZM46.1621 32.423C46.63 32.423 47.0084 32.8014 47.0084 33.2694C47.0084 33.7373 46.63 34.1157 46.1621 34.1157C45.6941 34.1157 45.3157 33.7373 45.3157 33.2694C45.3157 32.8014 45.6941 32.423 46.1621 32.423ZM42.7156 32.423C43.1836 32.423 43.562 32.8014 43.562 33.2694C43.562 33.7373 43.1836 34.1157 42.7156 34.1157C42.2477 34.1157 41.8693 33.7373 41.8693 33.2694C41.8693 32.8014 42.2517 32.423 42.7156 32.423ZM46.1702 28C47.8629 28 49.2138 29.3509 49.2138 31.0436V35.1737C49.2138 36.8664 47.8629 38.2214 46.1702 38.2214H44.2252C42.972 39.8123 41.2793 40.8255 39.3383 41.3301C39.1878 41.3708 39.021 41.3219 38.9111 41.1999C38.7524 41.0208 38.7727 40.7523 38.9477 40.5936C39.7656 39.8693 40.0626 39.2183 40.3719 38.2214H39.2651C38.0363 38.2214 36.9173 37.4849 36.4453 36.3455C36.2947 35.9834 36.2215 35.5928 36.2215 35.1737V31.0436C36.2215 29.355 37.5765 28 39.2651 28C41.796 28 43.6393 28 46.1702 28ZM74.5027 69.4836C74.4865 69.3696 74.4417 69.2638 74.3522 69.1784C73.1844 68.0065 71.5934 67.3473 69.9617 67.1805L70.1001 65.6953H75.0439C75.5566 65.6953 75.9798 65.2721 75.9798 64.7594C75.9798 60.8776 75.0643 57.9601 75.9798 53.5452C76.2483 52.235 73.5506 52.0478 73.5506 53.6144V63.5591H64.2C63.6873 63.5591 63.2641 64.2508 63.2641 64.7635V65.4919C63.2641 65.6058 63.3577 65.6994 63.4716 65.6994H68.4318L68.623 67.1602C66.9995 67.2659 65.3841 67.8641 64.1715 68.9709C64.021 69.1092 63.9681 69.3127 64.0128 69.4958C63.7687 69.6748 63.6141 69.8579 63.6141 70.2974C63.6141 70.7368 64.0616 71.2943 64.611 71.2943C65.1603 71.2943 65.6079 70.7368 65.6079 70.2974C65.6079 69.8579 65.4451 69.6748 65.201 69.4917C66.2548 68.6779 67.5691 68.2547 68.8956 68.214L69.0055 69.2923C69.0177 69.4185 68.2812 69.4591 68.2812 70.3014C68.2812 70.806 68.7288 71.2983 69.2781 71.2983C69.8274 71.2983 70.275 70.806 70.275 70.3014C70.275 69.8009 69.9698 69.4632 69.5548 69.3452L69.6362 68.2262C70.922 68.3117 72.2281 68.7593 73.2251 69.5894C73.042 69.7684 72.928 69.8864 72.928 70.2974C72.928 70.7083 73.3756 71.2943 73.9249 71.2943C74.4742 71.2943 74.9218 70.7368 74.9218 70.2974C74.9178 69.8498 74.755 69.6626 74.5027 69.4836ZM66.5275 39.7961C64.4238 39.7961 62.7107 41.505 62.7107 43.6087C62.7107 45.7124 64.4197 47.4214 66.5275 47.4214C68.6311 47.4214 70.3401 45.7124 70.3401 43.6087C70.3361 41.505 68.6311 39.7961 66.5275 39.7961ZM64.9365 54.7537L65.0097 59.2785H60.2775C59.2724 59.2785 58.4546 60.0964 58.4546 61.1014V62.9243H58.4749V69.3656C58.4749 70.3706 59.2928 71.1885 60.2978 71.1885H62.1207V63.4451C62.1207 62.6436 62.4218 62.9243 63.3252 62.9243H67.3942V62.9121H69.7298C71.2394 62.9121 72.4682 61.6751 72.4682 60.1737V50.6603C72.4682 49.1263 71.215 47.873 69.681 47.873H68.3016C65.4329 47.873 65.8886 49.8506 64.615 51.0916C63.3618 52.3164 63.6751 52.4588 61.962 52.4588H58.2674C56.062 52.4588 55.5249 55.3397 58.6621 55.3397H62.0475C63.5612 55.3437 63.6914 55.5838 64.9365 54.7537ZM60.1717 55.9297C54.2268 55.9297 47.7937 55.9297 41.8489 55.9297C41.7594 55.9297 41.6862 56.0029 41.6862 56.0884V58.4077C41.6862 58.4972 41.7594 58.5664 41.8489 58.5664C44.9536 58.5664 46.5771 58.5664 49.6858 58.5664V72.1162C49.6858 72.2342 49.7835 72.3319 49.9015 72.3319H52.8149C52.9329 72.3319 53.0306 72.2342 53.0306 72.1162V58.5786C55.0813 58.5786 58.1209 58.5786 60.1717 58.5786C60.2571 58.5786 60.3304 58.5054 60.3304 58.4199V56.1006C60.3304 56.007 61.4005 55.9378 61.3151 55.9378H60.1717V55.9297ZM26.5047 54.0824H27.8352C28.1079 54.0824 28.2869 54.3102 28.3276 54.5747C28.8281 57.7445 29.1048 60.9102 29.0885 64.0718H38.1827C38.5449 64.0718 38.8338 64.3647 38.8338 64.7228V66.0412H38.3129V72.0999C38.3129 72.2098 38.2234 72.2993 38.1136 72.2993H36.368C36.2581 72.2993 36.1686 72.2098 36.1686 72.0999V69.1662H28.7304C28.6206 70.0614 28.4863 70.9525 28.3276 71.8477C28.2788 72.1162 28.1038 72.34 27.8352 72.34H26.5047C26.2361 72.34 25.935 72.1081 26.0123 71.8477C27.7661 65.7482 27.3999 60.4707 26.0123 54.5747C25.9472 54.3102 26.2361 54.0824 26.5047 54.0824ZM36.1726 68.2588V66.0452H29.06C29.0193 67.2822 28.9339 67.0259 28.7996 68.2588H36.1726ZM33.9917 39.6618C36.0953 39.6618 37.8043 41.3708 37.8043 43.4744C37.8043 45.5781 36.0953 47.2871 33.9917 47.2871C31.888 47.2871 30.179 45.5781 30.179 43.4744C30.179 41.3708 31.8839 39.6618 33.9917 39.6618Z" fill="#A72329"/>
</svg>
