<svg width="198" height="147" viewBox="0 0 198 147" fill="none" xmlns="http://www.w3.org/2000/svg">
<path d="M0.955521 129.025H198V129.123H0.955521V129.025Z" fill="#EBEBEB"/>
<path d="M104.601 111.448H180.696C181.292 111.447 181.863 111.21 182.284 110.788C182.705 110.366 182.942 109.794 182.942 109.198V2.23054C182.937 1.63784 182.698 1.07113 182.277 0.653486C181.857 0.235846 181.288 0.00101533 180.696 0H104.601C104.004 0 103.432 0.237079 103.01 0.659082C102.588 1.08109 102.351 1.65344 102.351 2.25025V109.198C102.351 109.795 102.588 110.367 103.01 110.789C103.432 111.211 104.004 111.448 104.601 111.448ZM180.696 0.0788181C181.266 0.079862 181.812 0.307021 182.214 0.710435C182.617 1.11385 182.843 1.66055 182.843 2.23054V109.198C182.843 109.768 182.617 110.315 182.214 110.718C181.812 111.122 181.266 111.349 180.696 111.35H104.601C104.031 111.349 103.484 111.122 103.081 110.718C102.677 110.315 102.45 109.768 102.449 109.198V2.23054C102.45 1.66019 102.677 1.1135 103.081 0.710194C103.484 0.306893 104.031 0.0798598 104.601 0.0788181H180.696Z" fill="#EBEBEB"/>
<path d="M19.3555 111.448H95.454C96.0505 111.447 96.6223 111.21 97.044 110.788C97.4658 110.366 97.7032 109.795 97.7043 109.198V2.23054C97.6981 1.63748 97.4584 1.07077 97.0371 0.653239C96.6159 0.235708 96.0471 0.00100425 95.454 0H19.3555C18.7634 0.00205103 18.1961 0.23734 17.7763 0.654869C17.3566 1.0724 17.1183 1.63852 17.1131 2.23054V109.198C17.1131 109.794 17.3491 110.365 17.7694 110.786C18.1897 111.208 18.76 111.446 19.3555 111.448ZM95.454 0.0788181C96.0244 0.0798598 96.5711 0.306893 96.9744 0.710194C97.3777 1.1135 97.6047 1.66019 97.6058 2.23054V109.198C97.6047 109.768 97.3777 110.315 96.9744 110.718C96.5711 111.122 96.0244 111.349 95.454 111.35H19.3555C18.7851 111.349 18.2384 111.122 17.8351 110.718C17.4318 110.315 17.2048 109.768 17.2037 109.198V2.23054C17.2048 1.66019 17.4318 1.1135 17.8351 0.710194C18.2384 0.306893 18.7851 0.0798598 19.3555 0.0788181H95.454Z" fill="#EBEBEB"/>
<path d="M119.009 132.776H129.255V132.875H119.009V132.776Z" fill="#EBEBEB"/>
<path d="M156.006 131.708H177.326V131.807H156.006V131.708Z" fill="#EBEBEB"/>
<path d="M129.649 136.438H140.022V136.536H129.649V136.438Z" fill="#EBEBEB"/>
<path d="M80.9319 135.776H96.2344V135.874H80.9319V135.776Z" fill="#EBEBEB"/>
<path d="M73.2117 135.776H77.4245V135.874H73.2117V135.776Z" fill="#EBEBEB"/>
<path d="M20.6954 134.112H42.1969V134.211H20.6954V134.112Z" fill="#EBEBEB"/>
<path d="M47.8285 125.529H29.8383L29.8383 76.0828H47.8285L47.8285 125.529Z" fill="#F0F0F0"/>
<path d="M126.382 129.021H33.2944V125.525L126.382 125.525V129.021Z" fill="#F0F0F0"/>
<path d="M47.8284 76.0789H129.834V125.525H47.8284V76.0789Z" fill="#F5F5F5"/>
<path d="M47.5131 79.4287H129.834V97.5292H47.5131V79.4287Z" fill="#F0F0F0"/>
<path d="M47.5131 100.828H129.834V118.928H47.5131V100.828Z" fill="#F0F0F0"/>
<path d="M47.8285 97.5251H44.7152V79.4246H47.8285V97.5251Z" fill="#E6E6E6"/>
<path d="M47.8285 118.924H44.7152V100.824H47.8285V118.924Z" fill="#E6E6E6"/>
<path d="M132.23 76.0789L47.8284 76.0789V73.0365L132.23 73.0365V76.0789Z" fill="#F0F0F0"/>
<path d="M27.324 73.0365H47.8284V76.0789H27.324V73.0365Z" fill="#E6E6E6"/>
<path d="M68.6797 63.736L26.3427 63.736L26.3427 10.5182L68.6797 10.5182V63.736Z" fill="#F0F0F0"/>
<path d="M78.0275 63.736L27.9664 63.736L27.9664 10.5182L78.0275 10.5182V63.736Z" fill="#F5F5F5"/>
<path d="M73.8344 14.7113V59.5428H32.1595V14.7113H73.8344Z" fill="white"/>
<path d="M48.3842 41.9783L40.4196 38.2857V35.9645L48.3842 32.264V35.0463L43.5447 37.131L48.3842 39.2158V41.9783Z" fill="#E6E6E6"/>
<path d="M53.5782 31.1921H55.0324L52.4551 43.0582H51.0048L53.5782 31.1921Z" fill="#E6E6E6"/>
<path d="M57.6136 39.2158L62.4333 37.131L57.5939 35.0463V32.264L65.5861 35.9645V38.2857L57.6215 41.9783L57.6136 39.2158Z" fill="#E6E6E6"/>
<path d="M151.805 129.025H149.03V38.7075H151.805V129.025Z" fill="#F0F0F0"/>
<path d="M152.384 128.394L152.459 128C152.174 127.909 151.91 127.76 151.684 127.562C151.459 127.365 151.276 127.124 151.147 126.853C150.426 125.577 149.988 122.853 151.994 117.147C155.084 108.351 153.239 101.257 149.562 87.1174C148.924 84.6544 148.199 81.8642 147.446 78.8415C144.621 67.543 147.233 60.5361 149.334 54.9046C150.962 50.5341 152.25 47.0819 150.603 43.0819L150.236 43.2317C151.813 47.0858 150.563 50.475 148.963 54.7666C146.843 60.4455 144.207 67.5194 147.064 78.9322C147.817 81.9509 148.542 84.7411 149.18 87.208C152.837 101.281 154.674 108.343 151.62 117.045C149.559 122.913 150.043 125.75 150.831 127.094C150.988 127.405 151.206 127.681 151.473 127.905C151.74 128.128 152.05 128.295 152.384 128.394Z" fill="#F0F0F0"/>
<path d="M155.442 129.025H145.397L148.191 127.377H152.648L155.442 129.025Z" fill="#F0F0F0"/>
<path d="M170.292 50.2109H130.548L134.922 16.8158H165.917L170.292 50.2109Z" fill="#F5F5F5"/>
<path d="M111.348 55.7163H90.13L92.9241 73.0365H108.554L111.348 55.7163Z" fill="#F0F0F0"/>
<path d="M102.824 61.3519C97.0383 59.2593 92.6087 56.1145 97.5664 49.7499C102.524 43.3854 110.205 43.4169 115.383 46.2346C121.98 49.8209 120.656 60.2051 120.656 60.2051C120.656 60.2051 108.609 63.4484 102.824 61.3519Z" fill="#E0E0E0"/>
<path d="M97.2 55.5666C101.626 52.5518 104.763 49.0642 99.6275 45.3834C94.4926 41.7026 88.1596 43.5903 84.3527 47.007C79.5014 51.3656 82.3034 59.0149 82.3034 59.0149C82.3034 59.0149 92.7783 58.5656 97.2 55.5666Z" fill="#E6E6E6"/>
<path d="M104.995 47.9172C99.8167 47.6059 95.4738 46.2541 97.9251 40.6462C100.376 35.0384 106.595 33.4659 111.446 34.4275C117.645 35.6531 119.107 43.4088 119.107 43.4088C119.107 43.4088 110.169 48.2325 104.995 47.9172Z" fill="#F0F0F0"/>
<path d="M98.4925 44.6109C102.8 43.2237 106.177 41.1469 102.895 36.9341C99.6118 32.7212 94.0275 32.7449 90.126 34.605C85.1526 36.9695 85.594 43.8503 85.594 43.8503C85.594 43.8503 94.1851 45.9942 98.4925 44.6109Z" fill="#EBEBEB"/>
<path d="M106.571 37.4384C102.272 38.8572 98.3192 39.1645 98.4965 33.8286C98.6738 28.4926 103.19 25.2217 107.438 24.4099C112.857 23.401 116.546 29.2138 116.546 29.2138C116.546 29.2138 110.863 36.0079 106.571 37.4384Z" fill="#F5F5F5"/>
<path d="M95.6591 35.1329C98.7369 35.3457 101.397 34.8807 100.388 31.3851C99.3793 27.8895 95.8325 26.4984 92.9005 26.6915C89.1566 26.9398 87.7024 31.4206 87.7024 31.4206C87.7024 31.4206 92.5852 34.924 95.6591 35.1329Z" fill="#FAFAFA"/>
<path d="M99.4778 146.822C57.2777 146.822 23.0678 144.825 23.0678 142.361C23.0678 139.897 57.2777 137.9 99.4778 137.9C141.678 137.9 175.888 139.897 175.888 142.361C175.888 144.825 141.678 146.822 99.4778 146.822Z" fill="#F5F5F5"/>
<path d="M32.7742 77.2769H166.666V82.0808H32.7742V77.2769Z" fill="#47872C"/>
<path opacity="0.3" d="M130.831 77.2769H166.666V82.0808H130.831V77.2769Z" fill="white"/>
<path d="M130.26 82.0808H133.377L131.746 142.29H130.26H128.774L127.139 82.0808H130.26Z" fill="#47872C"/>
<path opacity="0.3" d="M131.746 142.29H130.26V83.3734L133.326 83.933L131.746 142.29Z" fill="white"/>
<path d="M159.805 82.0808H162.922L161.291 142.29H159.805H158.319L156.688 82.0808H159.805Z" fill="#47872C"/>
<path opacity="0.3" d="M161.291 142.29H159.805V83.3734L162.875 83.933L161.291 142.29Z" fill="white"/>
<path d="M39.6354 82.0808H42.7526L41.1211 142.29H39.6354H38.1497L36.5142 82.0808H39.6354Z" fill="#47872C"/>
<path opacity="0.3" d="M41.121 142.29H39.6353V83.3734L42.7013 83.933L41.121 142.29Z" fill="white"/>
<path d="M69.1802 82.0808H72.2974L70.6659 142.29H69.1802H67.6945L66.0629 82.0808H69.1802Z" fill="#47872C"/>
<path opacity="0.3" d="M70.6659 142.29H69.1801V83.3734L72.2462 83.933L70.6659 142.29Z" fill="white"/>
<path d="M103.111 51.5588H134.946C135.204 51.5486 135.461 51.5996 135.696 51.7077C135.931 51.8158 136.137 51.9779 136.297 52.1808C136.457 52.3837 136.567 52.6216 136.618 52.8752C136.669 53.1287 136.659 53.3906 136.589 53.6396L132.349 73.876C132.212 74.4484 131.893 74.9608 131.439 75.3355C130.986 75.7102 130.422 75.927 129.834 75.9529H97.9762C97.7183 75.9629 97.4617 75.9119 97.2272 75.804C96.9927 75.6961 96.787 75.5344 96.6269 75.332C96.4667 75.1296 96.3566 74.8922 96.3055 74.6392C96.2545 74.3862 96.2638 74.1247 96.3329 73.876L100.577 53.6396C100.714 53.0633 101.036 52.5478 101.493 52.172C101.951 51.7961 102.519 51.5807 103.111 51.5588Z" fill="#263238"/>
<path d="M129.559 74.7981C129.956 74.7713 130.334 74.6196 130.64 74.3648C130.946 74.11 131.163 73.7651 131.261 73.3794L135.501 53.1429C135.538 53.009 135.543 52.8686 135.518 52.7322C135.493 52.5958 135.437 52.4668 135.356 52.3547C135.271 52.2588 135.165 52.1831 135.047 52.1333C134.929 52.0835 134.802 52.0609 134.674 52.067H102.816C102.419 52.0938 102.04 52.2455 101.734 52.5003C101.429 52.7551 101.211 53.1 101.113 53.4858L96.8728 73.7222C96.8365 73.8561 96.8308 73.9965 96.856 74.1329C96.8812 74.2693 96.9368 74.3983 97.0186 74.5104C97.1029 74.607 97.2081 74.6832 97.3263 74.733C97.4444 74.7829 97.5723 74.8051 97.7004 74.7981H129.559Z" fill="white"/>
<path opacity="0.4" d="M105.523 73.1784L109.543 53.9902C109.565 53.8766 109.563 53.7594 109.535 53.647C109.507 53.5346 109.455 53.4297 109.382 53.3397C109.309 53.2498 109.217 53.1771 109.112 53.1267C109.008 53.0764 108.894 53.0496 108.778 53.0483H103.608C103.428 53.0497 103.255 53.1122 103.116 53.2254C102.977 53.3386 102.881 53.4957 102.843 53.671L98.8235 72.8434C98.8009 72.957 98.8036 73.0742 98.8315 73.1866C98.8593 73.2991 98.9116 73.404 98.9846 73.4939C99.0576 73.5838 99.1495 73.6566 99.2538 73.7069C99.3581 73.7573 99.4722 73.784 99.588 73.7853H104.758C104.936 73.7847 105.107 73.7246 105.246 73.6144C105.385 73.5043 105.482 73.3507 105.523 73.1784Z" fill="#47872C"/>
<path d="M132.849 54.7272L133.023 53.8956H126.638L126.465 54.7272H132.849Z" fill="#47872C"/>
<path d="M129.901 56.7921L130.075 55.9606H118.887L118.709 56.7921H129.901Z" fill="#EBEBEB"/>
<path d="M129.31 58.8533L129.488 58.0217H116.944L116.77 58.8533H129.31Z" fill="#EBEBEB"/>
<path d="M128.723 60.9183L128.897 60.0868H118.8L118.623 60.9183H128.723Z" fill="#EBEBEB"/>
<path d="M130.906 64.2641L131.084 63.4326H127.044L126.871 64.2641H130.906Z" fill="#47872C"/>
<path d="M127.962 66.3251L128.136 65.4935H123.218L123.04 66.3251H127.962Z" fill="#EBEBEB"/>
<path d="M121.862 66.3251L122.039 65.4935H117.117L116.944 66.3251H121.862Z" fill="#EBEBEB"/>
<path d="M127.371 68.3902L127.545 67.5587H110.914L110.741 68.3902H127.371Z" fill="#EBEBEB"/>
<path d="M126.784 70.4513L126.958 69.6198H114.276L114.102 70.4513H126.784Z" fill="#EBEBEB"/>
<path d="M88.2383 75.8306H130.154C131.296 75.8306 132.037 76.4808 131.797 77.2769H85.724C85.9604 76.4808 87.0954 75.8306 88.2383 75.8306Z" fill="#263238"/>
<path opacity="0.1" d="M143.927 46.4434L147.951 27.267C147.973 27.1537 147.969 27.037 147.941 26.925C147.913 26.8131 147.861 26.7087 147.788 26.6192C147.715 26.5298 147.623 26.4574 147.519 26.4073C147.415 26.3572 147.302 26.3305 147.186 26.3291H114.634C114.456 26.3303 114.283 26.3922 114.144 26.5046C114.005 26.617 113.908 26.7733 113.87 26.9478L109.846 46.1084C109.824 46.222 109.826 46.3392 109.854 46.4516C109.882 46.5641 109.934 46.669 110.007 46.7589C110.08 46.8488 110.172 46.9216 110.276 46.9719C110.381 47.0223 110.495 47.049 110.611 47.0503H143.162C143.34 47.0497 143.511 46.9896 143.65 46.8794C143.789 46.7693 143.886 46.6157 143.927 46.4434Z" fill="#47872C"/>
<path d="M132.357 26.9596H139.19L139.344 26.2227H132.51L132.357 26.9596Z" fill="#47872C"/>
<path opacity="0.4" d="M133.468 28.134H136.211L136.364 27.3971H133.622L133.468 28.134Z" fill="#47872C"/>
<path opacity="0.4" d="M128.904 28.134H133.129L133.283 27.3971H129.058L128.904 28.134Z" fill="#47872C"/>
<path opacity="0.4" d="M127.064 29.3046H135.966L136.12 28.5676H127.214L127.064 29.3046Z" fill="#47872C"/>
<path opacity="0.4" d="M128.195 30.4789H135.722L135.876 29.7419H128.349L128.195 30.4789Z" fill="#47872C"/>
<path opacity="0.4" d="M123.202 42.936H127.994L127.84 43.669H123.048L123.202 42.936Z" fill="#47872C"/>
<path d="M129.176 41.328H136.195L136.349 40.5911H129.33L129.176 41.328Z" fill="#47872C"/>
<path opacity="0.4" d="M126.355 44.1064H132.881L132.727 44.8434H126.201L126.355 44.1064Z" fill="#47872C"/>
<path opacity="0.4" d="M128.333 42.936H133.125L132.971 43.669H128.179L128.333 42.936Z" fill="#47872C"/>
<path opacity="0.4" d="M123.785 41.7616H133.369L133.216 42.4985H123.631L123.785 41.7616Z" fill="#47872C"/>
<path d="M132.597 21.4896H140.329L140.483 20.7566H132.751L132.597 21.4896Z" fill="#47872C"/>
<path opacity="0.4" d="M128.778 24.272H137.306L137.153 25.0089H128.628L128.778 24.272Z" fill="#47872C"/>
<path opacity="0.4" d="M130.485 23.1014H137.551L137.397 23.8344H130.331L130.485 23.1014Z" fill="#47872C"/>
<path opacity="0.4" d="M130.016 21.9271H137.795L137.641 22.6641H129.862L130.016 21.9271Z" fill="#47872C"/>
<path d="M132.684 32.3862H138.059L138.213 31.6493H132.837L132.684 32.3862Z" fill="#47872C"/>
<path opacity="0.4" d="M124.242 35.1646H134.745L134.591 35.9015H124.093L124.242 35.1646Z" fill="#47872C"/>
<path opacity="0.4" d="M130.638 33.9941H134.989L134.835 34.7311H130.485L130.638 33.9941Z" fill="#47872C"/>
<path opacity="0.4" d="M125.917 33.9941H130.268L130.114 34.7311H125.763L125.917 33.9941Z" fill="#47872C"/>
<path opacity="0.4" d="M125.649 32.8197H135.233L135.08 33.5566H125.499L125.649 32.8197Z" fill="#47872C"/>
<path opacity="0.4" d="M125.669 38.6837H134.012L133.858 39.4167H125.515L125.669 38.6837Z" fill="#47872C"/>
<path opacity="0.4" d="M131.829 37.5093H134.256L134.102 38.2462H131.679L131.829 37.5093Z" fill="#47872C"/>
<path opacity="0.4" d="M128.033 37.5093H131.497L131.344 38.2462H127.88L128.033 37.5093Z" fill="#47872C"/>
<path opacity="0.4" d="M124.916 36.339H134.5L134.347 37.072H124.762L124.916 36.339Z" fill="#47872C"/>
<path opacity="0.4" d="M117.369 36.1419H120.802L120.956 35.4049H117.519L117.369 36.1419Z" fill="#47872C"/>
<path opacity="0.4" d="M111.655 36.1419H116.944L117.098 35.4049H111.809L111.655 36.1419Z" fill="#47872C"/>
<path opacity="0.4" d="M109.409 37.3162H120.557L120.711 36.5792H109.562L109.409 37.3162Z" fill="#47872C"/>
<path opacity="0.4" d="M110.891 38.4867H120.313L120.467 37.7498H111.044L110.891 38.4867Z" fill="#47872C"/>
<path opacity="0.4" d="M106.67 31.4797H117.346L117.192 32.2127H106.516L106.67 31.4797Z" fill="#47872C"/>
<path opacity="0.4" d="M108.743 30.3054H117.59L117.436 31.0424H108.593L108.743 30.3054Z" fill="#47872C"/>
<path d="M110.343 29.135H120.085L119.931 29.868H110.189L110.343 29.135Z" fill="#47872C"/>
<path opacity="0.4" d="M106.189 43.1763H119.336L119.182 43.9132H106.035L106.189 43.1763Z" fill="#47872C"/>
<path opacity="0.4" d="M114.134 42.006H119.58L119.427 42.739H113.98L114.134 42.006Z" fill="#47872C"/>
<path opacity="0.4" d="M108.223 42.006H113.669L113.515 42.739H108.069L108.223 42.006Z" fill="#47872C"/>
<path opacity="0.4" d="M107.829 40.8315H119.825L119.671 41.5685H107.675L107.829 40.8315Z" fill="#47872C"/>
<path opacity="0.4" d="M108.159 46.6918H118.603L118.449 47.4287H108.006L108.159 46.6918Z" fill="#47872C"/>
<path opacity="0.4" d="M115.809 45.5212H118.847L118.693 46.2582H115.655L115.809 45.5212Z" fill="#47872C"/>
<path opacity="0.4" d="M111.056 45.5212H115.391L115.237 46.2582H110.902L111.056 45.5212Z" fill="#47872C"/>
<path opacity="0.4" d="M107.092 44.3468H119.092L118.938 45.0837H106.942L107.092 44.3468Z" fill="#47872C"/>
<path opacity="0.4" d="M139.044 47.6019H147.218L147.064 48.3389H138.891L139.044 47.6019Z" fill="#47872C"/>
<path opacity="0.4" d="M141.46 46.4316H147.462L147.308 47.1646H141.31L141.46 46.4316Z" fill="#47872C"/>
<path opacity="0.4" d="M135.04 46.4316H141.038L140.885 47.1646H134.883L135.04 46.4316Z" fill="#47872C"/>
<path opacity="0.4" d="M135.706 45.2572H147.706L147.553 45.9942H135.557L135.706 45.2572Z" fill="#47872C"/>
<path d="M43.9309 69.6198H48.991L48.3999 77.2769H44.522L43.9309 69.6198Z" fill="#47872C"/>
<path opacity="0.4" d="M43.9309 69.6198H48.991L48.3999 77.2769H44.522L43.9309 69.6198Z" fill="white"/>
<path d="M154.205 64.3035H146.93L149.413 77.2769H156.688L154.205 64.3035Z" fill="#263238"/>
<path d="M144.94 60.8276H155.214L152.337 77.2769H142.063L144.94 60.8276Z" fill="#47872C"/>
<path d="M155.821 60.8276H155.214L152.337 77.2769H152.944L155.821 60.8276Z" fill="#47872C"/>
<path opacity="0.3" d="M155.821 60.8276H155.214L152.337 77.2769H152.944L155.821 60.8276Z" fill="black"/>
<path d="M150.859 75.5153L153.121 62.5852H146.414L144.156 75.5153H150.859Z" fill="white"/>
<path opacity="0.6" d="M144.475 75.5153L146.733 62.5852H146.414L144.156 75.5153H144.475Z" fill="#47872C"/>
<path d="M94.0511 39.8031C93.9053 40.1183 93.9526 40.4533 94.1615 40.5479C94.3704 40.6425 94.6541 40.4651 94.7999 40.1538C94.9457 39.8425 94.8945 39.5036 94.6896 39.409C94.4846 39.3144 94.197 39.472 94.0511 39.8031Z" fill="#263238"/>
<path d="M93.925 40.4258C93.925 40.4258 93.7989 42.5775 94.1851 43.8228C93.3969 44.0869 92.5456 43.4287 92.5456 43.4287L93.925 40.4258Z" fill="#FF5652"/>
<path d="M94.0117 37.1982C94.0452 37.2259 94.0865 37.2424 94.1299 37.2455C94.3864 37.2523 94.6376 37.3197 94.863 37.4424C95.0883 37.565 95.2814 37.7393 95.4265 37.9509C95.4394 37.9752 95.4571 37.9965 95.4785 38.0138C95.4999 38.0311 95.5245 38.0439 95.5509 38.0514C95.5774 38.059 95.605 38.0611 95.6323 38.0577C95.6596 38.0544 95.6859 38.0455 95.7097 38.0318C95.7335 38.018 95.7543 37.9996 95.7709 37.9777C95.7874 37.9557 95.7994 37.9307 95.806 37.904C95.8127 37.8774 95.8139 37.8496 95.8096 37.8225C95.8054 37.7953 95.7957 37.7693 95.7811 37.746C95.6026 37.475 95.3616 37.2508 95.0783 37.0924C94.7951 36.9339 94.4779 36.8459 94.1535 36.8356C94.1105 36.8333 94.0677 36.8445 94.0314 36.8679C93.9951 36.8912 93.9671 36.9254 93.9514 36.9656C93.9357 37.0058 93.933 37.0499 93.9439 37.0917C93.9547 37.1334 93.9784 37.1707 94.0117 37.1982Z" fill="#263238"/>
<path d="M82.4451 39.3145C81.2274 43.5312 79.8678 46.8021 78.2087 48.6701C78.2087 48.6701 78.1772 51.9844 83.8245 53.5608C90.0353 55.2948 87.655 51.3066 87.655 51.3066C84.5023 49.5529 84.8018 46.9046 87.1742 45.8957L82.4451 39.3145Z" fill="#FF8B7B"/>
<path d="M76.8924 47.8622C77.0028 46.3213 77.1486 44.5636 78.0983 44.5164C79.1466 44.4691 85.2156 47.1804 86.5121 49.0917C87.8087 51.0031 85.2747 52.875 85.2747 52.875L76.8924 47.8622Z" fill="#263238"/>
<path d="M89.3141 71.7243L94.5555 71.5509L94.4609 75.9411C94.4609 75.9411 89.8895 75.4681 89.6885 74.2662L89.3141 71.7243Z" fill="#FF8B7B"/>
<path d="M97.326 73.7064L97.8777 75.9527L94.4609 75.9448L94.5555 71.5547L97.326 73.7064Z" fill="#FF8B7B"/>
<path d="M68.2776 53.4819L68.3879 54.609C68.4234 54.9716 68.4707 55.3263 68.518 55.6849C68.6086 56.3982 68.7229 57.1115 68.8451 57.8208C69.0815 59.2435 69.3889 60.6583 69.7436 62.0809C70.1041 63.5309 70.5409 64.9608 71.052 66.3647C71.3239 67.0859 71.6077 67.807 71.9466 68.5401C72.2882 69.3089 72.6833 70.053 73.1288 70.7667C73.2353 70.9519 73.3692 71.1607 73.4993 71.3341C73.6293 71.5075 73.7554 71.7282 73.8934 71.9095C74.0313 72.0908 74.1771 72.3036 74.3584 72.4888L74.6146 72.7805C74.7062 72.888 74.8036 72.9907 74.9062 73.0878C75.6961 73.8614 76.6219 74.4827 77.6372 74.9204C79.1948 75.5885 80.8479 76.0074 82.5357 76.1617C83.3042 76.2524 84.0648 76.2878 84.8096 76.3076C85.5545 76.3273 86.2993 76.3075 87.0323 76.2681C87.7653 76.2287 88.4904 76.1657 89.2116 76.079C89.9328 75.9923 90.6343 75.878 91.3988 75.7243L91.2727 71.6061C88.7564 71.166 86.269 70.5738 83.8244 69.8327C83.2807 69.6559 82.7466 69.4507 82.2244 69.2179C81.7798 69.0303 81.3547 68.7993 80.9554 68.5282C80.7232 68.3883 80.5264 68.1969 80.3801 67.9686L80.2658 67.7873C80.2128 67.7099 80.1642 67.6297 80.12 67.5469C80.0638 67.4565 80.0125 67.3631 79.9663 67.2671C79.915 67.1647 79.8599 67.0701 79.8086 66.9558C79.3457 65.945 78.9648 64.8986 78.6697 63.8268C78.3466 62.6681 78.0431 61.4622 77.7988 60.213C77.5545 58.9637 77.318 57.7026 77.1013 56.4297L76.8017 54.5144L76.5298 52.6504L68.2776 53.4819Z" fill="#47872C"/>
<path opacity="0.2" d="M68.2776 53.4819L68.3879 54.609C68.4234 54.9716 68.4707 55.3263 68.518 55.6849C68.6086 56.3982 68.7229 57.1115 68.8451 57.8208C69.0815 59.2435 69.3889 60.6583 69.7436 62.0809C70.1041 63.5309 70.5409 64.9608 71.052 66.3647C71.3239 67.0859 71.6077 67.807 71.9466 68.5401C72.2882 69.3089 72.6833 70.053 73.1288 70.7667C73.2353 70.9519 73.3692 71.1607 73.4993 71.3341C73.6293 71.5075 73.7554 71.7282 73.8934 71.9095C74.0313 72.0908 74.1771 72.3036 74.3584 72.4888L74.6146 72.7805C74.7062 72.888 74.8036 72.9907 74.9062 73.0878C75.6961 73.8614 76.6219 74.4827 77.6372 74.9204C79.1948 75.5885 80.8479 76.0074 82.5357 76.1617C83.3042 76.2524 84.0648 76.2878 84.8096 76.3076C85.5545 76.3273 86.2993 76.3075 87.0323 76.2681C87.7653 76.2287 88.4904 76.1657 89.2116 76.079C89.9328 75.9923 90.6343 75.878 91.3988 75.7243L91.2727 71.6061C88.7564 71.166 86.269 70.5738 83.8244 69.8327C83.2807 69.6559 82.7466 69.4507 82.2244 69.2179C81.7798 69.0303 81.3547 68.7993 80.9554 68.5282C80.7232 68.3883 80.5264 68.1969 80.3801 67.9686L80.2658 67.7873C80.2128 67.7099 80.1642 67.6297 80.12 67.5469C80.0638 67.4565 80.0125 67.3631 79.9663 67.2671C79.915 67.1647 79.8599 67.0701 79.8086 66.9558C79.3457 65.945 78.9648 64.8986 78.6697 63.8268C78.3466 62.6681 78.0431 61.4622 77.7988 60.213C77.5545 58.9637 77.318 57.7026 77.1013 56.4297L76.8017 54.5144L76.5298 52.6504L68.2776 53.4819Z" fill="black"/>
<path d="M91.5486 58.7194C89.5945 67.1443 88.4947 75.7448 88.2659 84.3903H65.192C65.0658 81.5411 65.5466 65.474 67.8678 53.8681C68.0739 52.8169 68.4879 51.8175 69.0857 50.9285C69.6834 50.0396 70.4528 49.279 71.3486 48.6916C72.2444 48.1042 73.2486 47.7017 74.3021 47.5079C75.3557 47.314 76.4374 47.3326 77.4836 47.5627L77.5939 47.5903C80.4747 48.2445 84.6087 49.3006 87.0521 50.2267L87.1506 50.2661C88.7847 50.9015 90.1319 52.1094 90.9411 53.6647C91.7503 55.2201 91.9662 57.0166 91.5486 58.7194Z" fill="#47872C"/>
<path opacity="0.2" d="M90.0472 66.0887C89.8659 67.1961 89.6807 68.3705 89.5112 69.6001C87.6235 67.6296 87.0245 61.5922 87.0245 61.5922L90.0472 66.0887Z" fill="black"/>
<path d="M109.216 72.0119L114.453 71.5232L114.626 75.9094C113.761 76.1483 112.846 76.1457 111.982 75.9019C111.118 75.6581 110.337 75.1823 109.724 74.5261L109.216 72.0119Z" fill="#FF8B7B"/>
<path d="M116.944 72.8158L118.623 75.8306L114.611 75.9094L114.437 71.5232L116.944 72.8158Z" fill="#FF8B7B"/>
<path d="M82.8905 56.6976C83.253 57.3873 83.5762 57.9981 83.9387 58.6286C84.3013 59.2592 84.6481 59.874 85.0225 60.4848C85.7634 61.7144 86.5318 62.9203 87.3437 64.1144C88.9736 66.5597 90.7793 68.883 92.7466 71.0661C93.8002 72.2413 94.9453 73.3311 96.1713 74.3252C96.325 74.4553 96.5062 74.5814 96.6757 74.7193C96.8452 74.8572 96.9949 74.9676 97.2471 75.1134C97.4993 75.2592 97.7122 75.405 97.9407 75.5311C98.1693 75.6572 98.4057 75.7715 98.6383 75.874C99.5075 76.2514 100.417 76.5277 101.35 76.6976C102.98 76.9725 104.642 77.0097 106.284 76.808C107.052 76.7199 107.815 76.5883 108.569 76.4139C108.945 76.3272 109.315 76.2287 109.681 76.1183C110.075 76.008 110.394 75.8858 110.816 75.7242L110.165 71.6572C107.69 71.3222 105.015 70.8927 103.17 70.0572C102.761 69.889 102.375 69.6677 102.023 69.3991C101.882 69.3016 101.75 69.1908 101.629 69.0681C101.602 69.0326 101.48 68.9262 101.389 68.8395C101.298 68.7528 101.192 68.67 101.093 68.5676C100.25 67.7317 99.4601 66.8432 98.7289 65.9075C97.1423 63.8606 95.66 61.7351 94.2875 59.539C93.5782 58.4237 92.8885 57.2887 92.1988 56.1498L91.1821 54.4395L90.2008 52.7567L82.8905 56.6976Z" fill="#47872C"/>
<path d="M89.2235 138.956H93.5348L95.7062 128.966H91.391L89.2235 138.956Z" fill="#FF8B7B"/>
<path d="M93.7752 138.034H88.9279C88.8437 138.037 88.7626 138.067 88.6966 138.119C88.6307 138.172 88.5833 138.244 88.5614 138.325L87.7102 142.164C87.6899 142.257 87.691 142.354 87.7135 142.446C87.7359 142.539 87.7791 142.626 87.8399 142.699C87.9006 142.773 87.9772 142.832 88.0639 142.871C88.1507 142.911 88.2453 142.931 88.3407 142.928C90.0314 142.901 90.855 142.802 92.987 142.802C94.2994 142.802 95.9821 142.936 97.791 142.936C99.5999 142.936 99.8402 141.147 99.0994 140.986C95.7732 140.257 95.5526 139.256 94.4767 138.298C94.2838 138.126 94.0337 138.032 93.7752 138.034Z" fill="#263238"/>
<g opacity="0.2">
<path d="M91.387 128.969H95.7062L94.5003 134.502L90.2678 134.12L91.387 128.969Z" fill="black"/>
</g>
<path d="M83.8284 34.2464C82.252 38.2346 81.1565 40.4927 82.1969 43.3893C83.7732 47.744 89.3653 48.1854 92.0845 44.741C94.5279 41.6395 96.6639 35.6376 93.5781 32.339C92.9024 31.6078 92.0508 31.0615 91.1044 30.7523C90.158 30.443 89.1482 30.381 88.171 30.5722C87.1939 30.7634 86.2819 31.2013 85.5218 31.8444C84.7617 32.4876 84.1787 33.3144 83.8284 34.2464Z" fill="#FF8B7B"/>
<path d="M91.4028 40.2209C92.0492 41.0879 92.5457 41.746 92.5457 41.746C92.5457 41.746 93.8738 38.4475 93.3654 36.9342C94.0117 35.6534 95.3161 37.5411 95.8088 35.0465C96.3014 32.5519 94.1693 29.8721 93.3654 29.3164C93.2825 29.6071 93.2453 29.9089 93.2551 30.211C91.0827 28.4481 88.3218 27.5762 85.5309 27.7716C85.7642 28.1185 85.9127 28.5154 85.9644 28.9302C85.9644 28.9302 81.2866 29.7184 80.2225 32.3667C80.5989 32.1871 80.996 32.0547 81.4048 31.9726C80.5473 33.2021 80.2075 34.7195 80.459 36.1972C80.7984 38.3523 80.9749 40.5299 80.9871 42.7115C80.9437 43.8307 84.0137 45.9706 85.8856 43.6849C87.7575 41.3992 91.4028 40.2209 91.4028 40.2209Z" fill="#263238"/>
<path d="M89.4521 39.3617C89.2079 40.2906 89.2772 41.2741 89.6491 42.1597C90.1496 43.342 91.1782 43.0582 91.6866 42.0257C92.1476 41.0996 92.4432 39.3814 91.6274 38.5577C90.8117 37.7341 89.7595 38.2464 89.4521 39.3617Z" fill="#FF8B7B"/>
<path d="M81.3496 84.3746C81.3496 84.3746 101.385 91.6416 101.972 101.253C103.06 118.96 95.8205 132.978 95.8205 132.978L89.1841 132.268C89.1841 132.268 90.3663 126.57 91.2452 110.53C92.3526 90.3727 58.1417 111.003 65.188 84.3746H81.3496Z" fill="#47872C"/>
<path opacity="0.5" d="M81.3496 84.3746C81.3496 84.3746 101.385 91.6416 101.972 101.253C103.06 118.96 95.8205 132.978 95.8205 132.978L89.1841 132.268C89.1841 132.268 90.3663 126.57 91.2452 110.53C92.3526 90.3727 58.1417 111.003 65.188 84.3746H81.3496Z" fill="white"/>
<path d="M97.657 130.534C97.6886 130.534 96.6009 133.482 96.6009 133.482L88.325 132.67L88.7388 129.99L97.657 130.534Z" fill="#47872C"/>
<path d="M107.86 139.448H112.175L113.436 129.454H109.121L107.86 139.448Z" fill="#FF8B7B"/>
<path d="M112.207 138.03H107.478C107.392 138.029 107.309 138.057 107.243 138.11C107.176 138.163 107.129 138.238 107.111 138.321L106.252 142.156C106.227 142.25 106.224 142.348 106.244 142.443C106.263 142.539 106.305 142.628 106.365 142.704C106.425 142.781 106.502 142.842 106.589 142.884C106.677 142.925 106.774 142.946 106.871 142.944C108.569 142.916 111.028 142.822 113.176 142.826C115.675 142.826 116.152 142.964 119.088 142.968C120.861 142.968 121.354 141.182 120.613 140.997C117.239 140.256 116.16 140.174 113.247 138.373C112.94 138.162 112.579 138.043 112.207 138.03Z" fill="#263238"/>
<path opacity="0.2" d="M113.432 129.458L112.747 134.901L108.467 134.609L109.117 129.458H113.432Z" fill="black"/>
<path d="M88.2659 84.3746C88.2659 84.3746 121.094 87.2869 120.739 103.776C120.372 120.926 113.964 132.493 113.964 132.493H107.557C107.557 132.493 108.77 123.594 108.554 106.712C108.491 101.655 98.2679 99.9845 88.2896 99.3934C79.6669 98.881 71.596 93.9668 68.2462 85.9943L67.5565 84.3746H88.2659Z" fill="#47872C"/>
<path opacity="0.5" d="M88.2659 84.3746C88.2659 84.3746 121.094 87.2869 120.739 103.776C120.372 120.926 113.964 132.493 113.964 132.493H107.557C107.557 132.493 108.77 123.594 108.554 106.712C108.491 101.655 98.2679 99.9845 88.2896 99.3934C79.6669 98.881 71.596 93.9668 68.2462 85.9943L67.5565 84.3746H88.2659Z" fill="white"/>
<path d="M115.466 130.771C115.493 130.771 114.366 133.734 114.366 133.734L106.626 133.178L107.08 130.499L115.466 130.771Z" fill="#47872C"/>
<path d="M79.6471 65.8445L83.8126 81.8957C84.8777 86.0079 85.4154 90.2389 85.4126 94.4869V101.947C85.4126 103.831 84.0255 105.36 82.3112 105.36H60.9594C59.2451 105.36 57.858 103.831 57.858 101.947V94.4869C57.8594 90.2388 57.3204 86.0078 56.254 81.8957L52.5772 67.7085C52.0097 65.5292 53.4993 63.3735 55.5604 63.3735H76.6678C77.3684 63.3956 78.0417 63.6505 78.5813 64.098C79.1209 64.5455 79.4959 65.16 79.6471 65.8445Z" fill="#263238"/>
<path d="M106.205 97.5884L105.507 101.569C105.137 103.661 103.296 105.36 101.393 105.36H77.6569C75.7535 105.36 74.5042 103.661 74.8747 101.569L75.5722 97.5884C75.9939 95.2041 78.0865 93.2731 80.254 93.2731H103.024C105.208 93.2731 106.622 95.2041 106.205 97.5884Z" fill="#263238"/>
<path d="M75.3713 109.356H87.8048L89.0186 105.36H74.1575L75.3713 109.356Z" fill="#47872C"/>
<path d="M79.3673 109.356H83.8087V139.074H79.3673V109.356Z" fill="#47872C"/>
<path opacity="0.7" d="M79.3673 139.074H83.8087V110.069L79.3673 110.522V139.074Z" fill="white"/>
<path opacity="0.7" d="M80.4511 139.074H81.5112V110.302L80.4511 110.412V139.074Z" fill="white"/>
<path d="M71.3752 143.669H91.8048C91.9239 143.668 92.0397 143.63 92.1357 143.559C92.2317 143.489 92.303 143.39 92.3396 143.276C92.3763 143.163 92.3763 143.041 92.3397 142.928C92.3031 142.814 92.2318 142.715 92.1359 142.645L88.8964 140.28C87.3391 139.139 85.4593 138.524 83.5289 138.522H79.6472C77.7181 138.524 75.8397 139.14 74.2836 140.28L71.0403 142.645C70.944 142.715 70.8726 142.815 70.8361 142.928C70.7997 143.042 70.8 143.165 70.8371 143.278C70.8742 143.392 70.9462 143.491 71.0429 143.561C71.1395 143.631 71.2558 143.669 71.3752 143.669Z" fill="#47872C"/>
</svg>
