<svg width="146" height="146" viewBox="0 0 146 146" fill="none" xmlns="http://www.w3.org/2000/svg">
<path d="M95.7104 115.525L93.7847 125.979C87.9949 124.916 84.0611 119.408 85.0255 113.717C85.9994 107.965 91.6242 104.054 97.487 105.047C103.35 106.04 107.369 111.588 106.395 117.337L95.7104 115.525Z" fill="#F5F5F5"/>
<path d="M124.761 68.9312C126.968 70.1713 129.576 70.4903 132.017 69.8191C134.458 69.1479 136.536 67.5406 137.8 65.3463C138.421 64.2621 138.821 63.0658 138.978 61.8261C139.135 60.5865 139.045 59.3281 138.713 58.1234C138.381 56.9188 137.815 55.7917 137.045 54.8071C136.276 53.8225 135.319 52.9999 134.231 52.3867C132.023 51.1466 129.416 50.8275 126.974 51.4987C124.533 52.17 122.455 53.7773 121.192 55.9716C120.571 57.0559 120.171 58.2522 120.015 59.4917C119.859 60.7312 119.949 61.9893 120.281 63.1937C120.612 64.3982 121.179 65.5251 121.948 66.5098C122.717 67.4944 123.673 68.3173 124.761 68.9312ZM125.525 58.4176C126.13 57.3688 127.123 56.6007 128.29 56.28C129.457 55.9593 130.704 56.1118 131.759 56.7044C132.28 56.9975 132.737 57.3908 133.105 57.8615C133.473 58.3322 133.744 58.871 133.903 59.447C134.061 60.0229 134.104 60.6246 134.03 61.2173C133.955 61.81 133.763 62.382 133.466 62.9003C132.864 63.9513 131.871 64.722 130.704 65.0446C129.536 65.3672 128.288 65.2157 127.232 64.6229C126.711 64.3295 126.252 63.9357 125.884 63.4643C125.515 62.9928 125.244 62.453 125.085 61.876C124.927 61.2991 124.884 60.6964 124.959 60.1028C125.035 59.5092 125.227 58.9364 125.525 58.4176Z" fill="#F5F5F5"/>
<path d="M137.8 65.3461C136.536 67.5405 134.458 69.1478 132.017 69.819C129.576 70.4902 126.968 70.1711 124.761 68.931L127.232 64.6228C128.287 65.2163 129.534 65.3693 130.701 65.0485C131.869 64.7277 132.862 63.9591 133.466 62.9097C133.767 62.3904 133.961 61.8166 134.038 61.2216C134.114 60.6265 134.072 60.0222 133.913 59.4436C133.755 58.865 133.482 58.3238 133.113 57.8514C132.743 57.3789 132.283 56.9847 131.759 56.6916L134.231 52.3739C135.321 52.9871 136.279 53.8102 137.049 54.7958C137.82 55.7814 138.387 56.9098 138.719 58.116C139.051 59.3222 139.141 60.5821 138.983 61.8231C138.825 63.0641 138.423 64.2615 137.8 65.3461Z" fill="#EBEBEB"/>
<path d="M125.5 70.3524C119.891 67.1799 117.686 60.3876 120.887 54.8073L126.506 57.7291C124.976 60.4035 125.237 63.4237 127.911 64.937L125.5 70.3524Z" fill="#FAFAFA"/>
<path d="M138.06 5.2056C134.271 1.70317 129.254 -0.163394 124.098 0.0112372C118.942 0.185868 114.062 2.38759 110.519 6.1383C108.777 7.99442 107.419 10.1768 106.523 12.5599C105.627 14.9429 105.212 17.4796 105.3 20.0239C105.389 22.5683 105.979 25.0699 107.039 27.3851C108.098 29.7002 109.604 31.783 111.471 33.5136C115.259 37.0121 120.273 38.8763 125.427 38.7017C130.58 38.5271 135.457 36.3278 138.999 32.5809C140.742 30.7256 142.101 28.5438 142.998 26.1612C143.895 23.7786 144.312 21.2422 144.224 18.6979C144.137 16.1536 143.547 13.6517 142.489 11.3361C141.431 9.02055 139.926 6.93708 138.06 5.2056ZM131.569 25.6807C129.875 27.4749 127.542 28.5284 125.076 28.6121C122.611 28.6959 120.211 27.8032 118.4 26.1281C117.507 25.3003 116.787 24.3041 116.281 23.197C115.775 22.0898 115.493 20.8935 115.452 19.677C115.41 18.4604 115.609 17.2475 116.037 16.1082C116.466 14.9689 117.116 13.9256 117.949 13.0384C119.644 11.2454 121.977 10.1931 124.443 10.11C126.908 10.0268 129.307 10.9195 131.118 12.5943C132.011 13.4218 132.731 14.4177 133.237 15.5246C133.743 16.6314 134.025 17.8275 134.067 19.0438C134.108 20.2601 133.909 21.4727 133.481 22.6117C133.052 23.7508 132.402 24.7938 131.569 25.6807Z" fill="#F5F5F5"/>
<path d="M110.519 6.13831C114.062 2.38759 118.942 0.185868 124.098 0.0112372C129.254 -0.163394 134.271 1.70317 138.06 5.2056L131.118 12.5943C129.307 10.9195 126.908 10.0268 124.443 10.11C121.977 10.1931 119.644 11.2454 117.949 13.0384C117.116 13.9256 116.466 14.9689 116.037 16.1082C115.609 17.2475 115.41 18.4604 115.451 19.677C115.493 20.8935 115.775 22.0898 116.281 23.197C116.787 24.3041 117.507 25.3003 118.4 26.1281L111.459 33.5136C109.592 31.7821 108.087 29.6986 107.029 27.3831C105.971 25.0675 105.381 22.5656 105.294 20.0213C105.207 17.477 105.624 14.9406 106.52 12.558C107.417 10.1753 108.776 7.99361 110.519 6.13831Z" fill="#EBEBEB"/>
<path d="M137.263 2.0426C146.882 10.9731 148.034 25.4904 139.05 35.0522L129.291 26.5976C133.59 22.026 134.522 15.9253 129.926 11.652L137.263 2.0426Z" fill="#FAFAFA"/>
<path d="M45.5789 6.47144H10.9546V37.7393H45.5789V6.47144Z" fill="#F5F5F5"/>
<path d="M145.046 144.94C145.046 144.985 112.575 145.023 72.5259 145.023C32.4766 145.023 0 144.985 0 144.94C0 144.896 32.4639 144.858 72.5259 144.858C112.588 144.858 145.046 144.886 145.046 144.94Z" fill="#263238"/>
<path d="M59.9534 131.775L67.7799 135.398C64.6645 142.13 58.5639 146.035 54.2715 144.049C49.9792 142.063 48.5135 134.547 51.632 127.815C54.7506 121.083 60.4705 118.996 65.1912 119.323C65.1912 119.323 68.9981 119.247 70.5178 121.908L59.9534 131.775Z" fill="#263238"/>
<path d="M62.6691 132.222L70.4956 135.845C67.377 142.577 61.2795 146.482 56.9872 144.496C52.6948 142.51 51.724 135.331 54.8426 128.599C57.9611 121.867 64.0427 117.962 68.351 119.948C69.7913 120.617 70.9175 121.896 71.5996 123.647L62.6691 132.222Z" fill="#455A64"/>
<path d="M54.005 130.671C53.4462 131.042 52.8496 131.354 52.2253 131.6C51.6251 131.9 50.9958 132.138 50.3472 132.311C50.9324 131.987 51.5374 131.7 52.1586 131.451C52.7577 131.154 53.3743 130.893 54.005 130.671Z" fill="#455A64"/>
<path d="M53.4847 134.322C52.9503 134.68 52.3792 134.98 51.7811 135.217C51.2064 135.506 50.6023 135.732 49.9792 135.893C50.5389 135.58 51.1186 135.304 51.7145 135.068C52.2882 134.782 52.8795 134.533 53.4847 134.322Z" fill="#455A64"/>
<path d="M53.7322 137.431C53.2552 137.764 52.7409 138.04 52.1999 138.253C51.6816 138.515 51.1343 138.715 50.5692 138.849C51.0713 138.561 51.594 138.311 52.1333 138.101C52.6494 137.839 53.1837 137.615 53.7322 137.431Z" fill="#455A64"/>
<path d="M54.8172 140.239C54.3404 140.571 53.8261 140.846 53.2849 141.057C52.7663 141.319 52.2191 141.521 51.6542 141.657C52.1562 141.369 52.679 141.119 53.2182 140.908C53.7341 140.646 54.2685 140.422 54.8172 140.239Z" fill="#455A64"/>
<path d="M57.1458 142.466C56.6706 142.8 56.1572 143.075 55.6166 143.287C55.0983 143.549 54.551 143.75 53.986 143.884C54.4867 143.595 55.0085 143.345 55.5468 143.135C56.0632 142.874 56.5976 142.651 57.1458 142.466Z" fill="#455A64"/>
<path d="M55.4707 127.333C54.7614 127.741 54.0259 128.101 53.269 128.412C52.533 128.77 51.7742 129.08 50.9975 129.338C51.7077 128.93 52.4443 128.57 53.2024 128.259C53.9372 127.901 54.695 127.591 55.4707 127.333Z" fill="#455A64"/>
<path d="M57.7454 124.031C56.9052 124.46 56.0409 124.84 55.1566 125.17C54.2926 125.55 53.4071 125.88 52.5044 126.156C53.3446 125.727 54.2089 125.346 55.0932 125.017C55.9572 124.637 56.8428 124.307 57.7454 124.031Z" fill="#455A64"/>
<path d="M62.3677 120.322C62.3677 120.363 60.7243 121.02 58.6622 121.785C56.6001 122.549 54.9124 123.133 54.8965 123.092C54.8806 123.05 56.5398 122.394 58.6051 121.629C60.6704 120.865 62.3518 120.278 62.3677 120.322Z" fill="#455A64"/>
<path d="M93.3152 135.769H60.4832V144.772H93.3152V135.769Z" fill="#FFC300"/>
<path d="M67.101 135.769C67.1359 135.797 65.7527 137.856 64.0078 140.375C62.263 142.894 60.8354 144.912 60.7814 144.886C60.7275 144.861 62.1297 142.799 63.8746 140.28C65.6195 137.761 67.0629 135.743 67.101 135.769Z" fill="#263238"/>
<path d="M71.9454 135.769C71.9834 135.797 70.6002 137.856 68.8554 140.375C67.1105 142.894 65.667 144.912 65.6226 144.886C65.5782 144.861 66.9678 142.799 68.7126 140.28C70.4575 137.761 71.9073 135.743 71.9454 135.769Z" fill="#263238"/>
<path d="M76.7929 135.769C76.8278 135.797 75.4446 137.856 73.6998 140.375C71.9549 142.894 70.5114 144.912 70.4733 144.886C70.4353 144.861 71.8216 142.799 73.5665 140.28C75.3114 137.761 76.7548 135.743 76.7929 135.769Z" fill="#263238"/>
<path d="M81.6373 135.769C81.6753 135.797 80.2921 137.856 78.5473 140.375C76.8024 142.894 75.359 144.912 75.3209 144.886C75.2828 144.861 76.666 142.799 78.4109 140.28C80.1557 137.761 81.5992 135.743 81.6373 135.769Z" fill="#263238"/>
<path d="M86.4848 135.769C86.5197 135.797 85.1365 137.856 83.3917 140.375C81.6468 142.894 80.216 144.912 80.1652 144.886C80.1145 144.861 81.5136 142.799 83.2584 140.28C85.0033 137.761 86.4468 135.743 86.4848 135.769Z" fill="#263238"/>
<path d="M91.3197 135.769C91.3577 135.797 89.9745 137.856 88.2297 140.375C86.4848 142.894 85.0413 144.912 85.0033 144.886C84.9652 144.861 86.3484 142.799 88.0933 140.28C89.8381 137.761 91.2911 135.743 91.3197 135.769Z" fill="#263238"/>
<path d="M95.7104 131.838H69.2234V135.769H95.7104V131.838Z" fill="#263238"/>
<path d="M76.9293 131.819C76.6936 132.514 76.4051 133.189 76.0664 133.84C75.7783 134.514 75.44 135.165 75.0544 135.788C75.2915 135.095 75.5799 134.42 75.9173 133.77C76.2066 133.096 76.5448 132.444 76.9293 131.819Z" fill="#455A64"/>
<path d="M81.0821 131.819C80.8464 132.514 80.5579 133.189 80.2192 133.84C79.931 134.514 79.5927 135.165 79.2072 135.788C79.4443 135.095 79.7327 134.42 80.0701 133.77C80.3579 133.095 80.6962 132.443 81.0821 131.819Z" fill="#455A64"/>
<path d="M85.2349 131.819C84.9975 132.513 84.7091 133.189 84.3719 133.84C84.0838 134.514 83.7455 135.165 83.3599 135.788C83.597 135.095 83.8855 134.42 84.2228 133.77C84.5107 133.095 84.849 132.443 85.2349 131.819Z" fill="#455A64"/>
<path d="M89.3876 131.819C89.1502 132.513 88.8618 133.189 88.5247 133.84C88.2366 134.514 87.8983 135.165 87.5127 135.788C87.7498 135.095 88.0382 134.42 88.3756 133.77C88.6634 133.095 89.0017 132.443 89.3876 131.819Z" fill="#455A64"/>
<path d="M93.5404 131.819C93.303 132.513 93.0146 133.189 92.6775 133.84C92.3893 134.514 92.051 135.165 91.6655 135.788C91.9026 135.095 92.191 134.42 92.5284 133.77C92.8162 133.095 93.1545 132.443 93.5404 131.819Z" fill="#455A64"/>
<path d="M73.3666 131.819C73.1293 132.513 72.8408 133.189 72.5037 133.84C72.2156 134.514 71.8773 135.165 71.4917 135.788C71.7288 135.095 72.0172 134.42 72.3546 133.77C72.6424 133.095 72.9807 132.443 73.3666 131.819Z" fill="#455A64"/>
<path d="M89.0736 100.789L91.0849 131.768C89.3305 131.882 87.5476 132.454 85.8345 131.943C84.1213 131.432 82.3447 131.432 80.657 130.959L85.9265 100.891L89.0736 100.789Z" fill="#FFC300"/>
<path opacity="0.4" d="M89.0736 100.789L91.0849 131.768C89.3305 131.882 87.5476 132.454 85.8345 131.943C84.1213 131.432 82.3447 131.432 80.657 130.959L85.9265 100.891L89.0736 100.789Z" fill="black"/>
<path d="M85.9265 100.891L87.96 132.146C84.4415 132.375 80.9095 132.008 77.5131 131.061L85.9265 100.891Z" fill="#FFC300"/>
<path d="M90.6852 126.026C90.2655 126.743 89.7981 127.431 89.2861 128.085C88.8194 128.77 88.3086 129.424 87.757 130.042C88.6424 128.64 89.6206 127.298 90.6852 126.026Z" fill="#263238"/>
<path d="M90.4187 120.776C89.9977 121.492 89.5303 122.179 89.0196 122.835C88.5536 123.521 88.0417 124.175 87.4873 124.792C87.9097 124.078 88.377 123.391 88.8864 122.736C89.3529 122.049 89.8648 121.394 90.4187 120.776Z" fill="#263238"/>
<path d="M90.1395 115.525C89.722 116.242 89.2556 116.929 88.7436 117.581C88.2781 118.269 87.7661 118.924 87.2113 119.542C87.6315 118.826 88.0989 118.139 88.6104 117.486C89.0777 116.8 89.5884 116.145 90.1395 115.525Z" fill="#263238"/>
<path d="M89.8635 110.275C89.4447 110.99 88.9783 111.677 88.4676 112.331C87.9997 113.016 87.4878 113.671 86.9353 114.291C87.3536 113.575 87.82 112.888 88.3312 112.235C88.7989 111.549 89.3108 110.894 89.8635 110.275Z" fill="#263238"/>
<path d="M89.5875 105.024C89.1673 105.74 88.6999 106.427 88.1884 107.08C87.7228 107.767 87.2108 108.421 86.6561 109.037C87.0777 108.323 87.545 107.636 88.0552 106.982C88.5218 106.296 89.0337 105.642 89.5875 105.024Z" fill="#263238"/>
<path d="M88.5691 100.789C87.9312 101.853 87.1985 102.858 86.3801 103.79C86.6775 103.246 87.0214 102.728 87.408 102.242C87.7513 101.724 88.1398 101.238 88.5691 100.789Z" fill="#263238"/>
<path d="M87.4334 128.523C87.1582 128.687 86.8583 128.806 86.5451 128.875C85.4785 129.153 84.3464 129.016 83.3767 128.492C82.4071 127.968 81.6722 127.096 81.32 126.052C81.0545 125.32 81.0071 124.528 81.1836 123.771C81.28 123.367 81.4654 122.99 81.7261 122.667C81.9995 122.335 82.3581 122.083 82.7635 121.94C83.1728 121.788 83.6232 121.788 84.0325 121.94C84.4231 122.098 84.7554 122.373 84.9842 122.727C85.2107 123.049 85.3509 123.424 85.3915 123.817C85.432 124.209 85.3716 124.604 85.2158 124.967C84.9046 125.606 84.3661 126.106 83.7057 126.369C83.1413 126.607 82.5219 126.684 81.9165 126.591C81.4218 126.515 80.9453 126.348 80.5111 126.099C80.1822 125.917 79.8747 125.699 79.5942 125.449C79.4175 125.292 79.2502 125.124 79.093 124.948C79.0371 124.888 78.9872 124.823 78.9438 124.754C79.0057 124.807 79.064 124.864 79.1183 124.925C79.2357 125.036 79.4007 125.208 79.6355 125.401C80.2864 125.966 81.0797 126.341 81.9291 126.486C82.513 126.567 83.1078 126.486 83.6486 126.251C84.2734 125.997 84.7818 125.52 85.0762 124.913C85.2182 124.574 85.2718 124.205 85.2318 123.839C85.1919 123.474 85.0597 123.125 84.8478 122.825C84.6364 122.501 84.3309 122.248 83.9722 122.102C83.6 121.962 83.1897 121.962 82.8174 122.102C82.4447 122.236 82.1157 122.47 81.8657 122.778C81.6202 123.08 81.4447 123.433 81.3518 123.812C81.1812 124.54 81.2241 125.302 81.4755 126.007C81.6785 126.607 82.0111 127.155 82.4498 127.611C82.8884 128.068 83.4223 128.423 84.0135 128.65C84.8258 128.948 85.7068 129.007 86.5514 128.818C86.852 128.741 87.1467 128.642 87.4334 128.523Z" fill="#FAFAFA"/>
<path d="M86.7799 114.748C86.4954 114.87 86.2041 114.976 85.9074 115.065C84.5061 115.547 83.1813 116.227 81.9736 117.086C81.7326 117.277 81.4804 117.454 81.2185 117.616C81.4213 117.378 81.6513 117.165 81.9038 116.981C82.4942 116.522 83.1261 116.118 83.7914 115.776C84.4575 115.434 85.1543 115.156 85.8725 114.945C86.1657 114.842 86.4705 114.776 86.7799 114.748Z" fill="#FAFAFA"/>
<path d="M86.5229 107.559C86.1996 108.08 85.7502 108.511 85.2162 108.812C84.6821 109.113 84.0808 109.275 83.4678 109.282C84.0453 109.141 84.6051 108.936 85.1365 108.669C85.64 108.354 86.1052 107.982 86.5229 107.559Z" fill="#FAFAFA"/>
<path d="M123.054 19.3612H36.8229V97.2328H123.054V19.3612Z" fill="#F5F5F5"/>
<path d="M123.044 97.2327C123.044 96.6395 123.019 66.1964 122.975 19.3612L123.044 19.431H36.8197L36.9022 19.3485C36.9022 47.6945 36.9022 74.3624 36.9022 97.22L36.8293 97.1471L123.06 97.22L36.8229 97.2993H36.7531V97.2264C36.7531 74.3687 36.7531 47.7009 36.7531 19.3548V19.2723H36.8419H123.067H123.14V19.3421C123.082 66.2091 123.044 96.6395 123.044 97.2327Z" fill="#263238"/>
<path d="M123.378 24.0406C123.378 24.085 104 24.1231 80.1018 24.1231C56.2036 24.1231 36.8229 24.085 36.8229 24.0406C36.8229 23.9962 56.1972 23.9581 80.1018 23.9581C104.006 23.9581 123.378 23.9962 123.378 24.0406Z" fill="#E0E0E0"/>
<path d="M39.1071 22.9778C39.5889 22.9778 39.9795 22.5872 39.9795 22.1053C39.9795 21.6235 39.5889 21.2329 39.1071 21.2329C38.6253 21.2329 38.2347 21.6235 38.2347 22.1053C38.2347 22.5872 38.6253 22.9778 39.1071 22.9778Z" fill="#E0E0E0"/>
<path d="M41.8005 22.9778C42.2823 22.9778 42.6729 22.5872 42.6729 22.1053C42.6729 21.6235 42.2823 21.2329 41.8005 21.2329C41.3187 21.2329 40.9281 21.6235 40.9281 22.1053C40.9281 22.5872 41.3187 22.9778 41.8005 22.9778Z" fill="#E0E0E0"/>
<path d="M44.494 22.9778C44.9758 22.9778 45.3664 22.5872 45.3664 22.1053C45.3664 21.6235 44.9758 21.2329 44.494 21.2329C44.0121 21.2329 43.6215 21.6235 43.6215 22.1053C43.6215 22.5872 44.0121 22.9778 44.494 22.9778Z" fill="#E0E0E0"/>
<path d="M109.679 84.6095C109.679 85.0487 109.549 85.4781 109.305 85.8433C109.06 86.2085 108.714 86.4931 108.308 86.6612C107.902 86.8293 107.456 86.8733 107.025 86.7876C106.594 86.7019 106.198 86.4904 105.888 86.1798C105.577 85.8692 105.366 85.4735 105.28 85.0428C105.194 84.612 105.238 84.1655 105.406 83.7597C105.574 83.3539 105.859 83.0071 106.224 82.7631C106.589 82.519 107.019 82.3888 107.458 82.3888C108.047 82.3888 108.612 82.6228 109.028 83.0392C109.445 83.4557 109.679 84.0206 109.679 84.6095Z" fill="#FFC300"/>
<path d="M109.679 90.6371C109.679 91.0763 109.549 91.5057 109.305 91.8709C109.06 92.2361 108.714 92.5207 108.308 92.6888C107.902 92.8569 107.456 92.9009 107.025 92.8152C106.594 92.7295 106.198 92.518 105.888 92.2074C105.577 91.8968 105.366 91.5011 105.28 91.0704C105.194 90.6396 105.238 90.1931 105.406 89.7873C105.574 89.3815 105.859 89.0347 106.224 88.7906C106.589 88.5466 107.019 88.4164 107.458 88.4164C108.047 88.4164 108.612 88.6504 109.028 89.0668C109.445 89.4833 109.679 90.0481 109.679 90.6371Z" fill="#455A64"/>
<path d="M116.382 84.1526C115.494 84.2343 114.602 84.2619 113.711 84.2351C112.82 84.2619 111.928 84.2343 111.04 84.1526C111.928 84.0691 112.82 84.0415 113.711 84.0702C114.602 84.0415 115.494 84.0691 116.382 84.1526Z" fill="#263238"/>
<path d="M116.04 90.8116C115.256 90.8952 114.467 90.9227 113.679 90.8941C112.893 90.9228 112.105 90.8952 111.322 90.8116C112.893 90.7016 114.469 90.7016 116.04 90.8116Z" fill="#263238"/>
<path d="M78.0968 61.2727L74.5436 36.3276C80.1218 35.5348 85.8048 36.6339 90.6852 39.4493C102.655 46.3621 106.82 61.9009 99.9076 73.8738C92.9947 85.8467 77.4686 90.0027 65.4989 83.0962L78.0968 61.2727Z" fill="#FFC300"/>
<path opacity="0.3" d="M78.0968 61.2727L74.5436 36.3276C80.1218 35.5348 85.8048 36.6339 90.6852 39.4493C102.655 46.3621 106.82 61.9009 99.9076 73.8738C92.9947 85.8467 77.4686 90.0027 65.4989 83.0962L78.0968 61.2727Z" fill="black"/>
<path d="M73.4713 60.359L69.9182 35.4139C75.4999 34.6179 81.1872 35.7183 86.0692 38.5387C98.0421 45.4484 102.204 60.9872 95.2916 72.9601C88.3788 84.933 72.8432 89.0953 60.8639 82.1825L73.4713 60.359Z" fill="#FFC300"/>
<path d="M85.6505 85.32C85.6505 85.3391 84.8986 85.0345 83.9913 84.6411C83.0839 84.2478 82.3511 83.9178 82.3574 83.8988C82.3638 83.8798 83.1061 84.1875 84.0166 84.5809C84.9271 84.9743 85.6568 85.3042 85.6505 85.32Z" fill="#263238"/>
<path d="M81.485 86.1957C81.485 86.2116 80.8505 85.9609 80.0954 85.631C79.3404 85.3011 78.7281 85.0251 78.7345 84.9965C78.7408 84.968 79.369 85.2313 80.124 85.558C80.879 85.8848 81.485 86.1957 81.485 86.1957Z" fill="#263238"/>
<path d="M90.0316 83.4611C90.0316 83.4769 89.2005 83.1438 88.1853 82.7314C87.1701 82.319 86.3579 81.9573 86.3643 81.9415C86.3706 81.9256 87.1986 82.2587 88.2106 82.6711C89.2227 83.0836 90.0507 83.4452 90.0316 83.4611Z" fill="#263238"/>
<path d="M93.8576 81.1863C93.8576 81.2022 93.0106 80.8279 91.9827 80.3456C90.9548 79.8634 90.13 79.4637 90.1363 79.4447C90.1427 79.4256 90.9834 79.8063 92.0113 80.2854C93.0391 80.7644 93.8576 81.1705 93.8576 81.1863Z" fill="#263238"/>
<path d="M96.6811 77.9473C96.6811 77.9631 95.8658 77.5888 94.876 77.1129C93.8862 76.637 93.0931 76.2341 93.1026 76.2183C93.1121 76.2024 93.9179 76.5768 94.9046 77.0526C95.8912 77.5285 96.6875 77.9282 96.6811 77.9473Z" fill="#263238"/>
<path d="M99.7362 75.4791C99.7362 75.4791 98.6957 75.0001 97.4299 74.3751C96.164 73.7501 95.1425 73.2299 95.152 73.214C95.1615 73.1981 96.1926 73.6899 97.4584 74.3148C98.7242 74.9398 99.7458 75.4633 99.7362 75.4791Z" fill="#263238"/>
<path d="M100.837 72.1005C100.778 72.0893 100.721 72.0711 100.666 72.0465L100.212 71.8689C99.8314 71.7102 99.3111 71.4818 98.7464 71.2058C98.1817 70.9298 97.6836 70.657 97.3252 70.4508C97.1475 70.3493 97.0079 70.2636 96.9064 70.2033C96.8547 70.1725 96.8049 70.1386 96.7573 70.1018C96.8134 70.1236 96.8675 70.1501 96.9191 70.1811L97.3474 70.4095C97.709 70.6062 98.2135 70.8695 98.775 71.1455C99.3365 71.4216 99.8536 71.6563 100.231 71.8245L100.675 72.0212C100.731 72.044 100.785 72.0705 100.837 72.1005Z" fill="#263238"/>
<path d="M102.058 69.0644C102.058 69.0802 101.107 68.6361 99.9583 68.0714C98.8099 67.5067 97.8803 67.034 97.8867 67.0181C97.893 67.0022 98.8384 67.4464 99.99 68.0111C101.142 68.5758 102.068 69.0358 102.058 69.0644Z" fill="#263238"/>
<path d="M102.741 65.5207C102.741 65.5207 101.789 65.0924 100.64 64.5277C99.492 63.963 98.5624 63.4903 98.5719 63.4744C98.5815 63.4585 99.5237 63.9027 100.672 64.4674C101.821 65.0321 102.763 65.5048 102.741 65.5207Z" fill="#263238"/>
<path d="M103.251 62.1452C103.251 62.1611 102.23 61.682 100.989 61.0729C99.7489 60.4638 98.7528 59.9594 98.7686 59.9435C98.7845 59.9276 99.7902 60.4067 101.031 61.0126C102.271 61.6186 103.258 62.1262 103.251 62.1452Z" fill="#263238"/>
<path d="M103.074 58.297C103.074 58.3128 101.973 57.7608 100.637 57.0597C99.3016 56.3586 98.2198 55.7907 98.2261 55.7654C98.2325 55.74 99.327 56.3015 100.666 57.0026C102.005 57.7037 103.083 58.278 103.074 58.297Z" fill="#263238"/>
<path d="M102.258 54.2965C102.258 54.3124 101.075 53.7159 99.6316 52.9609C98.1881 52.2058 97.0301 51.584 97.0301 51.5682C97.0301 51.5523 98.2166 52.1487 99.6601 52.9038C101.104 53.6588 102.268 54.2806 102.258 54.2965Z" fill="#263238"/>
<path d="M100.387 49.6044C100.387 49.6203 99.0891 48.9985 97.506 48.2181C95.9229 47.4376 94.6508 46.7873 94.6508 46.7714C94.6508 46.7556 95.9483 47.3742 97.5314 48.1578C99.1144 48.9414 100.396 49.5886 100.387 49.6044Z" fill="#263238"/>
<path d="M98.2261 46.0163C98.2261 46.0321 96.7097 45.2993 94.8601 44.3761C93.0106 43.4529 91.51 42.6947 91.5195 42.6757C91.529 42.6566 93.036 43.3958 94.8887 44.3158C96.7414 45.2358 98.2357 46.0004 98.2261 46.0163Z" fill="#263238"/>
<path d="M93.0645 41.0038C93.0645 41.0228 91.4783 40.4835 89.5558 39.8014C87.6333 39.1193 86.0661 38.5546 86.0661 38.5324C86.0661 38.5102 87.6523 39.0527 89.5748 39.7348C91.4973 40.4168 93.0709 40.9879 93.0645 41.0038Z" fill="#263238"/>
<path d="M98.242 55.0229C98.242 55.0229 98.1468 55.042 97.9565 55.0705L97.6043 55.1213C97.4679 55.1498 97.3093 55.1974 97.1317 55.245C96.0934 55.5785 95.1331 56.118 94.3082 56.8312C93.753 57.2722 93.1661 57.783 92.5252 58.3731C91.837 59.0101 91.1113 59.6055 90.3521 60.156C89.4217 60.8367 88.3504 61.3001 87.2172 61.512C86.084 61.724 84.9176 61.679 83.8041 61.3806C82.5001 61.048 81.3181 60.3502 80.3968 59.3692C79.9104 58.8446 79.5158 58.2419 79.2294 57.5863C78.927 56.9057 78.7765 56.1673 78.7884 55.4227C78.7985 54.6491 79.0177 53.8927 79.4229 53.2337C79.8495 52.5608 80.4274 51.9969 81.1107 51.5871C81.8105 51.1624 82.5921 50.89 83.4043 50.7877C84.2408 50.7006 85.0863 50.7914 85.8852 51.0542C87.5357 51.6247 88.9563 52.7157 89.9333 54.1632C90.9297 55.6744 91.5797 57.3871 91.8368 59.1789C92.1341 61.0187 92.1853 62.89 91.9891 64.7434C91.7978 66.6569 91.2784 68.5231 90.4536 70.2603C89.6232 71.998 88.4338 73.5399 86.9639 74.7843C85.5324 76.001 83.8153 76.8339 81.9736 77.2049C80.1919 77.5496 78.3503 77.4105 76.6406 76.802C75.0336 76.2385 73.6419 75.1885 72.6589 73.7979C71.676 72.4073 71.1505 70.745 71.1554 69.0421C71.16 68.2505 71.2984 67.4653 71.5647 66.7198C71.8104 65.9885 72.2157 65.321 72.7512 64.7656C73.0179 64.498 73.3251 64.2742 73.6617 64.1025C73.9971 63.941 74.3597 63.8431 74.7308 63.8139C75.4552 63.782 76.1705 63.9845 76.7707 64.3912C77.0597 64.5845 77.324 64.8125 77.5575 65.0702C77.7829 65.3266 77.9738 65.6113 78.1254 65.9172C78.4009 66.5136 78.5407 67.1637 78.5346 67.8207C78.5013 69.0447 78.1109 70.2323 77.4116 71.2374C76.8014 72.1361 76.0118 72.8986 75.0925 73.4772C74.2968 73.9839 73.4151 74.3409 72.491 74.5305C71.7158 74.6893 70.9206 74.7267 70.1339 74.6415C69.0446 74.5271 67.9911 74.1867 67.0407 73.6422C66.705 73.4598 66.3865 73.2474 66.089 73.0077C66.089 73.0077 66.1715 73.0616 66.3269 73.1758C66.5582 73.3379 66.7975 73.4883 67.0439 73.6263C67.9969 74.1488 69.0459 74.4726 70.1275 74.5781C71.848 74.7527 73.5766 74.3365 75.029 73.3979C75.9348 72.8234 76.7115 72.0672 77.31 71.1772C77.9959 70.1886 78.3765 69.0204 78.4045 67.8175C78.4119 67.1754 78.2742 66.5399 78.0016 65.9584C77.8541 65.6634 77.6697 65.3884 77.4528 65.1399C77.2242 64.8922 76.9677 64.6718 76.6882 64.4832C76.1097 64.0936 75.4213 63.9001 74.7245 63.9312C74.3717 63.9606 74.0274 64.0552 73.7093 64.2104C73.3862 64.3736 73.0917 64.5879 72.8368 64.8449C72.3155 65.3853 71.922 66.0358 71.6852 66.7484C71.4265 67.479 71.2924 68.248 71.2887 69.0231C71.2858 70.695 71.8035 72.3265 72.77 73.6909C73.7364 75.0552 75.1036 76.0849 76.6819 76.637C78.3655 77.2348 80.1785 77.3706 81.9323 77.0304C83.7468 76.6647 85.4381 75.8426 86.8465 74.6415C88.3026 73.4144 89.4813 71.8918 90.3045 70.1747C91.1219 68.4537 91.636 66.6044 91.8241 64.7085C92.0191 62.8701 91.9701 61.0139 91.6782 59.1884C91.426 57.4206 90.788 55.7299 89.8096 54.2361C88.8539 52.8155 87.462 51.7443 85.844 51.1842C85.066 50.9258 84.2419 50.8361 83.4266 50.9209C82.6402 51.0203 81.8836 51.2841 81.2058 51.695C80.5415 52.089 79.9778 52.632 79.5593 53.2812C79.1613 53.9178 78.9421 54.6499 78.9248 55.4004C78.9115 56.1255 79.0577 56.8447 79.3531 57.507C79.6314 58.148 80.0153 58.7378 80.4888 59.2518C81.3918 60.22 82.5533 60.9092 83.8358 61.2378C84.9331 61.5367 86.0835 61.5852 87.202 61.3799C88.3205 61.1745 89.3786 60.7205 90.2981 60.0513C91.0567 59.5054 91.7833 58.9165 92.4745 58.2874C93.109 57.7132 93.7085 57.1897 94.2701 56.7551C95.1051 56.0451 96.0769 55.5139 97.1253 55.1942C97.3061 55.1498 97.4648 55.1022 97.6043 55.0769L97.9597 55.0356L98.242 55.0229Z" fill="#FAFAFA"/>
<path d="M88.7119 40.0394C88.7119 40.0394 88.6929 40.0679 88.6548 40.1155L88.4771 40.3281C88.3153 40.5121 88.0774 40.7849 87.7506 41.1149C86.8345 42.059 85.7874 42.8668 84.6416 43.5133C83.8449 43.9579 82.991 44.2909 82.1036 44.5031C81.0844 44.75 80.0287 44.8091 78.9883 44.6775C78.4251 44.6018 77.8726 44.4612 77.3417 44.2588C76.784 44.0506 76.2674 43.7456 75.8158 43.3578C75.3381 42.9589 74.9637 42.4507 74.7245 41.8763C74.5973 41.5779 74.5333 41.2564 74.5366 40.932C74.5399 40.6077 74.6103 40.2876 74.7435 39.9918C75.0345 39.4059 75.5454 38.9588 76.1648 38.7482C76.7569 38.526 77.4095 38.526 78.0016 38.7482C78.5639 38.978 79.0407 39.3772 79.3658 39.8903C79.6825 40.3729 79.8693 40.9291 79.9083 41.5051C79.9266 42.0348 79.8371 42.5628 79.6451 43.0569C79.4531 43.551 79.1627 44.0009 78.7916 44.3793C78.1555 45.0463 77.3457 45.5221 76.4535 45.753C75.7302 45.9471 74.9801 46.0221 74.2327 45.9751C73.6675 45.9443 73.1071 45.854 72.5608 45.7054C72.2155 45.6124 71.8773 45.4947 71.5488 45.3533C71.4378 45.3057 71.3521 45.2676 71.2982 45.2391C71.268 45.2264 71.2392 45.2104 71.2125 45.1915C71.2442 45.1987 71.2751 45.2094 71.3045 45.2232L71.5615 45.3247C71.8933 45.4505 72.2323 45.5564 72.5767 45.642C73.1213 45.7778 73.6783 45.8586 74.2391 45.8831C74.9793 45.9218 75.7208 45.8393 76.4344 45.6388C77.302 45.407 78.0882 44.9391 78.7059 44.2873C79.0598 43.9199 79.3362 43.4852 79.5188 43.0089C79.7014 42.5325 79.7863 42.0244 79.7687 41.5146C79.7291 40.9653 79.5488 40.4354 79.2452 39.9759C78.9377 39.4926 78.4876 39.1168 77.9572 38.9005C77.395 38.69 76.7754 38.6911 76.2139 38.9035C75.6525 39.116 75.1874 39.5253 74.9053 40.0553C74.7861 40.3323 74.7247 40.6308 74.7247 40.9324C74.7247 41.2341 74.7861 41.5325 74.9053 41.8096C75.1356 42.3585 75.4934 42.8447 75.949 43.2277C76.833 43.9449 77.9045 44.3931 79.0358 44.5189C80.0594 44.6531 81.0989 44.6004 82.1036 44.3635C82.9793 44.1612 83.8235 43.841 84.6131 43.4117C85.7546 42.7761 86.8039 41.9873 87.7316 41.0673C88.0647 40.75 88.309 40.4835 88.4771 40.3059L88.6675 40.1028C88.6865 40.0584 88.7087 40.0362 88.7119 40.0394Z" fill="#FAFAFA"/>
<path d="M107.715 64.0867C107.707 64.0384 107.702 63.9897 107.699 63.9407C107.699 63.8392 107.683 63.6996 107.671 63.5188C107.648 63.1381 107.617 62.5924 107.575 61.8913C107.474 60.4827 107.334 58.4365 106.941 55.9398C106.89 55.6225 106.836 55.3053 106.782 54.988L106.576 53.995C106.452 53.3161 106.243 52.6309 106.065 51.9107C105.622 50.3877 105.04 48.9085 104.327 47.4915C102.829 44.503 100.387 41.6668 97.3886 39.2589C95.8973 38.1218 94.3141 37.1105 92.6553 36.2355C91.8431 35.8326 91.05 35.4202 90.241 35.0871C89.4321 34.754 88.6389 34.4336 87.8617 34.1353C85.0763 33.139 82.1951 32.4341 79.2643 32.032C77.2879 31.7534 75.2924 31.6324 73.2968 31.6703C72.9447 31.6703 72.6306 31.6862 72.3451 31.7052L71.6599 31.7433L71.2347 31.7655H71.092C71.092 31.7655 71.1396 31.7655 71.2347 31.7465L71.6567 31.7116L72.3451 31.6545C72.6148 31.6291 72.9288 31.6069 73.2968 31.6069C75.2966 31.5462 77.298 31.6523 79.2801 31.9241C82.2253 32.3128 85.1211 33.0125 87.9188 34.0116C88.7024 34.3098 89.505 34.5954 90.3108 34.9634C91.1166 35.3314 91.9193 35.7057 92.7378 36.1118C94.4063 36.9887 95.9981 38.0043 97.4965 39.1479C100.514 41.5685 102.969 44.4269 104.476 47.4407C105.184 48.8658 105.76 50.3525 106.199 51.8822C106.373 52.6055 106.579 53.2971 106.703 53.9792C106.77 54.3186 106.836 54.6486 106.903 54.9753C106.969 55.3021 107.008 55.6098 107.055 55.9271C107.439 58.4302 107.56 60.4796 107.642 61.8913C107.677 62.5988 107.693 63.1603 107.705 63.522C107.705 63.7028 107.705 63.8392 107.705 63.9439C107.705 64.0486 107.715 64.0867 107.715 64.0867Z" fill="#FFC300"/>
<path d="M109.638 64.0867C109.638 64.4678 109.526 64.8406 109.314 65.1578C109.103 65.4749 108.802 65.7222 108.45 65.8684C108.098 66.0145 107.711 66.0529 107.337 65.9787C106.963 65.9045 106.62 65.7211 106.35 65.4515C106.081 65.182 105.897 64.8386 105.823 64.4648C105.749 64.0909 105.787 63.7035 105.933 63.3515C106.079 62.9995 106.327 62.6988 106.644 62.4874C106.961 62.276 107.334 62.1636 107.715 62.1642C108.225 62.1642 108.714 62.3667 109.074 62.7273C109.435 63.0878 109.638 63.5768 109.638 64.0867Z" fill="#FFC300"/>
<path d="M73.0304 31.7655C73.0304 32.1458 72.9176 32.5175 72.7064 32.8336C72.4951 33.1498 72.1948 33.3962 71.8436 33.5417C71.4923 33.6872 71.1057 33.7253 70.7328 33.6511C70.3598 33.5769 70.0173 33.3938 69.7484 33.125C69.4795 32.8561 69.2964 32.5135 69.2223 32.1406C69.1481 31.7677 69.1862 31.3811 69.3317 31.0298C69.4772 30.6785 69.7236 30.3783 70.0397 30.167C70.3559 29.9558 70.7276 29.843 71.1078 29.843C71.6177 29.843 72.1067 30.0456 72.4673 30.4061C72.8278 30.7667 73.0304 31.2557 73.0304 31.7655Z" fill="#FFC300"/>
<path d="M78.9914 28.3996C78.9914 28.444 76.9357 28.4821 74.3977 28.4821C71.8597 28.4821 69.8008 28.444 69.8008 28.3996C69.8008 28.3552 71.8565 28.3171 74.3977 28.3171C76.9388 28.3171 78.9914 28.352 78.9914 28.3996Z" fill="#263238"/>
<path d="M81.228 28.3837C80.9849 28.4638 80.7277 28.4919 80.473 28.4662C80.2193 28.4921 79.9631 28.464 79.7211 28.3837C79.9631 28.3034 80.2193 28.2753 80.473 28.3012C80.7277 28.2755 80.9849 28.3036 81.228 28.3837Z" fill="#263238"/>
<path d="M72.1706 31.7655C72.1706 31.9858 72.1053 32.201 71.983 32.3842C71.8606 32.5673 71.6867 32.71 71.4832 32.7943C71.2797 32.8786 71.0558 32.9006 70.8398 32.8577C70.6238 32.8147 70.4254 32.7086 70.2697 32.5529C70.114 32.3972 70.0079 32.1988 69.9649 31.9828C69.922 31.7668 69.944 31.5429 70.0283 31.3394C70.1126 31.1359 70.2553 30.962 70.4384 30.8396C70.6216 30.7173 70.8368 30.652 71.0571 30.652C71.3524 30.652 71.6356 30.7693 71.8445 30.9781C72.0533 31.187 72.1706 31.4702 72.1706 31.7655Z" fill="#F5F5F5"/>
<path d="M107.525 67.8842C107.52 67.9292 107.511 67.9737 107.499 68.0174L107.41 68.4076C107.369 68.5789 107.318 68.7915 107.261 69.0421C107.204 69.2927 107.131 69.5814 107.03 69.8987C106.928 70.2159 106.824 70.5712 106.713 70.9583C106.601 71.3453 106.421 71.7546 106.259 72.1987C106.097 72.6429 105.888 73.1029 105.678 73.5978C105.469 74.0927 105.209 74.5971 104.942 75.1301C104.676 75.6631 104.352 76.1992 104.035 76.7671C103.879 77.0526 103.689 77.3254 103.508 77.611C103.327 77.8965 103.14 78.1884 102.944 78.4771L102.309 79.34C102.201 79.4859 102.1 79.6382 101.992 79.7809L101.643 80.2124C101.405 80.5011 101.17 80.8025 100.92 81.0912L100.136 81.9573C99.879 82.2586 99.5871 82.5283 99.3016 82.8138C99.0161 83.0993 98.7306 83.3944 98.4165 83.6609L97.4806 84.4921L96.4813 85.2884C93.6756 87.4686 90.4846 89.1013 87.0749 90.101L85.844 90.4468L84.6226 90.7196C84.2228 90.818 83.8168 90.8719 83.4202 90.9417C83.0237 91.0115 82.6271 91.0845 82.2337 91.1194L81.0757 91.2494C80.6919 91.2812 80.3112 91.2938 79.94 91.3192L79.3848 91.3509C79.2008 91.3509 79.0168 91.3509 78.836 91.3509H77.7669C77.4179 91.3509 77.0721 91.3192 76.7358 91.3034C76.3995 91.2875 76.0632 91.2812 75.7428 91.2367C75.1083 91.1638 74.4738 91.1257 73.8837 91.0147C73.2937 90.9036 72.7321 90.8434 72.2119 90.7165C71.6916 90.5896 71.1871 90.5071 70.7335 90.3675C70.2798 90.2279 69.8515 90.1295 69.4645 90.009L68.4144 89.6537C68.0972 89.549 67.8243 89.4411 67.5864 89.3364L66.99 89.089L66.622 88.9335L66.4982 88.8764C66.5424 88.8874 66.5859 88.9012 66.6283 88.9177L67.0027 89.0572L67.6054 89.292C67.8434 89.3872 68.1194 89.4919 68.4366 89.5871L69.4899 89.9329C69.8769 90.0471 70.302 90.1517 70.7589 90.2755C71.2157 90.3992 71.7106 90.4944 72.2309 90.6086C72.7512 90.7228 73.3159 90.8053 73.8996 90.8973C74.4833 90.9893 75.1083 91.0369 75.7523 91.1067C76.0696 91.1479 76.4059 91.1479 76.7421 91.1669C77.0784 91.186 77.4211 91.205 77.77 91.2114H78.836C79.0136 91.2114 79.1976 91.2114 79.3785 91.2114L79.9337 91.1765C80.3017 91.1511 80.6792 91.1384 81.0599 91.1035L82.2147 90.9702C82.6081 90.9353 82.9983 90.856 83.3948 90.7926C83.7914 90.7291 84.1911 90.6689 84.5909 90.5673L85.8059 90.2945L87.0273 89.9487C90.4186 88.954 93.5923 87.33 96.3829 85.1614L97.3791 84.3747C97.6963 84.0955 98.0136 83.8195 98.3086 83.5498C98.6037 83.2802 98.9051 82.9883 99.1906 82.7091C99.4761 82.43 99.768 82.1539 100.025 81.8589L100.809 80.9992C101.059 80.7105 101.291 80.4123 101.529 80.1267L101.878 79.6984C101.992 79.5525 102.097 79.4034 102.195 79.2607L102.829 78.4009C103.029 78.1154 103.21 77.8235 103.397 77.5412C103.584 77.2588 103.772 76.9892 103.927 76.7036C104.244 76.1421 104.584 75.6155 104.838 75.0793C105.091 74.5432 105.377 74.0514 105.583 73.5565C105.789 73.0616 106.018 72.6048 106.173 72.167C106.329 71.7292 106.49 71.3199 106.636 70.9361C106.782 70.5522 106.871 70.2001 106.973 69.8828C107.074 69.5656 107.157 69.2832 107.22 69.0358C107.284 68.7883 107.337 68.5789 107.385 68.4013L107.49 68.0174C107.497 67.9718 107.508 67.9272 107.525 67.8842Z" fill="#E0E0E0"/>
<path d="M120.605 114.145L122.511 126.667H133.577L136.147 114.326L120.605 114.145Z" fill="#FFC300"/>
<path d="M134.599 122.172C134.599 122.216 131.762 122.254 128.254 122.254C124.745 122.254 121.909 122.216 121.909 122.172C121.909 122.127 124.745 122.089 128.254 122.089C131.762 122.089 134.599 122.124 134.599 122.172Z" fill="#FAFAFA"/>
<path d="M134.643 121.553C134.643 121.601 131.788 121.639 128.266 121.639C124.745 121.639 121.89 121.601 121.89 121.553C121.89 121.505 124.745 121.47 128.266 121.47C131.788 121.47 134.643 121.509 134.643 121.553Z" fill="#FAFAFA"/>
<path d="M134.621 120.858C134.621 120.906 131.766 120.941 128.244 120.941C124.723 120.941 121.867 120.906 121.867 120.858C121.867 120.811 124.723 120.776 128.244 120.776C131.766 120.776 134.621 120.814 134.621 120.858Z" fill="#FAFAFA"/>
<path d="M123.78 125.953C123.609 125.438 123.49 124.906 123.425 124.367C123.305 123.841 123.24 123.304 123.232 122.765C123.522 123.801 123.706 124.864 123.78 125.937V125.953Z" fill="#FAFAFA"/>
<path d="M124.535 125.82C124.398 124.799 124.328 123.77 124.326 122.739C124.464 123.239 124.537 123.754 124.545 124.272C124.606 124.786 124.603 125.306 124.535 125.82Z" fill="#FAFAFA"/>
<path d="M125.9 125.817C125.618 124.784 125.493 123.714 125.528 122.644C125.646 123.166 125.723 123.697 125.76 124.231C125.85 124.755 125.896 125.285 125.9 125.817Z" fill="#FAFAFA"/>
<path d="M126.87 125.883C126.747 125.359 126.69 124.82 126.699 124.281C126.655 123.744 126.678 123.204 126.766 122.673C126.837 123.201 126.866 123.733 126.851 124.265C126.9 124.803 126.907 125.344 126.87 125.883Z" fill="#FAFAFA"/>
<path d="M128.574 125.82C128.476 125.318 128.432 124.808 128.441 124.297C128.395 123.789 128.406 123.277 128.473 122.771C128.57 123.273 128.615 123.783 128.606 124.294C128.651 124.802 128.641 125.314 128.574 125.82Z" fill="#FAFAFA"/>
<path d="M129.821 125.883C129.743 125.358 129.72 124.827 129.751 124.297C129.728 123.772 129.76 123.245 129.846 122.727C129.924 123.252 129.947 123.783 129.916 124.313C129.939 124.838 129.907 125.365 129.821 125.883Z" fill="#FAFAFA"/>
<path d="M130.976 125.718C130.971 124.618 131.077 123.52 131.293 122.441C131.324 122.991 131.299 123.543 131.217 124.088C131.189 124.638 131.109 125.184 130.976 125.718Z" fill="#FAFAFA"/>
<path d="M132.495 125.553C132.479 125.08 132.535 124.607 132.663 124.151C132.738 123.684 132.882 123.23 133.092 122.806C133.041 123.273 132.952 123.734 132.825 124.186C132.751 124.65 132.641 125.107 132.495 125.553Z" fill="#FAFAFA"/>
<path d="M131.429 89.4412C131.415 89.5231 131.393 89.6037 131.366 89.6823C131.315 89.8536 131.245 90.0788 131.16 90.358C131.074 90.6372 130.953 91.0115 130.842 91.4303C130.731 91.8491 130.579 92.3249 130.446 92.8579C130.313 93.3909 130.157 93.9715 130.018 94.6028C129.878 95.2341 129.735 95.9067 129.592 96.6173C129.329 98.0449 129.088 99.6216 128.917 101.287C128.745 102.953 128.679 104.552 128.657 106.001C128.657 106.728 128.657 107.416 128.676 108.064C128.695 108.711 128.72 109.307 128.752 109.856C128.783 110.405 128.825 110.9 128.856 111.334C128.888 111.769 128.926 112.143 128.961 112.448C128.996 112.752 129.015 112.978 129.031 113.152C129.038 113.235 129.038 113.317 129.031 113.4C129.008 113.321 128.993 113.24 128.986 113.159C128.961 112.981 128.926 112.749 128.885 112.457C128.844 112.166 128.793 111.779 128.752 111.344C128.71 110.909 128.653 110.414 128.622 109.866C128.59 109.317 128.542 108.714 128.526 108.067C128.511 107.42 128.495 106.728 128.492 106.001C128.507 104.545 128.577 102.946 128.739 101.271C128.901 99.5962 129.158 98.0195 129.431 96.5887C129.58 95.8781 129.713 95.1992 129.872 94.571C130.03 93.9429 130.173 93.3592 130.322 92.8294C130.471 92.2996 130.617 91.8237 130.744 91.4049C130.871 90.9862 130.988 90.6277 131.093 90.339L131.328 89.6727C131.355 89.5928 131.389 89.5153 131.429 89.4412Z" fill="#455A64"/>
<path d="M129.431 97.1947C129.736 96.2937 130.343 95.5259 131.15 95.0216C131.277 94.9217 131.426 94.8542 131.585 94.8249C131.743 94.7956 131.907 94.8054 132.061 94.8534C132.448 95.0406 132.479 95.5831 132.378 95.9987C132.178 96.6995 131.734 97.3053 131.125 97.7055C130.584 98.104 129.908 98.2738 129.243 98.1782" fill="#455A64"/>
<path d="M128.755 102.429C129.04 101.347 129.903 99.8119 130.798 99.1425C130.936 99.0307 131.094 98.9467 131.264 98.8951C131.349 98.8714 131.439 98.8689 131.525 98.8877C131.611 98.9065 131.692 98.946 131.759 99.0029C131.836 99.1036 131.887 99.222 131.906 99.3473C131.925 99.4725 131.913 99.6006 131.87 99.7199C131.687 100.508 131.288 101.23 130.717 101.804C130.147 102.379 129.428 102.783 128.641 102.972" fill="#455A64"/>
<path d="M128.574 107.036C129.019 106.005 129.729 105.11 130.633 104.444C130.73 104.356 130.844 104.288 130.968 104.245C131.091 104.201 131.222 104.183 131.353 104.19C131.743 104.26 131.921 104.739 131.886 105.142C131.816 105.957 131.195 106.611 130.55 107.118C129.961 107.526 129.321 107.855 128.647 108.098" fill="#455A64"/>
<path d="M128.679 110.351C129.109 109.564 129.707 108.882 130.43 108.352C130.586 108.235 130.766 108.155 130.957 108.117C131.053 108.1 131.151 108.109 131.242 108.144C131.334 108.179 131.414 108.237 131.474 108.314C131.648 108.571 131.474 108.92 131.293 109.171C130.675 110.033 129.798 110.675 128.79 111.004" fill="#455A64"/>
<path d="M128.59 109.003C127.833 108.078 126.994 107.223 126.084 106.449C125.941 106.328 125.766 106.201 125.582 106.262C125.516 106.289 125.459 106.336 125.418 106.396C125.377 106.455 125.355 106.526 125.354 106.598C125.353 106.743 125.385 106.886 125.449 107.017C125.749 107.683 126.195 108.272 126.755 108.742C127.314 109.212 127.971 109.551 128.679 109.732" fill="#455A64"/>
<path d="M128.669 104.694L126.699 102.293C126.527 102.053 126.311 101.846 126.065 101.684C125.938 101.607 125.792 101.567 125.644 101.567C125.496 101.567 125.351 101.607 125.224 101.684C125.11 101.778 125.024 101.902 124.976 102.042C124.929 102.182 124.921 102.333 124.954 102.477C125.025 102.764 125.155 103.034 125.338 103.267C125.721 103.858 126.208 104.375 126.775 104.793C127.353 105.189 127.879 105.449 128.574 105.345" fill="#455A64"/>
<path d="M128.945 99.8373C128.558 98.6879 127.874 97.6612 126.962 96.8615C126.82 96.717 126.641 96.613 126.445 96.5602C126.244 96.5448 126.044 96.5996 125.88 96.7153C125.715 96.8311 125.595 97.0005 125.541 97.1947C125.479 97.4127 125.463 97.6411 125.494 97.8656C125.526 98.0901 125.603 98.3056 125.722 98.4985C125.963 98.883 126.278 99.2162 126.648 99.4788C127.313 99.9852 128.053 100.384 128.841 100.662" fill="#455A64"/>
<path d="M129.732 95.5133C129.542 94.1206 128.815 92.9753 127.978 91.8364C127.8 91.5984 127.553 91.3478 127.261 91.3922C127.168 91.4116 127.081 91.454 127.009 91.5156C126.937 91.5771 126.882 91.6558 126.848 91.7444C126.784 91.922 126.757 92.111 126.769 92.2996C126.805 93.1434 127.09 93.9578 127.586 94.641C128.083 95.3243 128.769 95.8461 129.561 96.1414" fill="#455A64"/>
<path d="M130.284 93.3052C130.192 92.5911 130.167 91.8699 130.211 91.1511C130.256 90.4291 130.504 89.7344 130.925 89.1461C131.106 88.8929 131.354 88.6952 131.642 88.5751C131.786 88.5178 131.942 88.4985 132.095 88.5191C132.248 88.5397 132.394 88.5994 132.517 88.6925C132.622 88.79 132.704 88.91 132.756 89.0434C132.809 89.1769 132.83 89.3205 132.819 89.4634C132.796 89.7496 132.721 90.0292 132.597 90.2882C132.073 91.5572 131.198 92.9499 130.284 93.3052Z" fill="#455A64"/>
<path d="M121.699 94.9644C121.713 95.0214 121.719 95.0802 121.715 95.1388C121.715 95.2721 121.715 95.4402 121.715 95.6464C121.715 96.0842 121.731 96.7187 121.772 97.4992C121.813 98.2796 121.883 99.2123 122.004 100.243C122.124 101.274 122.321 102.394 122.55 103.565C122.778 104.736 123.089 105.836 123.384 106.829C123.679 107.822 123.993 108.701 124.272 109.434C124.551 110.167 124.792 110.754 124.967 111.153C125.046 111.344 125.11 111.496 125.164 111.62C125.188 111.674 125.207 111.73 125.221 111.788C125.185 111.741 125.155 111.69 125.132 111.636L124.91 111.182C124.716 110.785 124.459 110.205 124.164 109.475C123.869 108.746 123.552 107.867 123.238 106.874C122.924 105.881 122.638 104.774 122.388 103.6C122.137 102.426 121.972 101.293 121.852 100.259C121.731 99.225 121.674 98.2923 121.655 97.5055C121.636 96.7187 121.629 96.0842 121.655 95.6433C121.655 95.4402 121.674 95.2721 121.677 95.1388C121.681 95.0802 121.688 95.0219 121.699 94.9644Z" fill="#263238"/>
<path d="M122.01 100.672C122.027 99.9905 122.28 99.3365 122.727 98.8221C122.792 98.7254 122.879 98.646 122.981 98.5907C123.084 98.5354 123.198 98.506 123.314 98.5049C123.615 98.5493 123.755 98.911 123.765 99.2187C123.779 99.7384 123.607 100.246 123.279 100.649C122.998 101.038 122.575 101.299 122.102 101.376" fill="#263238"/>
<path d="M122.68 104.38C122.642 103.584 122.895 102.35 123.362 101.703C123.431 101.596 123.52 101.505 123.625 101.433C123.678 101.399 123.739 101.378 123.802 101.372C123.865 101.367 123.928 101.377 123.987 101.401C124.06 101.453 124.12 101.523 124.16 101.604C124.2 101.685 124.219 101.774 124.215 101.865C124.261 102.441 124.146 103.019 123.881 103.533C123.616 104.047 123.213 104.476 122.718 104.774" fill="#263238"/>
<path d="M123.542 107.556C123.621 106.753 123.914 105.987 124.39 105.335C124.487 105.177 124.643 105.063 124.824 105.018C125.107 104.983 125.329 105.269 125.389 105.548C125.519 106.119 125.233 106.696 124.907 107.179C124.592 107.583 124.226 107.946 123.818 108.257" fill="#263238"/>
<path d="M124.313 109.789C124.438 109.162 124.699 108.57 125.078 108.054C125.161 107.939 125.269 107.844 125.395 107.778C125.457 107.746 125.526 107.731 125.595 107.735C125.664 107.739 125.731 107.762 125.789 107.8C125.966 107.94 125.925 108.213 125.852 108.435C125.617 109.156 125.158 109.783 124.542 110.224" fill="#263238"/>
<path d="M123.996 108.892C123.281 108.424 122.525 108.023 121.737 107.692C121.68 107.658 121.616 107.638 121.55 107.634C121.483 107.63 121.417 107.643 121.357 107.67C121.318 107.704 121.289 107.748 121.275 107.798C121.26 107.847 121.26 107.9 121.274 107.949C121.302 108.049 121.355 108.141 121.426 108.216C121.775 108.604 122.206 108.91 122.688 109.11C123.17 109.309 123.691 109.399 124.212 109.371" fill="#263238"/>
<path d="M123.105 105.941L121.249 104.729C121.077 104.604 120.885 104.511 120.681 104.453C120.578 104.427 120.471 104.43 120.37 104.461C120.268 104.491 120.177 104.549 120.107 104.628C120.051 104.717 120.022 104.821 120.022 104.926C120.022 105.031 120.051 105.135 120.107 105.224C120.217 105.405 120.364 105.561 120.538 105.681C120.928 105.999 121.37 106.246 121.845 106.411C122.057 106.501 122.286 106.548 122.516 106.548C122.747 106.548 122.975 106.501 123.187 106.411" fill="#263238"/>
<path d="M122.248 102.578C121.737 101.878 121.05 101.325 120.256 100.976C120.128 100.91 119.984 100.878 119.84 100.884C119.7 100.92 119.576 101.002 119.489 101.117C119.402 101.233 119.357 101.374 119.361 101.519C119.365 101.681 119.403 101.84 119.473 101.986C119.542 102.133 119.641 102.263 119.764 102.369C120.011 102.58 120.298 102.738 120.608 102.835C121.168 103.039 121.757 103.152 122.353 103.168" fill="#263238"/>
<path d="M121.852 99.4629C121.423 98.5556 120.681 97.9211 119.866 97.3342C119.79 97.2603 119.696 97.2079 119.593 97.1822C119.491 97.1566 119.383 97.1587 119.282 97.1883C119.225 97.2204 119.176 97.2662 119.141 97.3215C119.105 97.3768 119.084 97.44 119.079 97.5055C119.071 97.6411 119.093 97.7767 119.145 97.9021C119.352 98.4684 119.72 98.9615 120.205 99.3198C120.689 99.6781 121.269 99.8856 121.871 99.9166" fill="#263238"/>
<path d="M121.753 97.8386C121.536 97.3731 121.363 96.8875 121.239 96.3888C121.116 95.8871 121.134 95.3609 121.293 94.8692C121.363 94.6582 121.489 94.4705 121.658 94.3267C121.745 94.2538 121.849 94.2053 121.961 94.1863C122.072 94.1674 122.187 94.1786 122.293 94.2188C122.385 94.2624 122.467 94.3264 122.531 94.4061C122.595 94.4858 122.641 94.579 122.664 94.6788C122.708 94.8787 122.718 95.0848 122.692 95.288C122.607 96.2619 122.312 97.4008 121.766 97.8259" fill="#263238"/>
<path d="M135.693 94.8407C135.708 94.8988 135.714 94.9585 135.712 95.0184C135.712 95.1516 135.712 95.3197 135.734 95.5228C135.753 95.9606 135.757 96.5982 135.734 97.385C135.712 98.1718 135.649 99.1045 135.538 100.139C135.427 101.173 135.243 102.302 135.001 103.479C134.76 104.656 134.465 105.757 134.148 106.753C133.831 107.749 133.514 108.625 133.225 109.355C132.936 110.084 132.673 110.665 132.479 111.062L132.257 111.515C132.234 111.57 132.205 111.621 132.168 111.668C132.18 111.609 132.2 111.553 132.226 111.499C132.276 111.376 132.343 111.223 132.422 111.033C132.597 110.633 132.835 110.043 133.114 109.31C133.393 108.578 133.701 107.699 134.002 106.709C134.304 105.719 134.589 104.615 134.84 103.444C135.09 102.274 135.255 101.148 135.385 100.12C135.515 99.0918 135.582 98.1623 135.617 97.3787C135.652 96.5951 135.674 95.9606 135.674 95.5228C135.674 95.3113 135.674 95.1431 135.674 95.0184C135.675 94.9587 135.681 94.8992 135.693 94.8407Z" fill="#455A64"/>
<path d="M135.385 100.551C135.374 99.8704 135.125 99.2151 134.681 98.6985C134.618 98.601 134.532 98.521 134.43 98.4656C134.328 98.4101 134.213 98.3811 134.097 98.3812C133.796 98.4256 133.656 98.7873 133.647 99.095C133.633 99.6201 133.811 100.132 134.148 100.535C134.43 100.922 134.853 101.183 135.325 101.262" fill="#455A64"/>
<path d="M134.716 104.257C134.754 103.46 134.497 102.229 134.034 101.582C133.964 101.477 133.874 101.385 133.771 101.313C133.717 101.278 133.657 101.257 133.594 101.252C133.531 101.246 133.467 101.256 133.409 101.281C133.335 101.333 133.275 101.403 133.235 101.483C133.195 101.564 133.175 101.654 133.177 101.744C133.133 102.32 133.25 102.898 133.515 103.411C133.78 103.925 134.183 104.355 134.678 104.653" fill="#455A64"/>
<path d="M133.85 107.451C133.771 106.649 133.48 105.883 133.006 105.231C132.908 105.072 132.752 104.958 132.571 104.913C132.289 104.878 132.067 105.164 132.003 105.443C131.877 106.011 132.159 106.592 132.489 107.074C132.803 107.479 133.169 107.842 133.577 108.152" fill="#455A64"/>
<path d="M133.066 109.672C132.943 109.043 132.682 108.449 132.302 107.934C132.219 107.819 132.11 107.726 131.984 107.661C131.923 107.628 131.854 107.613 131.785 107.617C131.715 107.621 131.648 107.644 131.591 107.683C131.417 107.822 131.455 108.095 131.531 108.317C131.765 109.037 132.223 109.664 132.838 110.107" fill="#455A64"/>
<path d="M133.415 108.771C134.13 108.303 134.886 107.901 135.674 107.572C135.731 107.537 135.795 107.518 135.862 107.514C135.928 107.51 135.994 107.522 136.055 107.55C136.094 107.583 136.122 107.628 136.137 107.677C136.152 107.727 136.152 107.779 136.137 107.829C136.107 107.928 136.054 108.018 135.982 108.092C135.635 108.482 135.205 108.789 134.723 108.989C134.241 109.189 133.72 109.277 133.2 109.247" fill="#455A64"/>
<path d="M134.288 105.817L136.147 104.596C136.316 104.468 136.509 104.374 136.715 104.32C136.817 104.293 136.925 104.296 137.026 104.326C137.128 104.357 137.219 104.415 137.289 104.495C137.344 104.584 137.373 104.687 137.373 104.793C137.373 104.898 137.344 105.001 137.289 105.091C137.179 105.271 137.032 105.426 136.857 105.545C136.47 105.865 136.027 106.112 135.55 106.274C135.338 106.365 135.109 106.412 134.878 106.412C134.647 106.412 134.418 106.365 134.205 106.274" fill="#455A64"/>
<path d="M135.147 102.455C135.661 101.761 136.346 101.214 137.137 100.868C137.265 100.801 137.41 100.769 137.555 100.776C137.696 100.812 137.819 100.894 137.907 101.009C137.994 101.125 138.039 101.266 138.034 101.411C138.029 101.573 137.99 101.732 137.92 101.878C137.85 102.025 137.751 102.155 137.628 102.261C137.382 102.47 137.096 102.629 136.788 102.727C136.226 102.924 135.637 103.031 135.043 103.045" fill="#455A64"/>
<path d="M135.544 99.3392C135.972 98.4319 136.715 97.8006 137.53 97.2137C137.606 97.1401 137.7 97.0876 137.802 97.0615C137.904 97.0353 138.012 97.0364 138.114 97.0646C138.17 97.0973 138.219 97.1433 138.254 97.1985C138.289 97.2537 138.311 97.3166 138.317 97.3818C138.323 97.5173 138.3 97.6525 138.25 97.7784C138.044 98.3452 137.675 98.8386 137.19 99.1969C136.704 99.5553 136.124 99.7626 135.522 99.7929" fill="#455A64"/>
<path d="M135.642 97.7181C135.859 97.252 136.031 96.7666 136.156 96.2683C136.281 95.7665 136.261 95.2398 136.099 94.7487C136.034 94.5366 135.908 94.3481 135.737 94.2062C135.651 94.1327 135.547 94.0837 135.435 94.0642C135.324 94.0447 135.209 94.0554 135.103 94.0952C135.011 94.1402 134.93 94.205 134.865 94.2851C134.801 94.3652 134.756 94.4585 134.732 94.5583C134.687 94.7582 134.678 94.9645 134.706 95.1675C134.792 96.1382 135.087 97.2803 135.633 97.7054" fill="#455A64"/>
<path d="M119.336 111.667V114.009C119.335 114.13 119.359 114.25 119.405 114.362C119.451 114.474 119.519 114.576 119.604 114.661C119.69 114.747 119.791 114.815 119.903 114.862C120.015 114.908 120.135 114.932 120.256 114.932H136.283C136.528 114.932 136.763 114.835 136.936 114.662C137.109 114.488 137.206 114.254 137.206 114.009V111.667H119.336Z" fill="#FFC300"/>
<path d="M119.301 116.731H119.187C118.817 116.731 118.517 117.03 118.517 117.4V144.274C118.517 144.644 118.817 144.944 119.187 144.944H119.301C119.671 144.944 119.97 144.644 119.97 144.274V117.4C119.97 117.03 119.671 116.731 119.301 116.731Z" fill="#263238"/>
<path d="M137.263 116.731H137.149C136.78 116.731 136.48 117.03 136.48 117.4V144.274C136.48 144.644 136.78 144.944 137.149 144.944H137.263C137.633 144.944 137.933 144.644 137.933 144.274V117.4C137.933 117.03 137.633 116.731 137.263 116.731Z" fill="#263238"/>
<path d="M128.549 116.731H128.434C128.065 116.731 127.765 117.03 127.765 117.4V144.274C127.765 144.644 128.065 144.944 128.434 144.944H128.549C128.918 144.944 129.218 144.644 129.218 144.274V117.4C129.218 117.03 128.918 116.731 128.549 116.731Z" fill="#263238"/>
<path d="M136.527 126.378H120.015V126.956H136.527V126.378Z" fill="#263238"/>
<path opacity="0.4" d="M120.725 114.932L120.859 115.678L135.645 116.731L136.02 114.932H120.725Z" fill="black"/>
<path d="M71.6503 59.4739L57.7708 81.7891C55.1852 80.6977 51.6066 78.0424 49.8999 76.0786C44.9222 70.384 45.5155 62.6971 46.7781 55.2386L71.6503 59.4739Z" fill="#263238"/>
<path d="M68.3256 58.9124L55.2835 80.4852C50.9578 77.8698 47.519 74.0135 45.4143 69.4176C43.3095 64.8217 42.6362 59.6989 43.4819 54.7152L68.3256 58.9124Z" fill="#455A64"/>
<path d="M55.1535 79.8507C55.2217 79.2181 55.2217 78.5799 55.1535 77.9473C55.0708 77.2686 54.8824 76.607 54.5951 75.9867C54.2551 75.2254 53.7636 74.5414 53.1505 73.9763C52.5374 73.4112 51.8157 72.9769 51.0293 72.7C50.3845 72.4699 49.7084 72.3394 49.0242 72.3129C48.3926 72.3049 47.7619 72.3645 47.143 72.4906C47.143 72.4906 47.1842 72.4684 47.2667 72.4398C47.3875 72.3997 47.5104 72.3658 47.6347 72.3383C48.0918 72.2368 48.5592 72.1889 49.0274 72.1956C50.5968 72.2154 52.1054 72.8051 53.2722 73.8548C54.4167 74.9299 55.1315 76.3843 55.2835 77.9473C55.33 78.414 55.3226 78.8845 55.2613 79.3495C55.2423 79.5145 55.2074 79.6382 55.1915 79.7238C55.1757 79.8095 55.1535 79.8507 55.1535 79.8507Z" fill="#FAFAFA"/>
<path d="M46.3181 55.5305C46.3819 55.5781 46.4404 55.6323 46.4926 55.6923C46.6526 55.8562 46.7971 56.0347 46.9241 56.2253C47.3871 56.9416 47.6449 57.7711 47.6696 58.6237C47.6898 59.2124 47.6005 59.7997 47.4063 60.3559C47.1807 60.9972 46.8042 61.575 46.3086 62.0404C46.0337 62.2992 45.6881 62.4704 45.3156 62.5322C45.1144 62.5572 44.91 62.5291 44.723 62.4506C44.536 62.3721 44.3728 62.246 44.2497 62.0849C44.1219 61.9105 44.0683 61.6927 44.1006 61.4789C44.1422 61.2648 44.2538 61.0706 44.4178 60.9269C44.5817 60.7901 44.7746 60.6925 44.9818 60.6414C45.189 60.5902 45.4052 60.587 45.6138 60.6319C46.4144 60.7896 47.1361 61.2187 47.6569 61.8469C48.1424 62.4192 48.4791 63.1024 48.6372 63.8361C48.7847 64.499 48.7793 65.1869 48.6213 65.8474C48.4898 66.4192 48.2659 66.9657 47.9583 67.4654C47.5155 68.1878 46.9421 68.8214 46.2674 69.334C46.086 69.4742 45.8963 69.6034 45.6995 69.721C45.634 69.7664 45.5638 69.8047 45.4901 69.8352C45.5505 69.7823 45.6153 69.7345 45.6836 69.6924C45.8105 69.6036 46.0009 69.4704 46.2261 69.2832C46.8767 68.7588 47.4288 68.1228 47.8568 67.4051C48.1532 66.9144 48.3675 66.3786 48.4913 65.8189C48.6389 65.179 48.6389 64.514 48.4913 63.8741C48.3346 63.1713 48.0077 62.5177 47.5395 61.9706C47.0424 61.3747 46.356 60.9672 45.5948 60.8159C45.4111 60.774 45.2201 60.7752 45.0369 60.8192C44.8537 60.8632 44.6831 60.9489 44.5384 61.0697C44.4027 61.187 44.3109 61.347 44.2782 61.5233C44.2644 61.6082 44.2679 61.695 44.2887 61.7784C44.3094 61.8618 44.3469 61.9402 44.3988 62.0087C44.504 62.1474 44.6437 62.2562 44.804 62.3241C44.9643 62.392 45.1396 62.4167 45.3125 62.3958C45.6542 62.34 45.9713 62.183 46.223 61.9453C46.7043 61.4998 47.071 60.9448 47.2921 60.3273C47.4873 59.7887 47.5809 59.2186 47.5681 58.6459C47.5534 57.8107 47.3181 56.9942 46.886 56.2792C46.5529 55.7621 46.2991 55.5464 46.3181 55.5305Z" fill="#FAFAFA"/>
<path d="M57.3107 56.8376C56.9266 57.0499 56.5724 57.3123 56.2575 57.6181C55.4213 58.4831 54.9064 59.6082 54.7981 60.8064C54.7178 61.6278 54.7616 62.4567 54.9282 63.2651C55.0775 64.1986 55.4259 65.0891 55.9497 65.876C56.2372 66.2915 56.623 66.6294 57.0728 66.8595C57.5428 67.0916 58.0788 67.1533 58.5892 67.034C59.1201 66.9146 59.6017 66.6356 59.9693 66.2345C60.1545 66.0307 60.3036 65.7968 60.4103 65.5429C60.508 65.2836 60.5543 65.0078 60.5467 64.7308C60.4936 64.1842 60.2555 63.6722 59.8719 63.2794C59.4883 62.8865 58.9821 62.6364 58.437 62.5703C57.9149 62.5317 57.3984 62.6978 56.9967 63.0335C56.6082 63.3561 56.2998 63.7644 56.0957 64.2263C55.8949 64.6665 55.7694 65.1373 55.7245 65.6191C55.6689 66.0721 55.6689 66.5302 55.7245 66.9832C55.8361 67.8003 56.1055 68.588 56.5176 69.3023C56.857 69.8928 57.285 70.4278 57.7866 70.8885C58.166 71.2353 58.5869 71.5337 59.0397 71.7768C59.4334 71.9718 59.8405 72.1382 60.258 72.2749L60.1723 72.259L59.9249 72.1924C59.7903 72.1603 59.6587 72.1167 59.5315 72.0623C59.3534 71.9972 59.1797 71.9209 59.0112 71.8339C58.5466 71.5975 58.1139 71.3033 57.7232 70.9583C57.2099 70.4995 56.7701 69.9645 56.4193 69.3721C55.9921 68.6479 55.7108 67.8472 55.5913 67.0149C55.5339 66.5503 55.5339 66.0805 55.5913 65.6159C55.6356 65.1177 55.7644 64.6306 55.972 64.1756C56.1833 63.6826 56.5096 63.2475 56.9237 62.9066C57.3558 62.5439 57.9124 62.3641 58.475 62.4053C58.7616 62.4292 59.0408 62.5089 59.2967 62.6401C59.5575 62.7669 59.7947 62.9376 59.9978 63.1445C60.4329 63.5629 60.6965 64.1285 60.737 64.7308C60.7451 65.0316 60.6944 65.3312 60.5879 65.6127C60.4745 65.8847 60.3145 66.1348 60.1152 66.3519C59.7235 66.7759 59.2125 67.0712 58.6495 67.1989C58.1034 67.3246 57.5306 67.2573 57.0284 67.0086C56.5571 66.7643 56.153 66.4081 55.8514 65.9712C55.3178 65.1648 54.965 64.2524 54.8172 63.2968C54.6556 62.4747 54.6193 61.633 54.7093 60.8001C54.8279 59.5812 55.3688 58.4422 56.2384 57.58C56.4757 57.3506 56.7411 57.1523 57.0284 56.9899C57.1022 56.9473 57.1785 56.9092 57.2568 56.8757C57.2737 56.8615 57.2917 56.8488 57.3107 56.8376Z" fill="#FAFAFA"/>
<path d="M58.6432 80.4249C58.3802 79.8404 58.1679 79.2344 58.0087 78.6135C57.7961 78.0078 57.6368 77.3847 57.5328 76.7512C57.7955 77.337 58.0078 77.9441 58.1673 78.5659C58.3797 79.1705 58.5389 79.7926 58.6432 80.4249Z" fill="#455A64"/>
<path d="M60.2961 77.8203C60.0317 77.2352 59.8194 76.628 59.6616 76.0057C59.4488 75.4011 59.2895 74.779 59.1857 74.1466C59.4471 74.7318 59.6593 75.3377 59.8202 75.9581C60.0292 76.5649 60.1884 77.1877 60.2961 77.8203Z" fill="#455A64"/>
<path d="M61.9108 75.1333C61.6415 74.5296 61.4229 73.9046 61.2573 73.2647C61.0404 72.6397 60.8759 71.9977 60.7656 71.3453C61.0332 71.9504 61.2508 72.5764 61.4159 73.2171C61.6345 73.8408 61.8 74.4818 61.9108 75.1333Z" fill="#455A64"/>
<path d="M63.5447 72.5064C63.2738 71.9009 63.0542 71.2737 62.888 70.6315C62.6695 70.0045 62.504 69.3604 62.3931 68.7058C62.6626 69.3126 62.8812 69.9408 63.0466 70.5839C63.263 71.2106 63.4296 71.8535 63.5447 72.5064Z" fill="#455A64"/>
<path d="M65.2134 70.016C64.9487 69.4321 64.7364 68.8259 64.5789 68.2045C64.3663 67.5988 64.207 66.9757 64.103 66.3423C64.364 66.9287 64.5763 67.5356 64.7375 68.1569C64.9467 68.7626 65.1059 69.3843 65.2134 70.016Z" fill="#455A64"/>
<path d="M66.8091 67.256C66.5348 66.6331 66.311 65.9891 66.1397 65.3303C65.9172 64.6857 65.7443 64.0249 65.6226 63.3539C65.8999 63.9757 66.1238 64.6199 66.292 65.2796C66.5186 65.923 66.6915 66.5841 66.8091 67.256Z" fill="#455A64"/>
<path d="M68.443 64.6228C68.1653 63.9918 67.9393 63.3393 67.7672 62.6718C67.5426 62.0199 67.3687 61.3517 67.2469 60.6731C67.5259 61.3039 67.7529 61.9564 67.9258 62.6242C68.1518 63.2754 68.3247 63.9438 68.443 64.6228Z" fill="#455A64"/>
<path d="M70.0641 62.0056C69.8374 61.5413 69.6609 61.0542 69.5375 60.5526C69.3629 60.0679 69.2406 59.5659 69.1726 59.0552C69.3954 59.5196 69.5708 60.0054 69.6961 60.505C69.8709 60.9909 69.9943 61.4939 70.0641 62.0056Z" fill="#455A64"/>
<path d="M21.1287 53.9824C19.3902 54.7533 12.1379 64.0487 11.6113 70.0859C11.2306 74.5845 19.9834 74.0959 19.9834 74.0959C19.9834 74.0959 20.5798 55.6321 20.3197 55.8922" fill="#FFC300"/>
<path d="M19.4663 66.4851C19.4663 66.4851 19.4378 66.5359 19.3743 66.6215C19.3109 66.7072 19.2189 66.8246 19.1015 66.9673C18.8635 67.2592 18.5241 67.6494 18.1497 68.0745C17.7754 68.4996 17.4105 68.874 17.1472 69.1373C17.014 69.2705 16.9029 69.3752 16.83 69.4545C16.7924 69.4936 16.751 69.5287 16.7063 69.5592C16.7368 69.5145 16.7719 69.4731 16.8109 69.4355L17.1282 69.1183L18.118 68.0428L19.0888 66.9515L19.3806 66.6184C19.4056 66.5717 19.4343 66.5272 19.4663 66.4851Z" fill="#263238"/>
<path d="M19.1744 65.1051C19.0656 65.1406 18.9596 65.184 18.8572 65.2352C18.5896 65.3824 18.3544 65.582 18.1656 65.8221C17.915 66.1171 17.6897 66.5232 17.401 66.9515C17.0914 67.4244 16.6696 67.8135 16.1733 68.0841C15.6764 68.353 15.1203 68.4937 14.5553 68.4933C14.0944 68.4895 13.6393 68.389 13.2197 68.1983C12.9368 68.0745 12.673 67.911 12.4361 67.7129C12.3493 67.6403 12.2687 67.5607 12.195 67.4749C12.195 67.4749 12.2838 67.5574 12.452 67.6907C12.6917 67.8813 12.9564 68.0382 13.2387 68.157C13.6548 68.3358 14.1024 68.4297 14.5553 68.433C15.1098 68.4301 15.6549 68.2895 16.1415 68.0238C16.6291 67.7593 17.0441 67.3791 17.3503 66.9166C17.5901 66.5293 17.8495 66.1545 18.1275 65.7935C18.3232 65.552 18.5675 65.3542 18.8445 65.213C18.9479 65.1594 19.0593 65.123 19.1744 65.1051Z" fill="white"/>
<path d="M14.7837 73.5058C14.7338 73.4914 14.6851 73.4733 14.6378 73.4518C14.5012 73.3897 14.3741 73.3085 14.2603 73.2107C13.85 72.8361 13.5924 72.3232 13.5369 71.7704C13.4848 70.9554 13.6036 70.1384 13.8859 69.372C14.2298 68.4377 14.6812 67.5466 15.231 66.7167C16.3668 64.9337 17.5152 63.4014 18.1402 62.1642C18.3083 61.8628 18.4257 61.5741 18.5463 61.3266C18.6668 61.0792 18.7271 60.8507 18.7937 60.6699C18.8604 60.4891 18.8794 60.3527 18.9111 60.2385C18.9428 60.1243 18.9587 60.0925 18.9587 60.0925C18.9587 60.0925 18.9587 60.1433 18.9238 60.2416C18.8889 60.34 18.8604 60.5049 18.8159 60.6763C18.7715 60.8476 18.6764 61.0823 18.578 61.3393C18.4797 61.5963 18.3496 61.8818 18.1814 62.1864C17.5628 63.4331 16.4207 64.975 15.2882 66.7516C14.7405 67.5771 14.2892 68.4628 13.943 69.3911C13.6622 70.1523 13.5433 70.9638 13.5941 71.7736C13.6418 72.3188 13.8892 72.8272 14.2888 73.2012C14.4376 73.327 14.6044 73.4297 14.7837 73.5058Z" fill="white"/>
<path d="M19.7011 71.0789C19.6678 71.1521 19.6216 71.2187 19.5646 71.2755C19.4036 71.4324 19.2047 71.545 18.9873 71.6023C18.6729 71.6913 18.3456 71.7256 18.0196 71.7038C17.6271 71.675 17.2326 71.6974 16.8458 71.7705C16.1447 71.9241 15.5053 72.283 15.009 72.8015C14.8597 72.9591 14.7238 73.1289 14.6029 73.3091C14.563 73.3779 14.5196 73.4446 14.4728 73.509C14.5975 73.2363 14.7669 72.9865 14.9741 72.7698C15.4689 72.2318 16.1185 71.8605 16.8331 71.707C17.225 71.6319 17.6252 71.6106 18.0228 71.6436C18.3426 71.6672 18.6641 71.6383 18.9746 71.5579C19.1836 71.4988 19.3751 71.3899 19.5329 71.2407C19.5916 71.1895 19.6477 71.1356 19.7011 71.0789Z" fill="white"/>
<g opacity="0.3">
<path d="M19.9961 74.0959C18.6383 70.1018 17.5216 65.9426 19.0253 61.9644C19.5171 66.8944 20.0976 71.3866 19.9961 74.0959Z" fill="black"/>
</g>
<path d="M32.7431 68.0048L14.2286 84.7745C13.2768 83.7244 12.0269 82.8868 11.4907 81.5544C10.9546 80.222 10.0694 79.1052 9.5206 77.8014L32.7431 68.0048Z" fill="#263238"/>
<path d="M31.1061 66.0696L12.4329 82.9916C11.4825 81.9425 10.6219 80.8155 9.86006 79.6224C9.09619 78.4296 8.43499 77.1741 7.88361 75.8694L31.1061 66.0696Z" fill="#455A64"/>
<path d="M28.8219 135.972L28.5047 141.647C28.5047 141.647 34.1644 143.868 34.2151 144.94L23.1876 144.706L23.3304 135.842L28.8219 135.972Z" fill="#FFC300"/>
<path d="M25.0879 141.099C24.9821 141.13 24.8913 141.198 24.8328 141.292C24.7743 141.386 24.7522 141.497 24.7707 141.606C24.7985 141.713 24.8657 141.805 24.9588 141.864C25.0518 141.922 25.1637 141.944 25.2719 141.923C25.385 141.891 25.4821 141.818 25.5442 141.719C25.6064 141.619 25.6292 141.5 25.6082 141.384C25.5706 141.274 25.4914 141.183 25.3876 141.131C25.2838 141.079 25.1637 141.07 25.053 141.105" fill="#E0E0E0"/>
<path d="M23.1622 144.706V143.824L33.7519 144.369C33.7519 144.369 34.2373 144.595 34.1771 144.94L23.1622 144.706Z" fill="#E0E0E0"/>
<path d="M28.6665 141.597C28.6665 141.651 28.3937 141.67 28.124 141.838C27.8543 142.006 27.7116 142.228 27.6608 142.206C27.61 142.184 27.6989 141.873 28.0288 141.676C28.3588 141.479 28.6792 141.546 28.6665 141.597Z" fill="#263238"/>
<path d="M29.8117 142.098C29.8117 142.152 29.5897 142.237 29.4025 142.463C29.2153 142.688 29.155 142.926 29.0852 142.923C29.0154 142.92 29.0059 142.606 29.2439 142.339C29.4818 142.073 29.8117 142.047 29.8117 142.098Z" fill="#263238"/>
<path d="M30.4399 143.497C30.3923 143.497 30.3225 143.237 30.4653 142.945C30.608 142.653 30.865 142.542 30.8872 142.586C30.9094 142.631 30.7508 142.786 30.6334 143.027C30.516 143.269 30.4938 143.494 30.4399 143.497Z" fill="#263238"/>
<path d="M28.5967 140.296C28.5745 140.343 28.327 140.264 28.0225 140.277C27.7179 140.29 27.48 140.382 27.4514 140.337C27.4229 140.293 27.6576 140.102 28.0161 140.09C28.3746 140.077 28.6252 140.251 28.5967 140.296Z" fill="#263238"/>
<path d="M28.6411 139.147C28.4604 139.197 28.2698 139.197 28.0891 139.147C27.8908 139.107 27.698 139.043 27.5149 138.957C27.4052 138.906 27.2992 138.848 27.1976 138.783C27.1376 138.746 27.0831 138.701 27.0358 138.649C27.0003 138.611 26.9791 138.561 26.9757 138.508C26.9722 138.456 26.9867 138.404 27.0168 138.361C27.0445 138.324 27.0805 138.294 27.1218 138.274C27.1631 138.253 27.2087 138.243 27.2547 138.243C27.3246 138.244 27.394 138.255 27.4609 138.275C27.5776 138.307 27.6912 138.35 27.8004 138.402C27.9859 138.49 28.1562 138.606 28.3048 138.748C28.5554 138.989 28.6379 139.192 28.6221 139.201C28.6062 139.211 28.4761 139.049 28.2192 138.846C27.984 138.659 27.7114 138.525 27.4197 138.453C27.3023 138.421 27.204 138.418 27.1722 138.469C27.1405 138.519 27.1722 138.497 27.1722 138.532C27.2086 138.569 27.249 138.602 27.2928 138.63C27.3911 138.694 27.4863 138.751 27.5815 138.802C27.7513 138.889 27.9286 138.961 28.1113 139.017C28.2907 139.048 28.4677 139.092 28.6411 139.147Z" fill="#263238"/>
<path d="M28.5681 139.224C28.4674 139.064 28.4207 138.876 28.4349 138.687C28.4287 138.483 28.4588 138.279 28.5237 138.085C28.5614 137.969 28.6114 137.857 28.6728 137.752C28.7033 137.679 28.7521 137.617 28.8145 137.569C28.8768 137.522 28.9505 137.492 29.0281 137.482C29.0775 137.483 29.1254 137.499 29.166 137.527C29.2066 137.555 29.238 137.595 29.2566 137.641C29.2833 137.706 29.3014 137.774 29.3105 137.844C29.3297 137.967 29.3297 138.092 29.3105 138.215C29.277 138.421 29.1918 138.615 29.063 138.779C28.841 139.062 28.6157 139.122 28.6125 139.097C28.6094 139.071 28.7839 138.97 28.9552 138.697C29.0531 138.541 29.1158 138.366 29.1392 138.183C29.1547 138.078 29.1547 137.971 29.1392 137.866C29.1392 137.748 29.0821 137.653 29.0408 137.666C28.9996 137.679 28.8885 137.748 28.841 137.84C28.7857 137.936 28.738 138.036 28.6982 138.139C28.6324 138.315 28.5928 138.5 28.5808 138.687C28.5459 139.014 28.5999 139.217 28.5681 139.224Z" fill="#263238"/>
<path d="M36.6357 136.416L35.5793 142C35.5793 142 40.9027 144.95 40.8075 146L29.9037 144.344L31.1918 135.572L36.6357 136.416Z" fill="#FFC300"/>
<path d="M32.2799 141.016C32.1701 141.032 32.0699 141.087 31.9985 141.172C31.927 141.257 31.8894 141.365 31.8929 141.476C31.9041 141.587 31.9576 141.689 32.0421 141.761C32.1266 141.833 32.2356 141.869 32.3466 141.863C32.4631 141.846 32.5691 141.786 32.6441 141.695C32.7192 141.605 32.7578 141.489 32.7526 141.371C32.7281 141.258 32.6606 141.158 32.5643 141.093C32.4679 141.028 32.3501 141.003 32.2355 141.022" fill="#E0E0E0"/>
<path d="M29.9037 144.344L30.0306 143.472L40.4617 145.375C40.4617 145.375 40.9154 145.661 40.8075 145.994L29.9037 144.344Z" fill="#E0E0E0"/>
<path d="M35.7633 141.971C35.7633 142.025 35.4841 142.009 35.1954 142.139C34.9067 142.269 34.7354 142.475 34.6878 142.456C34.6403 142.437 34.7703 142.139 35.1193 141.977C35.4683 141.815 35.7823 141.927 35.7633 141.971Z" fill="#263238"/>
<path d="M36.8356 142.618C36.8356 142.672 36.5945 142.729 36.3819 142.935C36.1694 143.142 36.0647 143.364 36.0234 143.354C35.9822 143.345 35.9822 143.037 36.255 142.796C36.5279 142.555 36.8419 142.567 36.8356 142.618Z" fill="#263238"/>
<path d="M37.2766 144.087C37.2258 144.087 37.1941 143.814 37.3749 143.541C37.5557 143.268 37.8222 143.192 37.8381 143.243C37.854 143.294 37.6763 143.421 37.5208 143.646C37.3654 143.871 37.3305 144.09 37.2766 144.087Z" fill="#263238"/>
<path d="M35.8648 140.673C35.8331 140.718 35.6015 140.607 35.2969 140.581C34.9924 140.556 34.7449 140.616 34.7227 140.566C34.7005 140.515 34.9575 140.359 35.3128 140.394C35.6681 140.429 35.8965 140.635 35.8648 140.673Z" fill="#263238"/>
<path d="M36.0552 139.541C35.8689 139.564 35.6798 139.534 35.5095 139.455C35.3182 139.39 35.1351 139.303 34.9638 139.195C34.8636 139.13 34.7682 139.058 34.6783 138.979C34.622 138.937 34.5727 138.885 34.5324 138.827C34.5029 138.784 34.4887 138.732 34.4921 138.679C34.4956 138.627 34.5165 138.577 34.5514 138.538C34.5833 138.505 34.6227 138.48 34.6663 138.465C34.7099 138.45 34.7565 138.446 34.802 138.453C34.8714 138.462 34.9388 138.483 35.0019 138.513C35.1126 138.559 35.2188 138.615 35.3192 138.681C35.4903 138.792 35.6433 138.929 35.7728 139.087C35.9886 139.36 36.0457 139.573 36.0235 139.579C36.0012 139.585 35.8997 139.408 35.6713 139.176C35.5403 139.04 35.3908 138.922 35.2272 138.827C35.1313 138.772 35.0316 138.723 34.9289 138.681C34.8179 138.634 34.7196 138.618 34.6815 138.665C34.6434 138.713 34.6815 138.691 34.6815 138.729C34.7114 138.771 34.7478 138.809 34.7894 138.84C34.8717 138.916 34.9598 138.986 35.0527 139.049C35.208 139.159 35.3738 139.254 35.5476 139.331C35.7215 139.389 35.8911 139.459 36.0552 139.541Z" fill="#263238"/>
<path d="M35.9759 139.607C35.894 139.437 35.8716 139.244 35.9124 139.059C35.9321 138.855 35.9879 138.656 36.0774 138.472C36.128 138.359 36.1907 138.253 36.2645 138.154C36.305 138.087 36.3621 138.031 36.4305 137.992C36.4989 137.953 36.5761 137.933 36.6548 137.932C36.7035 137.94 36.7488 137.962 36.7854 137.996C36.822 138.029 36.8482 138.072 36.861 138.12C36.8796 138.188 36.8882 138.258 36.8864 138.329C36.8865 138.454 36.8684 138.578 36.8324 138.697C36.7705 138.895 36.6617 139.076 36.5152 139.224C36.2582 139.474 36.0266 139.503 36.0266 139.487C36.0266 139.471 36.2138 139.382 36.4168 139.135C36.5346 138.993 36.6201 138.827 36.6674 138.649C36.6945 138.546 36.7074 138.439 36.7055 138.332C36.7055 138.212 36.677 138.113 36.6326 138.116C36.5881 138.12 36.4739 138.183 36.4136 138.269C36.3461 138.355 36.2857 138.446 36.2328 138.541C36.1455 138.708 36.0825 138.887 36.0456 139.071C35.979 139.395 36.0044 139.604 35.9759 139.607Z" fill="#263238"/>
<path d="M25.5003 38.9766L25.4559 53.7191L31.7818 54.0364L31.9627 50.4515C31.9627 50.4515 34.2088 50.8988 34.7894 48.8113C35.1605 47.4789 35.0685 37.1779 35.0685 37.1779L25.5003 38.9766Z" fill="#B78876"/>
<path d="M19.3045 84.6095L19.2728 86.1418C19.2314 88.1651 19.4728 90.1843 19.9898 92.1409L20.6877 94.7804L22.3945 139.021L30.57 139.496L30.1829 86.164L19.3045 84.6095Z" fill="#263238"/>
<path d="M22.1597 85.2979V87.176C22.162 88.3485 22.4769 89.4993 23.0719 90.5097C23.6669 91.5202 24.5205 92.3537 25.5448 92.9245L32.0896 110.941L29.1043 138.453L37.505 139.277L41.791 110.941C41.3595 109.561 36.5659 85.301 36.5659 85.301L22.1597 85.2979Z" fill="#263238"/>
<path d="M36.604 110.373C35.8855 110.592 35.1517 110.758 34.4087 110.868C33.6772 111.028 32.935 111.134 32.1879 111.185C32.9066 110.968 33.6404 110.803 34.3833 110.694C35.1148 110.533 35.857 110.426 36.604 110.373Z" fill="#455A64"/>
<path d="M36.6072 112.622C36.3804 112.592 36.1579 112.536 35.9441 112.454L34.3579 111.991C33.6033 111.801 32.8699 111.536 32.1689 111.198C32.3953 111.23 32.6175 111.287 32.8319 111.366L34.4182 111.832C35.1724 112.022 35.9057 112.287 36.6072 112.622Z" fill="#455A64"/>
<path d="M29.1043 138.449C29.1001 138.402 29.1001 138.354 29.1043 138.307C29.1043 138.208 29.1265 138.072 29.1423 137.894C29.1804 137.526 29.2343 136.993 29.3041 136.308C29.4564 134.925 29.6721 132.933 29.9386 130.474C30.4875 125.541 31.2489 118.736 32.0896 111.188V111.226L31.9658 110.884C30.6746 107.267 29.4437 103.825 28.3238 100.694C27.7687 99.1298 27.2357 97.6388 26.7376 96.2524C26.3335 94.9501 25.7687 93.7032 25.0562 92.5406C24.3487 91.5064 23.5683 90.672 23.0004 89.844C22.4851 89.1413 22.1457 88.3254 22.0106 87.4646C21.9208 86.9303 21.8889 86.3879 21.9154 85.8467C21.9225 85.6586 21.9405 85.4711 21.9694 85.2852C21.9722 85.3327 21.9722 85.3804 21.9694 85.4279C21.9694 85.5231 21.963 85.6627 21.9503 85.8467C21.9392 86.3857 21.9817 86.9245 22.0772 87.4551C22.2255 88.2934 22.5677 89.0854 23.0766 89.7679C23.6476 90.5864 24.4344 91.4112 25.1545 92.4549C25.8883 93.6214 26.4714 94.876 26.8899 96.1889C27.388 97.5785 27.9241 99.0664 28.4761 100.63C29.596 103.762 30.8333 107.201 32.1276 110.814L32.2514 111.157V111.176V111.195C31.3916 118.736 30.6144 125.544 30.0497 130.477C29.761 132.933 29.5262 134.919 29.3644 136.305C29.2819 136.984 29.2153 137.517 29.1709 137.891L29.117 138.3C29.1157 138.35 29.1114 138.4 29.1043 138.449Z" fill="#455A64"/>
<path opacity="0.4" d="M29.9038 142.244L29.4406 144.147L29.9038 144.173L30.1924 142.374L29.9038 142.244Z" fill="black"/>
<path d="M18.9143 85.2979H36.5881L35.8743 70.4063C35.757 67.4813 35.7728 67.1323 35.703 64.4293C35.703 64.4293 38.4536 67.7573 40.614 70.089C41.2522 70.7748 42.0923 71.2395 43.0123 71.4158C43.9324 71.592 44.8847 71.4707 45.7312 71.0693L57.0569 63.173L55.2486 58.5412L44.6526 64.0486C44.183 63.7536 40.1762 58.0432 37.4098 55.2514C35.6403 53.4724 33.2557 52.4402 30.7476 52.3676C28.6611 52.3161 26.5735 52.3999 24.4978 52.6182C22.9853 52.7789 21.576 53.4616 20.5123 54.549C19.4487 55.6363 18.7972 57.0604 18.67 58.5761C18.4701 60.9682 19.5837 68.4774 19.5837 68.4774L20.0056 74.0959L18.9143 85.2979Z" fill="#FFC300"/>
<path d="M19.3553 55.5591L19.3267 55.7463L19.2411 56.2792C19.1884 56.5605 19.1503 56.8443 19.1268 57.1295C19.0983 57.4626 19.0412 57.8401 19.0317 58.262C18.9428 60.4527 19.0341 62.647 19.3045 64.8227C19.5805 67.3797 19.9041 69.6861 19.9961 71.3707C20.0693 72.2776 20.0693 73.1889 19.9961 74.0959C19.9961 74.0959 19.9961 74.0292 19.9961 73.9055C19.9961 73.7818 19.9961 73.5883 20.0151 73.363C20.0151 72.8935 20.0151 72.2114 19.9549 71.3739C19.8502 69.6925 19.5202 67.3861 19.2442 64.8322C18.973 62.6523 18.887 60.4533 18.9873 58.2589C18.9873 57.8369 19.0602 57.4594 19.0919 57.1263C19.1237 56.7932 19.1744 56.4918 19.2188 56.2761C19.2633 56.0603 19.3045 55.8827 19.3045 55.7399C19.3045 55.5972 19.3553 55.5591 19.3553 55.5591Z" fill="#263238"/>
<path d="M44.2211 65.8918C44.2226 65.8017 44.2354 65.7122 44.2592 65.6253C44.2909 65.4635 44.3385 65.2383 44.3956 64.9908C44.4527 64.7434 44.5098 64.5181 44.5542 64.3563C44.573 64.2681 44.6007 64.182 44.6367 64.0994C44.6355 64.1895 44.6227 64.279 44.5986 64.3659C44.5669 64.5308 44.5193 64.7561 44.4622 65.0003C44.4051 65.2446 44.348 65.4699 44.3036 65.6348C44.2848 65.7231 44.2572 65.8091 44.2211 65.8918Z" fill="#263238"/>
<path d="M45.2522 66.0346C45.1397 65.7029 45.0507 65.3637 44.9857 65.0195C44.8977 64.679 44.8299 64.3337 44.7827 63.9852C44.8931 64.3187 44.9821 64.6588 45.0491 65.0036C45.1373 65.3429 45.2051 65.6872 45.2522 66.0346Z" fill="#263238"/>
<path d="M36.1789 64.9115C36.1789 64.9115 36.1408 64.8798 36.0742 64.8132L35.776 64.5277C35.5222 64.277 35.1415 63.9122 34.7132 63.449C34.1951 62.9048 33.712 62.3284 33.2666 61.7232C32.7196 60.9817 32.2776 60.1682 31.9532 59.3058C31.625 58.4418 31.4771 57.5198 31.5185 56.5965C31.5309 55.8412 31.6972 55.0963 32.0071 54.4075C32.2262 53.9468 32.5526 53.5454 32.9588 53.2368C33.0674 53.1525 33.1819 53.0762 33.3015 53.0084C33.3426 52.984 33.3849 52.9617 33.4284 52.9418C33.4284 52.9418 33.2539 53.0369 32.9715 53.259C32.5769 53.5729 32.2599 53.9734 32.0452 54.4297C31.7468 55.1148 31.5872 55.8524 31.5756 56.5996C31.5373 57.5155 31.6851 58.4296 32.0103 59.2867C32.6892 61.1268 33.8915 62.4814 34.7449 63.4109C35.1796 63.8805 35.5412 64.2485 35.7919 64.5054L36.0806 64.8005L36.1789 64.9115Z" fill="#263238"/>
<path d="M38.3742 56.3745L38.2124 56.5172C38.0507 56.6473 37.8764 56.761 37.6922 56.8567C37.0043 57.2058 36.2428 57.3853 35.4714 57.3801C34.3404 57.3492 33.2184 57.17 32.134 56.8472C31.4917 56.677 30.8403 56.5435 30.1829 56.4474C29.4778 56.341 28.7601 56.3485 28.0574 56.4696C27.704 56.5326 27.3598 56.6392 27.0326 56.7869C26.7192 56.9451 26.4162 57.1232 26.1253 57.3199C25.8427 57.5107 25.5445 57.6773 25.2339 57.8179C24.9335 57.9494 24.6099 58.0195 24.2821 58.0241C23.6724 58.0014 23.0749 57.8466 22.5309 57.5705C22.017 57.3325 21.557 57.0756 21.116 56.8884C20.4266 56.5535 19.6457 56.4564 18.8952 56.6124C18.6943 56.6572 18.5016 56.7332 18.3242 56.8376C18.2005 56.9106 18.1465 56.9614 18.1434 56.9582C18.1954 56.9085 18.2528 56.8649 18.3147 56.8281C18.4916 56.7168 18.6856 56.6353 18.8889 56.587C19.6372 56.4247 20.4182 56.515 21.1096 56.844C21.557 57.0312 22.0201 57.285 22.5341 57.5229C23.079 57.7944 23.6767 57.9438 24.2853 57.9607C25.6145 57.9988 26.5536 56.5934 28.0605 56.3935C28.7707 56.2721 29.4957 56.2646 30.2083 56.3713C30.8677 56.4707 31.5212 56.6063 32.1657 56.7774C33.2436 57.1024 34.359 57.2869 35.4841 57.3262C36.2447 57.3336 36.9965 57.163 37.6795 56.8281C37.8627 56.7376 38.0379 56.6315 38.2029 56.5109L38.3742 56.3745Z" fill="white"/>
<path d="M38.2061 67.3861L38.3076 67.2719C38.4073 67.1677 38.4965 67.054 38.5741 66.9324C38.8598 66.4851 39.0187 65.9687 39.0341 65.4382C39.0542 64.6519 38.9004 63.8708 38.5836 63.1508C38.1764 62.2791 37.6765 61.4538 37.0926 60.689C36.505 59.921 35.9919 59.0988 35.5603 58.2335C35.3787 57.8503 35.2404 57.4481 35.1479 57.0343C35.0717 56.6736 35.0387 56.3051 35.0495 55.9366C35.0562 55.4009 35.1876 54.8741 35.4334 54.398C35.518 54.2243 35.6247 54.0623 35.7506 53.9158C35.7245 53.9586 35.6959 54 35.665 54.0395C35.5818 54.1575 35.5075 54.2816 35.4429 54.4107C35.21 54.886 35.0864 55.4074 35.0812 55.9366C35.0762 56.7239 35.2543 57.5016 35.6015 58.2081C36.0367 59.0674 36.5496 59.8851 37.1338 60.6509C37.7217 61.4193 38.2228 62.2502 38.6281 63.1286C38.9462 63.8568 39.0958 64.6473 39.0659 65.4414C39.048 65.9792 38.8798 66.5012 38.5805 66.9483C38.4752 67.1099 38.3494 67.257 38.2061 67.3861Z" fill="white"/>
<path d="M43.2947 62.2911C43.2749 62.3929 43.243 62.4919 43.1996 62.5861C43.0778 62.8458 42.8988 63.0747 42.6761 63.2555C42.3495 63.5256 41.9687 63.7225 41.5594 63.8329C41.0578 63.9566 40.5437 64.0226 40.0271 64.0296C39.5156 64.0335 39.0052 64.0791 38.5011 64.166C38.0947 64.2579 37.7022 64.4029 37.3337 64.5975C37.0821 64.7235 36.8485 64.8825 36.6389 65.0702C36.4898 65.2034 36.4263 65.2922 36.42 65.2891C36.4777 65.2026 36.5447 65.1229 36.6199 65.0511C36.826 64.8545 37.0588 64.6879 37.3115 64.5562C37.6813 64.3537 38.0774 64.2032 38.4885 64.1089C38.9951 64.0158 39.5088 63.967 40.0239 63.963C40.536 63.957 41.0458 63.8932 41.5435 63.7726C41.9463 63.6684 42.3225 63.4803 42.6476 63.2206C42.8656 63.0474 43.0458 62.8315 43.1774 62.5861C43.263 62.4021 43.2884 62.2879 43.2947 62.2911Z" fill="white"/>
<path d="M47.714 69.6259C47.714 69.6259 47.7521 69.5339 47.8092 69.3626C47.8864 69.1225 47.9281 68.8724 47.9329 68.6202C47.9383 68.245 47.8892 67.8709 47.787 67.5098C47.656 67.0682 47.4905 66.6375 47.2921 66.2218C47.0922 65.7745 46.8955 65.3462 46.7623 64.9528C46.6387 64.5939 46.5609 64.2208 46.5307 63.8425C46.5125 63.5863 46.5306 63.3289 46.5846 63.0779C46.6025 62.9857 46.629 62.8954 46.6639 62.8082C46.6639 62.8082 46.6385 62.9066 46.6068 63.0811C46.5655 63.3316 46.5559 63.5863 46.5783 63.8393C46.6142 64.2125 46.6951 64.58 46.8194 64.9338C46.9558 65.3335 47.1525 65.7586 47.3524 66.2028C47.552 66.6213 47.7175 67.0552 47.8473 67.5003C47.9473 67.867 47.9922 68.2466 47.9805 68.6265C47.9707 68.8832 47.9215 69.1368 47.8346 69.3784C47.802 69.4644 47.7617 69.5472 47.714 69.6259Z" fill="white"/>
<path d="M55.7277 59.9086L55.642 60.0704C55.5849 60.1751 55.4929 60.3273 55.366 60.5145C54.9993 61.0425 54.564 61.5193 54.0717 61.9326C53.3363 62.5405 52.5337 63.062 51.6796 63.4871C50.7279 63.982 49.6334 64.4389 48.5071 64.9496C47.443 65.4146 46.4386 66.0058 45.5155 66.7104C44.77 67.2996 44.1434 68.0252 43.6691 68.8486C43.3489 69.403 43.1338 70.0117 43.0346 70.6442C43.009 70.8165 42.9952 70.9903 42.9934 71.1645V71.3453C42.9934 71.3453 42.9934 71.2851 42.9934 71.1645C42.9927 70.9895 43.0033 70.8147 43.0251 70.6411C43.1116 70.0021 43.3183 69.3853 43.6342 68.8232C44.1067 67.9913 44.7346 67.2578 45.4838 66.6628C46.4094 65.9517 47.4183 65.3561 48.4881 64.8894C49.6112 64.3691 50.7088 63.9217 51.6606 63.4332C52.5097 63.0103 53.3097 62.4954 54.0463 61.8977C54.5389 61.4892 54.978 61.0202 55.3533 60.5018C55.4802 60.3146 55.5786 60.1846 55.6357 60.064C55.6636 60.0106 55.6943 59.9587 55.7277 59.9086Z" fill="white"/>
<path d="M54.649 64.7656C54.649 64.7656 54.649 64.6895 54.649 64.5531C54.6346 64.361 54.6017 64.1709 54.5507 63.9852C54.3583 63.3775 54.0737 62.8029 53.7068 62.2816C53.5038 61.9643 53.3071 61.6724 53.1072 61.4155C52.9154 61.1956 52.7688 60.9401 52.6758 60.6636C52.6287 60.4727 52.619 60.2745 52.6472 60.0799C52.6472 60.0101 52.6694 59.9593 52.6758 59.9244C52.6735 59.9065 52.6735 59.8884 52.6758 59.8705C52.6738 59.9417 52.6675 60.0127 52.6567 60.083C52.6397 60.2737 52.6558 60.4658 52.7043 60.6509C52.8013 60.9187 52.9488 61.1654 53.1389 61.3774C53.3567 61.6558 53.559 61.946 53.7449 62.2467C54.1176 62.7716 54.4007 63.3548 54.5824 63.9725C54.6279 64.1618 54.6534 64.3553 54.6586 64.5499C54.6586 64.6197 54.6586 64.6736 54.6586 64.7085C54.6586 64.7434 54.6522 64.7656 54.649 64.7656Z" fill="white"/>
<path d="M35.8617 67.1799C35.675 67.321 35.4728 67.4403 35.2589 67.5352C34.6746 67.8 34.0413 67.9395 33.3998 67.9445C32.4473 67.9525 31.5027 67.7714 30.6207 67.4115C29.6182 67.034 28.5872 66.4598 27.4863 65.9141C26.4676 65.3678 25.3708 64.9815 24.2345 64.7688C23.737 64.6901 23.231 64.6805 22.7308 64.7403C22.2928 64.7929 21.8651 64.9106 21.4618 65.0893C20.8735 65.3361 20.3596 65.7319 19.9707 66.2377C19.911 66.3169 19.8559 66.3995 19.8058 66.4851C19.7655 66.546 19.7294 66.6096 19.6979 66.6755C19.6471 66.7834 19.6154 66.8373 19.6154 66.8373C19.6154 66.8373 19.6376 66.7802 19.6852 66.6691C19.7154 66.6022 19.7504 66.5375 19.7899 66.4756C19.8372 66.387 19.8913 66.3021 19.9517 66.2218C20.3346 65.7033 20.8495 65.2969 21.4428 65.0448C21.8463 64.8643 22.2737 64.7426 22.7118 64.6832C23.216 64.6222 23.7263 64.6308 24.2282 64.7086C25.3725 64.9192 26.4771 65.3066 27.5022 65.857C28.6062 66.4058 29.6341 66.9769 30.6302 67.3544C31.5038 67.7142 32.4392 67.8996 33.384 67.9001C34.0214 67.8985 34.6519 67.7668 35.2367 67.513C35.3948 67.4441 35.5475 67.3636 35.6935 67.2719C35.8014 67.2085 35.8617 67.1799 35.8617 67.1799Z" fill="white"/>
<path d="M28.8759 76.5165C28.8759 76.5165 28.8315 76.4404 28.7553 76.2944C28.6491 76.0768 28.5641 75.8495 28.5015 75.6155C28.2925 74.7489 28.2741 73.8473 28.4476 72.9729C28.5364 72.4177 28.6855 71.8181 28.8441 71.1804C29.0276 70.5038 29.1675 69.816 29.2629 69.1215C29.4138 67.5204 29.2577 65.9053 28.8029 64.3628C28.3619 62.7099 27.756 61.1903 27.2706 59.7881C26.8116 58.5509 26.4572 57.2775 26.211 55.9811C26.0125 55.1093 26.062 54.1994 26.3538 53.3543C26.4472 53.13 26.5745 52.9213 26.7313 52.7356C26.8423 52.6151 26.9058 52.558 26.9058 52.558C26.6804 52.7905 26.5017 53.0641 26.3791 53.3638C26.098 54.2062 26.0563 55.11 26.2586 55.9747C26.511 57.2634 26.8686 58.5292 27.3277 59.7595C27.8163 61.1586 28.4254 62.6782 28.8663 64.3342C29.3239 65.886 29.479 67.5112 29.3232 69.1215C29.2248 69.8181 29.0828 70.5079 28.8981 71.1868C28.7363 71.8212 28.5808 72.4208 28.492 72.9729C28.3172 73.8421 28.3291 74.7385 28.5269 75.6028C28.5884 75.835 28.668 76.062 28.7648 76.2817L28.8759 76.5165Z" fill="white"/>
<path d="M29.485 85.3138C29.4821 85.2853 29.4821 85.2566 29.485 85.2281C29.485 85.1584 29.504 85.079 29.5135 84.9934C29.6503 83.7435 29.4714 82.4793 28.9932 81.3165C28.7775 80.7962 28.5047 80.333 28.2889 79.892C28.0856 79.5067 27.931 79.0974 27.8289 78.6738C27.7613 78.3861 27.7409 78.0893 27.7687 77.795C27.7775 77.6875 27.7978 77.5811 27.8289 77.4778C27.8289 77.4778 27.8067 77.5888 27.794 77.795C27.7777 78.085 27.8044 78.3758 27.8734 78.6579C27.9831 79.0729 28.1418 79.4733 28.3461 79.8508C28.5618 80.2886 28.8378 80.755 29.0567 81.2784C29.4316 82.1742 29.6195 83.1372 29.6087 84.1083C29.6109 84.5134 29.5694 84.9176 29.485 85.3138Z" fill="white"/>
<path d="M35.1669 85.2948C35.1669 85.2948 35.1288 85.2281 35.0622 85.0949C34.9659 84.9044 34.8863 84.7059 34.8242 84.5016C34.6006 83.7427 34.5305 82.9467 34.618 82.1604C34.6678 81.6185 34.7569 81.0809 34.8845 80.5519C35.0209 79.9809 35.2018 79.3781 35.3699 78.7436C35.7157 77.4746 36.0901 76.047 35.8648 74.5369C35.6396 73.0268 35.0558 71.6817 34.7481 70.4127C34.4756 69.2707 34.3688 68.0954 34.4309 66.923C34.4686 66.1353 34.5833 65.3533 34.7735 64.588C34.9099 64.0487 35.0178 63.76 35.0178 63.76C35.0178 63.76 35.0019 63.8362 34.9607 63.9757C34.9194 64.1153 34.8655 64.3247 34.7989 64.5944C34.3493 66.4991 34.358 68.4834 34.8242 70.3841C35.1415 71.6531 35.7189 73.0046 35.9473 74.5084C36.1757 76.0121 35.795 77.4841 35.4461 78.7404C35.2684 79.3749 35.0907 79.9745 34.9543 80.5456C34.8259 81.0673 34.7337 81.5973 34.6783 82.1318C34.5888 82.9126 34.6513 83.7034 34.8623 84.4604C34.9234 84.6653 34.9987 84.8656 35.0876 85.06C35.1193 85.2218 35.1669 85.2948 35.1669 85.2948Z" fill="white"/>
<path d="M21.8425 80.1934C21.8389 80.2622 21.8272 80.3303 21.8076 80.3964C21.7822 80.5265 21.7473 80.7136 21.7188 80.9484C21.6368 81.5606 21.6272 82.1803 21.6902 82.7948C21.7563 83.4131 21.8925 84.0219 22.0963 84.6094C22.1788 84.8315 22.2486 85.0092 22.3025 85.1297C22.3351 85.1912 22.3606 85.2561 22.3786 85.3233C22.3425 85.2648 22.3097 85.2045 22.2803 85.1424C22.22 85.0219 22.1407 84.8474 22.055 84.6253C21.8314 84.0442 21.6853 83.4362 21.6204 82.817C21.5552 82.198 21.5701 81.5731 21.6648 80.9579C21.692 80.7718 21.7301 80.5875 21.779 80.4059C21.7929 80.3331 21.8141 80.2619 21.8425 80.1934Z" fill="white"/>
<path d="M20.4339 54.4487L20.491 54.4836C20.5506 54.5162 20.6069 54.5544 20.6592 54.5978C20.863 54.7616 21.025 54.9715 21.1319 55.2101C21.2882 55.5924 21.3638 56.0028 21.3539 56.4157C21.3596 56.9604 21.2923 57.5035 21.1541 58.0305C21.0176 58.6205 20.8368 59.2519 20.7194 59.953C20.6051 60.697 20.5584 61.4498 20.5798 62.2023C20.6596 63.9285 20.9104 65.6427 21.3285 67.3195C21.7473 68.9983 22.0777 70.6979 22.3184 72.4113C22.5046 73.8166 22.4704 75.2423 22.2168 76.637C22.0465 77.5772 21.7251 78.4835 21.2651 79.3209C21.1384 79.5468 20.9986 79.765 20.8463 79.9745L20.6845 80.1902C20.6845 80.1902 20.7353 80.1109 20.8368 79.9649C20.9383 79.819 21.0779 79.6001 21.2429 79.3082C21.6994 78.4715 22.0207 77.5678 22.1946 76.6307C22.4402 75.2403 22.4701 73.8203 22.2835 72.4208C22.0389 70.7128 21.7064 69.0186 21.2873 67.3448C20.8696 65.6627 20.6199 63.9432 20.5418 62.2118C20.5234 61.4559 20.5733 60.6999 20.6909 59.953C20.7987 59.2487 21.0081 58.6142 21.135 58.0305C21.2731 57.5065 21.3434 56.967 21.3444 56.4252C21.3539 56.0163 21.2816 55.6097 21.1319 55.2292C21.0302 54.9918 20.8736 54.7819 20.675 54.6169C20.5132 54.4963 20.4276 54.4709 20.4339 54.4487Z" fill="white"/>
<path d="M26.8899 77.8933L26.8201 77.8552L26.6329 77.7378C26.4743 77.6332 26.2332 77.4967 25.9318 77.3413C25.1327 76.9401 24.2767 76.6641 23.3938 76.5228C22.5138 76.3888 21.6185 76.3888 20.7385 76.5228C20.4022 76.5767 20.1293 76.6338 19.9453 76.6814L19.7328 76.7353H19.6566C20.0065 76.6139 20.3664 76.5237 20.7321 76.4657C22.5226 76.1625 24.3632 76.4603 25.9667 77.3127C26.2902 77.4799 26.599 77.6741 26.8899 77.8933Z" fill="white"/>
<path d="M36.1535 76.4276L36.0742 76.4562L35.8458 76.5291L35.0019 76.7861L33.7488 77.1605C33.2761 77.3 32.7558 77.4587 32.2006 77.5824C31.6806 77.707 31.149 77.7772 30.6144 77.7918C30.1749 77.7993 29.7364 77.748 29.3105 77.6395C29.0251 77.5665 28.7493 77.46 28.4888 77.3223C28.3947 77.2697 28.3046 77.2103 28.2192 77.1446C28.2192 77.1446 28.3175 77.2049 28.5015 77.2969C28.7621 77.4342 29.0379 77.5407 29.3232 77.6141C29.7457 77.7165 30.1797 77.7634 30.6144 77.7537C31.149 77.7372 31.6805 77.666 32.2006 77.5412C32.7558 77.4174 33.2729 77.262 33.7456 77.1256L35.0146 76.7639L35.8648 76.526L36.0964 76.4657C36.1139 76.4508 36.133 76.438 36.1535 76.4276Z" fill="white"/>
<path d="M31.9563 71.6499L31.9024 71.7927C31.858 71.9037 31.8041 72.0369 31.7374 72.1956C31.655 72.4126 31.5596 72.6244 31.4519 72.8301C31.3282 73.068 31.2045 73.3504 31.0236 73.6359L30.7508 74.0927C30.6556 74.2513 30.5382 74.41 30.4336 74.5717C30.2178 74.9049 29.945 75.2316 29.6658 75.5838C28.4134 77.0792 26.8699 78.3043 25.1292 79.1845C24.7263 79.3781 24.3456 79.5684 23.968 79.7048C23.784 79.7746 23.6064 79.8539 23.4319 79.911L22.9243 80.0697C22.6071 80.1839 22.2898 80.241 22.0424 80.3076C21.8199 80.3659 21.5943 80.4114 21.3666 80.444L20.9352 80.5106C20.8368 80.5265 20.7861 80.5297 20.7861 80.5297L20.9352 80.4979L21.3603 80.4186C21.5475 80.3869 21.7759 80.3425 22.0328 80.2727C22.2898 80.2029 22.5912 80.1394 22.9116 80.0252L23.4129 79.8634C23.5874 79.8032 23.765 79.7239 23.949 79.6541C24.3234 79.5145 24.7009 79.3368 25.1038 79.1306C25.9627 78.6848 26.7784 78.1601 27.5403 77.5634C28.2933 76.956 28.9889 76.2806 29.6182 75.5457C29.8974 75.1967 30.1702 74.87 30.3891 74.54C30.5002 74.3751 30.6176 74.2228 30.7064 74.0642L30.9824 73.6137C31.1664 73.3281 31.2996 73.049 31.4202 72.8142C31.5407 72.5794 31.6423 72.3669 31.7152 72.1797L31.8897 71.78C31.931 71.6975 31.9563 71.6499 31.9563 71.6499Z" fill="#263238"/>
<g opacity="0.3">
<path d="M22.3659 80.1839C22.2264 80.2219 22.2391 79.9206 22.2422 79.7746C22.256 79.5435 22.3582 79.3265 22.5277 79.1687C22.9068 78.8657 23.3565 78.6638 23.8348 78.5818C24.6101 78.3605 25.3558 78.0463 26.0555 77.6459C27.0263 77.0476 27.9424 76.365 28.7934 75.606L30.7635 73.9563C28.8558 77.0224 25.8538 79.2486 22.3659 80.1839Z" fill="black"/>
</g>
<g opacity="0.3">
<path d="M32.6701 60.7524C33.8662 64.5118 34.7893 68.4584 35.9885 72.2178L35.703 64.4293C34.5387 63.3387 33.5194 62.103 32.6701 60.7524Z" fill="black"/>
</g>
<path d="M56.4764 61.7106L57.6692 60.4416C57.6692 60.4416 59.0651 60.486 59.2904 60.2163C59.5156 59.9467 61.4889 57.7989 61.4889 57.7989C61.2698 57.5176 60.9914 57.288 60.6736 57.1263C60.2453 56.9042 60.3151 56.9804 60.001 56.8281C59.4268 56.5521 59.8931 56.2698 59.3887 56.1936C59.0969 56.146 58.456 56.6663 58.2054 56.8281L55.2867 58.684L56.4764 61.7106Z" fill="#B78876"/>
<path d="M56.3654 58.1034C56.3241 57.9226 57.0792 56.5172 56.9776 55.9811C56.8761 55.4449 57.4281 55.6321 57.5297 55.9811C57.6312 56.33 57.7676 57.1105 57.7676 57.1105L56.3654 58.1034Z" fill="#B78876"/>
<path d="M58.5068 56.5997C58.5068 56.5997 58.0246 56.9455 57.4123 57.3421C57.0473 57.5916 56.6692 57.8214 56.2797 58.0305C56.2797 58.0146 56.7619 57.6815 57.3742 57.285C57.9865 56.8884 58.4973 56.5839 58.5068 56.5997Z" fill="#AA6550"/>
<path d="M60.0645 56.8122C59.9831 56.8078 59.9015 56.8078 59.8202 56.8122C59.6248 56.8273 59.4373 56.8953 59.2777 57.0089C59.1196 57.1284 58.9768 57.2669 58.8526 57.4213C58.8035 57.4877 58.7471 57.5484 58.6844 57.6021C58.7172 57.5256 58.7622 57.4549 58.8177 57.3928C58.9336 57.2259 59.0749 57.0782 59.2364 56.955C59.4033 56.832 59.6035 56.7623 59.8107 56.7551C59.8992 56.7463 59.9882 56.7663 60.0645 56.8122Z" fill="#AA6550"/>
<path d="M60.902 57.2659C60.8216 57.2448 60.7431 57.2172 60.6672 57.1834C60.5787 57.1468 60.4823 57.1337 60.3872 57.1454C60.2921 57.157 60.2017 57.1931 60.1247 57.25C59.9031 57.4277 59.6913 57.6173 59.4902 57.8179C59.5257 57.7415 59.574 57.6718 59.633 57.6117C59.7636 57.4557 59.9128 57.3161 60.0771 57.1961C60.1686 57.1263 60.2794 57.0864 60.3944 57.0819C60.5738 57.089 60.7462 57.1535 60.8861 57.2659H60.902Z" fill="#AA6550"/>
<path d="M36.1694 39.5603C36.3439 40.9594 34.3864 41.7811 34.3864 41.7811L34.0438 45.0931C33.7375 45.0713 33.4301 45.0713 33.1238 45.0931C33.2888 43.5386 31.2869 43.8432 31.0839 44.9028C30.8809 45.9624 32.0356 46.6032 32.0356 46.6032C31.233 47.8342 30.9094 48.4813 29.7705 49.633C28.5396 50.8797 27.867 50.9813 26.598 50.9432L25.199 50.8797C25.199 50.8797 24.7009 49.6837 24.336 46.8602C24.1584 45.4992 23.0988 43.7195 23.3843 41.5082C24.244 35.2299 30.2591 35.893 30.2591 35.893C33.4188 35.9723 35.757 36.3181 36.1694 39.5603Z" fill="#263238"/>
</svg>
