<svg width="32" height="32" viewBox="0 0 32 32" fill="none" xmlns="http://www.w3.org/2000/svg">
<path d="M11.146 10.5953C11.146 10.5953 5.18898 11.2593 1.21511 11.7033C0.85693 11.7469 0.540227 11.9879 0.421463 12.3541C0.302699 12.7202 0.421463 13.1016 0.685382 13.3425C3.63751 16.0537 8.07325 20.1138 8.07325 20.1138C8.06948 20.1138 6.85545 26.02 6.04861 29.9606C5.98074 30.3173 6.10893 30.6948 6.4181 30.9206C6.72538 31.1464 7.12126 31.1502 7.4323 30.9737C10.9085 28.9854 16.1153 25.9953 16.1153 25.9953C16.1153 25.9953 21.3239 28.9854 24.7945 30.9756C25.1112 31.1502 25.507 31.1464 25.8143 30.9206C26.1235 30.6948 26.2517 30.3173 26.1819 29.9625C25.3751 26.02 24.1629 20.1138 24.1629 20.1138C24.1629 20.1138 28.5987 16.0537 31.5508 13.3482C31.8147 13.0997 31.9316 12.7183 31.8147 12.3541C31.6978 11.9898 31.3811 11.7488 31.023 11.7071C27.0491 11.2593 21.0902 10.5953 21.0902 10.5953C21.0902 10.5953 18.6206 5.09707 16.9749 1.43157C16.8203 1.10335 16.4961 0.873779 16.1153 0.873779C15.7345 0.873779 15.4083 1.10524 15.2613 1.43157C13.6137 5.09707 11.146 10.5953 11.146 10.5953Z" fill="#A72329"/>
</svg>
