<svg width="31" height="26" viewBox="0 0 31 26" fill="none" xmlns="http://www.w3.org/2000/svg">
<path d="M30.4254 1.01345C29.1446 1.91691 27.7264 2.60792 26.2256 3.05985C25.4201 2.13364 24.3495 1.47716 23.1587 1.1792C21.9679 0.88125 20.7143 0.956198 19.5675 1.39391C18.4207 1.83162 17.436 2.61098 16.7466 3.62658C16.0571 4.64218 15.6962 5.84501 15.7127 7.07241V8.40992C13.3622 8.47087 11.0331 7.94957 8.93283 6.89244C6.83257 5.83531 5.02635 4.27517 3.67504 2.35097C3.67504 2.35097 -1.67504 14.3886 10.3626 19.7387C7.60805 21.6085 4.32662 22.5461 1 22.4137C13.0377 29.1013 27.7504 22.4137 27.7504 7.03228C27.7491 6.65972 27.7133 6.28808 27.6434 5.92214C29.0084 4.57592 29.9718 2.87623 30.4254 1.01345Z" stroke="black" stroke-linecap="round" stroke-linejoin="round"/>
</svg>
