<svg width="48" height="50" viewBox="0 0 48 50" fill="none" xmlns="http://www.w3.org/2000/svg">
<path d="M14.0576 35.72C14.2573 35.8701 14.4846 35.9793 14.7266 36.0414C14.9685 36.1036 15.2203 36.1174 15.4676 36.0821C15.7149 36.0468 15.9528 35.9631 16.1677 35.8357C16.3826 35.7084 16.5703 35.5399 16.72 35.34C17.8704 33.8062 19.362 32.5613 21.0769 31.7038C22.7918 30.8464 24.6827 30.4 26.6 30.4C28.5173 30.4 30.4082 30.8464 32.1231 31.7038C33.838 32.5613 35.3296 33.8062 36.48 35.34C36.6297 35.5396 36.8173 35.7078 37.032 35.8349C37.2467 35.962 37.4843 36.0456 37.7313 36.0809C37.9783 36.1162 38.2298 36.1025 38.4715 36.0406C38.7132 35.9786 38.9404 35.8697 39.14 35.72C39.3396 35.5703 39.5078 35.3827 39.6349 35.168C39.762 34.9533 39.8456 34.7157 39.8809 34.4687C39.9162 34.2217 39.9025 33.9702 39.8406 33.7285C39.7786 33.4868 39.6697 33.2596 39.52 33.06C37.8374 30.8045 35.594 29.0286 33.0125 27.9086C34.4273 26.617 35.4185 24.9277 35.856 23.0627C36.2936 21.1976 36.157 19.2438 35.4643 17.4577C34.7716 15.6716 33.5551 14.1367 31.9745 13.0544C30.3938 11.972 28.5228 11.3928 26.6071 11.3928C24.6914 11.3928 22.8205 11.972 21.2398 13.0544C19.6591 14.1367 18.4426 15.6716 17.7499 17.4577C17.0572 19.2438 16.9207 21.1976 17.3582 23.0627C17.7958 24.9277 18.787 26.617 20.2017 27.9086C17.6151 29.0265 15.3665 30.8026 13.68 33.06C13.3774 33.4628 13.2472 33.9694 13.318 34.4682C13.3888 34.967 13.6549 35.4173 14.0576 35.72ZM20.9 20.9C20.9 19.7726 21.2343 18.6706 21.8606 17.7332C22.4869 16.7959 23.3772 16.0653 24.4187 15.6339C25.4602 15.2025 26.6063 15.0896 27.712 15.3095C28.8177 15.5295 29.8333 16.0723 30.6305 16.8695C31.4277 17.6667 31.9705 18.6823 32.1905 19.788C32.4104 20.8937 32.2975 22.0398 31.8661 23.0813C31.4347 24.1228 30.7041 25.0131 29.7667 25.6394C28.8294 26.2657 27.7274 26.6 26.6 26.6C25.0883 26.6 23.6384 25.9995 22.5695 24.9305C21.5005 23.8616 20.9 22.4117 20.9 20.9ZM43.7 0H9.5C8.49218 0 7.52563 0.400356 6.81299 1.11299C6.10036 1.82563 5.7 2.79218 5.7 3.8V9.5H1.9C1.39609 9.5 0.912816 9.70018 0.556497 10.0565C0.200178 10.4128 0 10.8961 0 11.4C0 11.9039 0.200178 12.3872 0.556497 12.7435C0.912816 13.0998 1.39609 13.3 1.9 13.3H5.7V22.8H1.9C1.39609 22.8 0.912816 23.0002 0.556497 23.3565C0.200178 23.7128 0 24.1961 0 24.7C0 25.2039 0.200178 25.6872 0.556497 26.0435C0.912816 26.3998 1.39609 26.6 1.9 26.6H5.7V36.1H1.9C1.39609 36.1 0.912816 36.3002 0.556497 36.6565C0.200178 37.0128 0 37.4961 0 38C0 38.5039 0.200178 38.9872 0.556497 39.3435C0.912816 39.6998 1.39609 39.9 1.9 39.9H5.7V45.6C5.7 46.6078 6.10036 47.5744 6.81299 48.287C7.52563 48.9996 8.49218 49.4 9.5 49.4H43.7C44.7078 49.4 45.6744 48.9996 46.387 48.287C47.0996 47.5744 47.5 46.6078 47.5 45.6V3.8C47.5 2.79218 47.0996 1.82563 46.387 1.11299C45.6744 0.400356 44.7078 0 43.7 0ZM43.7 45.6H9.5V3.8H43.7V45.6Z" fill="black"/>
</svg>
