<svg width="406" height="407" viewBox="0 0 406 407" fill="none" xmlns="http://www.w3.org/2000/svg">
<g clip-path="url(#clip0_7_79)">
<path d="M329.332 268.965H230.198C226.162 268.965 222.89 272.236 222.89 276.27V330.01C222.89 334.045 226.162 337.315 230.198 337.315H329.332C333.368 337.315 336.64 334.045 336.64 330.01V276.27C336.64 272.236 333.368 268.965 329.332 268.965Z" fill="white"/>
<path opacity="0.1" d="M329.332 268.965H230.198C226.162 268.965 222.89 272.236 222.89 276.27V330.01C222.89 334.045 226.162 337.315 230.198 337.315H329.332C333.368 337.315 336.64 334.045 336.64 330.01V276.27C336.64 272.236 333.368 268.965 329.332 268.965Z" fill="#A72329"/>
<path d="M305.307 305.614H296.529C295.995 305.614 295.561 306.047 295.561 306.581V326.03C295.561 326.564 295.995 326.997 296.529 326.997H305.307C305.841 326.997 306.274 326.564 306.274 326.03V306.581C306.274 306.047 305.841 305.614 305.307 305.614Z" fill="white"/>
<path d="M326.46 288.984H317.682C317.147 288.984 316.714 289.417 316.714 289.951V326.03C316.714 326.564 317.147 326.997 317.682 326.997H326.46C326.994 326.997 327.427 326.564 327.427 326.03V289.951C327.427 289.417 326.994 288.984 326.46 288.984Z" fill="white"/>
<path d="M241.847 305.614H233.07C232.535 305.614 232.102 306.047 232.102 306.581V326.03C232.102 326.564 232.535 326.997 233.07 326.997H241.847C242.382 326.997 242.815 326.564 242.815 326.03V306.581C242.815 306.047 242.382 305.614 241.847 305.614Z" fill="white"/>
<path d="M263.001 281.423H254.223C253.688 281.423 253.255 281.856 253.255 282.39V326.03C253.255 326.564 253.688 326.997 254.223 326.997H263.001C263.535 326.997 263.968 326.564 263.968 326.03V282.39C263.968 281.856 263.535 281.423 263.001 281.423Z" fill="white"/>
<path d="M284.153 300.821H275.376C274.841 300.821 274.408 301.254 274.408 301.789V326.03C274.408 326.564 274.841 326.997 275.376 326.997H284.153C284.688 326.997 285.121 326.564 285.121 326.03V301.789C285.121 301.254 284.688 300.821 284.153 300.821Z" fill="white"/>
<path d="M150.915 227.162H25.0967C19.9742 227.162 15.8215 231.313 15.8215 236.434V304.639C15.8215 309.759 19.9742 313.91 25.0967 313.91H150.915C156.038 313.91 160.191 309.759 160.191 304.639V236.434C160.191 231.313 156.038 227.162 150.915 227.162Z" fill="white"/>
<path opacity="0.1" d="M150.915 227.162H25.0967C19.9742 227.162 15.8215 231.313 15.8215 236.434V304.639C15.8215 309.759 19.9742 313.91 25.0967 313.91H150.915C156.038 313.91 160.191 309.759 160.191 304.639V236.434C160.191 231.313 156.038 227.162 150.915 227.162Z" fill="#A72329"/>
<path d="M120.424 273.676H109.283C108.605 273.676 108.055 274.226 108.055 274.904V299.587C108.055 300.265 108.605 300.815 109.283 300.815H120.424C121.102 300.815 121.652 300.265 121.652 299.587V274.904C121.652 274.226 121.102 273.676 120.424 273.676Z" fill="white"/>
<path d="M147.271 252.57H136.13C135.452 252.57 134.902 253.119 134.902 253.797V299.588C134.902 300.266 135.452 300.815 136.13 300.815H147.271C147.949 300.815 148.499 300.266 148.499 299.588V253.797C148.499 253.119 147.949 252.57 147.271 252.57Z" fill="white"/>
<path d="M39.8818 273.676H28.741C28.0628 273.676 27.513 274.226 27.513 274.904V299.587C27.513 300.265 28.0628 300.815 28.741 300.815H39.8818C40.56 300.815 41.1098 300.265 41.1098 299.587V274.904C41.1098 274.226 40.56 273.676 39.8818 273.676Z" fill="white"/>
<path d="M66.7289 242.973H55.5881C54.9099 242.973 54.3601 243.522 54.3601 244.2V299.587C54.3601 300.265 54.9099 300.815 55.5881 300.815H66.7289C67.4071 300.815 67.9569 300.265 67.9569 299.587V244.2C67.9569 243.522 67.4071 242.973 66.7289 242.973Z" fill="white"/>
<path d="M93.5765 267.593H82.4357C81.7575 267.593 81.2077 268.143 81.2077 268.821V299.587C81.2077 300.265 81.7575 300.815 82.4357 300.815H93.5765C94.2547 300.815 94.8045 300.265 94.8045 299.587V268.821C94.8045 268.143 94.2547 267.593 93.5765 267.593Z" fill="white"/>
<path d="M389.459 0H244.958C239.075 0 234.305 4.76749 234.305 10.6485V88.9822C234.305 94.8632 239.075 99.6307 244.958 99.6307H389.459C395.343 99.6307 400.112 94.8632 400.112 88.9822V10.6485C400.112 4.76749 395.343 0 389.459 0Z" fill="white"/>
<path opacity="0.1" d="M389.459 0H244.958C239.075 0 234.305 4.76749 234.305 10.6485V88.9822C234.305 94.8632 239.075 99.6307 244.958 99.6307H389.459C395.343 99.6307 400.112 94.8632 400.112 88.9822V10.6485C400.112 4.76749 395.343 0 389.459 0Z" fill="#A72329"/>
<path d="M354.44 53.4216H341.645C340.866 53.4216 340.235 54.0528 340.235 54.8314V83.1808C340.235 83.9594 340.866 84.5905 341.645 84.5905H354.44C355.219 84.5905 355.85 83.9594 355.85 83.1808V54.8314C355.85 54.0528 355.219 53.4216 354.44 53.4216Z" fill="white"/>
<path d="M385.274 29.1807H372.479C371.7 29.1807 371.068 29.8118 371.068 30.5904V83.1807C371.068 83.9592 371.7 84.5904 372.479 84.5904H385.274C386.053 84.5904 386.684 83.9592 386.684 83.1807V30.5904C386.684 29.8118 386.053 29.1807 385.274 29.1807Z" fill="white"/>
<path d="M261.938 53.4216H249.143C248.365 53.4216 247.733 54.0528 247.733 54.8314V83.1808C247.733 83.9594 248.365 84.5905 249.143 84.5905H261.938C262.717 84.5905 263.349 83.9594 263.349 83.1808V54.8314C263.349 54.0528 262.717 53.4216 261.938 53.4216Z" fill="white"/>
<path d="M292.772 18.1589H279.977C279.199 18.1589 278.567 18.7901 278.567 19.5687V83.1807C278.567 83.9593 279.199 84.5905 279.977 84.5905H292.772C293.551 84.5905 294.183 83.9593 294.183 83.1807V19.5687C294.183 18.7901 293.551 18.1589 292.772 18.1589Z" fill="white"/>
<path d="M323.606 46.4351H310.811C310.032 46.4351 309.401 47.0662 309.401 47.8448V83.1804C309.401 83.959 310.032 84.5902 310.811 84.5902H323.606C324.385 84.5902 325.016 83.959 325.016 83.1804V47.8448C325.016 47.0662 324.385 46.4351 323.606 46.4351Z" fill="white"/>
<path d="M75.6881 82.2334H5.19633C2.32647 82.2334 0 84.559 0 87.4277V125.641C0 128.51 2.32647 130.835 5.19633 130.835H75.6881C78.558 130.835 80.8844 128.51 80.8844 125.641V87.4277C80.8844 84.559 78.558 82.2334 75.6881 82.2334Z" fill="white"/>
<path opacity="0.3" d="M75.6881 82.2334H5.19633C2.32647 82.2334 0 84.559 0 87.4277V125.641C0 128.51 2.32647 130.835 5.19633 130.835H75.6881C78.558 130.835 80.8844 128.51 80.8844 125.641V87.4277C80.8844 84.559 78.558 82.2334 75.6881 82.2334Z" fill="#A72329"/>
<path d="M58.6049 108.293H52.3629C51.983 108.293 51.675 108.601 51.675 108.981V122.811C51.675 123.191 51.983 123.498 52.3629 123.498H58.6049C58.9848 123.498 59.2927 123.191 59.2927 122.811V108.981C59.2927 108.601 58.9848 108.293 58.6049 108.293Z" fill="white"/>
<path d="M73.6461 96.468H67.4041C67.0242 96.468 66.7163 96.7759 66.7163 97.1556V122.81C66.7163 123.19 67.0242 123.498 67.4041 123.498H73.6461C74.026 123.498 74.334 123.19 74.334 122.81V97.1556C74.334 96.7759 74.026 96.468 73.6461 96.468Z" fill="white"/>
<path d="M13.4803 108.293H7.23831C6.85843 108.293 6.55048 108.601 6.55048 108.981V122.811C6.55048 123.191 6.85843 123.498 7.23831 123.498H13.4803C13.8602 123.498 14.1682 123.191 14.1682 122.811V108.981C14.1682 108.601 13.8602 108.293 13.4803 108.293Z" fill="white"/>
<path d="M28.522 91.0916H22.28C21.9001 91.0916 21.5921 91.3994 21.5921 91.7791V122.811C21.5921 123.191 21.9001 123.498 22.28 123.498H28.522C28.9019 123.498 29.2098 123.191 29.2098 122.811V91.7791C29.2098 91.3994 28.9019 91.0916 28.522 91.0916Z" fill="white"/>
<path d="M43.5632 104.885H37.3212C36.9413 104.885 36.6334 105.193 36.6334 105.573V122.811C36.6334 123.19 36.9413 123.498 37.3212 123.498H43.5632C43.9431 123.498 44.2511 123.19 44.2511 122.811V105.573C44.2511 105.193 43.9431 104.885 43.5632 104.885Z" fill="white"/>
<path d="M67.205 254.501L351.913 254.501C358.905 254.501 364.573 248.835 364.573 241.846V33.4766C364.573 26.4876 358.905 20.8219 351.913 20.8219L67.205 20.8219C60.2133 20.8219 54.5454 26.4876 54.5454 33.4766V241.846C54.5454 248.835 60.2133 254.501 67.205 254.501Z" fill="white"/>
<path d="M54.123 241.846V33.4766C54.1269 30.0097 55.5064 26.686 57.9588 24.2345C60.4112 21.783 63.7363 20.4041 67.2045 20.4001H351.913C355.381 20.4041 358.706 21.783 361.159 24.2345C363.611 26.686 364.99 30.0097 364.994 33.4766V241.846C364.99 245.313 363.611 248.637 361.159 251.089C358.706 253.54 355.381 254.919 351.913 254.923H67.2045C63.7363 254.919 60.4112 253.54 57.9588 251.089C55.5064 248.637 54.1269 245.313 54.123 241.846ZM67.2045 21.2438C63.9601 21.2476 60.8496 22.5376 58.5554 24.8309C56.2613 27.1242 54.9707 30.2335 54.9669 33.4766V241.846C54.9706 245.09 56.2611 248.199 58.5553 250.492C60.8495 252.786 63.96 254.076 67.2045 254.079H351.913C355.157 254.076 358.268 252.786 360.562 250.492C362.856 248.199 364.147 245.09 364.15 241.846V33.4766C364.147 30.2334 362.856 27.1241 360.562 24.8308C358.268 22.5375 355.157 21.2475 351.913 21.2438H67.2045Z" fill="#292A2E"/>
<path d="M54.5454 33.4755V46.209H364.571V33.4755C364.571 30.1192 363.237 26.9005 360.863 24.5273C358.489 22.1541 355.269 20.8208 351.912 20.8208H67.2049C63.8474 20.8208 60.6274 22.1541 58.2533 24.5273C55.8791 26.9005 54.5454 30.1192 54.5454 33.4755Z" fill="#292A2E"/>
<path d="M347.821 58.3088H227.02C224.055 58.3088 221.652 60.7117 221.652 63.6757V149.098C221.652 152.062 224.055 154.465 227.02 154.465H347.821C350.786 154.465 353.19 152.062 353.19 149.098V63.6757C353.19 60.7117 350.786 58.3088 347.821 58.3088Z" fill="white"/>
<path opacity="0.15" d="M347.821 58.3088H227.02C224.055 58.3088 221.652 60.7117 221.652 63.6757V149.098C221.652 152.062 224.055 154.465 227.02 154.465H347.821C350.786 154.465 353.19 152.062 353.19 149.098V63.6757C353.19 60.7117 350.786 58.3088 347.821 58.3088Z" fill="#A72329"/>
<path d="M245.262 70.3076H234.822C234.337 70.3076 233.944 70.7006 233.944 71.1854V141.588C233.944 142.073 234.337 142.466 234.822 142.466H245.262C245.747 142.466 246.14 142.073 246.14 141.588V71.1854C246.14 70.7006 245.747 70.3076 245.262 70.3076Z" fill="#FAFAFA"/>
<path opacity="0.6" d="M233.944 105.679H246.139V141.588C246.139 141.821 246.046 142.045 245.882 142.209C245.717 142.374 245.494 142.466 245.261 142.466H234.822C234.589 142.466 234.365 142.374 234.201 142.209C234.036 142.045 233.944 141.821 233.944 141.588V105.679Z" fill="#A72329"/>
<path d="M268.951 70.3076H258.511C258.026 70.3076 257.633 70.7006 257.633 71.1854V141.588C257.633 142.073 258.026 142.466 258.511 142.466H268.951C269.436 142.466 269.83 142.073 269.83 141.588V71.1854C269.83 70.7006 269.436 70.3076 268.951 70.3076Z" fill="#FAFAFA"/>
<path opacity="0.6" d="M257.633 95.6777H269.828V141.588C269.828 141.821 269.736 142.044 269.571 142.209C269.406 142.373 269.183 142.466 268.95 142.466H258.511C258.278 142.466 258.055 142.373 257.89 142.209C257.725 142.044 257.633 141.821 257.633 141.588V95.6777Z" fill="#A72329"/>
<path d="M340.02 70.3076H329.58C329.095 70.3076 328.702 70.7006 328.702 71.1854V141.588C328.702 142.073 329.095 142.466 329.58 142.466H340.02C340.505 142.466 340.898 142.073 340.898 141.588V71.1854C340.898 70.7006 340.505 70.3076 340.02 70.3076Z" fill="#FAFAFA"/>
<path opacity="0.6" d="M328.702 85.5876H340.897V141.589C340.897 141.822 340.804 142.045 340.64 142.21C340.475 142.374 340.252 142.467 340.019 142.467H329.58C329.347 142.467 329.124 142.374 328.959 142.21C328.795 142.045 328.702 141.822 328.702 141.589V85.5876H328.702Z" fill="#A72329"/>
<path d="M292.641 70.3076H282.201C281.716 70.3076 281.323 70.7006 281.323 71.1854V141.588C281.323 142.073 281.716 142.466 282.201 142.466H292.641C293.126 142.466 293.519 142.073 293.519 141.588V71.1854C293.519 70.7006 293.126 70.3076 292.641 70.3076Z" fill="#FAFAFA"/>
<path opacity="0.6" d="M281.323 121.854H293.518V141.588C293.518 141.821 293.426 142.044 293.261 142.209C293.096 142.374 292.873 142.466 292.64 142.466H282.201C281.968 142.466 281.745 142.374 281.58 142.209C281.415 142.044 281.323 141.821 281.323 141.588V121.854Z" fill="#A72329"/>
<path d="M316.331 70.3076H305.89C305.405 70.3076 305.012 70.7006 305.012 71.1854V141.588C305.012 142.073 305.405 142.466 305.89 142.466H316.331C316.816 142.466 317.209 142.073 317.209 141.588V71.1854C317.209 70.7006 316.816 70.3076 316.331 70.3076Z" fill="#FAFAFA"/>
<path opacity="0.6" d="M305.011 109.245H317.206V141.588C317.206 141.821 317.114 142.044 316.949 142.209C316.784 142.373 316.561 142.466 316.328 142.466H305.89C305.775 142.466 305.661 142.443 305.554 142.399C305.448 142.355 305.351 142.29 305.269 142.209C305.188 142.127 305.123 142.03 305.079 141.924C305.035 141.817 305.012 141.703 305.012 141.588V109.245H305.011Z" fill="#A72329"/>
<path opacity="0.15" d="M345.505 163.877H227.884C223.639 163.877 220.198 167.317 220.198 171.56V235.226C220.198 239.469 223.639 242.909 227.884 242.909H345.505C349.749 242.909 353.19 239.469 353.19 235.226V171.56C353.19 167.317 349.749 163.877 345.505 163.877Z" fill="#A72329"/>
<path d="M299.752 183.618C301.33 183.618 302.609 182.339 302.609 180.762C302.609 179.185 301.33 177.906 299.752 177.906C298.174 177.906 296.895 179.185 296.895 180.762C296.895 182.339 298.174 183.618 299.752 183.618Z" fill="#A72329"/>
<path d="M299.752 198.176C301.33 198.176 302.609 196.897 302.609 195.32C302.609 193.743 301.33 192.464 299.752 192.464C298.174 192.464 296.895 193.743 296.895 195.32C296.895 196.897 298.174 198.176 299.752 198.176Z" fill="#262626"/>
<path d="M299.752 212.733C301.33 212.733 302.609 211.455 302.609 209.878C302.609 208.301 301.33 207.022 299.752 207.022C298.174 207.022 296.895 208.301 296.895 209.878C296.895 211.455 298.174 212.733 299.752 212.733Z" fill="white"/>
<path opacity="0.5" d="M299.752 227.291C301.33 227.291 302.609 226.012 302.609 224.435C302.609 222.858 301.33 221.58 299.752 221.58C298.174 221.58 296.895 222.858 296.895 224.435C296.895 226.012 298.174 227.291 299.752 227.291Z" fill="#A72329"/>
<path d="M339.398 180.761C339.398 181.19 339.228 181.6 338.925 181.903C338.622 182.206 338.21 182.377 337.782 182.377H310.322C309.94 182.384 309.567 182.259 309.265 182.024C308.964 181.789 308.753 181.458 308.667 181.086C308.619 180.851 308.624 180.608 308.681 180.375C308.739 180.142 308.848 179.925 308.999 179.74C309.151 179.554 309.342 179.404 309.559 179.301C309.776 179.199 310.013 179.145 310.253 179.146H337.782C337.994 179.145 338.204 179.187 338.4 179.268C338.596 179.35 338.775 179.469 338.925 179.619C339.075 179.769 339.194 179.947 339.275 180.143C339.356 180.339 339.398 180.549 339.398 180.761Z" fill="white"/>
<path d="M339.398 195.319C339.398 195.748 339.228 196.159 338.925 196.462C338.622 196.765 338.21 196.935 337.782 196.935H310.338C310.114 196.938 309.891 196.897 309.684 196.813C309.476 196.729 309.287 196.604 309.129 196.445C308.97 196.287 308.845 196.098 308.76 195.891C308.676 195.683 308.634 195.461 308.637 195.237C308.659 194.823 308.838 194.433 309.139 194.148C309.44 193.863 309.838 193.704 310.253 193.704H337.782C337.994 193.704 338.204 193.746 338.4 193.827C338.596 193.908 338.775 194.027 338.925 194.177C339.075 194.327 339.194 194.505 339.275 194.701C339.356 194.897 339.398 195.107 339.398 195.319Z" fill="white"/>
<path d="M339.398 209.878C339.398 210.306 339.228 210.717 338.925 211.02C338.622 211.323 338.21 211.493 337.782 211.493H310.086C309.701 211.493 309.332 211.341 309.06 211.068C308.787 210.796 308.634 210.427 308.634 210.042V209.714C308.634 209.329 308.787 208.96 309.06 208.688C309.332 208.416 309.701 208.263 310.086 208.263H337.782C337.994 208.263 338.204 208.304 338.4 208.386C338.596 208.467 338.775 208.586 338.925 208.736C339.075 208.886 339.194 209.064 339.275 209.26C339.356 209.456 339.398 209.666 339.398 209.878Z" fill="white"/>
<path d="M339.398 224.436C339.398 224.865 339.228 225.275 338.925 225.578C338.622 225.881 338.211 226.052 337.782 226.052H310.328C309.945 226.059 309.572 225.935 309.27 225.7C308.967 225.466 308.755 225.134 308.667 224.762C308.619 224.527 308.624 224.285 308.681 224.052C308.739 223.819 308.847 223.602 308.999 223.416C309.151 223.23 309.342 223.081 309.558 222.978C309.775 222.875 310.012 222.822 310.252 222.822H337.781C337.993 222.822 338.203 222.863 338.4 222.944C338.596 223.025 338.774 223.144 338.924 223.294C339.074 223.444 339.193 223.622 339.275 223.818C339.356 224.014 339.398 224.224 339.398 224.436Z" fill="white"/>
<path d="M246.149 202.599C246.15 206.08 247.23 209.475 249.242 212.317C251.253 215.158 254.097 217.307 257.381 218.466L252.762 229.724C246.411 227.332 241.1 222.787 237.756 216.883C234.412 210.978 233.247 204.088 234.462 197.413C235.678 190.738 239.198 184.7 244.41 180.353C249.621 176.005 256.193 173.623 262.981 173.622V185.776C258.517 185.776 254.236 187.549 251.08 190.703C247.923 193.858 246.15 198.137 246.149 202.599Z" fill="#A72329"/>
<path d="M291.972 202.599H279.812C279.812 198.137 278.039 193.857 274.882 190.702C271.726 187.547 267.445 185.774 262.981 185.774V173.62C270.67 173.62 278.044 176.673 283.48 182.107C288.917 187.542 291.972 194.913 291.972 202.599Z" fill="#262626"/>
<path d="M291.972 202.599C291.971 209.165 289.74 215.537 285.644 220.671C281.549 225.805 275.831 229.396 269.427 230.858L267.367 218.844C270.939 217.879 274.094 215.765 276.343 212.829C278.593 209.893 279.812 206.297 279.812 202.599H291.972Z" fill="white"/>
<path opacity="0.5" d="M269.427 230.858C263.88 232.114 258.087 231.72 252.762 229.723L257.381 218.466C260.595 219.594 264.076 219.726 267.367 218.845L269.427 230.858Z" fill="#A72329"/>
<path opacity="0.15" d="M203.323 58.3088H73.5077C69.3127 58.3088 65.912 61.7083 65.912 65.9016V235.316C65.912 239.509 69.3127 242.908 73.5077 242.908H203.323C207.518 242.908 210.918 239.509 210.918 235.316V65.9016C210.918 61.7083 207.518 58.3088 203.323 58.3088Z" fill="#A72329"/>
<path d="M177.648 130.355C177.648 138.778 175.149 147.012 170.468 154.016C165.786 161.02 159.132 166.479 151.347 169.702C143.562 172.926 134.995 173.769 126.73 172.126C118.466 170.483 110.874 166.426 104.915 160.47C98.9568 154.514 94.899 146.925 93.255 138.664C91.611 130.402 92.4547 121.839 95.6794 114.057C98.9041 106.275 104.365 99.623 111.372 94.9432C118.378 90.2635 126.615 87.7656 135.042 87.7656V130.355H177.648Z" fill="#FAFAFA"/>
<path opacity="0.6" d="M182.872 124.822H140.268V82.2334C151.567 82.2338 162.404 86.7211 170.393 94.708C178.383 102.695 182.872 113.527 182.872 124.822Z" fill="#A72329"/>
<path opacity="0.6" d="M90.8627 197.104C92.4405 197.104 93.7195 195.825 93.7195 194.248C93.7195 192.671 92.4405 191.392 90.8627 191.392C89.2849 191.392 88.0059 192.671 88.0059 194.248C88.0059 195.825 89.2849 197.104 90.8627 197.104Z" fill="#A72329"/>
<path d="M90.8627 211.661C92.4405 211.661 93.7195 210.383 93.7195 208.806C93.7195 207.229 92.4405 205.95 90.8627 205.95C89.2849 205.95 88.0059 207.229 88.0059 208.806C88.0059 210.383 89.2849 211.661 90.8627 211.661Z" fill="#FAFAFA"/>
<path opacity="0.6" d="M188.742 194.249C188.742 194.678 188.572 195.088 188.269 195.391C187.966 195.694 187.555 195.865 187.126 195.865H101.432C101.05 195.872 100.677 195.747 100.376 195.512C100.075 195.277 99.8632 194.946 99.7772 194.573C99.7293 194.338 99.7343 194.096 99.7918 193.863C99.8494 193.63 99.958 193.413 100.11 193.227C100.262 193.041 100.453 192.892 100.67 192.789C100.887 192.686 101.123 192.633 101.363 192.633H187.126C187.338 192.633 187.548 192.675 187.745 192.756C187.941 192.837 188.119 192.956 188.269 193.106C188.419 193.256 188.538 193.435 188.619 193.631C188.7 193.827 188.742 194.037 188.742 194.249Z" fill="#A72329"/>
<path d="M188.742 208.805C188.742 209.234 188.572 209.645 188.269 209.948C187.966 210.251 187.555 210.421 187.126 210.421H101.449C101.224 210.424 101.002 210.383 100.794 210.298C100.586 210.214 100.398 210.089 100.239 209.931C100.08 209.773 99.9551 209.584 99.8706 209.377C99.7861 209.169 99.7442 208.947 99.7472 208.723C99.7689 208.309 99.9487 207.919 100.249 207.634C100.55 207.349 100.949 207.19 101.363 207.19H187.126C187.338 207.19 187.548 207.231 187.744 207.313C187.941 207.394 188.119 207.513 188.269 207.663C188.419 207.813 188.538 207.991 188.619 208.187C188.7 208.383 188.742 208.593 188.742 208.805Z" fill="white"/>
<path d="M53.5309 361.526C53.4854 361.527 53.4402 361.518 53.3982 361.5C53.3561 361.483 53.3179 361.457 53.2858 361.425C52.7967 360.936 52.0004 351.973 49.8546 325.286C48.9764 314.365 48.1468 304.051 47.5417 297.783C47.4995 297.335 47.3248 297.283 47.2678 297.266C46.4395 297.016 43.9198 299.002 42.5133 300.741C42.4847 300.777 42.4493 300.806 42.4093 300.828C42.3693 300.85 42.3253 300.864 42.28 300.868C42.2347 300.873 42.1889 300.869 42.1452 300.856C42.1015 300.843 42.0607 300.822 42.0253 300.793C41.9898 300.764 41.9604 300.729 41.9386 300.689C41.9168 300.649 41.9032 300.605 41.8984 300.56C41.8936 300.515 41.8977 300.469 41.9106 300.425C41.9236 300.381 41.9449 300.341 41.9736 300.305C42.902 299.155 45.9356 296.141 47.4674 296.602C47.6978 296.681 47.8965 296.832 48.0343 297.032C48.1721 297.233 48.2416 297.473 48.2325 297.716C48.838 303.99 49.6672 314.307 50.5462 325.23C51.8502 341.447 53.3271 359.819 53.8128 360.977C53.8497 361.029 53.8716 361.09 53.8762 361.154C53.8808 361.217 53.8678 361.281 53.8387 361.337C53.8096 361.394 53.7655 361.441 53.7112 361.475C53.657 361.508 53.5946 361.525 53.5309 361.526V361.526Z" fill="#494949"/>
<path d="M46.6514 309.286C52.4075 304.673 54.3154 297.495 50.9127 293.251C47.5099 289.008 40.0852 289.307 34.3291 293.919C28.5729 298.531 26.6651 305.71 30.0678 309.954C33.4705 314.197 40.8952 313.898 46.6514 309.286Z" fill="#0CBC8B"/>
<path opacity="0.2" d="M46.6514 309.286C52.4075 304.673 54.3154 297.495 50.9127 293.251C47.5099 289.008 40.0852 289.307 34.3291 293.919C28.5729 298.531 26.6651 305.71 30.0678 309.954C33.4705 314.197 40.8952 313.898 46.6514 309.286Z" fill="white"/>
<path d="M31.6805 311.032C31.6477 311.032 31.6155 311.023 31.5877 311.005C31.56 310.988 31.5378 310.962 31.5238 310.933C31.5099 310.903 31.5046 310.87 31.5088 310.837C31.5129 310.804 31.5262 310.774 31.5472 310.748L47.9519 290.973C47.9812 290.938 48.0235 290.916 48.0693 290.911C48.1151 290.907 48.1608 290.921 48.1962 290.951C48.2316 290.98 48.2539 291.022 48.2582 291.068C48.2625 291.114 48.2484 291.159 48.219 291.195L31.8143 310.97C31.798 310.989 31.7776 311.005 31.7544 311.016C31.7313 311.027 31.7061 311.032 31.6805 311.032Z" fill="white"/>
<path d="M57.109 357.287C57.0537 357.287 56.9992 357.274 56.9501 357.248C56.901 357.223 56.8586 357.186 56.8266 357.141C56.7946 357.096 56.7738 357.044 56.7659 356.989C56.7581 356.935 56.7634 356.879 56.7815 356.827L62.9425 339.112C63.1237 338.592 63.4328 338.125 63.8413 337.754C64.2499 337.384 64.7449 337.122 65.281 336.993C65.8171 336.864 66.3771 336.871 66.9096 337.014C67.4422 337.157 67.9303 337.432 68.3291 337.813L71.5868 340.923C71.6514 340.987 71.6882 341.074 71.6894 341.165C71.6906 341.256 71.6561 341.344 71.5933 341.409C71.5305 341.475 71.4444 341.513 71.3535 341.516C71.2627 341.519 71.1743 341.486 71.1075 341.425L67.8497 338.314C67.5349 338.013 67.1497 337.797 66.7292 337.684C66.3088 337.57 65.8667 337.565 65.4434 337.667C65.0202 337.769 64.6294 337.976 64.3069 338.268C63.9843 338.56 63.7404 338.929 63.5974 339.34L57.4364 357.056C57.4124 357.124 57.368 357.183 57.3094 357.224C57.2507 357.265 57.1807 357.287 57.109 357.287Z" fill="#494949"/>
<path d="M80.6881 350.73C84.954 347.355 84.7005 339.932 80.1219 334.149C75.5433 328.367 68.3735 326.416 64.1077 329.791C59.8418 333.167 60.0954 340.59 64.6739 346.372C69.2525 352.155 76.4223 354.106 80.6881 350.73Z" fill="#0CBC8B"/>
<path d="M50.7315 360.397C50.6535 360.397 50.5778 360.371 50.5165 360.322C50.4553 360.274 50.4121 360.207 50.3939 360.131L40.0553 316.91C39.9848 316.615 39.8343 316.346 39.6205 316.131C39.4066 315.916 39.1376 315.765 38.8431 315.693C38.5486 315.621 38.24 315.632 37.9513 315.724C37.6625 315.816 37.4048 315.986 37.2064 316.215L34.0188 319.897C33.9894 319.933 33.9532 319.963 33.9122 319.985C33.8712 320.006 33.8263 320.019 33.7801 320.023C33.7339 320.027 33.6874 320.022 33.6433 320.008C33.5992 319.993 33.5584 319.971 33.5233 319.94C33.4883 319.91 33.4596 319.873 33.4391 319.831C33.4186 319.79 33.4067 319.744 33.4039 319.698C33.4012 319.652 33.4078 319.606 33.4233 319.562C33.4388 319.518 33.4629 319.478 33.4942 319.444L36.6819 315.761C36.9638 315.436 37.3301 315.195 37.7404 315.064C38.1507 314.933 38.5892 314.918 39.0076 315.02C39.426 315.122 39.8081 315.337 40.112 315.642C40.4159 315.947 40.6297 316.33 40.73 316.749L51.0686 359.97C51.0793 360.014 51.081 360.06 51.0739 360.105C51.0667 360.15 51.0508 360.193 51.027 360.232C51.0031 360.27 50.9719 360.304 50.935 360.331C50.8981 360.358 50.8564 360.377 50.8121 360.387C50.7857 360.394 50.7586 360.397 50.7315 360.397Z" fill="#494949"/>
<path d="M46.9159 329.501C48.173 322.235 44.8462 315.593 39.4853 314.666C34.1244 313.739 28.7595 318.879 27.5024 326.145C26.2454 333.412 29.5722 340.053 34.9331 340.98C40.294 341.907 45.6589 336.767 46.9159 329.501Z" fill="#0CBC8B"/>
<path d="M53.5314 361.527C53.5173 361.527 53.5032 361.526 53.4892 361.524C53.3979 361.513 53.3148 361.466 53.2582 361.393C53.2015 361.321 53.1759 361.229 53.187 361.138L59.7902 307.545C59.8621 306.961 60.1012 306.41 60.4787 305.959C60.8562 305.508 61.356 305.175 61.9181 305.001C62.4802 304.827 63.0806 304.819 63.6472 304.978C64.2138 305.137 64.7224 305.456 65.1119 305.897L72.6595 314.441C72.6897 314.476 72.7128 314.515 72.7277 314.558C72.7425 314.602 72.7487 314.647 72.7459 314.693C72.7431 314.738 72.7313 314.782 72.7113 314.823C72.6913 314.864 72.6635 314.901 72.6293 314.931C72.5952 314.961 72.5555 314.984 72.5124 314.999C72.4693 315.014 72.4237 315.02 72.3782 315.017C72.3328 315.015 72.2883 315.003 72.2474 314.983C72.2064 314.963 72.1698 314.935 72.1396 314.901L64.592 306.356C64.291 306.015 63.898 305.769 63.4601 305.646C63.0223 305.523 62.5582 305.529 62.1238 305.664C61.6894 305.798 61.3031 306.055 61.0113 306.404C60.7195 306.752 60.5346 307.178 60.4789 307.629L53.8753 361.222C53.865 361.306 53.8243 361.383 53.761 361.439C53.6976 361.495 53.616 361.527 53.5314 361.527Z" fill="#494949"/>
<path d="M80.3997 319.19C83.0331 314.432 79.9347 307.68 73.4793 304.111C67.0239 300.541 59.6561 301.506 57.0227 306.264C54.3894 311.023 57.4877 317.775 63.9431 321.344C70.3985 324.913 77.7664 323.949 80.3997 319.19Z" fill="#0CBC8B"/>
<path opacity="0.2" d="M80.6881 350.73C84.954 347.355 84.7005 339.932 80.1219 334.149C75.5433 328.367 68.3735 326.416 64.1077 329.791C59.8418 333.167 60.0954 340.59 64.6739 346.372C69.2525 352.155 76.4223 354.106 80.6881 350.73Z" fill="white"/>
<path opacity="0.5" d="M46.9159 329.501C48.173 322.235 44.8462 315.593 39.4853 314.666C34.1244 313.739 28.7595 318.879 27.5024 326.145C26.2454 333.412 29.5722 340.053 34.9331 340.98C40.294 341.907 45.6589 336.767 46.9159 329.501Z" fill="white"/>
<path opacity="0.5" d="M80.3997 319.19C83.0331 314.432 79.9347 307.68 73.4793 304.111C67.0239 300.541 59.6561 301.506 57.0227 306.264C54.3894 311.023 57.4877 317.775 63.9431 321.344C70.3985 324.913 77.7664 323.949 80.3997 319.19Z" fill="white"/>
<path d="M61.977 407H45.0849L42.2859 352.975H64.776L61.977 407Z" fill="#292A2E"/>
<path opacity="0.3" d="M61.977 407H45.0849L42.2859 352.975H64.776L61.977 407Z" fill="white"/>
<path d="M80.6899 350.903C80.6637 350.903 80.6378 350.897 80.6141 350.885C80.5905 350.874 80.5698 350.857 80.5536 350.837L63.973 329.898C63.9588 329.88 63.9483 329.86 63.942 329.838C63.9358 329.816 63.9339 329.793 63.9365 329.77C63.9391 329.748 63.9462 329.726 63.9572 329.706C63.9683 329.686 63.9832 329.668 64.001 329.654C64.0189 329.64 64.0393 329.63 64.0612 329.623C64.0831 329.617 64.1061 329.615 64.1287 329.618C64.1513 329.62 64.1732 329.627 64.1931 329.639C64.213 329.65 64.2306 329.664 64.2447 329.682L80.8258 350.622C80.8542 350.658 80.8672 350.704 80.8618 350.749C80.8564 350.795 80.8332 350.836 80.7971 350.865C80.7667 350.889 80.7289 350.903 80.6899 350.903Z" fill="white"/>
<path d="M79.2974 320.868C79.2606 320.868 79.2249 320.856 79.1952 320.835L57.9778 305.348C57.9587 305.335 57.9424 305.318 57.9299 305.298C57.9174 305.279 57.909 305.257 57.9051 305.234C57.9011 305.211 57.9019 305.188 57.9071 305.165C57.9124 305.143 57.9222 305.121 57.9359 305.103C57.9495 305.084 57.9668 305.068 57.9867 305.056C58.0065 305.044 58.0286 305.036 58.0515 305.033C58.0745 305.03 58.0979 305.031 58.1203 305.037C58.1427 305.043 58.1637 305.054 58.1821 305.068L79.3999 320.554C79.4295 320.576 79.4515 320.606 79.4627 320.641C79.474 320.676 79.4739 320.714 79.4625 320.748C79.4511 320.783 79.429 320.813 79.3993 320.835C79.3697 320.856 79.334 320.868 79.2974 320.868Z" fill="white"/>
<path d="M34.0728 340.753C34.0575 340.754 34.0423 340.752 34.0276 340.748C33.9835 340.736 33.9458 340.707 33.9228 340.667C33.8998 340.628 33.8934 340.581 33.9048 340.537L40.6591 315.24C40.6714 315.196 40.7003 315.159 40.7397 315.136C40.7791 315.113 40.8259 315.106 40.8701 315.117C40.9143 315.129 40.9521 315.158 40.9751 315.197C40.9981 315.237 41.0045 315.284 40.9929 315.328L34.2399 340.625C34.2301 340.662 34.2084 340.694 34.1782 340.718C34.148 340.741 34.1109 340.753 34.0728 340.753Z" fill="white"/>
<path d="M378.718 407H32.5135C32.4352 407 32.3601 406.969 32.3047 406.913C32.2493 406.858 32.2181 406.783 32.2181 406.705C32.2181 406.626 32.2493 406.551 32.3047 406.496C32.3601 406.441 32.4352 406.409 32.5135 406.409H378.718C378.797 406.409 378.872 406.441 378.927 406.496C378.982 406.551 379.014 406.626 379.014 406.705C379.014 406.783 378.982 406.858 378.927 406.913C378.872 406.969 378.797 407 378.718 407Z" fill="#292A2E"/>
<path d="M120.593 388.071C120.593 388.071 122.498 397.944 131.744 398.496C140.989 399.047 138.985 406.409 138.985 406.409H103.65V388.76L120.593 388.071Z" fill="#A72329"/>
<path d="M101.254 207.983C101.254 207.983 103.896 205.015 103.873 211.747C103.786 236.858 102.09 394.372 102.09 394.372L125.311 394.177L139.377 206.962L101.254 207.983Z" fill="#262626"/>
<path d="M160.243 388.071C160.243 388.071 162.148 397.944 171.395 398.494C180.642 399.044 178.637 406.408 178.637 406.408H143.3V388.76L160.243 388.071Z" fill="#A72329"/>
<path d="M164.734 209.933C164.734 209.933 167.635 295.755 167.334 299.949L164.606 393.721L141.769 394.142L138.087 296.556C138.087 296.556 135.673 269.638 129.167 244.641C125.838 231.812 123.834 218.676 123.188 205.438L164.734 209.933Z" fill="#262626"/>
<path d="M134.608 270.78L136.512 241.671C136.512 241.671 138.468 253.773 138.468 264.203C138.468 269.302 137.417 289.488 137.417 289.488L134.608 270.78Z" fill="#0A0A0A"/>
<path d="M101.001 207.98L100.925 207.984C100.925 207.984 100.981 206.52 101.001 207.98Z" fill="#333333"/>
<path d="M101.097 207.98L101.021 207.984C101.021 207.984 101.076 206.52 101.097 207.98Z" fill="#333333"/>
<path d="M228.336 138.321C228.196 138.044 227.974 137.817 227.7 137.672C227.426 137.527 227.113 137.471 226.805 137.511C226.808 137.483 226.802 137.456 226.788 137.432C226.774 137.414 226.755 137.399 226.733 137.391C226.712 137.382 226.688 137.379 226.665 137.382L227.704 136.638C228.015 136.425 228.238 136.107 228.333 135.743C228.427 135.378 228.386 134.992 228.218 134.655C228.041 134.328 227.748 134.078 227.398 133.954C227.047 133.83 226.662 133.841 226.319 133.984C226.322 133.969 226.312 133.955 226.309 133.942L226.736 133.637C227.028 133.435 227.241 133.139 227.34 132.798C227.438 132.458 227.416 132.093 227.277 131.767C227.185 131.564 227.05 131.385 226.881 131.241C226.711 131.097 226.512 130.992 226.297 130.934C226.082 130.876 225.857 130.867 225.638 130.907C225.419 130.946 225.212 131.034 225.031 131.163L224.047 131.869C224.044 131.863 224.047 131.857 224.043 131.851C224.039 131.846 224.028 131.843 224.023 131.838C224.249 131.583 224.382 131.26 224.4 130.92C224.418 130.58 224.319 130.245 224.121 129.968C223.657 129.221 222.584 129.374 221.947 129.83L216.153 133.831L217.188 132.088C217.396 131.752 217.47 131.35 217.393 130.963C217.317 130.575 217.096 130.231 216.776 130C216.606 129.887 216.415 129.809 216.215 129.772C216.014 129.735 215.808 129.739 215.609 129.784C215.41 129.829 215.222 129.914 215.057 130.034C214.892 130.154 214.753 130.306 214.649 130.481L208.995 139.999C208.331 141.115 208.129 142.446 208.432 143.709C208.734 144.972 209.518 146.067 210.615 146.762C211.888 147.568 213.373 147.975 214.879 147.932C216.385 147.889 217.844 147.397 219.069 146.519L227.82 140.249C228.111 140.033 228.32 139.725 228.414 139.375C228.507 139.025 228.48 138.653 228.336 138.321Z" fill="#E98862"/>
<g opacity="0.25">
<path d="M218.312 135.823C218.334 135.852 218.365 135.872 218.401 135.878C218.437 135.884 218.473 135.876 218.503 135.855L224.009 132.043C224.024 132.033 224.037 132.02 224.047 132.005C224.057 131.989 224.063 131.972 224.067 131.954C224.07 131.936 224.07 131.918 224.066 131.9C224.062 131.882 224.055 131.866 224.044 131.851C224.034 131.836 224.021 131.823 224.005 131.813C223.99 131.803 223.973 131.796 223.955 131.793C223.937 131.79 223.919 131.79 223.901 131.794C223.883 131.798 223.866 131.805 223.851 131.816L218.345 135.628C218.315 135.649 218.295 135.681 218.288 135.717C218.281 135.753 218.289 135.79 218.31 135.82L218.312 135.823Z" fill="#0C0C0C"/>
</g>
<g opacity="0.25">
<path d="M219.927 138.297C219.949 138.326 219.98 138.346 220.016 138.352C220.052 138.358 220.088 138.35 220.118 138.329L226.263 134.075C226.293 134.054 226.314 134.022 226.32 133.986C226.327 133.949 226.318 133.912 226.298 133.882C226.276 133.853 226.244 133.833 226.208 133.827C226.172 133.82 226.135 133.827 226.105 133.847L219.96 138.101C219.93 138.122 219.909 138.154 219.903 138.191C219.896 138.227 219.904 138.264 219.925 138.294L219.927 138.297Z" fill="#0C0C0C"/>
</g>
<g opacity="0.25">
<path d="M221.661 140.986C221.682 141.015 221.714 141.035 221.75 141.041C221.785 141.047 221.822 141.039 221.852 141.019L226.753 137.625C226.784 137.604 226.804 137.572 226.811 137.536C226.817 137.5 226.809 137.462 226.788 137.432C226.767 137.402 226.735 137.381 226.699 137.375C226.663 137.368 226.626 137.376 226.596 137.397L221.694 140.791C221.664 140.812 221.643 140.844 221.636 140.88C221.63 140.916 221.638 140.953 221.659 140.984L221.661 140.986Z" fill="#0C0C0C"/>
</g>
<path d="M205.657 137.831L189.049 166.106L168.784 139.535L151.953 154.702L180.694 191.912L180.882 192.177C182.033 193.752 183.566 195.008 185.336 195.827C187.107 196.647 189.057 197.002 191.002 196.859C192.948 196.717 194.826 196.082 196.458 195.014C198.09 193.945 199.424 192.479 200.332 190.753L223.95 148L205.657 137.831Z" fill="#A72329"/>
<path d="M187.421 169.507C187.384 169.507 187.349 169.498 187.317 169.48C187.286 169.462 187.259 169.437 187.24 169.406C187.221 169.375 187.211 169.34 187.209 169.304C187.208 169.268 187.216 169.232 187.232 169.2L188.861 166.01C188.886 165.96 188.931 165.923 188.984 165.906C189.037 165.889 189.095 165.893 189.145 165.919C189.195 165.944 189.232 165.988 189.249 166.042C189.267 166.095 189.262 166.153 189.236 166.203L187.608 169.392C187.591 169.426 187.564 169.455 187.531 169.476C187.497 169.496 187.459 169.507 187.421 169.507Z" fill="#0C0C0C"/>
<path d="M167.614 165.945L167.107 174.876L167.528 174.9L168.035 165.969L167.614 165.945Z" fill="#0C0C0C"/>
<path d="M114.096 101.312C114.096 101.312 113.318 111.252 111.037 114.836C104.471 125.152 102.468 136.82 108.852 143.001C115.237 149.183 156.408 149.747 159.69 135.734C162.453 123.938 156.832 122.602 155.574 112.829C155.005 108.407 153.406 99.1318 153.406 99.1318" fill="#0A0A0A"/>
<path d="M149.209 133.494C149.138 133.485 148.349 146.567 133.146 145.427C122.62 144.638 118.867 133.476 118.626 133.476C119.761 133.235 121.672 132.885 122.176 132.615C123.833 131.725 125.884 130.799 126.418 127.582C126.726 125.726 126.204 116.241 126.365 114.364L142.521 117.969C142.295 121.931 140.715 131.117 146.253 132.743C147.175 133.012 148.167 133.259 149.209 133.494Z" fill="#E98862"/>
<path opacity="0.52" d="M142.747 128.989C142.494 128.174 142.331 127.334 142.261 126.483C142.084 124.542 142.119 122.587 142.367 120.653C139.083 120.21 135.99 118.855 133.438 116.742C133.138 117.85 131.488 122.69 131.945 123.741C132.808 125.731 136.866 128.989 142.747 128.989Z" fill="#0C0C0C"/>
<path d="M140.605 124.872C134.229 125.414 126.017 122.772 124.409 114.274L122.957 106.605C121.348 98.1068 124.509 90.3727 132.514 88.8584C140.519 87.344 147.806 93.1015 149.415 101.6L150.058 104.995C150.676 108.255 151.983 123.904 140.605 124.872Z" fill="#E98862"/>
<path d="M147.777 105.365C148.331 105.365 148.78 104.916 148.78 104.362C148.78 103.808 148.331 103.359 147.777 103.359C147.222 103.359 146.773 103.808 146.773 104.362C146.773 104.916 147.222 105.365 147.777 105.365Z" fill="#0C0C0C"/>
<path d="M137.497 106.738C138.051 106.738 138.5 106.289 138.5 105.735C138.5 105.181 138.051 104.732 137.497 104.732C136.943 104.732 136.493 105.181 136.493 105.735C136.493 106.289 136.943 106.738 137.497 106.738Z" fill="#0C0C0C"/>
<path opacity="0.52" d="M143.137 113.091L143.153 113.088C143.477 113.024 143.798 112.943 144.113 112.844C144.584 112.692 145.2 112.442 145.12 112.017C145.028 111.533 142.712 106.559 142.448 105.994C142.437 105.969 142.421 105.947 142.401 105.928C142.381 105.91 142.358 105.896 142.332 105.886C142.307 105.877 142.28 105.873 142.253 105.874C142.226 105.875 142.199 105.881 142.175 105.893C142.15 105.904 142.128 105.92 142.11 105.94C142.091 105.96 142.077 105.984 142.068 106.009C142.059 106.035 142.055 106.062 142.056 106.089C142.057 106.116 142.064 106.143 142.076 106.167C143.064 108.286 144.654 111.767 144.716 112.093C144.663 112.245 143.881 112.532 143.077 112.684C143.024 112.693 142.977 112.723 142.945 112.766C142.914 112.81 142.901 112.864 142.909 112.917C142.917 112.97 142.945 113.018 142.988 113.05C143.03 113.082 143.084 113.097 143.137 113.09V113.091Z" fill="#0C0C0C"/>
<path opacity="0.52" d="M141.953 116.757C143.259 116.588 144.506 116.114 145.595 115.374C145.641 115.344 145.673 115.298 145.684 115.244C145.695 115.191 145.685 115.135 145.655 115.09C145.625 115.044 145.578 115.012 145.525 115.001C145.472 114.99 145.416 115 145.371 115.03C143.014 116.565 140.673 116.813 138.599 115.747C138.557 115.724 138.514 115.704 138.47 115.685C138.419 115.667 138.362 115.67 138.313 115.693C138.264 115.716 138.225 115.758 138.207 115.809C138.188 115.86 138.191 115.917 138.214 115.966C138.237 116.016 138.279 116.054 138.331 116.072C138.347 116.079 138.373 116.093 138.411 116.114C139.501 116.676 140.735 116.9 141.953 116.757Z" fill="#0C0C0C"/>
<path d="M116.552 109.278L123.729 107.963C129.163 105.764 130.807 96.3602 130.807 96.3602C130.807 96.3602 137.408 102.792 153.405 99.1336C153.405 99.1336 150.198 76.8327 126.564 83.3153C118.943 85.4063 113.474 93.0826 114.155 103.342C114.634 110.533 116.552 109.278 116.552 109.278Z" fill="#0A0A0A"/>
<path d="M125.396 116.769C122.964 117.229 120.499 115.001 120.037 112.569C119.575 110.137 121.295 108.423 123.728 107.963L125.289 109.355L127.486 116.373L125.396 116.769Z" fill="#E98862"/>
<path d="M143.915 101.927C144.624 101.469 145.444 101.21 146.288 101.178C146.704 101.16 147.12 101.203 147.522 101.309C147.921 101.411 148.305 101.563 148.665 101.761C148.716 101.786 148.755 101.83 148.774 101.884C148.792 101.937 148.789 101.996 148.764 102.047C148.739 102.098 148.696 102.137 148.642 102.156C148.589 102.175 148.53 102.172 148.479 102.148L148.464 102.141C148.13 101.977 147.778 101.856 147.414 101.78C147.055 101.703 146.686 101.681 146.32 101.714C145.595 101.775 144.898 102.027 144.301 102.444L144.281 102.458C144.247 102.483 144.208 102.501 144.167 102.511C144.126 102.521 144.083 102.522 144.041 102.516C143.999 102.509 143.959 102.494 143.923 102.472C143.887 102.45 143.855 102.421 143.83 102.387C143.805 102.353 143.787 102.314 143.777 102.272C143.768 102.231 143.766 102.188 143.773 102.147C143.779 102.105 143.794 102.065 143.816 102.028C143.838 101.992 143.867 101.961 143.902 101.936L143.915 101.927Z" fill="#0C0C0C"/>
<path d="M137.515 103.433C136.808 103.26 136.067 103.277 135.369 103.483C135.015 103.584 134.679 103.737 134.372 103.939C134.06 104.141 133.776 104.382 133.524 104.656L133.513 104.667C133.473 104.706 133.42 104.729 133.365 104.73C133.309 104.731 133.255 104.71 133.214 104.672C133.173 104.634 133.149 104.582 133.146 104.526C133.143 104.471 133.162 104.416 133.199 104.374C133.463 104.059 133.767 103.779 134.101 103.539C134.438 103.296 134.81 103.105 135.204 102.972C136.003 102.698 136.861 102.643 137.689 102.814C137.773 102.832 137.846 102.882 137.893 102.954C137.939 103.026 137.955 103.114 137.937 103.198C137.919 103.282 137.869 103.355 137.797 103.402C137.724 103.448 137.637 103.464 137.553 103.446L137.54 103.443L137.515 103.433Z" fill="#0C0C0C"/>
<path opacity="0.52" d="M142.231 118.687C142.467 118.66 142.701 118.613 142.929 118.547C142.982 118.532 143.026 118.497 143.053 118.449C143.079 118.401 143.085 118.345 143.07 118.293C143.055 118.24 143.02 118.196 142.972 118.169C142.925 118.143 142.868 118.137 142.816 118.152C141.44 118.548 140.657 118.025 140.625 118.001C140.58 117.969 140.525 117.957 140.471 117.967C140.417 117.976 140.369 118.006 140.338 118.051C140.307 118.096 140.294 118.151 140.304 118.205C140.313 118.259 140.344 118.307 140.389 118.338C140.944 118.664 141.595 118.787 142.231 118.687Z" fill="#0C0C0C"/>
<path d="M123.745 107.872L123.674 107.673C132.765 104.411 130.542 95.4921 130.519 95.4022L130.723 95.3486C130.747 95.4402 133.021 104.543 123.745 107.872Z" fill="#0C0C0C"/>
<path opacity="0.1" d="M136.653 113.681C137.703 113.568 138.486 112.853 138.403 112.084C138.321 111.314 137.403 110.782 136.353 110.895C135.304 111.008 134.52 111.723 134.603 112.492C134.686 113.262 135.604 113.794 136.653 113.681Z" fill="#0C0C0C"/>
<path opacity="0.1" d="M147.797 110.771C147.882 111.539 148.8 112.071 149.85 111.959C150.031 111.939 150.21 111.901 150.384 111.845C150.443 110.93 150.456 110.05 150.439 109.235C150.148 109.159 149.847 109.137 149.549 109.172C148.499 109.283 147.716 109.999 147.797 110.771Z" fill="#0C0C0C"/>
<path d="M168.098 162.295C167.619 167.919 165.29 203.005 164.83 209.933H103.907C103.548 203.685 99.4066 176.366 98.0474 164.148C96.7498 152.49 94.204 146.653 96.07 143.207C99.1193 137.574 107.452 134.318 113.133 133.549C116.603 133.08 121.821 132.744 121.821 132.744C121.821 132.744 122.263 141.678 132.798 142.175C147.139 142.85 146.182 132.744 146.252 132.744C148.576 132.744 161.848 134.214 165.095 136.138C173.942 141.375 169.115 150.38 168.098 162.295Z" fill="#A72329"/>
<path d="M207.643 166.224L201.771 194.755C201.652 195.335 201.338 195.856 200.881 196.232C200.425 196.608 199.853 196.816 199.261 196.822L158.824 197.166C158.439 197.17 158.057 197.087 157.707 196.923C157.358 196.76 157.049 196.521 156.804 196.223C156.559 195.925 156.384 195.576 156.291 195.202C156.199 194.828 156.191 194.437 156.269 194.06L162.141 165.528C162.26 164.948 162.575 164.427 163.032 164.052C163.489 163.676 164.061 163.468 164.653 163.463L205.09 163.119C205.475 163.116 205.856 163.199 206.206 163.363C206.555 163.526 206.863 163.765 207.108 164.063C207.352 164.36 207.527 164.709 207.62 165.083C207.713 165.457 207.721 165.847 207.643 166.224Z" fill="#292A2E"/>
<path d="M169.936 186.49C169.958 186.866 169.843 187.237 169.613 187.535C169.382 187.832 169.052 188.037 168.683 188.11L167.438 188.384C167.46 188.392 167.481 188.404 167.497 188.421C167.513 188.438 167.525 188.459 167.531 188.481C167.534 188.508 167.528 188.535 167.514 188.557C167.813 188.641 168.079 188.817 168.274 189.059C168.469 189.3 168.584 189.597 168.603 189.907C168.605 190.269 168.484 190.62 168.262 190.905C168.039 191.19 167.726 191.391 167.375 191.476L156.863 193.809C156.326 193.93 155.777 193.991 155.226 193.99C153.999 193.99 152.791 193.692 151.705 193.121C150.619 192.55 149.688 191.723 148.993 190.713C148.256 189.644 147.965 188.329 148.183 187.049C148.4 185.769 149.109 184.624 150.158 183.858L159.1 177.324C159.297 177.18 159.525 177.086 159.767 177.05L158.944 181.045L159.163 180.994L159.21 180.986L166.067 179.589C166.831 179.421 167.877 179.699 168.012 180.568C168.085 180.901 168.042 181.248 167.892 181.554C167.742 181.859 167.493 182.105 167.185 182.251C167.189 182.255 167.198 182.26 167.198 182.268C167.198 182.276 167.193 182.281 167.193 182.289L168.379 182.028C168.596 181.979 168.821 181.98 169.038 182.029C169.254 182.079 169.458 182.175 169.632 182.313C169.807 182.45 169.949 182.624 170.049 182.823C170.148 183.021 170.202 183.24 170.206 183.462C170.206 183.816 170.084 184.16 169.859 184.434C169.635 184.709 169.322 184.897 168.974 184.968L168.464 185.082C168.459 185.098 168.464 185.115 168.455 185.128C168.827 185.131 169.185 185.272 169.459 185.524C169.733 185.775 169.903 186.12 169.936 186.49Z" fill="#E98862"/>
<g opacity="0.25">
<path d="M160.367 183.674C160.376 183.709 160.397 183.74 160.428 183.759C160.458 183.779 160.495 183.786 160.53 183.778L167.091 182.433C167.109 182.43 167.126 182.422 167.141 182.412C167.156 182.402 167.169 182.389 167.179 182.374C167.189 182.359 167.196 182.342 167.2 182.324C167.203 182.306 167.203 182.288 167.199 182.27C167.196 182.252 167.188 182.235 167.178 182.22C167.168 182.205 167.155 182.192 167.14 182.182C167.125 182.172 167.108 182.165 167.09 182.162C167.072 182.158 167.053 182.158 167.036 182.162L160.475 183.507C160.439 183.514 160.407 183.536 160.387 183.566C160.367 183.597 160.359 183.634 160.367 183.67L160.367 183.674Z" fill="#0C0C0C"/>
</g>
<g opacity="0.25">
<path d="M160.881 186.583C160.889 186.618 160.911 186.649 160.941 186.668C160.972 186.688 161.008 186.695 161.044 186.687L168.366 185.186C168.402 185.179 168.434 185.158 168.454 185.127C168.474 185.096 168.481 185.059 168.474 185.023C168.466 184.987 168.444 184.957 168.414 184.937C168.383 184.917 168.346 184.909 168.31 184.915L160.987 186.416C160.97 186.42 160.953 186.427 160.938 186.437C160.922 186.447 160.91 186.46 160.899 186.475C160.889 186.491 160.883 186.507 160.879 186.525C160.876 186.543 160.876 186.562 160.879 186.579L160.881 186.583Z" fill="#0C0C0C"/>
</g>
<g opacity="0.25">
<path d="M161.419 189.735C161.427 189.771 161.449 189.801 161.479 189.821C161.51 189.84 161.547 189.847 161.582 189.84L167.423 188.642C167.44 188.639 167.457 188.632 167.472 188.621C167.487 188.611 167.5 188.598 167.51 188.583C167.52 188.568 167.527 188.551 167.531 188.533C167.534 188.515 167.534 188.497 167.53 188.479C167.527 188.461 167.52 188.444 167.509 188.429C167.499 188.414 167.486 188.401 167.471 188.391C167.456 188.381 167.439 188.374 167.421 188.371C167.403 188.367 167.385 188.368 167.367 188.371L161.526 189.568C161.49 189.576 161.459 189.597 161.438 189.628C161.418 189.659 161.411 189.696 161.418 189.732L161.419 189.735Z" fill="#0C0C0C"/>
</g>
<path d="M156.213 197.967L99.1834 208.269C97.404 208.462 95.604 208.241 93.9246 207.622C92.2452 207.003 90.7321 206.003 89.5039 204.702C88.2758 203.4 87.3661 201.832 86.8461 200.12C86.3261 198.408 86.21 196.599 86.507 194.834L94.4884 147.397C94.7398 145.897 95.2846 144.46 96.0916 143.17C96.8986 141.88 97.952 140.761 99.1917 139.878C100.431 138.995 101.833 138.365 103.316 138.024C104.8 137.683 106.336 137.637 107.837 137.889C109.338 138.142 110.775 138.687 112.065 139.495C113.355 140.303 114.473 141.357 115.355 142.597C116.238 143.836 116.867 145.238 117.207 146.721C117.548 148.204 117.592 149.74 117.338 151.24L111.895 183.895L153.706 178.647L156.213 197.967Z" fill="#A72329"/>
<path d="M99.183 208.48C99.1303 208.479 99.0796 208.46 99.0408 208.424C99.002 208.389 98.9779 208.34 98.9733 208.287C98.9686 208.235 98.9837 208.183 99.0157 208.141C99.0476 208.099 99.094 208.071 99.1458 208.061L155.978 197.795L153.523 178.882L111.921 184.105C111.888 184.109 111.855 184.105 111.824 184.095C111.793 184.084 111.765 184.066 111.743 184.042C111.72 184.018 111.703 183.989 111.693 183.958C111.683 183.926 111.681 183.893 111.686 183.861L115.147 162.99C115.151 162.962 115.161 162.936 115.175 162.912C115.19 162.889 115.209 162.868 115.231 162.852C115.254 162.836 115.28 162.824 115.307 162.818C115.334 162.812 115.362 162.812 115.389 162.816C115.417 162.821 115.443 162.831 115.466 162.845C115.49 162.86 115.51 162.879 115.527 162.902C115.543 162.924 115.554 162.95 115.561 162.977C115.567 163.004 115.568 163.032 115.563 163.059L112.148 183.651L153.679 178.437C153.734 178.43 153.79 178.445 153.834 178.479C153.878 178.514 153.907 178.564 153.914 178.619L156.421 197.939C156.428 197.992 156.414 198.047 156.382 198.09C156.35 198.134 156.303 198.164 156.25 198.173L99.221 208.476C99.2084 208.478 99.1957 208.48 99.183 208.48Z" fill="#0C0C0C"/>
<path d="M111.862 183.688L108.194 184.275L108.261 184.692L111.929 184.105L111.862 183.688Z" fill="#0C0C0C"/>
<path d="M396.191 233.374H271.388C266.203 233.374 262.001 237.575 262.001 242.757V285.473C262.001 290.655 266.203 294.856 271.388 294.856H396.191C401.375 294.856 405.578 290.655 405.578 285.473V242.757C405.578 237.575 401.375 233.374 396.191 233.374Z" fill="white"/>
<path opacity="0.4" d="M396.191 233.374H271.388C266.203 233.374 262.001 237.575 262.001 242.757V285.473C262.001 290.655 266.203 294.856 271.388 294.856H396.191C401.375 294.856 405.578 290.655 405.578 285.473V242.757C405.578 237.575 401.375 233.374 396.191 233.374Z" fill="#A72329"/>
<path d="M396.191 295.276H271.388C268.787 295.273 266.294 294.239 264.455 292.4C262.616 290.562 261.582 288.07 261.579 285.471V242.759C261.582 240.159 262.616 237.667 264.455 235.829C266.294 233.991 268.787 232.957 271.388 232.954H396.191C398.792 232.957 401.285 233.991 403.124 235.829C404.963 237.667 405.997 240.159 406 242.759V285.472C405.997 288.072 404.962 290.563 403.123 292.401C401.284 294.239 398.792 295.273 396.191 295.276ZM271.388 233.796C269.011 233.799 266.732 234.744 265.051 236.424C263.37 238.104 262.425 240.383 262.423 242.759V285.472C262.426 287.848 263.372 290.125 265.052 291.805C266.733 293.485 269.011 294.429 271.388 294.432H396.191C398.568 294.429 400.847 293.484 402.527 291.804C404.208 290.124 405.153 287.847 405.156 285.471V242.759C405.153 240.383 404.208 238.105 402.527 236.425C400.847 234.745 398.568 233.8 396.191 233.798L271.388 233.796Z" fill="#292A2E"/>
<path d="M274.876 281.756C274.762 281.756 274.65 281.725 274.553 281.667C274.455 281.609 274.375 281.526 274.32 281.426C274.266 281.327 274.239 281.214 274.243 281.1C274.247 280.987 274.282 280.877 274.343 280.781C274.48 280.57 288.273 259.488 310.193 259.488C321.646 259.488 328.586 263.906 335.298 268.177C341.51 272.132 347.378 275.868 356.458 275.868C375.022 275.868 389.977 248.917 390.126 248.645C390.206 248.498 390.342 248.389 390.503 248.341C390.664 248.294 390.838 248.313 390.985 248.393C391.132 248.474 391.242 248.61 391.289 248.771C391.336 248.932 391.317 249.105 391.237 249.252C390.614 250.391 375.766 277.135 356.458 277.135C347.009 277.135 340.99 273.303 334.617 269.247C328.059 265.071 321.278 260.754 310.193 260.754C288.974 260.754 275.542 281.258 275.409 281.466C275.351 281.555 275.272 281.628 275.179 281.679C275.086 281.729 274.982 281.756 274.876 281.756Z" fill="white"/>
<path d="M390.859 251.426C392.227 251.426 393.336 250.317 393.336 248.95C393.336 247.582 392.227 246.474 390.859 246.474C389.491 246.474 388.382 247.582 388.382 248.95C388.382 250.317 389.491 251.426 390.859 251.426Z" fill="white"/>
</g>
<defs>
<clipPath id="clip0_7_79">
<rect width="406" height="407" fill="white"/>
</clipPath>
</defs>
</svg>
